# 3ds Max Wavefront OBJ Exporter v0.97b - (c)2007 guruware
# File Created: 28.09.2015 08:31:35

#
# object Bed_Building
#

v  -0.8000 0.5000 0.6000
v  -0.8000 0.5000 -0.6000
v  0.8000 0.5000 -0.6000
v  0.8000 0.5000 0.6000
v  -0.8000 0.9000 0.6000
v  0.8000 0.9000 0.6000
v  0.8000 0.9000 -0.6000
v  -0.8000 0.9000 -0.6000
v  0.8000 0.5000 0.8000
v  0.8000 0.5000 -0.8000
v  1.0000 0.5000 -0.8000
v  1.0000 0.5000 0.8000
v  0.8000 1.2906 0.8000
v  1.0000 1.2906 0.8000
v  1.0000 1.5000 0.2667
v  0.8000 1.5000 0.2667
v  1.0000 1.5000 -0.2667
v  0.8000 1.5000 -0.2667
v  1.0000 1.2906 -0.8000
v  0.8000 1.2906 -0.8000
v  -1.0000 0.5000 0.8000
v  -1.0000 0.5000 -0.8000
v  -0.8000 0.5000 -0.8000
v  -0.8000 0.5000 0.8000
v  -1.0000 0.8906 0.8000
v  -0.8000 0.8906 0.8000
v  -0.8000 1.1000 0.2667
v  -1.0000 1.1000 0.2667
v  -0.8000 1.1000 -0.2667
v  -1.0000 1.1000 -0.2667
v  -0.8000 0.8906 -0.8000
v  -1.0000 0.8906 -0.8000
# 32 vertices

vn 0.0000 -1.0000 -0.0000
vn 0.0000 1.0000 -0.0000
vn 0.0000 0.0000 1.0000
vn 1.0000 0.0000 -0.0000
vn 0.0000 0.0000 -1.0000
vn -1.0000 0.0000 -0.0000
vn 0.0000 0.9308 0.3655
vn 0.0000 0.9825 0.1860
vn 0.0000 0.9825 -0.1860
vn 0.0000 0.9308 -0.3655
vn 0.0000 -0.0000 1.0000
# 11 vertex normals

vt 0.8996 0.2000 0.2500
vt 0.8996 0.8000 0.2500
vt 0.1004 0.8000 0.2500
vt 0.1004 0.2000 0.2500
vt 0.1004 0.2000 0.4500
vt 0.8996 0.2000 0.4500
vt 0.8996 0.8000 0.4500
vt 0.1004 0.8000 0.4500
vt 0.1004 0.2500 0.2000
vt 0.8996 0.2500 0.2000
vt 0.8996 0.4500 0.2000
vt 0.1004 0.4500 0.2000
vt 0.2000 0.2500 0.8996
vt 0.8000 0.2500 0.8996
vt 0.8000 0.4500 0.8996
vt 0.2000 0.4500 0.8996
vt 0.1004 0.2500 0.8000
vt 0.8996 0.2500 0.8000
vt 0.8996 0.4500 0.8000
vt 0.1004 0.4500 0.8000
vt 0.2000 0.2500 0.1004
vt 0.8000 0.2500 0.1004
vt 0.8000 0.4500 0.1004
vt 0.2000 0.4500 0.1004
vt 0.1004 0.1000 0.2500
vt 0.1004 0.9000 0.2500
vt 0.0005 0.9000 0.2500
vt 0.0005 0.1000 0.2500
vt 0.8996 0.1000 0.6453
vt 0.9995 0.1000 0.6453
vt 0.9995 0.3667 0.7500
vt 0.8996 0.3667 0.7500
vt 0.9995 0.6333 0.7500
vt 0.8996 0.6333 0.7500
vt 0.9995 0.9000 0.6453
vt 0.8996 0.9000 0.6453
vt 0.8996 0.2500 0.1000
vt 0.9995 0.2500 0.1000
vt 0.9995 0.6453 0.1000
vt 0.8996 0.6453 0.1000
vt 0.9000 0.2500 0.9995
vt 0.9000 0.6453 0.9995
vt 0.6333 0.7500 0.9995
vt 0.3667 0.7500 0.9995
vt 0.1000 0.2500 0.9995
vt 0.1000 0.6453 0.9995
vt 0.0005 0.2500 0.9000
vt 0.1004 0.2500 0.9000
vt 0.1004 0.6453 0.9000
vt 0.0005 0.6453 0.9000
vt 0.1000 0.2500 0.8996
vt 0.9000 0.2500 0.8996
vt 0.9000 0.6453 0.8996
vt 0.6333 0.7500 0.8996
vt 0.3667 0.7500 0.8996
vt 0.1000 0.6453 0.8996
vt 0.9995 0.1000 0.2500
vt 0.9995 0.9000 0.2500
vt 0.8996 0.9000 0.2500
vt 0.8996 0.1000 0.2500
vt 0.0005 0.1000 0.4453
vt 0.1004 0.1000 0.4453
vt 0.1004 0.3667 0.5500
vt 0.0005 0.3667 0.5500
vt 0.1004 0.6333 0.5500
vt 0.0005 0.6333 0.5500
vt 0.1004 0.9000 0.4453
vt 0.0005 0.9000 0.4453
vt 0.0005 0.2500 0.1000
vt 0.1004 0.2500 0.1000
vt 0.1004 0.4453 0.1000
vt 0.0005 0.4453 0.1000
vt 0.9000 0.2500 0.1004
vt 0.9000 0.4453 0.1004
vt 0.6333 0.5500 0.1004
vt 0.3667 0.5500 0.1004
vt 0.1000 0.2500 0.1004
vt 0.1000 0.4453 0.1004
vt 0.8996 0.2500 0.9000
vt 0.9995 0.2500 0.9000
vt 0.9995 0.4453 0.9000
vt 0.8996 0.4453 0.9000
vt 0.1000 0.2500 0.0005
vt 0.9000 0.2500 0.0005
vt 0.9000 0.4453 0.0005
vt 0.6333 0.5500 0.0005
vt 0.3667 0.5500 0.0005
vt 0.1000 0.4453 0.0005
# 88 texture coords

g Bed_Building
f 1/1/1 2/2/1 3/3/1 
f 3/3/1 4/4/1 1/1/1 
f 5/5/2 6/6/2 7/7/2 
f 7/7/2 8/8/2 5/5/2 
f 1/9/3 4/10/3 6/11/3 
f 6/11/3 5/12/3 1/9/3 
f 4/13/4 3/14/4 7/15/4 
f 7/15/4 6/16/4 4/13/4 
f 3/17/5 2/18/5 8/19/5 
f 8/19/5 7/20/5 3/17/5 
f 2/21/6 1/22/6 5/23/6 
f 5/23/6 8/24/6 2/21/6 
f 9/25/1 10/26/1 11/27/1 
f 11/27/1 12/28/1 9/25/1 
f 13/29/7 14/30/7 15/31/8 
f 15/31/8 16/32/8 13/29/7 
f 16/32/8 15/31/8 17/33/9 
f 17/33/9 18/34/9 16/32/8 
f 18/34/9 17/33/9 19/35/10 
f 19/35/10 20/36/10 18/34/9 
f 9/37/11 12/38/11 14/39/11 
f 14/39/11 13/40/11 9/37/11 
f 11/41/4 19/42/4 17/43/4 
f 11/41/4 17/43/4 15/44/4 
f 12/45/4 11/41/4 15/44/4 
f 12/45/4 15/44/4 14/46/4 
f 11/47/5 10/48/5 20/49/5 
f 20/49/5 19/50/5 11/47/5 
f 10/51/6 9/52/6 13/53/6 
f 10/51/6 13/53/6 16/54/6 
f 10/51/6 16/54/6 18/55/6 
f 10/51/6 18/55/6 20/56/6 
f 21/57/1 22/58/1 23/59/1 
f 23/59/1 24/60/1 21/57/1 
f 25/61/7 26/62/7 27/63/8 
f 27/63/8 28/64/8 25/61/7 
f 28/64/8 27/63/8 29/65/9 
f 29/65/9 30/66/9 28/64/8 
f 30/66/9 29/65/9 31/67/10 
f 31/67/10 32/68/10 30/66/9 
f 21/69/11 24/70/11 26/71/11 
f 26/71/11 25/72/11 21/69/11 
f 23/73/4 31/74/4 29/75/4 
f 23/73/4 29/75/4 27/76/4 
f 24/77/4 23/73/4 27/76/4 
f 24/77/4 27/76/4 26/78/4 
f 23/79/5 22/80/5 32/81/5 
f 32/81/5 31/82/5 23/79/5 
f 22/83/6 21/84/6 25/85/6 
f 22/83/6 25/85/6 28/86/6 
f 22/83/6 28/86/6 30/87/6 
f 22/83/6 30/87/6 32/88/6 
# 52 faces

