# 3ds Max Wavefront OBJ Exporter v0.97b - (c)2007 guruware
# File Created: 11.04.2016 21:29:22

#
# object Bed_Sheet_Building
#

v  -0.6000 0.5000 -0.8000
v  0.6000 0.5000 -0.8000
v  0.6000 0.5000 0.8000
v  -0.6000 0.5000 0.8000
v  -0.6000 0.9000 -0.8000
v  -0.6000 0.9000 0.8000
v  0.6000 0.9000 0.8000
v  0.6000 0.9000 -0.8000
v  -0.8000 0.5000 0.8000
v  0.8000 0.5000 0.8000
v  0.8000 0.5000 1.0000
v  -0.8000 0.5000 1.0000
v  -0.8000 1.2906 0.8000
v  -0.8000 1.2906 1.0000
v  -0.2667 1.5000 1.0000
v  -0.2667 1.5000 0.8000
v  0.2667 1.5000 1.0000
v  0.2667 1.5000 0.8000
v  0.8000 1.2906 1.0000
v  0.8000 1.2906 0.8000
v  -0.8000 0.5000 -1.0000
v  0.8000 0.5000 -1.0000
v  0.8000 0.5000 -0.8000
v  -0.8000 0.5000 -0.8000
v  -0.8000 0.8906 -1.0000
v  -0.8000 0.8906 -0.8000
v  -0.2667 1.1000 -0.8000
v  -0.2667 1.1000 -1.0000
v  0.2667 1.1000 -0.8000
v  0.2667 1.1000 -1.0000
v  0.8000 0.8906 -0.8000
v  0.8000 0.8906 -1.0000
# 32 vertices

vn 0.0000 -1.0000 -0.0000
vn 0.0000 1.0000 -0.0000
vn -1.0000 0.0000 -0.0000
vn 0.0000 0.0000 1.0000
vn 1.0000 0.0000 -0.0000
vn 0.0000 0.0000 -1.0000
vn -0.3655 0.9308 -0.0000
vn -0.1860 0.9826 -0.0000
vn 0.1860 0.9826 -0.0000
vn 0.3655 0.9308 -0.0000
# 10 vertex normals

vt 0.2756 0.3702 0.0000
vt 0.2756 0.5756 0.0000
vt 0.0020 0.5756 0.0000
vt 0.0020 0.3702 0.0000
vt 0.4640 0.0020 0.0000
vt 0.7376 0.0020 0.0000
vt 0.7376 0.2074 0.0000
vt 0.4640 0.2074 0.0000
vt 0.0020 0.6187 0.0000
vt 0.2756 0.6187 0.0000
vt 0.2756 0.6872 0.0000
vt 0.0020 0.6872 0.0000
vt 0.7807 0.0020 0.0000
vt 0.9860 0.0020 0.0000
vt 0.9860 0.0704 0.0000
vt 0.7807 0.0704 0.0000
vt 0.4640 0.2505 0.0000
vt 0.7376 0.2505 0.0000
vt 0.7376 0.3190 0.0000
vt 0.4640 0.3190 0.0000
vt 0.3187 0.7986 0.0000
vt 0.5240 0.7986 0.0000
vt 0.5240 0.8671 0.0000
vt 0.3187 0.8671 0.0000
vt 0.9095 0.9980 0.0000
vt 0.6356 0.9980 0.0000
vt 0.6356 0.9638 0.0000
vt 0.9095 0.9638 0.0000
vt 0.9162 0.7302 -0.0528
vt 0.9162 0.7652 -0.0528
vt 0.8226 0.7652 0.0528
vt 0.8226 0.7302 0.0528
vt 0.7291 0.7652 0.0528
vt 0.7291 0.7302 0.0528
vt 0.6356 0.7652 -0.0528
vt 0.6356 0.7302 -0.0528
vt 0.1373 0.7303 0.0000
vt 0.1373 0.7645 0.0000
vt 0.0020 0.7645 0.0000
vt 0.0020 0.7303 0.0000
vt 0.5925 0.3702 0.0000
vt 0.5925 0.5055 0.0000
vt 0.5012 0.5413 0.0000
vt 0.4100 0.5413 0.0000
vt 0.3187 0.3702 0.0000
vt 0.3187 0.5055 0.0000
vt 0.9161 0.1135 0.0000
vt 0.9161 0.1478 0.0000
vt 0.7807 0.1478 0.0000
vt 0.7807 0.1135 0.0000
vt 0.3187 0.5844 0.0000
vt 0.5925 0.5844 0.0000
vt 0.5925 0.7197 0.0000
vt 0.5012 0.7555 0.0000
vt 0.4100 0.7555 0.0000
vt 0.3187 0.7197 0.0000
vt 0.9095 0.9207 0.0000
vt 0.6356 0.9207 0.0000
vt 0.6356 0.8865 0.0000
vt 0.9095 0.8865 0.0000
vt 0.9162 0.8083 -0.0528
vt 0.9162 0.8434 -0.0528
vt 0.8226 0.8434 0.0528
vt 0.8226 0.8083 0.0528
vt 0.7291 0.8434 0.0528
vt 0.7291 0.8083 0.0528
vt 0.6356 0.8434 -0.0528
vt 0.6356 0.8083 -0.0528
vt 0.3856 0.9102 0.0000
vt 0.3856 0.9444 0.0000
vt 0.3187 0.9444 0.0000
vt 0.3187 0.9102 0.0000
vt 0.9093 0.3702 0.0000
vt 0.9093 0.4370 0.0000
vt 0.8181 0.4729 0.0000
vt 0.7269 0.4729 0.0000
vt 0.6356 0.3702 0.0000
vt 0.6356 0.4370 0.0000
vt 0.0689 0.8076 0.0000
vt 0.0689 0.8418 0.0000
vt 0.0020 0.8418 0.0000
vt 0.0020 0.8076 0.0000
vt 0.6356 0.5844 0.0000
vt 0.9093 0.5844 0.0000
vt 0.9093 0.6512 0.0000
vt 0.8181 0.6871 0.0000
vt 0.7269 0.6871 0.0000
vt 0.6356 0.6512 0.0000
# 88 texture coords

g Bed_Sheet_Building
f 1/1/1 2/2/1 3/3/1 
f 3/3/1 4/4/1 1/1/1 
f 5/5/2 6/6/2 7/7/2 
f 7/7/2 8/8/2 5/5/2 
f 1/9/3 4/10/3 6/11/3 
f 6/11/3 5/12/3 1/9/3 
f 4/13/4 3/14/4 7/15/4 
f 7/15/4 6/16/4 4/13/4 
f 3/17/5 2/18/5 8/19/5 
f 8/19/5 7/20/5 3/17/5 
f 2/21/6 1/22/6 5/23/6 
f 5/23/6 8/24/6 2/21/6 
f 9/25/1 10/26/1 11/27/1 
f 11/27/1 12/28/1 9/25/1 
f 13/29/7 14/30/7 15/31/8 
f 15/31/8 16/32/8 13/29/7 
f 16/32/8 15/31/8 17/33/9 
f 17/33/9 18/34/9 16/32/8 
f 18/34/9 17/33/9 19/35/10 
f 19/35/10 20/36/10 18/34/9 
f 9/37/3 12/38/3 14/39/3 
f 14/39/3 13/40/3 9/37/3 
f 11/41/4 19/42/4 17/43/4 
f 11/41/4 17/43/4 15/44/4 
f 12/45/4 11/41/4 15/44/4 
f 12/45/4 15/44/4 14/46/4 
f 11/47/5 10/48/5 20/49/5 
f 20/49/5 19/50/5 11/47/5 
f 10/51/6 9/52/6 13/53/6 
f 10/51/6 13/53/6 16/54/6 
f 10/51/6 16/54/6 18/55/6 
f 10/51/6 18/55/6 20/56/6 
f 21/57/1 22/58/1 23/59/1 
f 23/59/1 24/60/1 21/57/1 
f 25/61/7 26/62/7 27/63/8 
f 27/63/8 28/64/8 25/61/7 
f 28/64/8 27/63/8 29/65/9 
f 29/65/9 30/66/9 28/64/8 
f 30/66/9 29/65/9 31/67/10 
f 31/67/10 32/68/10 30/66/9 
f 21/69/3 24/70/3 26/71/3 
f 26/71/3 25/72/3 21/69/3 
f 23/73/4 31/74/4 29/75/4 
f 23/73/4 29/75/4 27/76/4 
f 24/77/4 23/73/4 27/76/4 
f 24/77/4 27/76/4 26/78/4 
f 23/79/5 22/80/5 32/81/5 
f 32/81/5 31/82/5 23/79/5 
f 22/83/6 21/84/6 25/85/6 
f 22/83/6 25/85/6 28/86/6 
f 22/83/6 28/86/6 30/87/6 
f 22/83/6 30/87/6 32/88/6 
# 52 faces

#
# object Bed_Sheet_Building_NoMat
#

v  -0.1636 1.4925 1.0587
v  -0.2113 1.5360 0.9916
v  -0.2280 1.5250 1.0712
v  0.1961 1.4126 1.0960
v  0.1851 1.5104 1.0398
v  -0.0031 1.4329 1.1258
v  0.2907 1.4344 1.1221
v  0.3519 1.3671 1.0801
v  0.2976 1.4794 1.0598
v  0.6735 0.8683 -0.1877
v  0.7743 0.8167 -0.1537
v  0.6586 0.8787 -0.3992
v  -0.7986 0.9269 -0.8524
v  -0.8683 0.8613 -0.9574
v  -0.8773 0.8686 -0.8565
v  -0.7956 0.9302 -0.9551
v  -0.8083 1.2078 1.0407
v  -0.7573 1.1222 1.0607
v  -0.5058 1.3921 1.0346
v  -0.8537 1.2859 0.9941
v  -0.3325 1.3814 1.0816
v  -0.1897 1.5058 1.1441
v  -0.3714 1.4754 1.0332
v  -0.1166 1.5414 0.9027
v  -0.1164 1.5240 1.0336
v  -0.2659 1.4454 1.1207
v  -0.2643 1.5347 1.0134
v  -0.1021 1.4558 1.1340
v  0.3302 1.5187 0.9809
v  0.2532 1.5409 0.9782
v  0.4428 1.3260 1.0706
v  0.7890 1.3403 0.9804
v  0.7567 1.1377 1.0761
v  0.8576 1.2944 0.9949
v  0.5185 1.4458 1.0008
v  0.5270 1.3262 1.1245
v  0.8789 1.3101 0.7836
v  0.5952 0.9435 0.0405
v  0.6170 0.9255 -0.2402
v  0.6339 0.9238 -0.3473
v  0.5891 0.9357 -0.6271
v  0.6076 0.9326 -0.4168
v  0.8374 0.7914 -0.3097
v  0.8492 0.8743 -1.0153
v  0.6774 0.9755 -1.0212
v  0.5671 1.0272 -0.8447
v  0.8638 0.9038 -0.9192
v  0.3559 1.0617 -0.6530
v  0.3410 1.1152 -0.9909
v  0.1928 1.1224 -1.0395
v  0.2712 1.1333 -1.0282
v  0.2906 1.0906 -1.0360
v  -0.2249 1.1403 -0.9770
v  -0.3246 1.1187 -0.9691
v  -0.3488 1.0865 -0.7348
v  -0.8537 0.7900 -0.5625
v  -0.8288 0.7448 -0.2554
v  -0.6930 0.8328 -0.5165
v  0.1855 0.9913 -0.0641
v  0.2769 0.9970 0.1083
v  0.1222 0.9908 -0.2538
v  -0.5104 1.0690 0.5109
v  -0.8288 0.7564 -0.0472
v  -0.8354 0.8036 0.1565
v  -0.8442 0.9424 0.4367
v  -0.8628 1.1397 0.6734
v  -0.5992 1.4056 0.9944
v  -0.1795 1.5411 0.8123
v  -0.3495 1.5100 0.7751
v  -0.8866 1.3015 0.7951
v  0.2120 1.1407 -0.7853
v  -0.1494 1.5370 0.9813
v  0.2937 1.5335 0.7939
v  0.1017 1.0089 -0.2002
v  0.1082 1.0532 -0.0338
v  0.5175 1.1239 0.5206
v  0.8372 1.0024 0.4908
v  0.8338 0.8733 0.2062
v  0.8371 0.8022 -0.1002
v  0.1215 1.0603 0.0412
v  0.4360 1.0767 0.2608
v  -0.8799 0.8601 -0.7552
v  -0.4030 1.0195 -0.6884
v  -0.3418 1.0334 -0.6026
v  0.0888 0.9989 -0.4932
v  -0.2369 0.9387 -0.3721
v  0.0332 1.0008 -0.2379
v  -0.1009 0.9398 -0.1016
v  0.0493 1.0186 -0.1150
v  -0.6254 0.9137 -0.4182
v  0.0720 1.3577 0.5638
v  -0.5033 1.4533 0.8568
v  -0.3720 1.4511 0.7326
v  -0.0623 1.0855 0.2472
v  0.0257 1.0859 0.0810
v  0.0126 1.1311 0.1821
v  0.0640 1.1668 0.2640
v  0.0147 1.1914 0.3127
v  0.1990 1.1732 0.4110
# 99 vertices

vn 0.2429 0.9110 0.3332
vn 0.0775 0.9834 0.1642
vn -0.1389 0.9212 0.3634
vn 0.0091 0.5809 0.8139
vn 0.0323 0.7779 0.6276
vn 0.0676 0.7538 0.6536
vn 0.2824 0.7627 0.5818
vn 0.5058 0.5320 0.6791
vn 0.3711 0.6789 0.6335
vn 0.5805 0.8140 -0.0196
vn 0.3858 0.9186 -0.0851
vn 0.5781 0.8157 0.0236
vn -0.4676 0.8740 0.1320
vn -0.6418 0.7651 -0.0520
vn -0.5939 0.8040 -0.0287
vn -0.5348 0.8449 0.0117
vn -0.1571 0.2892 0.9443
vn -0.1149 0.2010 0.9728
vn -0.2492 0.3985 0.8826
vn -0.3710 0.7520 0.5449
vn -0.4100 0.2643 0.8730
vn 0.0923 0.9691 0.2289
vn -0.4005 0.7370 0.5445
vn 0.0038 0.9987 0.0510
vn -0.0608 0.8648 0.4985
vn -0.5512 0.5372 0.6384
vn -0.2667 0.9350 0.2338
vn 0.3180 0.9283 0.1925
vn 0.3537 0.8674 0.3500
vn 0.1189 0.9595 0.2552
vn -0.0826 0.5972 0.7978
vn 0.4130 0.7803 0.4696
vn 0.3603 0.3508 0.8644
vn 0.3402 0.7053 0.6219
vn 0.2445 0.8539 0.4594
vn 0.0928 0.6401 0.7627
vn 0.3312 0.8455 -0.4189
vn 0.3162 0.9268 -0.2026
vn 0.4505 0.8907 0.0601
vn 0.6059 0.7950 -0.0298
vn 0.4135 0.8980 0.1507
vn 0.5868 0.8083 -0.0472
vn 0.3831 0.9207 0.0742
vn 0.3696 0.9070 -0.2017
vn 0.4645 0.8856 0.0005
vn 0.3926 0.9085 0.1428
vn 0.3401 0.9370 -0.0799
vn 0.2170 0.9493 0.2275
vn 0.3310 0.9023 -0.2762
vn -0.0251 0.9764 -0.2144
vn 0.1926 0.7871 -0.5859
vn 0.3402 0.4508 -0.8253
vn -0.0984 0.9886 0.1137
vn -0.2708 0.9575 0.0992
vn -0.2652 0.9163 0.3002
vn -0.3214 0.9038 0.2827
vn -0.6074 0.7943 -0.0165
vn -0.4820 0.8698 0.1057
vn 0.3405 0.9274 -0.1547
vn 0.2121 0.9246 -0.3166
vn 0.1147 0.9931 -0.0224
vn -0.2714 0.7784 -0.5661
vn -0.6276 0.7749 -0.0751
vn -0.4186 0.8683 -0.2663
vn -0.1986 0.8296 -0.5219
vn -0.2177 0.6294 -0.7460
vn -0.3466 0.8160 0.4626
vn -0.0866 0.9318 -0.3526
vn -0.2402 0.8494 -0.4700
vn -0.3635 0.8247 -0.4333
vn 0.1052 0.9650 0.2404
vn 0.0293 0.9767 0.2125
vn 0.1946 0.9175 -0.3470
vn 0.1853 0.9615 -0.2030
vn 0.1739 0.9486 -0.2644
vn 0.4451 0.7357 -0.5106
vn 0.2517 0.7971 -0.5489
vn 0.3910 0.8791 -0.2725
vn 0.3498 0.9230 -0.1605
vn 0.3651 0.9117 -0.1884
vn 0.2183 0.8708 -0.4405
vn -0.3917 0.8755 0.2829
vn -0.4627 0.8203 0.3362
vn -0.1713 0.9316 0.3207
vn -0.1038 0.9746 0.1984
vn -0.0853 0.9761 0.2000
vn -0.2651 0.9576 -0.1127
vn -0.2288 0.9611 -0.1548
vn -0.3502 0.9288 -0.1214
vn -0.4680 0.8820 -0.0547
vn 0.0544 0.7689 -0.6371
vn -0.3406 0.9348 -0.1003
vn -0.1377 0.6086 -0.7815
vn -0.4484 0.7924 -0.4136
vn -0.2488 0.8962 -0.3673
vn -0.2788 0.8584 -0.4305
vn 0.2160 0.8583 -0.4654
vn -0.4185 0.8073 -0.4161
vn 0.1911 0.7963 -0.5739
# 99 vertex normals

vt 0.4064 0.1432 0.0000
vt 0.3932 0.1343 0.0000
vt 0.4069 0.1306 0.0000
vt 0.4185 0.2063 0.0000
vt 0.3995 0.2025 0.0000
vt 0.4209 0.1713 0.0000
vt 0.4170 0.2237 0.0000
vt 0.4155 0.2411 0.0000
vt 0.4037 0.2227 0.0000
vt 0.1512 0.2870 0.0000
vt 0.1552 0.3068 0.0000
vt 0.1158 0.2824 0.0000
vt 0.0393 0.0194 0.0000
vt 0.0225 0.0020 0.0000
vt 0.0397 0.0026 0.0000
vt 0.0221 0.0190 0.0000
vt 0.4012 0.0153 0.0000
vt 0.4191 0.0156 0.0000
vt 0.4006 0.0759 0.0000
vt 0.3831 0.0156 0.0000
vt 0.4190 0.1008 0.0000
vt 0.4202 0.1359 0.0000
vt 0.4000 0.1034 0.0000
vt 0.3774 0.1498 0.0000
vt 0.3998 0.1511 0.0000
vt 0.4194 0.1183 0.0000
vt 0.3968 0.1250 0.0000
vt 0.4209 0.1535 0.0000
vt 0.3877 0.2268 0.0000
vt 0.3874 0.2131 0.0000
vt 0.4142 0.2584 0.0000
vt 0.3766 0.3110 0.0000
vt 0.4117 0.3271 0.0000
vt 0.3771 0.3254 0.0000
vt 0.3873 0.2621 0.0000
vt 0.4136 0.2756 0.0000
vt 0.3410 0.3223 0.0000
vt 0.1917 0.2725 0.0000
vt 0.1429 0.2722 0.0000
vt 0.1248 0.2741 0.0000
vt 0.0774 0.2666 0.0000
vt 0.1130 0.2695 0.0000
vt 0.1291 0.3171 0.0000
vt 0.0152 0.3144 0.0000
vt 0.0101 0.2810 0.0000
vt 0.0376 0.2575 0.0000
vt 0.0261 0.3111 0.0000
vt 0.0715 0.2216 0.0000
vt 0.0122 0.2185 0.0000
vt 0.0042 0.1957 0.0000
vt 0.0072 0.2072 0.0000
vt 0.0020 0.2129 0.0000
vt 0.0109 0.1232 0.0000
vt 0.0134 0.1052 0.0000
vt 0.0557 0.1015 0.0000
vt 0.0915 0.0036 0.0000
vt 0.1437 0.0055 0.0000
vt 0.0995 0.0323 0.0000
vt 0.1782 0.1992 0.0000
vt 0.2069 0.2174 0.0000
vt 0.1453 0.1860 0.0000
vt 0.2771 0.0714 0.0000
vt 0.1769 0.0047 0.0000
vt 0.2109 0.0055 0.0000
vt 0.2630 0.0105 0.0000
vt 0.3144 0.0150 0.0000
vt 0.3884 0.0632 0.0000
vt 0.3621 0.1395 0.0000
vt 0.3568 0.1117 0.0000
vt 0.3478 0.0156 0.0000
vt 0.0471 0.1958 0.0000
vt 0.3910 0.1450 0.0000
vt 0.3562 0.2178 0.0000
vt 0.1557 0.1819 0.0000
vt 0.1860 0.1827 0.0000
vt 0.2804 0.2659 0.0000
vt 0.2678 0.3227 0.0000
vt 0.2147 0.3209 0.0000
vt 0.1630 0.3186 0.0000
vt 0.1995 0.1865 0.0000
vt 0.2368 0.2457 0.0000
vt 0.0568 0.0028 0.0000
vt 0.0665 0.0892 0.0000
vt 0.0803 0.1016 0.0000
vt 0.1030 0.1767 0.0000
vt 0.1238 0.1189 0.0000
vt 0.1483 0.1695 0.0000
vt 0.1706 0.1425 0.0000
vt 0.1703 0.1722 0.0000
vt 0.1161 0.0514 0.0000
vt 0.3060 0.1802 0.0000
vt 0.3672 0.0835 0.0000
vt 0.3471 0.1065 0.0000
vt 0.2359 0.1512 0.0000
vt 0.2083 0.1698 0.0000
vt 0.2283 0.1691 0.0000
vt 0.2442 0.1783 0.0000
vt 0.2537 0.1694 0.0000
vt 0.2664 0.2042 0.0000
# 99 texture coords

g Bed_Sheet_Building_NoMat
f 33/89/11 34/90/12 35/91/13 
f 36/92/14 37/93/15 38/94/16 
f 39/95/17 40/96/18 41/97/19 
f 42/98/20 43/99/21 44/100/22 
f 45/101/23 46/102/24 47/103/25 
f 45/101/23 48/104/26 46/102/24 
f 49/105/27 50/106/28 51/107/29 
f 49/105/27 51/107/29 52/108/30 
f 50/106/28 53/109/31 51/107/29 
f 33/89/11 35/91/13 54/110/32 
f 55/111/33 51/107/29 53/109/31 
f 37/93/15 56/112/34 57/113/35 
f 35/91/13 58/114/36 54/110/32 
f 55/111/33 58/114/36 59/115/37 
f 33/89/11 37/93/15 57/113/35 
f 33/89/11 54/110/32 60/116/38 
f 60/116/38 38/94/16 33/89/11 
f 37/93/15 33/89/11 38/94/16 
f 36/92/14 39/95/17 41/97/19 
f 41/97/19 61/117/39 62/118/40 
f 61/117/39 40/96/18 63/119/41 
f 64/120/42 65/121/43 66/122/44 
f 67/123/45 61/117/39 63/119/41 
f 68/124/46 65/121/43 64/120/42 
f 64/120/42 67/123/45 68/124/46 
f 64/120/42 66/122/44 69/125/47 
f 67/123/45 64/120/42 69/125/47 
f 41/97/19 62/118/40 37/93/15 
f 37/93/15 36/92/14 41/97/19 
f 37/93/15 62/118/40 56/112/34 
f 70/126/48 42/98/20 71/127/49 
f 42/98/20 44/100/22 72/128/50 
f 72/128/50 71/127/49 42/98/20 
f 73/129/51 74/130/52 44/100/22 
f 44/100/22 74/130/52 72/128/50 
f 75/131/53 44/100/22 43/99/21 
f 76/132/54 77/133/55 78/134/56 
f 78/134/56 79/135/57 76/132/54 
f 71/127/49 74/130/52 80/136/58 
f 73/129/51 80/136/58 74/130/52 
f 81/137/59 78/134/56 77/133/55 
f 82/138/60 83/139/61 84/140/62 
f 85/141/63 86/142/64 87/143/65 
f 48/104/26 45/101/23 86/142/64 
f 88/144/66 89/145/67 90/146/68 
f 91/147/69 92/148/70 70/126/48 
f 70/126/48 93/149/71 91/147/69 
f 94/150/72 95/151/73 96/152/74 
f 96/152/74 97/153/75 94/150/72 
f 98/154/76 94/150/72 97/153/75 
f 52/108/30 51/107/29 99/155/77 
f 59/115/37 100/156/78 101/157/79 
f 52/108/30 99/155/77 102/158/80 
f 103/159/81 83/139/61 82/138/60 
f 34/90/12 100/156/78 59/115/37 
f 33/89/11 104/160/82 34/90/12 
f 35/91/13 34/90/12 59/115/37 
f 58/114/36 35/91/13 59/115/37 
f 99/155/77 51/107/29 55/111/33 
f 55/111/33 59/115/37 101/157/79 
f 104/160/82 33/89/11 57/113/35 
f 100/156/78 104/160/82 56/112/34 
f 56/112/34 62/118/40 105/161/83 
f 41/97/19 40/96/18 61/117/39 
f 61/117/39 105/161/83 62/118/40 
f 69/125/47 105/161/83 67/123/45 
f 91/147/69 106/162/84 107/163/85 
f 108/164/86 69/125/47 109/165/87 
f 108/164/86 109/165/87 110/166/88 
f 110/166/88 111/167/89 43/99/21 
f 81/137/59 83/139/61 103/159/81 
f 42/98/20 70/126/48 43/99/21 
f 110/166/88 43/99/21 70/126/48 
f 79/135/57 44/100/22 75/131/53 
f 73/129/51 44/100/22 79/135/57 
f 92/148/70 91/147/69 112/168/90 
f 71/127/49 80/136/58 93/149/71 
f 103/159/81 80/136/58 81/137/59 
f 71/127/49 72/128/50 74/130/52 
f 80/136/58 73/129/51 78/134/56 
f 113/169/91 108/164/86 70/126/48 
f 81/137/59 84/140/62 83/139/61 
f 103/159/81 82/138/60 85/141/63 
f 86/142/64 45/101/23 87/143/65 
f 85/141/63 87/143/65 103/159/81 
f 45/101/23 47/103/25 114/170/92 
f 115/171/93 116/172/94 87/143/65 
f 90/146/68 45/101/23 114/170/92 
f 88/144/66 90/146/68 114/170/92 
f 103/159/81 87/143/65 80/136/58 
f 117/173/95 87/143/65 118/174/96 
f 93/149/71 70/126/48 71/127/49 
f 119/175/97 93/149/71 117/173/95 
f 80/136/58 87/143/65 117/173/95 
f 120/176/98 121/177/99 119/175/97 
f 93/149/71 106/162/84 91/147/69 
f 70/126/48 92/148/70 113/169/91 
f 106/162/84 93/149/71 119/175/97 
f 107/163/85 121/177/99 120/176/98 
f 115/171/93 90/146/68 122/178/100 
f 90/146/68 89/145/67 122/178/100 
f 89/145/67 95/151/73 122/178/100 
f 100/156/78 105/161/83 123/179/101 
f 124/180/102 125/181/103 102/158/80 
f 94/150/72 125/181/103 100/156/78 
f 56/112/34 104/160/82 57/113/35 
f 102/158/80 125/181/103 94/150/72 
f 94/150/72 98/154/76 102/158/80 
f 124/180/102 101/157/79 125/181/103 
f 55/111/33 53/109/31 58/114/36 
f 124/180/102 102/158/80 99/155/77 
f 100/156/78 125/181/103 101/157/79 
f 124/180/102 99/155/77 55/111/33 
f 101/157/79 124/180/102 55/111/33 
f 34/90/12 104/160/82 100/156/78 
f 67/123/45 63/119/41 68/124/46 
f 67/123/45 105/161/83 61/117/39 
f 107/163/85 112/168/90 91/147/69 
f 120/176/98 126/182/104 127/183/105 
f 128/184/106 129/185/107 92/148/70 
f 112/168/90 128/184/106 92/148/70 
f 130/186/108 126/182/104 123/179/101 
f 130/186/108 128/184/106 126/182/104 
f 100/156/78 123/179/101 126/182/104 
f 131/187/109 105/161/83 113/169/91 
f 131/187/109 123/179/101 105/161/83 
f 129/185/107 131/187/109 92/148/70 
f 113/169/91 105/161/83 108/164/86 
f 131/187/109 113/169/91 92/148/70 
f 108/164/86 110/166/88 70/126/48 
f 81/137/59 77/133/55 84/140/62 
f 43/99/21 111/167/89 75/131/53 
f 78/134/56 81/137/59 80/136/58 
f 73/129/51 79/135/57 78/134/56 
f 128/184/106 112/168/90 127/183/105 
f 107/163/85 127/183/105 112/168/90 
f 128/184/106 127/183/105 126/182/104 
f 117/173/95 93/149/71 80/136/58 
f 116/172/94 122/178/100 118/174/96 
f 116/172/94 118/174/96 87/143/65 
f 115/171/93 45/101/23 90/146/68 
f 45/101/23 115/171/93 87/143/65 
f 115/171/93 122/178/100 116/172/94 
f 119/175/97 117/173/95 120/176/98 
f 117/173/95 118/174/96 120/176/98 
f 120/176/98 127/183/105 107/163/85 
f 106/162/84 119/175/97 121/177/99 
f 107/163/85 106/162/84 121/177/99 
f 122/178/100 95/151/73 94/150/72 
f 100/156/78 56/112/34 105/161/83 
f 122/178/100 94/150/72 120/176/98 
f 126/182/104 120/176/98 94/150/72 
f 69/125/47 108/164/86 105/161/83 
f 129/185/107 123/179/101 131/187/109 
f 129/185/107 128/184/106 130/186/108 
f 130/186/108 123/179/101 129/185/107 
f 118/174/96 122/178/100 120/176/98 
f 94/150/72 100/156/78 126/182/104 
# 158 faces

