# Blender v2.76 (sub 0) OBJ File: 'beehive_separates_tris.blend'
# www.blender.org
mtllib beehive.mtl
o Roof
v -0.810181 1.439695 0.381535
v -0.810181 1.439695 -0.381535
v -0.052182 1.439695 0.381535
v -0.052182 1.439695 -0.381535
v -0.810181 1.555904 0.000000
v -0.052182 1.555904 0.000000
v -0.810181 1.422905 0.376872
v -0.810181 1.422905 -0.376872
v -0.052182 1.422905 -0.376872
v -0.052182 1.422905 0.376872
v -0.052182 1.535998 0.000000
v -0.810181 1.535998 0.000000
vn 0.000000 0.956600 -0.291400
vn 0.000000 0.956600 0.291400
vn 1.000000 0.000000 0.000000
vn 0.000000 -0.267600 0.963500
vn 0.000000 -0.267600 -0.963500
vn 0.000000 -0.957800 -0.287400
vn 0.000000 -0.957800 0.287400
vn -1.000000 0.000000 0.000000
usemtl None
s off
f 4//1 2//1 5//1
f 6//2 5//2 1//2
f 6//3 11//3 4//3
f 1//4 7//4 10//4
f 4//5 9//5 8//5
f 12//6 11//6 10//6
f 8//7 9//7 11//7
f 5//8 12//8 1//8
f 6//1 4//1 5//1
f 3//2 6//2 1//2
f 6//3 3//3 11//3
f 9//3 4//3 11//3
f 3//3 10//3 11//3
f 3//4 1//4 10//4
f 2//5 4//5 8//5
f 7//6 12//6 10//6
f 12//7 8//7 11//7
f 5//8 2//8 12//8
f 7//8 1//8 12//8
f 2//8 8//8 12//8
o Stand
v -0.730876 0.657825 0.299695
v -0.748208 0.697638 0.317027
v -0.730876 0.657825 -0.299695
v -0.748208 0.697638 -0.317027
v -0.131487 0.657825 0.299695
v -0.050285 0.697638 0.317027
v -0.131487 0.657825 -0.299695
v -0.050285 0.697638 -0.317027
v 0.120140 0.648986 -0.317027
v 0.107455 0.611278 -0.317027
v 0.120140 0.648986 0.317027
v 0.107455 0.611278 0.317027
v -0.730876 0.657825 0.175846
v -0.607027 0.657825 -0.299695
v -0.131487 0.657825 -0.175846
v -0.255336 0.657825 0.299695
v -0.730876 0.657825 -0.175846
v -0.255336 0.657825 -0.299695
v -0.131487 0.657825 0.175846
v -0.607027 0.657825 0.299695
v -0.607027 0.657825 -0.175846
v -0.607027 0.657825 0.175846
v -0.255336 0.657825 0.175846
v -0.255336 0.657825 -0.175846
v -0.748208 0.657825 0.158513
v -0.748208 0.657825 0.317027
v -0.589695 0.657825 -0.317027
v -0.748208 0.657825 -0.317027
v -0.063831 0.657806 -0.317027
v -0.063831 0.657806 0.317027
v -0.748208 0.657825 -0.158513
v -0.272668 0.657825 -0.317027
v -0.063831 0.657806 0.158513
v -0.589695 0.657825 0.317027
v -0.776166 0.503852 0.221135
v -0.776166 0.503852 0.344984
v -0.652317 0.503852 -0.344984
v -0.776166 0.503852 -0.344984
v -0.086198 0.503852 -0.221135
v -0.086198 0.503852 -0.344984
v -0.210046 0.503852 0.344984
v -0.086198 0.503852 0.344984
v -0.776166 0.503852 -0.221135
v -0.210046 0.503852 -0.344984
v -0.086198 0.503852 0.221135
v -0.652317 0.503852 0.344984
v -0.652317 0.503852 -0.221135
v -0.652317 0.503852 0.221135
v -0.210046 0.503852 0.221135
v -0.210046 0.503852 -0.221135
vn -1.000000 0.000000 0.000000
vn 0.000000 0.000000 1.000000
vn -0.262100 -0.965000 0.000000
vn 0.959400 -0.282200 0.000000
vn 0.000000 1.000000 0.000000
vn 0.947800 -0.318900 0.000000
vn 0.274500 0.961600 0.000000
vn 0.000000 0.282200 -0.959400
vn 0.000000 -0.282200 0.959400
vn -0.959400 -0.282200 0.000000
vn 0.000000 0.000000 -1.000000
vn 0.000000 -1.000000 0.000000
vn -0.000300 -1.000000 0.000000
vn 0.959400 0.282200 0.000000
vn 0.000000 -0.282200 -0.959400
vn 0.000000 0.282200 0.959400
vn -0.959400 0.282200 0.000000
vn 0.000000 -1.000000 -0.001100
vn -0.000000 -1.000000 -0.000700
vn -0.000100 -1.000000 0.000700
usemtl None
s off
f 16//9 43//9 14//9
f 42//10 18//10 46//10
f 45//11 22//11 24//11
f 26//12 33//12 59//12
f 20//13 16//13 14//13
f 23//14 24//14 22//14
f 18//15 23//15 21//15
f 15//16 26//16 49//16
f 29//17 55//17 59//17
f 30//18 56//18 62//18
f 41//19 44//19 20//19
f 27//20 35//20 36//20
f 19//20 30//20 44//20
f 31//21 45//21 42//21
f 13//20 38//20 37//20
f 15//20 40//20 39//20
f 56//20 52//20 51//20
f 50//20 49//20 59//20
f 47//20 60//20 58//20
f 61//20 57//20 54//20
f 19//22 27//22 51//22
f 25//23 34//23 60//23
f 17//24 28//24 53//24
f 32//12 58//12 60//12
f 15//25 50//25 55//25
f 31//23 57//23 61//23
f 19//16 52//16 56//16
f 28//18 35//18 61//18
f 17//22 54//22 57//22
f 27//17 36//17 62//17
f 13//24 48//24 58//24
f 13//25 25//25 47//25
f 38//9 14//9 37//9
f 16//9 40//9 43//9
f 43//9 37//9 14//9
f 42//10 24//10 18//10
f 14//10 38//10 46//10
f 24//10 23//10 18//10
f 14//10 46//10 18//10
f 24//11 42//11 45//11
f 45//11 41//11 22//11
f 49//12 26//12 59//12
f 18//13 20//13 14//13
f 21//14 23//14 22//14
f 20//15 18//15 21//15
f 50//16 15//16 49//16
f 33//17 29//17 59//17
f 36//18 30//18 62//18
f 16//19 20//19 44//19
f 21//19 22//19 20//19
f 44//19 39//19 16//19
f 20//19 22//19 41//19
f 39//19 40//19 16//19
f 33//20 26//20 39//20
f 43//20 29//20 33//20
f 25//20 37//20 34//20
f 46//20 32//20 34//20
f 34//20 37//20 43//20
f 33//20 39//20 44//20
f 34//20 43//20 33//20
f 17//26 42//26 28//26
f 46//20 34//20 35//20
f 33//20 44//20 36//20
f 27//21 19//21 41//21
f 44//20 30//20 36//20
f 27//21 41//21 45//21
f 33//20 36//20 35//20
f 28//27 42//27 46//27
f 34//20 33//20 35//20
f 27//21 45//21 31//21
f 35//20 28//20 46//20
f 27//20 31//20 35//20
f 41//28 19//28 44//28
f 17//21 31//21 42//21
f 13//20 32//20 46//20
f 37//20 25//20 13//20
f 13//20 46//20 38//20
f 15//20 29//20 43//20
f 39//20 26//20 15//20
f 15//20 43//20 40//20
f 62//20 56//20 51//20
f 55//20 50//20 59//20
f 48//20 47//20 58//20
f 53//20 61//20 54//20
f 52//22 19//22 51//22
f 47//23 25//23 60//23
f 54//24 17//24 53//24
f 34//12 32//12 60//12
f 29//25 15//25 55//25
f 35//23 31//23 61//23
f 30//16 19//16 56//16
f 53//18 28//18 61//18
f 31//22 17//22 57//22
f 51//17 27//17 62//17
f 32//24 13//24 58//24
f 48//25 13//25 47//25
o Hive
v -0.721511 1.087000 0.290329
v -0.721511 1.087000 -0.290329
v -0.749683 0.927700 -0.318501
v -0.749683 0.927700 0.318501
v -0.140852 1.087000 0.290329
v -0.112680 0.927700 0.318501
v -0.140852 1.087000 -0.290329
v -0.112680 0.927700 -0.318501
v -0.722399 0.927700 0.291217
v -0.139965 0.927700 -0.291217
v -0.722399 0.927700 -0.291217
v -0.139965 0.927700 0.291217
v -0.749683 0.696350 -0.318501
v -0.749683 0.696350 0.318501
v -0.112680 0.696350 -0.318501
v -0.112680 0.696350 0.318501
v -0.121836 0.773979 0.268896
v -0.123701 0.789798 0.268896
v -0.123701 0.789798 -0.268896
v -0.121836 0.773979 -0.268896
v -0.115299 0.718558 -0.263559
v -0.112680 0.696350 -0.263559
v -0.112680 0.696350 0.254006
v -0.115299 0.718558 0.254006
v -0.685335 0.696350 -0.263559
v -0.685335 0.696350 0.254006
v -0.685335 0.920038 0.254006
v -0.126550 0.718558 0.254006
v -0.126550 0.718558 -0.263559
v -0.685335 0.920038 -0.263559
v -0.721971 1.402999 -0.290789
v -0.749683 1.246300 -0.318501
v -0.749683 1.246300 0.318501
v -0.721971 1.402999 0.290789
v -0.721971 1.402999 0.000000
v -0.750636 1.402999 0.000000
v -0.750636 1.402999 -0.319472
v -0.111728 1.402999 -0.319472
v -0.111728 1.402999 0.000000
v -0.140392 1.402999 0.000000
v -0.140392 1.402999 -0.290789
v -0.112680 1.246300 -0.318501
v -0.112680 1.246300 0.318501
v -0.140392 1.402999 0.290789
v -0.750636 1.402999 0.319472
v -0.111728 1.402999 0.319472
v -0.750636 1.535998 0.000000
v -0.750636 1.444122 -0.319472
v -0.111728 1.444122 -0.319472
v -0.111728 1.535998 0.000000
v -0.111728 1.505832 0.000000
v -0.111728 1.505832 -0.000000
v -0.111728 1.505402 -0.004372
v -0.111728 1.504127 -0.008575
v -0.111728 1.502056 -0.012449
v -0.111728 1.499269 -0.015845
v -0.111728 1.495874 -0.018632
v -0.111728 1.491999 -0.020702
v -0.111728 1.487796 -0.021977
v -0.111728 1.483424 -0.022408
v -0.111728 1.479053 -0.021977
v -0.111728 1.474849 -0.020702
v -0.111728 1.470975 -0.018632
v -0.111728 1.467579 -0.015845
v -0.111728 1.464793 -0.012449
v -0.111728 1.462722 -0.008575
v -0.111728 1.461447 -0.004372
v -0.111728 1.461016 -0.000000
v -0.111728 1.444122 0.319472
v -0.750636 1.444122 0.319472
v -0.111728 1.461447 0.004372
v -0.111728 1.462722 0.008575
v -0.111728 1.464793 0.012449
v -0.111728 1.467579 0.015845
v -0.111728 1.470975 0.018632
v -0.111728 1.474849 0.020702
v -0.111728 1.479053 0.021977
v -0.111728 1.483424 0.022408
v -0.111728 1.487796 0.021977
v -0.111728 1.492000 0.020702
v -0.111728 1.495874 0.018632
v -0.111728 1.499269 0.015845
v -0.111728 1.502056 0.012449
v -0.111728 1.504127 0.008575
v -0.111728 1.505402 0.004372
v -0.127342 1.505832 -0.000000
v -0.127342 1.505402 0.004372
v -0.127342 1.505402 -0.004372
v -0.127342 1.504127 -0.008575
v -0.127342 1.502056 -0.012449
v -0.127342 1.499269 -0.015845
v -0.127342 1.495874 -0.018632
v -0.127342 1.491999 -0.020702
v -0.127342 1.487796 -0.021977
v -0.127342 1.483424 -0.022408
v -0.127342 1.479053 -0.021977
v -0.127342 1.474849 -0.020702
v -0.127342 1.470975 -0.018632
v -0.127342 1.467579 -0.015845
v -0.127342 1.464793 -0.012449
v -0.127342 1.462722 -0.008575
v -0.127342 1.461447 -0.004372
v -0.127342 1.461016 -0.000000
v -0.127342 1.461447 0.004372
v -0.127342 1.462722 0.008575
v -0.127342 1.464793 0.012449
v -0.127342 1.467579 0.015845
v -0.127342 1.470975 0.018632
v -0.127342 1.474849 0.020702
v -0.127342 1.479053 0.021977
v -0.127342 1.483424 0.022408
v -0.127342 1.487796 0.021977
v -0.127342 1.492000 0.020702
v -0.127342 1.495874 0.018632
v -0.127342 1.499269 0.015845
v -0.127342 1.502056 0.012449
v -0.127342 1.504127 0.008575
v -0.127342 1.418227 0.241116
v -0.127342 1.522005 -0.000000
v -0.127342 1.418227 -0.241116
v -0.729018 1.418227 0.241116
v -0.729018 1.522005 -0.000000
v -0.729018 1.418227 -0.241116
v -0.721511 1.246300 0.290329
v -0.721511 1.246300 -0.290329
v -0.749683 1.087000 -0.318501
v -0.749683 1.087000 0.318501
v -0.140852 1.246300 0.290329
v -0.112680 1.087000 0.318501
v -0.140852 1.246300 -0.290329
v -0.112680 1.087000 -0.318501
v -0.070060 0.789798 -0.268896
v -0.070060 0.773979 -0.268896
v -0.070060 0.789798 0.268896
v -0.070060 0.773979 0.268896
vn -0.984700 0.174100 0.000000
vn 0.000000 0.174100 0.984700
vn 0.000000 1.000000 0.000000
vn 0.000000 0.174100 -0.984700
vn 0.000000 -1.000000 0.000000
vn 0.984700 0.174100 0.000000
vn -0.993100 0.117100 0.000000
vn 0.000000 0.117100 -0.993100
vn 0.000000 0.117100 0.993100
vn 0.993100 0.117100 0.000000
vn 0.000000 0.000000 -1.000000
vn 0.000000 0.000000 1.000000
vn 1.000000 0.000000 0.000000
vn -0.339200 -0.940700 0.000000
vn 0.000000 0.961000 -0.276400
vn 0.000000 -0.995200 -0.098000
vn 0.000000 -0.995200 0.098000
vn 0.000000 -0.957000 0.290200
vn 0.000000 -0.881900 0.471400
vn 0.000000 -0.773000 0.634400
vn 0.000000 -0.634400 0.773000
vn 0.000000 -0.471400 0.881900
vn 0.000000 -0.290300 0.956900
vn 0.000000 -0.098000 0.995200
vn 0.000000 0.098000 0.995200
vn 0.000000 0.290200 0.957000
vn 0.000000 0.471400 0.881900
vn 0.000000 0.634400 0.773000
vn 0.000000 0.773000 0.634400
vn 0.000000 0.881900 0.471400
vn 0.000000 0.956900 0.290300
vn 0.000000 0.995200 0.098000
vn 0.000000 0.961000 0.276400
vn 0.000000 0.995200 -0.098000
vn 0.000000 0.957000 -0.290200
vn 0.000000 0.881900 -0.471400
vn 0.000000 0.773000 -0.634400
vn 0.000000 0.634400 -0.773000
vn 0.000000 0.471400 -0.881900
vn 0.000000 0.290300 -0.956900
vn 0.000000 0.098000 -0.995200
vn 0.000000 -0.098000 -0.995200
vn 0.000000 -0.290300 -0.956900
vn 0.000000 -0.471400 -0.881900
vn 0.000000 -0.634400 -0.773000
vn 0.000000 -0.773000 -0.634400
vn 0.000000 -0.881900 -0.471500
vn 0.000000 -0.957000 -0.290200
vn -1.000000 0.000000 0.000000
vn 0.000000 -0.918500 -0.395300
vn 0.000000 -0.918500 0.395300
vn 0.079800 0.996800 0.000000
vn 0.000000 -0.881900 0.471500
vn 0.000000 0.290300 0.956900
vn 0.000000 0.957000 0.290200
vn 0.000000 0.956900 -0.290300
vn 0.000000 -0.881900 -0.471400
usemtl None
s off
f 64//29 65//29 66//29
f 63//30 66//30 68//30
f 69//31 64//31 63//31
f 64//32 69//32 70//32
f 70//33 72//33 73//33
f 67//34 68//34 70//34
f 74//33 70//33 68//33
f 75//35 76//35 71//35
f 77//36 75//36 73//36
f 71//37 76//37 78//37
f 74//38 80//38 81//38
f 83//38 82//38 86//38
f 75//33 87//33 88//33
f 88//39 89//39 90//39
f 86//33 90//33 91//33
f 84//40 83//40 91//40
f 87//41 92//41 89//41
f 90//42 89//42 92//42
f 194//39 195//39 82//39
f 196//31 194//31 81//31
f 196//41 197//41 195//41
f 195//33 197//33 79//33
f 79//40 197//40 196//40
f 95//29 96//29 97//29
f 100//33 103//33 93//33
f 104//32 94//32 93//32
f 94//33 104//33 105//33
f 95//30 105//30 106//30
f 96//33 106//33 108//33
f 111//39 100//39 99//39
f 121//41 122//41 111//41
f 104//34 103//34 102//34
f 132//40 107//40 108//40
f 138//41 139//41 131//41
f 111//43 110//43 109//43
f 114//44 147//44 149//44
f 115//45 114//45 148//45
f 116//46 115//46 150//46
f 117//47 116//47 151//47
f 118//48 117//48 152//48
f 119//49 118//49 153//49
f 120//50 119//50 154//50
f 121//51 120//51 155//51
f 122//52 121//52 156//52
f 123//53 122//53 157//53
f 124//54 123//54 158//54
f 125//55 124//55 159//55
f 126//56 125//56 160//56
f 127//57 126//57 161//57
f 128//58 127//58 162//58
f 129//59 128//59 163//59
f 130//60 129//60 164//60
f 132//61 131//61 112//61
f 166//62 133//62 130//62
f 134//63 133//63 166//63
f 135//64 134//64 167//64
f 136//65 135//65 168//65
f 137//66 136//66 169//66
f 138//67 137//67 170//67
f 139//68 138//68 171//68
f 140//69 139//69 172//69
f 141//70 140//70 173//70
f 142//71 141//71 174//71
f 143//72 142//72 175//72
f 144//73 143//73 176//73
f 145//74 144//74 177//74
f 146//75 145//75 178//75
f 147//76 146//76 179//76
f 181//77 148//77 149//77
f 165//77 164//77 182//77
f 180//78 183//78 184//78
f 185//79 182//79 181//79
f 180//31 182//31 185//31
f 184//41 183//41 185//41
f 187//29 188//29 189//29
f 186//30 189//30 191//30
f 192//31 187//31 186//31
f 187//32 192//32 193//32
f 188//33 193//33 191//33
f 190//34 191//34 193//34
f 109//77 98//77 132//77
f 63//29 64//29 66//29
f 67//30 63//30 68//30
f 67//31 69//31 63//31
f 65//32 64//32 70//32
f 73//33 71//33 66//33
f 65//33 70//33 73//33
f 73//33 66//33 65//33
f 69//34 67//34 70//34
f 66//33 71//33 68//33
f 74//33 72//33 70//33
f 68//33 71//33 74//33
f 73//35 75//35 71//35
f 72//36 77//36 73//36
f 74//37 71//37 78//37
f 74//38 78//38 80//38
f 81//38 82//38 72//38
f 78//38 79//38 80//38
f 81//38 72//38 74//38
f 83//38 84//38 77//38
f 78//38 85//38 86//38
f 83//38 77//38 82//38
f 79//38 78//38 86//38
f 77//38 72//38 82//38
f 79//38 86//38 82//38
f 75//33 77//33 87//33
f 85//33 78//33 88//33
f 77//33 84//33 87//33
f 88//33 78//33 76//33
f 76//33 75//33 88//33
f 90//39 86//39 85//39
f 85//39 88//39 90//39
f 83//33 86//33 91//33
f 91//40 92//40 87//40
f 87//40 84//40 91//40
f 88//41 87//41 89//41
f 91//42 90//42 92//42
f 81//39 194//39 82//39
f 80//31 196//31 81//31
f 194//41 196//41 195//41
f 82//33 195//33 79//33
f 80//40 79//40 196//40
f 97//29 93//29 94//29
f 94//29 95//29 97//29
f 97//33 98//33 93//33
f 100//33 101//33 103//33
f 93//33 98//33 99//33
f 101//33 102//33 103//33
f 93//33 99//33 100//33
f 103//32 104//32 93//32
f 95//33 94//33 105//33
f 96//30 95//30 106//30
f 107//33 98//33 96//33
f 102//33 101//33 106//33
f 98//33 97//33 96//33
f 106//33 101//33 108//33
f 108//33 107//33 96//33
f 110//39 111//39 99//39
f 100//41 111//41 124//41
f 112//41 113//41 114//41
f 129//41 130//41 101//41
f 112//41 114//41 115//41
f 128//41 129//41 101//41
f 112//41 115//41 116//41
f 127//41 128//41 101//41
f 112//41 116//41 117//41
f 126//41 127//41 101//41
f 112//41 117//41 118//41
f 125//41 126//41 101//41
f 112//41 118//41 119//41
f 124//41 125//41 100//41
f 112//41 119//41 111//41
f 123//41 124//41 111//41
f 111//41 119//41 120//41
f 125//41 101//41 100//41
f 111//41 120//41 121//41
f 122//41 123//41 111//41
f 102//34 106//34 105//34
f 105//34 104//34 102//34
f 131//40 132//40 108//40
f 112//41 131//41 143//41
f 147//41 113//41 112//41
f 101//41 130//41 133//41
f 146//41 147//41 112//41
f 101//41 133//41 134//41
f 145//41 146//41 112//41
f 101//41 134//41 135//41
f 144//41 145//41 112//41
f 101//41 135//41 136//41
f 143//41 144//41 112//41
f 101//41 136//41 137//41
f 142//41 143//41 131//41
f 101//41 137//41 108//41
f 142//41 131//41 141//41
f 137//41 138//41 108//41
f 141//41 131//41 140//41
f 108//41 138//41 131//41
f 140//41 131//41 139//41
f 112//43 111//43 109//43
f 149//44 148//44 114//44
f 114//80 113//80 147//80
f 150//45 115//45 148//45
f 151//46 116//46 150//46
f 152//81 117//81 151//81
f 153//48 118//48 152//48
f 154//49 119//49 153//49
f 155//50 120//50 154//50
f 156//51 121//51 155//51
f 157//52 122//52 156//52
f 158//53 123//53 157//53
f 159//82 124//82 158//82
f 160//55 125//55 159//55
f 161//56 126//56 160//56
f 162//57 127//57 161//57
f 163//58 128//58 162//58
f 164//83 129//83 163//83
f 165//60 130//60 164//60
f 109//61 132//61 112//61
f 165//62 166//62 130//62
f 167//84 134//84 166//84
f 168//64 135//64 167//64
f 169//65 136//65 168//65
f 170//66 137//66 169//66
f 171//67 138//67 170//67
f 172//68 139//68 171//68
f 173//69 140//69 172//69
f 174//70 141//70 173//70
f 175//71 142//71 174//71
f 176//72 143//72 175//72
f 177//73 144//73 176//73
f 178//74 145//74 177//74
f 179//85 146//85 178//85
f 149//76 147//76 179//76
f 182//77 156//77 155//77
f 174//77 173//77 180//77
f 182//77 155//77 154//77
f 175//77 174//77 180//77
f 181//77 182//77 154//77
f 176//77 175//77 180//77
f 181//77 154//77 153//77
f 176//77 180//77 181//77
f 181//77 153//77 152//77
f 177//77 176//77 181//77
f 181//77 152//77 151//77
f 178//77 177//77 181//77
f 181//77 151//77 150//77
f 179//77 178//77 181//77
f 181//77 150//77 148//77
f 149//77 179//77 181//77
f 180//77 173//77 172//77
f 157//77 156//77 182//77
f 180//77 172//77 171//77
f 158//77 157//77 182//77
f 180//77 171//77 170//77
f 159//77 158//77 182//77
f 180//77 170//77 169//77
f 160//77 159//77 182//77
f 180//77 169//77 168//77
f 161//77 160//77 182//77
f 180//77 168//77 167//77
f 162//77 161//77 182//77
f 180//77 167//77 166//77
f 163//77 162//77 182//77
f 182//77 180//77 165//77
f 164//77 163//77 182//77
f 180//77 166//77 165//77
f 181//78 180//78 184//78
f 184//79 185//79 181//79
f 183//31 180//31 185//31
f 186//29 187//29 189//29
f 190//30 186//30 191//30
f 190//31 192//31 186//31
f 188//32 187//32 193//32
f 189//33 188//33 191//33
f 192//34 190//34 193//34
f 107//77 132//77 98//77
f 109//77 110//77 98//77
f 99//77 98//77 110//77
o Handles
v -0.510807 0.883515 -0.296428
v -0.510807 0.883515 -0.326145
v -0.510807 0.843703 -0.326145
v -0.510807 0.843703 -0.301123
v -0.351556 0.883515 -0.296428
v -0.351556 0.883515 -0.326145
v -0.351556 0.843703 -0.326145
v -0.351556 0.843703 -0.301123
v -0.510807 0.843703 0.301123
v -0.510807 0.843703 0.326145
v -0.510807 0.883515 0.326145
v -0.510807 0.883515 0.296428
v -0.351556 0.843703 0.301123
v -0.351556 0.843703 0.326145
v -0.351556 0.883515 0.326145
v -0.351556 0.883515 0.296428
v -0.510807 1.042766 -0.298152
v -0.510807 1.042766 -0.326145
v -0.510807 1.002953 -0.326145
v -0.510807 1.002953 -0.305193
v -0.351556 1.042766 -0.298152
v -0.351556 1.042766 -0.326145
v -0.351556 1.002953 -0.326145
v -0.351556 1.002953 -0.305193
v -0.510807 1.002953 0.305193
v -0.510807 1.002953 0.326145
v -0.510807 1.042766 0.326145
v -0.510807 1.042766 0.298152
v -0.351556 1.002953 0.305193
v -0.351556 1.002953 0.326145
v -0.351556 1.042766 0.326145
v -0.351556 1.042766 0.298152
v -0.510807 1.202017 -0.298161
v -0.510807 1.202017 -0.326145
v -0.510807 1.162204 -0.326145
v -0.510807 1.162204 -0.305202
v -0.351556 1.202017 -0.298161
v -0.351556 1.202017 -0.326145
v -0.351556 1.162204 -0.326145
v -0.351556 1.162204 -0.305202
v -0.510807 1.162204 0.305202
v -0.510807 1.162204 0.326145
v -0.510807 1.202017 0.326145
v -0.510807 1.202017 0.298161
v -0.351556 1.162204 0.305202
v -0.351556 1.162204 0.326145
v -0.351556 1.202017 0.326145
v -0.351556 1.202017 0.298161
v -0.510807 1.361267 -0.298169
v -0.510807 1.361267 -0.326145
v -0.510807 1.321455 -0.326145
v -0.510807 1.321455 -0.305210
v -0.351556 1.361267 -0.298169
v -0.351556 1.361267 -0.326145
v -0.351556 1.321455 -0.326145
v -0.351556 1.321455 -0.305210
v -0.510807 1.321455 0.305210
v -0.510807 1.321455 0.326145
v -0.510807 1.361267 0.326145
v -0.510807 1.361267 0.298169
v -0.351556 1.321455 0.305210
v -0.351556 1.321455 0.326145
v -0.351556 1.361267 0.326145
v -0.351556 1.361267 0.298169
vn -1.000000 0.000000 0.000000
vn 0.000000 1.000000 0.000000
vn 0.000000 0.000000 -1.000000
vn 0.000000 -1.000000 0.000000
vn 1.000000 0.000000 0.000000
vn 0.000000 -0.117100 0.993100
vn 0.000000 0.000000 1.000000
vn 0.000000 -0.117100 -0.993100
vn 0.000000 -0.174100 0.984700
vn 0.000000 -0.174100 -0.984700
usemtl None
s off
f 199//86 200//86 201//86
f 203//87 199//87 198//87
f 203//88 204//88 200//88
f 200//89 204//89 205//89
f 205//90 204//90 203//90
f 198//91 201//91 205//91
f 206//86 207//86 208//86
f 211//89 207//89 206//89
f 207//92 211//92 212//92
f 208//87 212//87 213//87
f 212//90 211//90 210//90
f 206//93 209//93 213//93
f 215//86 216//86 217//86
f 219//87 215//87 214//87
f 219//88 220//88 216//88
f 216//89 220//89 221//89
f 221//90 220//90 219//90
f 214//94 217//94 221//94
f 222//86 223//86 224//86
f 227//89 223//89 222//89
f 223//92 227//92 228//92
f 224//87 228//87 229//87
f 228//90 227//90 226//90
f 225//95 229//95 226//95
f 231//86 232//86 233//86
f 235//87 231//87 230//87
f 235//88 236//88 232//88
f 232//89 236//89 237//89
f 237//90 236//90 235//90
f 230//94 233//94 237//94
f 238//86 239//86 240//86
f 243//89 239//89 238//89
f 239//92 243//92 244//92
f 240//87 244//87 245//87
f 244//90 243//90 242//90
f 242//95 238//95 241//95
f 247//86 248//86 249//86
f 251//87 247//87 246//87
f 251//88 252//88 248//88
f 248//89 252//89 253//89
f 253//90 252//90 251//90
f 246//94 249//94 253//94
f 254//86 255//86 256//86
f 259//89 255//89 254//89
f 255//92 259//92 260//92
f 256//87 260//87 261//87
f 260//90 259//90 258//90
f 254//95 257//95 261//95
f 198//86 199//86 201//86
f 202//87 203//87 198//87
f 199//88 203//88 200//88
f 201//89 200//89 205//89
f 202//90 205//90 203//90
f 202//91 198//91 205//91
f 209//86 206//86 208//86
f 210//89 211//89 206//89
f 208//92 207//92 212//92
f 209//87 208//87 213//87
f 213//90 212//90 210//90
f 210//93 206//93 213//93
f 214//86 215//86 217//86
f 218//87 219//87 214//87
f 215//88 219//88 216//88
f 217//89 216//89 221//89
f 218//90 221//90 219//90
f 218//94 214//94 221//94
f 225//86 222//86 224//86
f 226//89 227//89 222//89
f 224//92 223//92 228//92
f 225//87 224//87 229//87
f 229//90 228//90 226//90
f 222//95 225//95 226//95
f 230//86 231//86 233//86
f 234//87 235//87 230//87
f 231//88 235//88 232//88
f 233//89 232//89 237//89
f 234//90 237//90 235//90
f 234//94 230//94 237//94
f 241//86 238//86 240//86
f 242//89 243//89 238//89
f 240//92 239//92 244//92
f 241//87 240//87 245//87
f 245//90 244//90 242//90
f 245//95 242//95 241//95
f 246//86 247//86 249//86
f 250//87 251//87 246//87
f 247//88 251//88 248//88
f 249//89 248//89 253//89
f 250//90 253//90 251//90
f 250//94 246//94 253//94
f 257//86 254//86 256//86
f 258//89 259//89 254//89
f 256//92 255//92 260//92
f 257//87 256//87 261//87
f 261//90 260//90 258//90
f 258//95 254//95 261//95
