# 3ds Max Wavefront OBJ Exporter v0.97b - (c)2007 guruware
# File Created: 28.09.2015 08:39:59

#
# object Box_Building
#

v  -0.6000 0.5000 0.4000
v  -0.6000 0.5000 -0.4000
v  0.6000 0.5000 -0.4000
v  0.6000 0.5000 0.4000
v  -0.6000 0.8906 0.4000
v  0.6000 0.8906 0.4000
v  0.6000 1.1000 0.2000
v  -0.6000 1.1000 0.2000
v  0.6000 1.1000 -0.2000
v  -0.6000 1.1000 -0.2000
v  0.6000 0.8906 -0.4000
v  -0.6000 0.8906 -0.4000
# 12 vertices

vn 0.0000 -1.0000 -0.0000
vn 0.0000 0.6906 0.7232
vn 0.0000 0.9194 0.3933
vn 0.0000 0.9194 -0.3933
vn 0.0000 0.6906 -0.7232
vn 0.0000 0.0000 1.0000
vn 1.0000 0.0000 -0.0000
vn 0.0000 0.0000 -1.0000
vn -1.0000 0.0000 -0.0000
# 9 vertex normals

vt 0.7997 0.3000 0.2500
vt 0.7997 0.7000 0.2500
vt 0.2003 0.7000 0.2500
vt 0.2003 0.3000 0.2500
vt 0.2003 0.4453 0.3000
vt 0.7997 0.4453 0.3000
vt 0.7997 0.5500 0.4000
vt 0.2003 0.5500 0.4000
vt 0.2003 0.4000 0.5500
vt 0.7997 0.4000 0.5500
vt 0.7997 0.6000 0.5500
vt 0.2003 0.6000 0.5500
vt 0.7997 0.5500 0.6000
vt 0.2003 0.5500 0.6000
vt 0.2003 0.4453 0.7000
vt 0.7997 0.4453 0.7000
vt 0.2003 0.2500 0.3000
vt 0.7997 0.2500 0.3000
vt 0.7000 0.2500 0.7997
vt 0.7000 0.4453 0.7997
vt 0.6000 0.5500 0.7997
vt 0.4000 0.5500 0.7997
vt 0.3000 0.2500 0.7997
vt 0.3000 0.4453 0.7997
vt 0.2003 0.2500 0.7000
vt 0.7997 0.2500 0.7000
vt 0.3000 0.2500 0.2003
vt 0.7000 0.2500 0.2003
vt 0.7000 0.4453 0.2003
vt 0.6000 0.5500 0.2003
vt 0.4000 0.5500 0.2003
vt 0.3000 0.4453 0.2003
# 32 texture coords

g Box_Building
f 1/1/1 2/2/1 3/3/1 
f 3/3/1 4/4/1 1/1/1 
f 5/5/2 6/6/2 7/7/3 
f 7/7/3 8/8/3 5/5/2 
f 8/9/3 7/10/3 9/11/4 
f 9/11/4 10/12/4 8/9/3 
f 10/13/4 9/14/4 11/15/5 
f 11/15/5 12/16/5 10/13/4 
f 1/17/6 4/18/6 6/6/6 
f 6/6/6 5/5/6 1/17/6 
f 3/19/7 11/20/7 9/21/7 
f 3/19/7 9/21/7 7/22/7 
f 4/23/7 3/19/7 7/22/7 
f 4/23/7 7/22/7 6/24/7 
f 3/25/8 2/26/8 12/16/8 
f 12/16/8 11/15/8 3/25/8 
f 2/27/9 1/28/9 5/29/9 
f 2/27/9 5/29/9 8/30/9 
f 2/27/9 8/30/9 10/31/9 
f 2/27/9 10/31/9 12/32/9 
# 20 faces

