# 3ds Max Wavefront OBJ Exporter v0.97b - (c)2007 guruware
# File Created: 28.09.2015 08:20:54

#
# object Chair_Building
#

v  -0.3000 1.0000 -0.3000
v  0.3000 1.0000 -0.3000
v  0.3000 0.9000 -0.3000
v  -0.3000 0.9000 -0.3000
v  -0.3000 1.0000 0.3000
v  -0.3000 0.9000 0.3000
v  0.3000 1.0000 0.3000
v  0.3000 0.9000 0.3000
v  -0.1500 0.5000 0.1500
v  -0.1500 0.5000 -0.1500
v  0.1500 0.5000 -0.1500
v  0.1500 0.5000 0.1500
v  -0.1500 0.9000 0.1500
v  0.1500 0.9000 0.1500
v  0.1500 0.9000 -0.1500
v  -0.1500 0.9000 -0.1500
# 16 vertices

vn 0.0000 0.0000 -1.0000
vn -1.0000 0.0000 -0.0000
vn 0.0000 0.0000 1.0000
vn 1.0000 0.0000 -0.0000
vn 0.0000 -1.0000 -0.0000
vn 0.0000 1.0000 -0.0000
# 6 vertex normals

vt 0.6500 0.6250 0.6500
vt 0.3500 0.6250 0.6500
vt 0.3500 0.5750 0.6500
vt 0.6500 0.5750 0.6500
vt 0.6500 0.6250 0.3500
vt 0.3500 0.6250 0.3500
vt 0.3500 0.5750 0.3500
vt 0.6500 0.5750 0.3500
vt 0.6500 0.3500 0.5750
vt 0.6500 0.6500 0.5750
vt 0.3500 0.6500 0.5750
vt 0.3500 0.3500 0.5750
vt 0.6500 0.6500 0.6250
vt 0.3500 0.6500 0.6250
vt 0.3500 0.3500 0.6250
vt 0.6500 0.3500 0.6250
vt 0.5750 0.4250 0.3750
vt 0.5750 0.5750 0.3750
vt 0.4250 0.5750 0.3750
vt 0.4250 0.4250 0.3750
vt 0.4250 0.4250 0.5750
vt 0.5750 0.4250 0.5750
vt 0.5750 0.5750 0.5750
vt 0.4250 0.5750 0.5750
vt 0.4250 0.3750 0.4250
vt 0.5750 0.3750 0.4250
vt 0.5750 0.5750 0.4250
vt 0.4250 0.5750 0.4250
vt 0.4250 0.3750 0.5750
vt 0.5750 0.3750 0.5750
# 30 texture coords

g Chair_Building
f 1/1/1 2/2/1 3/3/1 
f 3/3/1 4/4/1 1/1/1 
f 5/5/2 1/6/2 4/7/2 
f 4/7/2 6/8/2 5/5/2 
f 7/5/3 5/6/3 6/7/3 
f 6/7/3 8/8/3 7/5/3 
f 2/1/4 7/2/4 8/3/4 
f 8/3/4 3/4/4 2/1/4 
f 6/9/5 4/10/5 3/11/5 
f 3/11/5 8/12/5 6/9/5 
f 2/13/6 1/14/6 5/15/6 
f 5/15/6 7/16/6 2/13/6 
f 9/17/5 10/18/5 11/19/5 
f 11/19/5 12/20/5 9/17/5 
f 13/21/6 14/22/6 15/23/6 
f 15/23/6 16/24/6 13/21/6 
f 9/25/3 12/26/3 14/27/3 
f 14/27/3 13/28/3 9/25/3 
f 12/29/4 11/30/4 15/23/4 
f 15/23/4 14/24/4 12/29/4 
f 11/29/1 10/30/1 16/23/1 
f 16/23/1 15/24/1 11/29/1 
f 10/25/2 9/26/2 13/27/2 
f 13/27/2 16/28/2 10/25/2 
# 24 faces

