# 3ds Max Wavefront OBJ Exporter v0.97b - (c)2007 guruware
# File Created: 06.01.2017 22:48:27

#
# object Coffin_Building
#

v  0.5132 0.5000 -0.4000
v  0.2566 0.5000 -0.9289
v  0.2566 1.0000 -0.9289
v  0.5132 1.0000 -0.4000
v  -0.2566 0.5000 -0.9289
v  -0.2566 1.0000 -0.9289
v  -0.5132 0.5000 -0.4000
v  -0.5132 1.0000 -0.4000
v  -0.2566 0.5000 0.9235
v  -0.2566 1.0000 0.9235
v  0.2566 0.5000 0.9235
v  0.2566 1.0000 0.9235
# 12 vertices

vn 0.8997 0.0000 -0.4365
vn -0.0000 0.0000 -1.0000
vn -0.8997 0.0000 -0.4365
vn -0.9817 0.0000 0.1903
vn 0.0000 0.0000 1.0000
vn 0.9817 0.0000 0.1903
vn 0.0000 -1.0000 -0.0000
vn 0.0000 1.0000 -0.0000
# 8 vertex normals

vt 0.6987 0.3750 0.7566
vt 0.9631 0.3750 0.6283
vt 0.9631 0.6250 0.6283
vt 0.6987 0.6250 0.7566
vt 0.3717 0.3750 0.9631
vt 0.6283 0.3750 0.9631
vt 0.6283 0.6250 0.9631
vt 0.3717 0.6250 0.9631
vt 0.0369 0.3750 0.3717
vt 0.3013 0.3750 0.2434
vt 0.3013 0.6250 0.2434
vt 0.0369 0.6250 0.3717
vt 0.9631 0.3750 0.3717
vt 0.9631 0.6250 0.3717
vt 0.3717 0.3750 0.0369
vt 0.6283 0.3750 0.0369
vt 0.6283 0.6250 0.0369
vt 0.3717 0.6250 0.0369
vt 0.0369 0.3750 0.6283
vt 0.0369 0.6250 0.6283
vt 0.7566 0.6987 0.3750
vt 0.3717 0.0369 0.3750
vt 0.6283 0.0369 0.3750
vt 0.2434 0.6987 0.3750
vt 0.6283 0.9631 0.3750
vt 0.3717 0.9631 0.3750
vt 0.2434 0.6987 0.6250
vt 0.3717 0.0369 0.6250
vt 0.6283 0.0369 0.6250
vt 0.7566 0.6987 0.6250
vt 0.3717 0.9631 0.6250
vt 0.6283 0.9631 0.6250
# 32 texture coords

g Coffin_Building
s 1
f 1/1/1 2/2/1 3/3/1 
f 1/1/1 3/3/1 4/4/1 
s 4
f 2/5/2 5/6/2 6/7/2 
f 2/5/2 6/7/2 3/8/2 
s 2
f 5/9/3 7/10/3 8/11/3 
f 5/9/3 8/11/3 6/12/3 
s 4
f 7/10/4 9/13/4 10/14/4 
f 7/10/4 10/14/4 8/11/4 
s 2
f 9/15/5 11/16/5 12/17/5 
f 9/15/5 12/17/5 10/18/5 
s 4
f 11/19/6 1/1/6 4/4/6 
f 11/19/6 4/4/6 12/20/6 
s 16
f 7/21/7 11/22/7 9/23/7 
f 7/21/7 1/24/7 11/22/7 
f 5/25/7 1/24/7 7/21/7 
f 5/25/7 2/26/7 1/24/7 
f 8/27/8 10/28/8 12/29/8 
f 8/27/8 12/29/8 4/30/8 
f 6/31/8 8/27/8 4/30/8 
f 6/31/8 4/30/8 3/32/8 
# 20 faces

