# 3ds Max Wavefront OBJ Exporter v0.97b - (c)2007 guruware
# File Created: 29.10.2015 23:18:30

#
# object Furnace_Oven_Building
#

v  -1.0000 0.5000 1.0000
v  -1.0000 0.5000 -1.0000
v  1.0000 0.5000 -1.0000
v  1.0000 0.5000 1.0000
v  -0.2500 2.5000 0.2500
v  0.2500 2.5000 0.2500
v  0.2500 2.5000 -0.2500
v  -0.2500 2.5000 -0.2500
v  1.0000 1.5000 1.0000
v  -1.0000 1.5000 1.0000
v  0.7500 2.0000 0.7500
v  -0.7500 2.0000 0.7500
v  0.5000 3.0000 0.5000
v  -0.5000 3.0000 0.5000
v  1.0000 1.5000 -1.0000
v  0.7500 2.0000 -0.7500
v  -1.0000 1.5000 -1.0000
v  -0.7500 2.0000 -0.7500
v  -0.5000 3.0000 -0.5000
v  0.5000 3.0000 -0.5000
v  0.2500 3.0000 0.2500
v  -0.2500 3.0000 0.2500
v  0.2500 3.0000 -0.2500
v  -0.2500 3.0000 -0.2500
# 24 vertices

vn 0.0000 -1.0000 -0.0000
vn 0.0000 1.0000 -0.0000
vn 0.0000 0.0000 1.0000
vn 0.0000 0.4472 0.8944
vn 0.0000 0.2425 0.9701
vn 1.0000 0.0000 -0.0000
vn 1.0000 -0.0000 -0.0000
vn 0.8944 0.4472 -0.0000
vn -0.0000 0.0000 -1.0000
vn -0.0000 0.4472 -0.8944
vn -0.0000 0.2425 -0.9701
vn -1.0000 0.0000 0.0000
vn -0.8944 0.4472 0.0000
vn 0.9701 0.2425 -0.0000
vn -0.9701 0.2425 0.0000
# 15 vertex normals

vt 0.0110 0.9920 0.0000
vt 0.0110 0.8362 0.0000
vt 0.1668 0.8362 0.0000
vt 0.1668 0.9920 0.0000
vt 0.6931 0.8267 0.0000
vt 0.5609 0.8267 0.0000
vt 0.5609 0.6945 0.0000
vt 0.6931 0.6945 0.0000
vt 0.4671 0.6805 1.0000
vt 0.9959 0.6805 1.0000
vt 0.9959 0.4161 1.0000
vt 0.4671 0.4161 1.0000
vt 0.9298 0.2683 1.0000
vt 0.5332 0.2683 1.0000
vt 0.8637 -0.0042 1.0000
vt 0.5993 -0.0042 1.0000
vt 0.5306 0.0017 0.0000
vt 0.5306 0.2661 0.0000
vt 0.0018 0.2661 0.0000
vt 0.0018 0.0017 0.0000
vt 0.4645 0.4139 0.0000
vt 0.0679 0.4139 0.0000
vt 0.9959 0.6805 2.0000
vt 0.9959 0.4156 2.0000
vt 0.4660 0.4156 2.0000
vt 0.4660 0.6805 2.0000
vt 0.9296 0.2680 2.0000
vt 0.5322 0.2680 2.0000
vt 0.8630 -0.0042 2.0000
vt 0.5980 -0.0042 2.0000
vt 0.4671 0.6805 0.0000
vt 0.4671 0.4161 0.0000
vt 0.9959 0.4161 0.0000
vt 0.9959 0.6805 0.0000
vt 0.5332 0.2683 0.0000
vt 0.9298 0.2683 0.0000
vt 0.7155 0.6984 0.0000
vt 0.9799 0.6984 0.0000
vt 0.9138 0.7645 0.0000
vt 0.7816 0.7645 0.0000
vt 0.9799 0.9628 0.0000
vt 0.9138 0.8967 0.0000
vt 0.7155 0.9628 0.0000
vt 0.7816 0.8967 0.0000
vt 0.4118 0.8317 0.0000
vt 0.2796 0.8317 0.0000
vt 0.2796 0.6995 0.0000
vt 0.4118 0.6995 0.0000
vt 0.1474 0.8317 0.0000
vt 0.1474 0.6995 0.0000
vt 0.0152 0.8317 0.0000
vt 0.0152 0.6995 0.0000
vt 0.5440 0.8317 0.0000
vt 0.5440 0.6995 0.0000
vt 0.3984 0.6864 0.0000
vt 0.1340 0.6864 0.0000
vt 0.5993 -0.0042 0.0000
vt 0.8637 -0.0042 0.0000
# 58 texture coords

g Furnace_Oven_Building
f 1/1/1 2/2/1 3/3/1 
f 3/3/1 4/4/1 1/1/1 
f 5/5/2 6/6/2 7/7/2 
f 7/7/2 8/8/2 5/5/2 
f 1/9/3 4/10/3 9/11/3 
f 9/11/3 10/12/3 1/9/3 
f 10/12/4 9/11/4 11/13/4 
f 11/13/4 12/14/4 10/12/4 
f 12/14/5 11/13/5 13/15/5 
f 13/15/5 14/16/5 12/14/5 
f 3/17/6 15/18/6 9/19/7 
f 9/19/7 4/20/7 3/17/6 
f 15/18/8 16/21/8 11/22/8 
f 11/22/8 9/19/8 15/18/8 
f 2/23/9 17/24/9 15/25/9 
f 15/25/9 3/26/9 2/23/9 
f 17/24/10 18/27/10 16/28/10 
f 16/28/10 15/25/10 17/24/10 
f 18/27/11 19/29/11 20/30/11 
f 20/30/11 16/28/11 18/27/11 
f 1/31/12 10/32/12 17/33/12 
f 17/33/12 2/34/12 1/31/12 
f 10/32/13 12/35/13 18/36/13 
f 18/36/13 17/33/13 10/32/13 
f 14/37/2 13/38/2 21/39/2 
f 21/39/2 22/40/2 14/37/2 
f 13/38/2 20/41/2 23/42/2 
f 23/42/2 21/39/2 13/38/2 
f 20/41/2 19/43/2 24/44/2 
f 24/44/2 23/42/2 20/41/2 
f 19/43/2 14/37/2 22/40/2 
f 22/40/2 24/44/2 19/43/2 
f 22/45/9 21/46/9 6/47/9 
f 6/47/9 5/48/9 22/45/9 
f 21/46/12 23/49/12 7/50/12 
f 7/50/12 6/47/12 21/46/12 
f 23/49/3 24/51/3 8/52/3 
f 8/52/3 7/50/3 23/49/3 
f 24/53/6 22/45/6 5/48/6 
f 5/48/6 8/54/6 24/53/6 
f 16/21/14 20/55/14 13/56/14 
f 13/56/14 11/22/14 16/21/14 
f 12/35/15 14/57/15 19/58/15 
f 19/58/15 18/36/15 12/35/15 
# 44 faces

