# 3ds Max Wavefront OBJ Exporter v0.97b - (c)2007 guruware
# File Created: 01.11.2016 11:47:39

mtllib Hatch.mtl

#
# object Hatch_Building
#

v  -1.0000 0.5000 1.0000
v  -1.0000 0.5000 -1.0000
v  0.0000 0.5000 -1.0000
v  0.0000 0.5000 1.0000
v  -0.7429 0.6500 -1.0000
v  -1.0000 0.6500 -1.0000
v  -1.0000 0.6500 1.0000
v  -0.7429 0.6500 1.0000
v  -0.4571 0.7000 -1.0000
v  -0.7429 0.7000 -1.0000
v  -0.7429 0.7000 1.0000
v  -0.4571 0.7000 1.0000
v  0.0000 0.6500 -1.0000
v  -0.4571 0.6500 -1.0000
v  -0.4571 0.6500 1.0000
v  0.0000 0.6500 1.0000
v  1.0000 0.5000 1.0000
v  1.0000 0.5000 -1.0000
v  0.7429 0.6500 -1.0000
v  0.7429 0.6500 1.0000
v  1.0000 0.6500 1.0000
v  1.0000 0.6500 -1.0000
v  0.4571 0.7000 -1.0000
v  0.4571 0.7000 1.0000
v  0.7429 0.7000 1.0000
v  0.7429 0.7000 -1.0000
v  0.4571 0.6500 1.0000
v  0.4571 0.6500 -1.0000
# 28 vertices

vn 0.0000 -1.0000 -0.0000
vn 0.0000 1.0000 -0.0000
vn -1.0000 0.0000 -0.0000
vn 0.0000 0.0000 -1.0000
vn 1.0000 0.0000 -0.0000
vn 0.0000 0.0000 1.0000
# 6 vertex normals

vt 0.3802 0.7555 0.0000
vt 0.3802 0.0050 0.0000
vt 0.0050 0.0050 0.0000
vt 0.0050 0.7555 0.0000
vt 0.6922 0.7554 0.0000
vt 0.7887 0.7555 0.0000
vt 0.7887 0.0050 0.0000
vt 0.6922 0.0050 0.0000
vt 0.8011 0.7555 0.0000
vt 0.8575 0.7555 0.0000
vt 0.8575 0.0050 0.0000
vt 0.8011 0.0050 0.0000
vt 0.5725 0.7555 0.0000
vt 0.6797 0.7555 0.0000
vt 0.6797 0.0050 0.0000
vt 0.5725 0.0050 0.0000
vt 0.3927 0.7555 0.0000
vt 0.5642 0.7554 0.0000
vt 0.5642 0.0050 0.0000
vt 0.3927 0.0050 0.0000
vt 0.8845 0.4850 0.0000
vt 0.8658 0.4850 0.0000
vt 0.8658 0.5923 0.0000
vt 0.8845 0.5923 0.0000
vt 0.8845 0.7638 0.0000
vt 0.9409 0.7638 0.0000
vt 0.9409 0.3885 0.0000
vt 0.8845 0.3885 0.0000
vt 0.9679 0.0050 0.0000
vt 0.9492 0.0050 0.0000
vt 0.9492 0.7555 0.0000
vt 0.9679 0.7554 0.0000
vt 0.8845 0.1765 0.0000
vt 0.8658 0.1765 0.0000
vt 0.8658 0.2837 0.0000
vt 0.8845 0.2837 0.0000
vt 0.8845 0.3802 0.0000
vt 0.9409 0.3802 0.0000
vt 0.9409 0.0050 0.0000
vt 0.8845 0.0050 0.0000
vt 0.9950 0.0050 0.0000
vt 0.9762 0.0050 0.0000
vt 0.9762 0.7555 0.0000
vt 0.9950 0.7554 0.0000
# 44 texture coords

g Hatch_Building
usemtl Material__67
s 2
f 1/1/1 2/2/1 3/3/1 4/4/1 
s 4
f 5/5/2 6/6/2 7/7/2 8/8/2 
s 64
f 6/9/3 2/10/3 1/11/3 7/12/3 
s 4
f 9/13/2 10/14/2 11/15/2 12/16/2 
f 13/17/2 14/18/2 15/19/2 16/20/2 
s 8
f 5/21/4 10/22/4 9/23/4 14/24/4 
f 14/24/4 13/25/4 3/26/4 5/21/4 
f 3/26/4 2/27/4 6/28/4 5/21/4 
s off
f 14/29/5 9/30/5 12/31/5 15/32/5 
s 32
f 15/33/6 12/34/6 11/35/6 8/36/6 
f 8/36/6 7/37/6 1/38/6 15/33/6 
f 1/38/6 4/39/6 16/40/6 15/33/6 
s off
f 8/41/3 11/42/3 10/43/3 5/44/3 
s 2
f 17/1/1 4/4/1 3/3/1 18/2/1 
s 4
f 19/5/2 20/8/2 21/7/2 22/6/2 
s 64
f 22/9/5 21/12/5 17/11/5 18/10/5 
s 4
f 23/13/2 24/16/2 25/15/2 26/14/2 
f 13/17/2 16/20/2 27/19/2 28/18/2 
s 8
f 22/28/4 18/27/4 3/26/4 19/21/4 
f 3/26/4 13/25/4 28/24/4 19/21/4 
f 19/21/4 28/24/4 23/23/4 26/22/4 
s off
f 28/29/3 27/32/3 24/31/3 23/30/3 
s 32
f 16/40/6 4/39/6 17/38/6 27/33/6 
f 17/38/6 21/37/6 20/36/6 27/33/6 
f 27/33/6 20/36/6 25/35/6 24/34/6 
s off
f 20/41/5 19/44/5 26/43/5 25/42/5 
# 26 polygons

#
# object Hatch_Building_NoMatCutout
#

v  -1.0006 0.4994 1.0006
v  -1.0006 0.4994 -1.0006
v  0.0000 0.4992 -1.0008
v  -0.0000 0.4992 1.0008
v  -0.7435 0.6506 -0.9994
v  -1.0006 0.6506 -1.0006
v  -1.0006 0.6506 1.0006
v  -0.7435 0.6506 0.9994
v  -0.4565 0.7006 -1.0006
v  -0.7435 0.7006 -1.0006
v  -0.7435 0.7006 1.0006
v  -0.4565 0.7006 1.0006
v  0.0000 0.6508 -1.0008
v  -0.4565 0.6506 -0.9994
v  -0.4565 0.6506 0.9994
v  0.0000 0.6508 1.0008
v  1.0006 0.4994 1.0006
v  1.0006 0.4994 -1.0006
v  0.7435 0.6506 -0.9994
v  0.7435 0.6506 0.9994
v  1.0006 0.6506 1.0006
v  1.0006 0.6506 -1.0006
v  0.4565 0.7006 -1.0006
v  0.4565 0.7006 1.0006
v  0.7435 0.7006 1.0006
v  0.7435 0.7006 -1.0006
v  0.4565 0.6506 0.9994
v  0.4565 0.6506 -0.9994
# 28 vertices

vn -0.0001 -1.0000 -0.0000
vn 0.0000 -1.0000 0.0000
vn 0.0000 -1.0000 -0.0000
vn -0.0000 1.0000 -0.0000
vn -1.0000 0.0000 -0.0000
vn 0.0000 1.0000 -0.0000
vn -0.0003 1.0000 -0.0000
vn 0.0031 0.0129 -0.9999
vn 0.0000 -0.0254 -0.9997
vn -0.0002 -0.0029 -1.0000
vn 0.0000 0.0000 -1.0000
vn -0.0000 0.0018 -1.0000
vn -0.0001 -0.0000 -1.0000
vn 0.0003 0.0032 -1.0000
vn 1.0000 0.0000 -0.0000
vn -0.0019 0.0039 1.0000
vn 0.0000 -0.0254 0.9997
vn 0.0006 -0.0038 1.0000
vn 0.0049 -0.0000 1.0000
vn 0.0030 0.0029 1.0000
vn 0.0000 0.0000 1.0000
vn 0.0000 0.0019 1.0000
vn 0.0001 -1.0000 0.0000
vn 0.0001 -1.0000 -0.0000
vn 0.0003 1.0000 -0.0000
vn -0.0003 0.0032 -1.0000
vn 0.0001 -0.0000 -1.0000
vn -0.0031 0.0129 -0.9999
vn 0.0002 -0.0029 -1.0000
vn -0.0000 -0.0254 -0.9997
vn -0.0030 0.0029 1.0000
vn 0.0019 0.0039 1.0000
vn -0.0049 -0.0000 1.0000
vn -0.0006 -0.0038 1.0000
vn -0.0000 -0.0254 0.9997
# 35 vertex normals

vt 0.3802 0.7555 0.0000
vt 0.3802 0.0050 0.0000
vt 0.0050 0.0050 0.0000
vt 0.0050 0.7555 0.0000
vt 0.6922 0.7554 0.0000
vt 0.7887 0.7555 0.0000
vt 0.7887 0.0050 0.0000
vt 0.6922 0.0050 0.0000
vt 0.8011 0.7555 0.0000
vt 0.8575 0.7555 0.0000
vt 0.8575 0.0050 0.0000
vt 0.8011 0.0050 0.0000
vt 0.5725 0.7555 0.0000
vt 0.6797 0.7555 0.0000
vt 0.6797 0.0050 0.0000
vt 0.5725 0.0050 0.0000
vt 0.3927 0.7555 0.0000
vt 0.5642 0.7554 0.0000
vt 0.5642 0.0050 0.0000
vt 0.3927 0.0050 0.0000
vt 0.8845 0.4850 0.0000
vt 0.8658 0.4850 0.0000
vt 0.8658 0.5923 0.0000
vt 0.8845 0.5923 0.0000
vt 0.8845 0.7638 0.0000
vt 0.9409 0.7638 0.0000
vt 0.9409 0.3885 0.0000
vt 0.8845 0.3885 0.0000
vt 0.9679 0.0050 0.0000
vt 0.9492 0.0050 0.0000
vt 0.9492 0.7555 0.0000
vt 0.9679 0.7554 0.0000
vt 0.8845 0.1765 0.0000
vt 0.8658 0.1765 0.0000
vt 0.8658 0.2837 0.0000
vt 0.8845 0.2837 0.0000
vt 0.8845 0.3802 0.0000
vt 0.9409 0.3802 0.0000
vt 0.9409 0.0050 0.0000
vt 0.8845 0.0050 0.0000
vt 0.9950 0.0050 0.0000
vt 0.9762 0.0050 0.0000
vt 0.9762 0.7555 0.0000
vt 0.9950 0.7554 0.0000
# 44 texture coords

g Hatch_Building_NoMatCutout
usemtl Material__67
s 2
f 29/45/7 30/46/7 31/47/8 32/48/9 
s 4
f 33/49/10 34/50/10 35/51/10 36/52/10 
s 64
f 34/53/11 30/54/11 29/55/11 35/56/11 
s 4
f 37/57/12 38/58/12 39/59/12 40/60/12 
f 41/61/10 42/62/13 43/63/13 44/64/12 
s 8
f 33/65/14 38/66/15 37/67/15 42/68/16 
f 42/68/16 41/69/17 31/70/18 33/65/14 
f 31/70/18 30/71/19 34/72/20 33/65/14 
s off
f 42/73/21 37/74/21 40/75/21 43/76/21 
s 32
f 43/77/22 40/78/23 39/79/23 36/80/24 
f 36/80/24 35/81/25 29/82/26 43/77/22 
f 29/82/26 32/83/27 44/84/28 43/77/22 
s off
f 36/85/11 39/86/11 38/87/11 33/88/11 
s 2
f 45/45/29 32/48/9 31/47/8 46/46/30 
s 4
f 47/49/12 48/52/12 49/51/12 50/50/12 
s 64
f 50/53/21 49/56/21 45/55/21 46/54/21 
s 4
f 51/57/12 52/60/12 53/59/12 54/58/12 
f 41/61/10 44/64/12 55/63/31 56/62/31 
s 8
f 50/72/32 46/71/33 31/70/18 47/65/34 
f 31/70/18 41/69/17 56/68/35 47/65/34 
f 47/65/34 56/68/35 51/67/36 54/66/15 
s off
f 56/73/11 55/76/11 52/75/11 51/74/11 
s 32
f 44/84/28 32/83/27 45/82/37 55/77/38 
f 45/82/37 49/81/39 48/80/40 55/77/38 
f 55/77/38 48/80/40 53/79/41 52/78/23 
s off
f 48/85/21 47/88/21 54/87/21 53/86/21 
# 26 polygons

