# 3ds Max Wavefront OBJ Exporter v0.97b - (c)2007 guruware
# File Created: 08.11.2015 22:12:50

#
# object ScrewPump_a_Building
#

v  1.0000 0.5000 -1.0000
v  1.0000 0.5000 1.0000
v  -1.0000 0.5000 1.0000
v  -1.0000 0.5000 -1.0000
v  1.0000 0.7500 -1.0000
v  -1.0000 0.7500 -1.0000
v  -1.0000 0.7500 1.0000
v  1.0000 0.7500 1.0000
v  1.0000 0.7500 -0.7500
v  -1.0000 0.7500 -0.7500
v  1.0000 3.0000 -1.0000
v  -1.0000 3.0000 -1.0000
v  -1.0000 3.0000 -0.7500
v  1.0000 3.0000 -0.7500
v  0.0000 1.0928 0.8957
v  0.0000 2.4428 -1.3543
v  0.2121 2.5181 -1.3091
v  0.2121 1.1681 0.9409
v  0.3000 2.7000 -1.2000
v  0.3000 1.3500 1.0500
v  0.2121 2.8819 -1.0909
v  0.2121 1.5319 1.1591
v  0.0000 2.9572 -1.0457
v  0.0000 1.6072 1.2043
v  -0.2121 2.8819 -1.0909
v  -0.2121 1.5319 1.1591
v  -0.3000 2.7000 -1.2000
v  -0.3000 1.3500 1.0500
v  -0.2121 2.5181 -1.3091
v  -0.2121 1.1681 0.9409
# 30 vertices

vn 0.0000 -1.0000 0.0000
vn 0.0000 1.0000 -0.0000
vn 0.0000 -0.0000 -1.0000
vn -1.0000 0.0000 -0.0000
vn 0.0000 0.0000 1.0000
vn 1.0000 0.0000 -0.0000
vn 0.0000 -1.0000 -0.0000
vn 0.0000 0.0000 -1.0000
vn -0.0000 -0.8575 -0.5145
vn 0.0000 -0.8575 -0.5145
vn 0.7070 -0.6064 -0.3639
vn 1.0000 0.0000 0.0000
vn 1.0000 -0.0000 -0.0000
vn 0.7070 0.6064 0.3639
vn 0.0000 0.8575 0.5145
vn -0.7070 0.6064 0.3639
vn -1.0000 0.0000 0.0000
vn -1.0000 -0.0000 -0.0000
vn -0.7070 -0.6064 -0.3639
vn -0.0001 -0.5144 0.8576
vn -0.0000 -0.5144 0.8576
vn 0.0000 -0.5144 0.8575
vn 0.0000 -0.5144 0.8576
vn -0.0000 0.5144 -0.8575
vn -0.0000 0.5144 -0.8576
vn 0.0001 0.5144 -0.8576
vn 0.0000 0.5144 -0.8576
# 27 vertex normals

vt 1.0000 0.0000 0.0000
vt 1.0000 1.0000 0.0000
vt 0.0000 1.0000 0.0000
vt 0.0000 0.0000 0.0000
vt 0.1250 1.0000 0.0000
vt 0.1250 0.0000 0.0000
vt 0.2500 1.0000 0.0000
vt 0.2500 0.0000 0.0000
vt 0.3750 1.0000 0.0000
vt 0.3750 0.0000 0.0000
vt 0.5000 1.0000 0.0000
vt 0.5000 0.0000 0.0000
vt 0.6250 1.0000 0.0000
vt 0.6250 0.0000 0.0000
vt 0.7500 1.0000 0.0000
vt 0.7500 0.0000 0.0000
vt 0.8750 1.0000 0.0000
vt 0.8750 0.0000 0.0000
# 18 texture coords

g ScrewPump_a_Building
f 1/1/1 2/2/1 3/3/1 
f 3/3/1 4/4/1 1/1/1 
f 5/4/2 6/1/2 7/2/2 
f 7/2/2 8/3/2 5/4/2 
f 1/4/3 4/1/3 6/2/3 
f 6/2/3 5/3/3 1/4/3 
f 4/4/4 3/1/4 7/2/4 
f 7/2/4 6/3/4 4/4/4 
f 3/4/5 2/1/5 8/2/5 
f 8/2/5 7/3/5 3/4/5 
f 2/4/6 1/1/6 5/2/6 
f 5/2/6 8/3/6 2/4/6 
f 9/2/7 10/3/7 5/1/7 
f 6/4/7 5/1/7 10/3/7 
f 11/4/2 12/1/2 13/2/2 
f 13/2/2 14/3/2 11/4/2 
f 6/1/8 12/2/8 5/4/8 
f 11/3/8 5/4/8 12/2/8 
f 6/4/4 10/1/4 13/2/4 
f 13/2/4 12/3/4 6/4/4 
f 10/4/5 9/1/5 14/2/5 
f 14/2/5 13/3/5 10/4/5 
f 9/4/6 5/1/6 11/2/6 
f 11/2/6 14/3/6 9/4/6 
f 15/4/9 16/3/10 17/5/11 
f 17/5/11 18/6/11 15/4/9 
f 18/6/11 17/5/11 19/7/12 
f 19/7/12 20/8/13 18/6/11 
f 20/8/13 19/7/12 21/9/14 
f 21/9/14 22/10/14 20/8/13 
f 22/10/14 21/9/14 23/11/15 
f 23/11/15 24/12/15 22/10/14 
f 24/12/15 23/11/15 25/13/16 
f 25/13/16 26/14/16 24/12/15 
f 26/14/16 25/13/16 27/15/17 
f 27/15/17 28/16/18 26/14/16 
f 28/16/18 27/15/17 29/17/19 
f 29/17/19 30/18/19 28/16/18 
f 30/18/19 29/17/19 16/2/10 
f 16/2/10 15/1/9 30/18/19 
f 26/4/20 28/4/21 30/4/22 
f 24/4/22 26/4/20 30/4/22 
f 22/4/22 24/4/22 30/4/22 
f 22/4/22 30/4/22 15/4/22 
f 22/4/22 15/4/22 18/4/20 
f 20/4/23 22/4/22 18/4/20 
f 21/4/24 19/4/25 17/4/26 
f 21/4/24 17/4/26 16/4/24 
f 21/4/24 16/4/24 29/4/24 
f 29/4/24 27/4/27 25/4/26 
f 29/4/24 25/4/26 23/4/24 
f 21/4/24 29/4/24 23/4/24 
# 52 faces

