# 3ds Max Wavefront OBJ Exporter v0.97b - (c)2007 guruware
# File Created: 09.10.2015 09:01:02

#
# object ScrewPump_Building
#

v  0.0000 0.5000 0.0000
v  0.5930 0.5000 -0.5930
v  0.8387 0.5000 0.0000
v  -0.0000 0.5000 -0.8387
v  -0.5930 0.5000 -0.5930
v  -0.8387 0.5000 0.0000
v  -0.5930 0.5000 0.5930
v  0.0000 0.5000 0.8387
v  0.5930 0.5000 0.5930
v  0.7071 1.0000 -0.7071
v  1.0000 1.0000 -0.0000
v  -0.0000 1.0000 -1.0000
v  -0.7071 1.0000 -0.7071
v  -1.0000 1.0000 0.0000
v  -0.7071 1.0000 0.7071
v  0.0000 1.0000 1.0000
v  0.7071 1.0000 0.7071
v  0.7071 1.5000 -0.7071
v  1.0000 1.5000 -0.0000
v  -0.0000 1.5000 -1.0000
v  -0.7071 1.5000 -0.7071
v  -1.0000 1.5000 0.0000
v  -0.7071 1.5000 0.7071
v  0.0000 1.5000 1.0000
v  0.7071 1.5000 0.7071
v  0.5930 2.0000 -0.5930
v  0.8387 2.0000 0.0000
v  -0.0000 2.0000 -0.8387
v  -0.5930 2.0000 -0.5930
v  -0.8387 2.0000 0.0000
v  -0.5930 2.0000 0.5930
v  0.0000 2.0000 0.8387
v  0.5930 2.0000 0.5930
v  0.0000 2.0000 0.0000
# 34 vertices

vn 0.0000 -1.0000 -0.0000
vn 0.9517 -0.3071 -0.0000
vn 0.6991 -0.1499 -0.6991
vn 0.9887 -0.1499 0.0000
vn 0.6729 -0.3071 -0.6729
vn -0.0000 -0.1499 -0.9887
vn -0.0000 -0.3071 -0.9517
vn -0.6991 -0.1499 -0.6991
vn -0.6729 -0.3071 -0.6729
vn -0.9887 -0.1499 0.0000
vn -0.9517 -0.3071 0.0000
vn -0.6991 -0.1499 0.6991
vn -0.6729 -0.3071 0.6729
vn -0.0000 -0.1499 0.9887
vn -0.0000 -0.3071 0.9517
vn 0.6991 -0.1499 0.6991
vn 0.6729 -0.3071 0.6729
vn 0.6991 0.1499 -0.6991
vn 0.9887 0.1499 -0.0000
vn -0.0000 0.1499 -0.9887
vn -0.6991 0.1499 -0.6991
vn -0.9887 0.1499 0.0000
vn -0.6991 0.1499 0.6991
vn 0.0000 0.1499 0.9887
vn 0.6991 0.1499 0.6991
vn 0.6729 0.3071 -0.6729
vn 0.9517 0.3071 -0.0000
vn 0.0000 0.3071 -0.9517
vn -0.6729 0.3071 -0.6729
vn -0.9517 0.3071 0.0000
vn -0.6729 0.3071 0.6729
vn -0.0000 0.3071 0.9517
vn 0.6729 0.3071 0.6729
vn 0.0000 1.0000 -0.0000
# 34 vertex normals

vt 0.3114 0.6925 0.0000
vt 0.4337 0.3974 0.0000
vt 0.6065 0.5703 0.0000
vt 0.1892 0.3974 0.0000
vt 0.0164 0.5703 0.0000
vt 0.0164 0.8147 0.0000
vt 0.1892 0.9876 0.0000
vt 0.4337 0.9876 0.0000
vt 0.6065 0.8147 0.0000
vt 0.7462 0.7696 0.0000
vt 0.5017 0.6099 0.0000
vt 0.7462 0.6099 0.0000
vt 0.5017 0.7696 0.0000
vt 0.2573 0.6099 0.0000
vt 0.2573 0.7696 0.0000
vt 0.0128 0.6099 0.0000
vt 0.0128 0.7696 0.0000
vt 0.9909 0.7673 0.0000
vt 0.7464 0.6076 0.0000
vt 0.9909 0.6076 0.0000
vt 0.7464 0.7673 0.0000
vt 0.5019 0.6076 0.0000
vt 0.5019 0.7673 0.0000
vt 0.2575 0.6099 0.0000
vt 0.2575 0.7673 0.0000
vt 0.0130 0.6099 0.0000
vt 0.0130 0.7673 0.0000
vt 0.9907 0.7696 0.0000
vt 0.9907 0.6099 0.0000
vt 0.5017 0.4502 0.0000
vt 0.7462 0.4502 0.0000
vt 0.2573 0.4502 0.0000
vt 0.0128 0.4502 0.0000
vt 0.7464 0.4479 0.0000
vt 0.9909 0.4479 0.0000
vt 0.5019 0.4479 0.0000
vt 0.2575 0.4502 0.0000
vt 0.0130 0.4502 0.0000
vt 0.9907 0.4502 0.0000
vt 0.5017 0.2905 0.0000
vt 0.7462 0.2905 0.0000
vt 0.2573 0.2905 0.0000
vt 0.0128 0.2905 0.0000
vt 0.7464 0.2882 0.0000
vt 0.9909 0.2882 0.0000
vt 0.5019 0.2882 0.0000
vt 0.2575 0.2882 0.0000
vt 0.0130 0.2882 0.0000
vt 0.9907 0.2905 0.0000
vt 0.6337 0.2927 0.0000
vt 0.9288 0.4149 0.0000
vt 0.7559 0.5877 0.0000
vt 0.5114 0.5877 0.0000
vt 0.3386 0.4149 0.0000
vt 0.3386 0.1704 0.0000
vt 0.5114 -0.0024 0.0000
vt 0.7559 -0.0024 0.0000
vt 0.9288 0.1704 0.0000
# 58 texture coords

g ScrewPump_Building
f 1/1/1 2/2/1 3/3/1 
f 1/1/1 4/4/1 2/2/1 
f 1/1/1 5/5/1 4/4/1 
f 1/1/1 6/6/1 5/5/1 
f 1/1/1 7/7/1 6/6/1 
f 1/1/1 8/8/1 7/7/1 
f 1/1/1 9/9/1 8/8/1 
f 1/1/1 3/3/1 9/9/1 
f 3/10/2 10/11/3 11/12/4 
f 3/10/2 2/13/5 10/11/3 
f 2/13/5 12/14/6 10/11/3 
f 2/13/5 4/15/7 12/14/6 
f 4/15/7 13/16/8 12/14/6 
f 4/15/7 5/17/9 13/16/8 
f 5/18/9 14/19/10 13/20/8 
f 5/18/9 6/21/11 14/19/10 
f 6/21/11 15/22/12 14/19/10 
f 6/21/11 7/23/13 15/22/12 
f 7/23/13 16/24/14 15/22/12 
f 7/23/13 8/25/15 16/24/14 
f 8/25/15 17/26/16 16/24/14 
f 8/25/15 9/27/17 17/26/16 
f 9/28/17 11/12/4 17/29/16 
f 9/28/17 3/10/2 11/12/4 
f 11/12/4 18/30/18 19/31/19 
f 11/12/4 10/11/3 18/30/18 
f 10/11/3 20/32/20 18/30/18 
f 10/11/3 12/14/6 20/32/20 
f 12/14/6 21/33/21 20/32/20 
f 12/14/6 13/16/8 21/33/21 
f 13/20/8 22/34/22 21/35/21 
f 13/20/8 14/19/10 22/34/22 
f 14/19/10 23/36/23 22/34/22 
f 14/19/10 15/22/12 23/36/23 
f 15/22/12 24/37/24 23/36/23 
f 15/22/12 16/24/14 24/37/24 
f 16/24/14 25/38/25 24/37/24 
f 16/24/14 17/26/16 25/38/25 
f 17/29/16 19/31/19 25/39/25 
f 17/29/16 11/12/4 19/31/19 
f 19/31/19 26/40/26 27/41/27 
f 19/31/19 18/30/18 26/40/26 
f 18/30/18 28/42/28 26/40/26 
f 18/30/18 20/32/20 28/42/28 
f 20/32/20 29/43/29 28/42/28 
f 20/32/20 21/33/21 29/43/29 
f 21/35/21 30/44/30 29/45/29 
f 21/35/21 22/34/22 30/44/30 
f 22/34/22 31/46/31 30/44/30 
f 22/34/22 23/36/23 31/46/31 
f 23/36/23 32/47/32 31/46/31 
f 23/36/23 24/37/24 32/47/32 
f 24/37/24 33/48/33 32/47/32 
f 24/37/24 25/38/25 33/48/33 
f 25/39/25 27/41/27 33/49/33 
f 25/39/25 19/31/19 27/41/27 
f 34/50/34 27/51/34 26/52/34 
f 34/50/34 26/52/34 28/53/34 
f 34/50/34 28/53/34 29/54/34 
f 34/50/34 29/54/34 30/55/34 
f 34/50/34 30/55/34 31/56/34 
f 34/50/34 31/56/34 32/57/34 
f 34/50/34 32/57/34 33/58/34 
f 34/50/34 33/58/34 27/51/34 
# 64 faces

