# 3ds Max Wavefront OBJ Exporter v0.97b - (c)2007 guruware
# File Created: 07.01.2017 11:32:30

#
# object Slab_Building
#

v  0.7000 0.5000 -0.3000
v  -0.7000 0.5000 -0.3000
v  -0.7000 0.6500 -0.3000
v  0.7000 0.6500 -0.3000
v  -0.7000 0.5000 0.3000
v  -0.7000 0.6500 0.3000
v  0.7000 0.5000 0.3000
v  0.7000 0.6500 0.3000
v  0.4317 1.7522 -0.1000
v  0.2522 1.9317 -0.1000
v  0.2522 1.9317 0.1000
v  0.4317 1.7522 0.1000
v  -0.0000 2.0000 -0.1000
v  -0.0000 2.0000 0.1000
v  -0.2522 1.9317 -0.1000
v  -0.2522 1.9317 0.1000
v  -0.4317 1.7522 -0.1000
v  -0.4317 1.7522 0.1000
v  -0.5000 1.5000 -0.1000
v  -0.5000 1.5000 0.1000
v  -0.5000 0.6500 -0.1000
v  -0.5000 0.6500 0.1000
v  0.5000 0.6500 -0.1000
v  0.5000 0.6500 0.1000
v  0.5000 1.5000 -0.1000
v  0.5000 1.5000 0.1000
# 26 vertices

vn -0.0000 0.0000 -1.0000
vn -1.0000 0.0000 -0.0000
vn 0.0000 0.0000 1.0000
vn 1.0000 0.0000 -0.0000
vn 0.0000 -1.0000 -0.0000
vn 0.0000 1.0000 -0.0000
vn 0.8653 0.5012 0.0000
vn 0.5012 0.8653 0.0000
vn 0.8653 0.5012 -0.0000
vn -0.0000 1.0000 -0.0000
vn 0.0000 1.0000 0.0000
vn -0.5012 0.8653 0.0000
vn -0.5012 0.8653 -0.0000
vn -0.8653 0.5012 0.0000
vn -0.9652 0.2614 -0.0000
vn -0.9652 0.2614 0.0000
vn 0.9652 0.2614 -0.0000
vn 0.0000 0.0000 -1.0000
vn 0.0000 -0.0000 1.0000
vn -0.0000 -0.0000 1.0000
# 20 vertex normals

vt 0.1500 0.1250 0.6500
vt 0.8500 0.1250 0.6500
vt 0.8500 0.2000 0.6500
vt 0.1500 0.2000 0.6500
vt 0.3500 0.1250 0.1500
vt 0.6500 0.1250 0.1500
vt 0.6500 0.2000 0.1500
vt 0.3500 0.2000 0.1500
vt 0.1500 0.1250 0.3500
vt 0.8500 0.1250 0.3500
vt 0.8500 0.2000 0.3500
vt 0.1500 0.2000 0.3500
vt 0.3500 0.1250 0.8500
vt 0.6500 0.1250 0.8500
vt 0.6500 0.2000 0.8500
vt 0.3500 0.2000 0.8500
vt 0.8500 0.6500 0.1250
vt 0.1500 0.6500 0.1250
vt 0.1500 0.3500 0.1250
vt 0.8500 0.3500 0.1250
vt 0.1500 0.6500 0.2000
vt 0.1500 0.3500 0.2000
vt 0.8500 0.3500 0.2000
vt 0.8500 0.6500 0.2000
vt 0.5500 0.7511 0.7158
vt 0.5500 0.8408 0.6261
vt 0.4500 0.8408 0.6261
vt 0.4500 0.7511 0.7158
vt 0.6261 0.5500 0.8408
vt 0.5000 0.5500 0.8750
vt 0.5000 0.4500 0.8750
vt 0.6261 0.4500 0.8408
vt 0.3739 0.5500 0.8408
vt 0.3739 0.4500 0.8408
vt 0.4500 0.8408 0.3739
vt 0.4500 0.7511 0.2842
vt 0.5500 0.7511 0.2842
vt 0.5500 0.8408 0.3739
vt 0.4500 0.6250 0.2500
vt 0.5500 0.6250 0.2500
vt 0.4500 0.2000 0.2500
vt 0.5500 0.2000 0.2500
vt 0.7500 0.5500 0.2000
vt 0.2500 0.5500 0.2000
vt 0.2500 0.4500 0.2000
vt 0.7500 0.4500 0.2000
vt 0.5500 0.2000 0.7500
vt 0.5500 0.6250 0.7500
vt 0.4500 0.6250 0.7500
vt 0.4500 0.2000 0.7500
vt 0.7500 0.2000 0.5500
vt 0.7500 0.6250 0.5500
vt 0.2500 0.6250 0.5500
vt 0.2500 0.2000 0.5500
vt 0.7158 0.7511 0.5500
vt 0.2842 0.7511 0.5500
vt 0.5000 0.8750 0.5500
vt 0.3739 0.8408 0.5500
vt 0.6261 0.8408 0.5500
vt 0.2500 0.2000 0.4500
vt 0.7500 0.2000 0.4500
vt 0.7500 0.6250 0.4500
vt 0.2500 0.6250 0.4500
vt 0.2842 0.7511 0.4500
vt 0.7158 0.7511 0.4500
vt 0.6261 0.8408 0.4500
vt 0.5000 0.8750 0.4500
vt 0.3739 0.8408 0.4500
# 68 texture coords

o Slab_Building
g Slab_Building
s 1
f 1/1/1 2/2/1 3/3/1 4/4/1 
s 4
f 2/5/2 5/6/2 6/7/2 3/8/2 
s 2
f 5/9/3 7/10/3 8/11/3 6/12/3 
s 4
f 7/13/4 1/14/4 4/15/4 8/16/4 
s 16
f 2/17/5 1/18/5 7/19/5 5/20/5 
f 3/21/6 6/22/6 8/23/6 4/24/6 
s 1
f 9/25/7 10/26/8 11/27/8 12/28/9 
s 3
f 10/29/8 13/30/10 14/31/11 11/32/8 
s 2
f 13/30/10 15/33/12 16/34/13 14/31/11 
f 15/35/12 17/36/14 18/37/14 16/38/13 
f 17/36/14 19/39/15 20/40/16 18/37/14 
s 4
f 19/39/2 21/41/2 22/42/2 20/40/2 
s 2
f 21/43/5 23/44/5 24/45/5 22/46/5 
s 4
f 23/47/4 25/48/4 26/49/4 24/50/4 
s 3
f 25/48/17 9/25/7 12/28/9 26/49/17 
s 16
f 21/51/18 19/52/18 25/53/18 23/54/18 
f 17/55/18 9/56/18 25/53/18 19/52/18 
f 17/55/18 13/57/1 10/58/1 9/56/18 
f 17/55/18 15/59/18 13/57/1 
f 22/60/19 24/61/19 26/62/19 20/63/19 
f 18/64/20 20/63/19 26/62/19 12/65/19 
f 18/64/20 12/65/19 11/66/19 14/67/19 
f 18/64/20 14/67/19 16/68/20 
# 21 polygons - 2 triangles

