# 3ds Max Wavefront OBJ Exporter v0.97b - (c)2007 guruware
# File Created: 30.10.2016 16:45:26

#
# object Stockpile_Building_NoMatCutout
#

v  1.0000 0.5200 1.0000
v  1.0000 0.5200 -1.0000
v  -1.0000 0.5200 -1.0000
v  -1.0000 0.5200 1.0000
# 4 vertices

vn 0.0000 1.0000 -0.0000
# 1 vertex normals

vt 0.9995 0.0005 0.5625
vt 0.9995 0.9995 0.5625
vt 0.0005 0.9995 0.5625
vt 0.0005 0.0005 0.5625
# 4 texture coords

g Stockpile_Building_NoMatCutout
s 1
f 1/1/1 2/2/1 3/3/1 
f 3/3/1 4/4/1 1/1/1 
# 2 faces

