# 3ds Max Wavefront OBJ Exporter v0.97b - (c)2007 guruware
# File Created: 07.10.2015 17:38:03

#
# object StaticMaterial
#

v  -1.0000 0.0000 -1.0000
v  1.0000 0.0000 -1.0000
v  1.0000 0.0000 1.0000
v  -1.0000 0.0000 1.0000
v  1.0000 0.5000 1.0000
v  1.0000 0.5000 -1.0000
v  -1.0000 0.5000 -1.0000
v  -1.0000 0.5000 1.0000
# 8 vertices

vn 0.0000 -1.0000 -0.0000
vn 0.0000 1.0000 -0.0000
vn 0.0000 0.0000 1.0000
vn 1.0000 0.0000 -0.0000
vn 0.0000 0.0000 -1.0000
vn -1.0000 0.0000 -0.0000
# 6 vertex normals

vt 0.9995 0.9995 0.3750
vt 0.0005 0.9995 0.3750
vt 0.0005 0.0005 0.3750
vt 0.9995 0.0005 0.3750
vt 0.9995 0.0005 0.6250
vt 0.9995 0.9995 0.6250
vt 0.0005 0.9995 0.6250
vt 0.0005 0.0005 0.6250
vt 0.9995 0.3750 0.0005
vt 0.9995 0.6250 0.0005
vt 0.0005 0.6250 0.0005
vt 0.0005 0.3750 0.0005
vt 0.9995 0.3750 0.9995
vt 0.9995 0.6250 0.9995
vt 0.0005 0.6250 0.9995
vt 0.0005 0.3750 0.9995
# 16 texture coords

g StaticMaterial
f 1/1/1 2/2/1 3/3/1 
f 3/3/1 4/4/1 1/1/1 
f 5/5/2 6/6/2 7/7/2 
f 7/7/2 8/8/2 5/5/2 
f 3/9/3 5/10/3 8/11/3 
f 8/11/3 4/12/3 3/9/3 
f 2/13/4 6/14/4 5/15/4 
f 5/15/4 3/16/4 2/13/4 
f 1/13/5 7/14/5 6/15/5 
f 6/15/5 2/16/5 1/13/5 
f 4/9/6 8/10/6 7/11/6 
f 7/11/6 1/12/6 4/9/6 
# 12 faces

#
# object Support_Building
#

v  -0.5000 0.5000 0.5000
v  -0.5000 0.5000 -0.5000
v  0.5000 0.5000 -0.5000
v  0.5000 0.5000 0.5000
v  -0.5000 3.0000 0.5000
v  0.5000 3.0000 0.5000
v  0.5000 3.0000 -0.5000
v  -0.5000 3.0000 -0.5000
v  0.2500 1.0000 0.2500
v  -0.2500 1.0000 0.2500
v  0.2500 2.5000 0.2500
v  -0.2500 2.5000 0.2500
v  0.2500 1.0000 -0.2500
v  0.2500 2.5000 -0.2500
v  -0.2500 1.0000 -0.2500
v  -0.2500 2.5000 -0.2500
# 16 vertices

vn 0.0000 -1.0000 -0.0000
vn 0.0000 1.0000 -0.0000
vn 0.0000 0.4472 0.8944
vn 0.0000 0.0000 1.0000
vn 0.0000 -0.4472 0.8944
vn 0.8944 0.4472 -0.0000
vn 1.0000 0.0000 -0.0000
vn 0.8944 -0.4472 -0.0000
vn 0.0000 0.4472 -0.8944
vn 0.0000 0.0000 -1.0000
vn 0.0000 -0.4472 -0.8944
vn -0.8944 0.4472 -0.0000
vn -1.0000 0.0000 -0.0000
vn -0.8944 -0.4472 -0.0000
# 14 vertex normals

vt 0.7500 0.2500 0.0005
vt 0.7500 0.7500 0.0005
vt 0.2500 0.7500 0.0005
vt 0.2500 0.2500 0.0005
vt 0.2500 0.2500 0.9995
vt 0.7500 0.2500 0.9995
vt 0.7500 0.7500 0.9995
vt 0.2500 0.7500 0.9995
vt 0.2500 0.0005 0.2500
vt 0.7500 0.0005 0.2500
vt 0.6250 0.2003 0.3750
vt 0.3750 0.2003 0.3750
vt 0.6250 0.7997 0.3750
vt 0.3750 0.7997 0.3750
vt 0.7500 0.9995 0.2500
vt 0.2500 0.9995 0.2500
vt 0.2500 0.0005 0.7500
vt 0.7500 0.0005 0.7500
vt 0.6250 0.2003 0.6250
vt 0.3750 0.2003 0.6250
vt 0.6250 0.7997 0.6250
vt 0.3750 0.7997 0.6250
vt 0.7500 0.9995 0.7500
vt 0.2500 0.9995 0.7500
# 24 texture coords

g Support_Building
f 9/17/7 10/18/7 11/19/7 
f 11/19/7 12/20/7 9/17/7 
f 13/21/8 14/22/8 15/23/8 
f 15/23/8 16/24/8 13/21/8 
f 9/25/9 12/26/9 17/27/9 
f 17/27/9 18/28/9 9/25/9 
f 18/28/10 17/27/10 19/29/10 
f 19/29/10 20/30/10 18/28/10 
f 20/30/11 19/29/11 14/31/11 
f 14/31/11 13/32/11 20/30/11 
f 12/33/12 11/34/12 21/35/12 
f 21/35/12 17/36/12 12/33/12 
f 17/36/13 21/35/13 22/37/13 
f 22/37/13 19/38/13 17/36/13 
f 19/38/14 22/37/14 15/39/14 
f 15/39/14 14/40/14 19/38/14 
f 11/33/15 10/34/15 23/35/15 
f 23/35/15 21/36/15 11/33/15 
f 21/36/16 23/35/16 24/37/16 
f 24/37/16 22/38/16 21/36/16 
f 22/38/17 24/37/17 16/39/17 
f 16/39/17 15/40/17 22/38/17 
f 10/25/18 9/26/18 18/27/18 
f 18/27/18 23/28/18 10/25/18 
f 23/28/19 18/27/19 20/29/19 
f 20/29/19 24/30/19 23/28/19 
f 24/30/20 20/29/20 13/31/20 
f 13/31/20 16/32/20 24/30/20 
# 28 faces

