# 3ds Max Wavefront OBJ Exporter v0.97b - (c)2007 guruware
# File Created: 27.09.2015 20:00:15

#
# object Table_Building
#

v  -1.0000 1.4000 -1.0000
v  1.0000 1.4000 -1.0000
v  1.0000 1.2500 -1.0000
v  -1.0000 1.2500 -1.0000
v  -1.0000 1.4000 1.0000
v  -1.0000 1.2500 1.0000
v  1.0000 1.4000 1.0000
v  1.0000 1.2500 1.0000
v  0.0354 0.5000 0.0354
v  0.0354 1.3000 0.0354
v  -0.0354 1.3000 -0.0354
v  -0.0354 0.5000 -0.0354
v  0.6186 0.5000 -0.5479
v  0.5479 0.5000 -0.6186
v  0.2003 1.3000 -0.1296
v  0.1296 1.3000 -0.2003
v  -0.0354 0.5000 0.0354
v  -0.0354 1.3000 0.0354
v  0.0354 1.3000 -0.0354
v  0.0354 0.5000 -0.0354
v  0.5479 0.5000 0.6186
v  0.6186 0.5000 0.5479
v  0.1296 1.3000 0.2003
v  0.2003 1.3000 0.1296
v  -0.6186 0.5000 0.5479
v  -0.5479 0.5000 0.6186
v  -0.2003 1.3000 0.1296
v  -0.1296 1.3000 0.2003
v  -0.5479 0.5000 -0.6186
v  -0.6186 0.5000 -0.5479
v  -0.1296 1.3000 -0.2003
v  -0.2003 1.3000 -0.1296
# 32 vertices

vn 0.0000 0.0000 -1.0000
vn -1.0000 0.0000 -0.0000
vn 0.0000 0.0000 1.0000
vn 1.0000 0.0000 -0.0000
vn 0.0000 -1.0000 -0.0000
vn 0.0000 1.0000 -0.0000
vn -0.7071 0.0000 0.7071
vn -0.0000 -1.0000 -0.0000
vn 0.5685 0.5946 -0.5685
vn -0.7071 0.0000 -0.7071
vn 0.7071 -0.0000 0.7071
vn -0.7071 -0.0000 -0.7071
vn 0.5685 0.5946 0.5685
vn 0.7071 0.0000 -0.7071
vn -0.7071 -0.0000 0.7071
vn 0.7071 -0.0000 -0.7071
vn 0.0000 -1.0000 0.0000
vn -0.5685 0.5946 0.5685
vn 0.7071 0.0000 0.7071
vn -0.0000 -1.0000 0.0000
vn -0.5685 0.5946 -0.5685
# 21 vertex normals

vt 0.9995 0.7250 0.9995
vt 0.0005 0.7250 0.9995
vt 0.0005 0.6500 0.9995
vt 0.9995 0.6500 0.9995
vt 0.9995 0.7250 0.0005
vt 0.0005 0.7250 0.0005
vt 0.0005 0.6500 0.0005
vt 0.9995 0.6500 0.0005
vt 0.9995 0.0005 0.6500
vt 0.9995 0.9995 0.6500
vt 0.0005 0.9995 0.6500
vt 0.0005 0.0005 0.6500
vt 0.9995 0.9995 0.7250
vt 0.0005 0.9995 0.7250
vt 0.0005 0.0005 0.7250
vt 0.9995 0.0005 0.7250
vt 0.5177 0.2750 0.5177
vt 0.5177 0.6750 0.5177
vt 0.4823 0.6750 0.4823
vt 0.4823 0.2750 0.4823
vt 0.1910 0.7737 0.2750
vt 0.4823 0.4823 0.2750
vt 0.5177 0.5177 0.2750
vt 0.2263 0.8090 0.2750
vt 0.6000 0.5647 0.6750
vt 0.8090 0.7737 0.2750
vt 0.7737 0.8090 0.2750
vt 0.5647 0.6000 0.6750
vt 0.5177 0.4823 0.6750
vt 0.4823 0.5177 0.6750
vt 0.4353 0.6750 0.6000
vt 0.2263 0.2750 0.8090
vt 0.6000 0.6750 0.5647
vt 0.5177 0.6750 0.4823
vt 0.5177 0.2750 0.4823
vt 0.8090 0.2750 0.7737
vt 0.4823 0.6750 0.5177
vt 0.4823 0.2750 0.5177
vt 0.2263 0.1910 0.2750
vt 0.5177 0.4823 0.2750
vt 0.4823 0.5177 0.2750
vt 0.1910 0.2263 0.2750
vt 0.5647 0.4000 0.6750
vt 0.7737 0.1910 0.2750
vt 0.8090 0.2263 0.2750
vt 0.6000 0.4353 0.6750
vt 0.4823 0.4823 0.6750
vt 0.5177 0.5177 0.6750
vt 0.4000 0.4353 0.6750
vt 0.4353 0.4000 0.6750
vt 0.4000 0.6750 0.4353
vt 0.1910 0.2750 0.2263
vt 0.5647 0.6750 0.4000
vt 0.7737 0.2750 0.1910
vt 0.4353 0.6000 0.6750
vt 0.4000 0.5647 0.6750
vt 0.4353 0.6750 0.4000
vt 0.2263 0.2750 0.1910
vt 0.6000 0.6750 0.4353
vt 0.8090 0.2750 0.2263
# 60 texture coords

g Table_Building
f 1/1/1 2/2/1 3/3/1 
f 3/3/1 4/4/1 1/1/1 
f 5/5/2 1/6/2 4/7/2 
f 4/7/2 6/8/2 5/5/2 
f 7/5/3 5/6/3 6/7/3 
f 6/7/3 8/8/3 7/5/3 
f 2/1/4 7/2/4 8/3/4 
f 8/3/4 3/4/4 2/1/4 
f 6/9/5 4/10/5 3/11/5 
f 3/11/5 8/12/5 6/9/5 
f 2/13/6 1/14/6 5/15/6 
f 5/15/6 7/16/6 2/13/6 
f 9/17/7 10/18/7 11/19/7 
f 11/19/7 12/20/7 9/17/7 
f 13/21/8 9/22/8 12/23/8 
f 12/23/8 14/24/8 13/21/8 
f 15/25/9 13/26/9 14/27/9 
f 14/27/9 16/28/9 15/25/9 
f 10/29/6 15/25/6 16/28/6 
f 16/28/6 11/30/6 10/29/6 
f 12/17/10 11/18/10 16/31/10 
f 16/31/10 14/32/10 12/17/10 
f 15/33/11 10/34/11 9/35/11 
f 9/35/11 13/36/11 15/33/11 
f 17/35/12 18/34/12 19/37/12 
f 19/37/12 20/38/12 17/35/12 
f 21/39/5 17/40/5 20/41/5 
f 20/41/5 22/42/5 21/39/5 
f 23/43/13 21/44/13 22/45/13 
f 22/45/13 24/46/13 23/43/13 
f 18/47/6 23/43/6 24/46/6 
f 24/46/6 19/48/6 18/47/6 
f 20/17/14 19/18/14 24/31/14 
f 24/31/14 22/32/14 20/17/14 
f 23/33/15 18/34/15 17/35/15 
f 17/35/15 21/36/15 23/33/15 
f 12/35/16 11/34/16 10/37/16 
f 10/37/16 9/38/16 12/35/16 
f 25/45/17 12/23/17 9/22/17 
f 9/22/17 26/44/17 25/45/17 
f 27/49/18 25/42/18 26/39/18 
f 26/39/18 28/50/18 27/49/18 
f 11/30/6 27/49/6 28/50/6 
f 28/50/6 10/29/6 11/30/6 
f 9/38/19 10/37/19 28/51/19 
f 28/51/19 26/52/19 9/38/19 
f 27/53/12 11/19/12 12/20/12 
f 12/20/12 25/54/12 27/53/12 
f 20/17/11 19/18/11 18/19/11 
f 18/19/11 17/20/11 20/17/11 
f 29/27/20 20/41/20 17/40/20 
f 17/40/20 30/26/20 29/27/20 
f 31/55/21 29/24/21 30/21/21 
f 30/21/21 32/56/21 31/55/21 
f 19/48/6 31/55/6 32/56/6 
f 32/56/6 18/47/6 19/48/6 
f 17/35/7 18/34/7 32/57/7 
f 32/57/7 30/58/7 17/35/7 
f 31/59/16 19/18/16 20/17/16 
f 20/17/16 29/60/16 31/59/16 
# 60 faces

