# 3ds Max Wavefront OBJ Exporter v0.97b - (c)2007 guruware
# File Created: 27.02.2017 19:24:08

#
# object Trap_Lever_Building
#

v  -0.0354 0.4646 0.0500
v  -0.0354 0.4646 -0.0500
v  0.0354 0.5354 0.0500
v  0.0354 0.5354 -0.0500
v  -0.6718 1.2425 -0.0500
v  -0.7425 1.1718 -0.0500
v  -0.6718 1.2425 0.0500
v  -0.7425 1.1718 0.0500
v  -0.4045 0.7939 -0.1500
v  -0.5000 0.5000 -0.1500
v  -0.4045 0.7939 -0.0500
v  -0.5000 0.5000 -0.0500
v  -0.1545 0.9755 -0.1500
v  -0.1545 0.9755 -0.0500
v  0.1545 0.9755 -0.1500
v  0.1545 0.9755 -0.0500
v  0.4045 0.7939 -0.1500
v  0.4045 0.7939 -0.0500
v  0.5000 0.5000 -0.1500
v  0.5000 0.5000 -0.0500
v  0.0000 0.5000 -0.1500
v  0.0000 0.5000 -0.0500
v  -0.4045 0.7939 0.0500
v  -0.5000 0.5000 0.0500
v  -0.4045 0.7939 0.1500
v  -0.5000 0.5000 0.1500
v  -0.1545 0.9755 0.0500
v  -0.1545 0.9755 0.1500
v  0.1545 0.9755 0.0500
v  0.1545 0.9755 0.1500
v  0.4045 0.7939 0.0500
v  0.4045 0.7939 0.1500
v  0.5000 0.5000 0.0500
v  0.5000 0.5000 0.1500
v  0.0000 0.5000 0.0500
v  0.0000 0.5000 0.1500
# 36 vertices

vn 0.7071 -0.7071 -0.0000
vn -0.7071 0.7071 -0.0000
vn 0.0000 0.0000 -1.0000
vn 0.7071 0.7071 -0.0000
vn 0.0000 0.0000 1.0000
vn -0.7071 -0.7071 -0.0000
vn -0.8090 0.5878 -0.0000
vn -0.9511 0.3090 -0.0000
vn -0.3090 0.9511 -0.0000
vn 0.3090 0.9511 -0.0000
vn 0.8090 0.5878 -0.0000
vn 0.9511 0.3090 -0.0000
vn 0.0000 -1.0000 0.0000
vn 0.0000 -0.0000 -1.0000
vn -0.0000 -0.0000 -1.0000
vn -0.0000 0.0000 1.0000
# 16 vertex normals

vt 0.0500 -0.0000 0.0000
vt -0.0000 -0.0000 0.0000
vt 0.0500 0.0500 0.0000
vt -0.0000 0.0500 0.0000
vt 0.1000 0.5500 0.0000
vt 0.1000 0.5000 0.0000
vt 0.0500 0.5500 0.0000
vt 0.0500 0.5000 0.0000
vt 0.1354 0.0354 0.0000
vt 0.1000 0.0000 0.0000
vt -0.2182 0.3889 0.0000
vt -0.2536 0.3536 0.0000
vt 0.0000 0.0500 0.0000
vt 0.0000 0.5500 0.0000
vt 0.0500 0.0000 0.0000
vt 0.0146 0.0354 0.0000
vt 0.4036 0.3536 0.0000
vt 0.3682 0.3889 0.0000
vt 0.1000 -0.0000 0.0000
vt 0.1500 0.1545 0.0000
vt 0.1500 0.0000 0.0000
vt 0.1000 0.1545 0.0000
vt 0.1500 0.3090 0.0000
vt 0.1000 0.3090 0.0000
vt 0.1818 0.0878 0.0000
vt 0.0273 0.0878 0.0000
vt 0.1818 0.1378 0.0000
vt 0.0273 0.1378 0.0000
vt -0.4500 0.1545 0.0000
vt -0.4500 0.3090 0.0000
vt -0.4000 0.1545 0.0000
vt -0.4000 0.3090 0.0000
vt -0.4500 0.0000 0.0000
vt -0.4000 0.0000 0.0000
vt -0.0500 -0.1500 0.0000
vt -0.3000 -0.1500 0.0000
vt -0.0500 -0.1000 0.0000
vt -0.3000 -0.1000 0.0000
vt 0.2000 -0.1500 0.0000
vt 0.2000 -0.1000 0.0000
vt -0.7000 0.0000 0.0000
vt -0.4977 0.1469 0.0000
vt -0.6227 0.2378 0.0000
vt -0.7773 0.2378 0.0000
vt -0.9023 0.1469 0.0000
vt -0.9500 0.0000 0.0000
vt -0.0727 0.2378 0.0000
vt 0.0523 0.1469 0.0000
vt -0.2273 0.2378 0.0000
vt -0.3523 0.1469 0.0000
vt -0.1500 0.0000 0.0000
vt 0.0500 0.1545 0.0000
vt 0.0000 0.1545 0.0000
vt 0.0000 0.0000 0.0000
vt 0.0500 0.3090 0.0000
vt 0.0000 0.3090 0.0000
vt 0.1818 0.1878 0.0000
vt 0.0273 0.1878 0.0000
vt 0.1818 0.2378 0.0000
vt 0.0273 0.2378 0.0000
vt -0.3500 0.1545 0.0000
vt -0.3500 0.3090 0.0000
vt -0.3000 0.1545 0.0000
vt -0.3000 0.3090 0.0000
vt -0.3500 0.0000 0.0000
vt -0.3000 0.0000 0.0000
vt -0.0500 -0.0500 0.0000
vt -0.3000 -0.0500 0.0000
vt -0.0500 0.0000 0.0000
vt 0.2000 -0.0500 0.0000
vt 0.2000 0.0000 0.0000
vt -0.6000 0.0000 0.0000
vt -0.3977 0.1469 0.0000
vt -0.5227 0.2378 0.0000
vt -0.6773 0.2378 0.0000
vt -0.8023 0.1469 0.0000
vt -0.8500 0.0000 0.0000
vt 0.1523 0.1469 0.0000
vt -0.1273 0.2378 0.0000
vt -0.2523 0.1469 0.0000
# 80 texture coords

g Trap_Lever_Building
s 2
f 1/1/1 2/2/1 3/3/1 
f 4/4/1 3/3/1 2/2/1 
s 4
f 5/5/2 6/6/2 7/7/2 
f 8/8/2 7/7/2 6/6/2 
s 8
f 4/9/3 2/10/3 5/11/3 
f 6/12/3 5/11/3 2/10/3 
s 16
f 3/3/4 4/13/4 7/7/4 
f 5/14/4 7/7/4 4/13/4 
s 32
f 1/15/5 3/16/5 8/17/5 
f 7/18/5 8/17/5 3/16/5 
s 64
f 2/19/6 1/1/6 6/6/6 
f 8/8/6 6/6/6 1/1/6 
s 8
f 9/20/7 10/21/8 11/22/7 
f 12/10/8 11/22/7 10/21/8 
f 13/23/9 9/20/7 14/24/9 
f 11/22/7 14/24/9 9/20/7 
f 15/25/10 13/26/9 16/27/10 
f 14/28/9 16/27/10 13/26/9 
f 17/29/11 15/30/10 18/31/11 
f 16/32/10 18/31/11 15/30/10 
f 19/33/12 17/29/11 20/34/12 
f 18/31/11 20/34/12 17/29/11 
s 4
f 21/35/13 19/36/13 22/37/13 
f 20/38/13 22/37/13 19/36/13 
s 2
f 10/39/13 21/35/13 12/40/13 
f 22/37/13 12/40/13 21/35/13 
s 1
f 19/33/14 21/41/14 17/42/14 
f 15/43/14 17/42/14 13/44/15 
f 17/42/14 21/41/14 13/44/15 
f 13/44/15 21/41/14 9/45/15 
f 9/45/15 21/41/14 10/46/14 
f 14/47/16 11/48/5 16/49/5 
f 18/50/16 16/49/5 20/34/16 
f 16/49/5 11/48/5 20/34/16 
f 20/34/16 11/48/5 22/51/16 
f 11/48/5 12/10/16 22/51/16 
s 8
f 23/52/7 24/15/8 25/53/7 
f 26/54/8 25/53/7 24/15/8 
f 27/55/9 23/52/7 28/56/9 
f 25/53/7 28/56/9 23/52/7 
f 29/57/10 27/58/9 30/59/10 
f 28/60/9 30/59/10 27/58/9 
f 31/61/11 29/62/10 32/63/11 
f 30/64/10 32/63/11 29/62/10 
f 33/65/12 31/61/11 34/66/12 
f 32/63/11 34/66/12 31/61/11 
s 4
f 35/67/13 33/68/13 36/69/13 
f 34/66/13 36/69/13 33/68/13 
s 2
f 24/70/13 35/67/13 26/71/13 
f 36/69/13 26/71/13 35/67/13 
s 1
f 33/65/14 35/72/15 31/73/15 
f 29/74/14 31/73/15 27/75/14 
f 31/73/15 35/72/15 27/75/14 
f 27/75/14 35/72/15 23/76/14 
f 23/76/14 35/72/15 24/77/14 
f 28/60/16 25/78/5 30/79/5 
f 32/80/16 30/79/5 34/66/16 
f 30/79/5 25/78/5 34/66/16 
f 34/66/16 25/78/5 36/69/16 
f 25/78/5 26/71/16 36/69/16 
# 60 faces

