# 3ds Max Wavefront OBJ Exporter v0.97b - (c)2007 guruware
# File Created: 25.02.2017 21:56:42

#
# object WeaponRack_Building
#

v  -0.7554 0.6061 0.0000
v  -0.6848 0.6061 0.0000
v  -0.6848 0.5844 0.0521
v  -0.7554 0.5844 0.0521
v  -0.6848 1.0326 0.0000
v  -0.7554 1.0326 0.0000
v  -0.7554 1.0326 0.0334
v  -0.6848 1.0326 0.0334
v  -0.6848 0.8805 0.0561
v  -0.7554 0.8805 0.0561
v  -0.7554 0.7516 0.0561
v  -0.6848 0.7516 0.0561
v  -0.6848 0.9661 0.0986
v  -0.6848 0.6520 0.1025
v  -0.6848 0.5000 0.1880
v  -0.7554 0.5000 0.1880
v  -0.7554 0.5000 0.0949
v  -0.6848 0.5000 0.0949
v  -0.7554 0.6520 0.1025
v  -0.7554 1.1478 0.1715
v  -0.6848 1.1478 0.1715
v  -0.6848 1.1478 0.1257
v  -0.7554 1.1478 0.1257
v  -0.7554 0.9661 0.0986
v  -0.6848 1.0531 0.1597
v  -0.7554 1.0531 0.1597
v  -0.6848 1.0799 0.0996
v  -0.7554 1.0799 0.0996
v  0.7554 0.6061 0.0000
v  0.7554 0.5844 0.0521
v  0.6848 0.5844 0.0521
v  0.6848 0.6061 0.0000
v  0.6848 1.0326 0.0000
v  0.6848 1.0326 0.0334
v  0.7554 1.0326 0.0334
v  0.7554 1.0326 0.0000
v  0.6848 0.8805 0.0561
v  0.6848 0.7516 0.0561
v  0.7554 0.7516 0.0561
v  0.7554 0.8805 0.0561
v  0.6848 0.9661 0.0986
v  0.6848 0.6520 0.1025
v  0.6848 0.5000 0.1880
v  0.6848 0.5000 0.0949
v  0.7554 0.5000 0.0949
v  0.7554 0.5000 0.1880
v  0.7554 0.6520 0.1025
v  0.7554 1.1478 0.1715
v  0.7554 1.1478 0.1257
v  0.6848 1.1478 0.1257
v  0.6848 1.1478 0.1715
v  0.7554 0.9661 0.0986
v  0.7554 1.0531 0.1597
v  0.6848 1.0531 0.1597
v  0.6848 1.0799 0.0996
v  0.7554 1.0799 0.0996
v  -0.7554 0.5844 -0.0521
v  -0.6848 0.5844 -0.0521
v  -0.6848 1.0326 -0.0334
v  -0.7554 1.0326 -0.0334
v  -0.6848 0.8805 -0.0561
v  -0.6848 0.7516 -0.0561
v  -0.7554 0.7516 -0.0561
v  -0.7554 0.8805 -0.0561
v  -0.6848 0.9661 -0.0986
v  -0.6848 0.6520 -0.1025
v  -0.6848 0.5000 -0.1880
v  -0.6848 0.5000 -0.0949
v  -0.7554 0.5000 -0.0949
v  -0.7554 0.5000 -0.1880
v  -0.7554 0.6520 -0.1025
v  -0.7554 1.1478 -0.1715
v  -0.7554 1.1478 -0.1257
v  -0.6848 1.1478 -0.1257
v  -0.6848 1.1478 -0.1715
v  -0.7554 0.9661 -0.0986
v  -0.7554 1.0531 -0.1597
v  -0.6848 1.0531 -0.1597
v  -0.6848 1.0799 -0.0996
v  -0.7554 1.0799 -0.0996
v  0.6848 0.5844 -0.0521
v  0.7554 0.5844 -0.0521
v  0.7554 1.0326 -0.0334
v  0.6848 1.0326 -0.0334
v  0.6848 0.8805 -0.0561
v  0.7554 0.8805 -0.0561
v  0.7554 0.7516 -0.0561
v  0.6848 0.7516 -0.0561
v  0.6848 0.6520 -0.1025
v  0.6848 0.9661 -0.0986
v  0.6848 0.5000 -0.1880
v  0.7554 0.5000 -0.1880
v  0.7554 0.5000 -0.0949
v  0.6848 0.5000 -0.0949
v  0.7554 0.6520 -0.1025
v  0.7554 1.1478 -0.1715
v  0.6848 1.1478 -0.1715
v  0.6848 1.1478 -0.1257
v  0.7554 1.1478 -0.1257
v  0.7554 0.9661 -0.0986
v  0.6848 1.0531 -0.1597
v  0.7554 1.0531 -0.1597
v  0.6848 1.0799 -0.0996
v  0.7554 1.0799 -0.0996
v  -0.6848 0.8805 0.0211
v  -0.6848 0.6520 0.0211
v  0.6848 0.8805 0.0211
v  0.6848 0.6520 0.0211
v  0.6848 0.6520 -0.0211
v  -0.6848 0.6520 -0.0211
v  0.6848 0.8805 -0.0211
v  -0.6848 0.8805 -0.0211
# 112 vertices

vn -0.0000 -0.9231 -0.3847
vn 0.0000 -0.9231 -0.3847
vn -0.0000 -0.7332 -0.6801
vn 0.0000 1.0000 -0.0000
vn -0.0000 0.9523 -0.3050
vn 0.0000 -0.2284 0.9736
vn 0.0000 0.2163 0.9763
vn 1.0000 0.0000 -0.0000
vn -0.0000 -1.0000 0.0000
vn 0.0000 -1.0000 0.0000
vn -1.0000 0.0000 -0.0000
vn -0.0000 -0.4529 -0.8916
vn 0.0000 -0.4529 -0.8916
vn -0.0000 0.4566 0.8897
vn -0.0000 0.4903 0.8716
vn 0.0000 -0.5112 0.8595
vn -0.0000 -0.3597 0.9331
vn -0.0000 0.6122 -0.7907
vn -0.0000 -0.1233 0.9924
vn -0.0000 0.3588 -0.9334
vn 0.0000 0.3588 -0.9334
vn 0.0000 -0.7332 -0.6801
vn 0.0000 0.9523 -0.3050
vn -0.0000 -0.2284 0.9736
vn -0.0000 0.2163 0.9763
vn 0.0000 0.4566 0.8897
vn 0.0000 0.4903 0.8716
vn -0.0000 -0.5112 0.8595
vn 0.0000 -0.3597 0.9331
vn 0.0000 0.6122 -0.7907
vn 0.0000 -0.1233 0.9924
vn -0.0000 -0.9231 0.3847
vn -0.0000 -0.7332 0.6801
vn -0.0000 0.9523 0.3050
vn 0.0000 -0.2284 -0.9736
vn 0.0000 0.2163 -0.9763
vn -0.0000 -1.0000 -0.0000
vn 0.0000 -1.0000 -0.0000
vn 0.0000 -0.4529 0.8916
vn -0.0000 -0.4529 0.8916
vn -0.0000 0.4566 -0.8897
vn -0.0000 0.4903 -0.8716
vn 0.0000 -0.5112 -0.8595
vn -0.0000 -0.3597 -0.9331
vn -0.0000 0.6122 0.7907
vn -0.0000 -0.1233 -0.9924
vn 0.0000 0.3588 0.9334
vn -0.0000 0.3588 0.9334
vn 0.0000 -0.9231 0.3847
vn 0.0000 -0.7332 0.6801
vn 0.0000 0.9523 0.3050
vn -0.0000 -0.2284 -0.9736
vn -0.0000 0.2163 -0.9763
vn 0.0000 0.4566 -0.8897
vn 0.0000 0.4903 -0.8716
vn -0.0000 -0.5112 -0.8595
vn 0.0000 -0.3597 -0.9331
vn 0.0000 0.6122 0.7907
vn 0.0000 -0.1233 -0.9924
vn 0.0000 -0.0000 1.0000
vn 0.0000 0.0000 -1.0000
# 61 vertex normals

vt 1.0000 0.5000 0.3558
vt 0.9533 0.5000 0.3558
vt 0.9533 0.4655 0.3415
vt 1.0000 0.4655 0.3415
vt 0.0467 0.5000 0.6381
vt 0.0000 0.5000 0.6381
vt 0.0000 0.4779 0.6381
vt 0.0467 0.4779 0.6381
vt 0.0467 0.5375 0.4629
vt 0.0000 0.5375 0.4629
vt 0.0000 0.4521 0.4629
vt 0.0467 0.4521 0.4629
vt 0.4655 0.3415 0.0467
vt 0.5000 0.3558 0.0467
vt 0.5000 0.6381 0.0467
vt 0.4779 0.6381 0.0467
vt 0.4348 0.5941 0.0467
vt 0.4629 0.5375 0.0467
vt 0.4629 0.4521 0.0467
vt 0.4322 0.3862 0.0467
vt 0.9533 0.3756 0.2856
vt 1.0000 0.3756 0.2856
vt 1.0000 0.4372 0.2856
vt 0.9533 0.4372 0.2856
vt 0.5678 0.3862 0.0000
vt 0.5345 0.3415 0.0000
vt 0.5628 0.2856 0.0000
vt 0.6244 0.2856 0.0000
vt 1.0000 0.3415 0.4655
vt 0.9533 0.3415 0.4655
vt 0.9533 0.2856 0.4372
vt 1.0000 0.2856 0.4372
vt 0.3756 0.2856 0.0467
vt 0.4372 0.2856 0.0467
vt 0.0467 0.3862 0.4322
vt 0.0000 0.3862 0.4322
vt 0.0000 0.2856 0.3756
vt 0.0467 0.2856 0.3756
vt 0.0000 0.3865 0.7144
vt 0.0467 0.3865 0.7144
vt 0.0467 0.4168 0.7144
vt 0.0000 0.4168 0.7144
vt 0.0000 0.5941 0.4348
vt 0.0467 0.5941 0.4348
vt 0.0467 0.6517 0.3943
vt 0.0000 0.6517 0.3943
vt 0.4341 0.6694 0.0467
vt 0.3943 0.6517 0.0467
vt 0.0000 0.4341 0.6694
vt 0.0467 0.4341 0.6694
vt 0.5221 0.6381 0.0000
vt 0.5652 0.5941 0.0000
vt 0.6057 0.6517 0.0000
vt 0.5659 0.6694 0.0000
vt 0.0467 0.7144 0.3865
vt 0.0000 0.7144 0.3865
vt 0.4168 0.7144 0.0467
vt 0.3865 0.7144 0.0467
vt 0.9533 0.6694 0.4341
vt 1.0000 0.6694 0.4341
vt 1.0000 0.7144 0.4168
vt 0.9533 0.7144 0.4168
vt 0.6135 0.7144 0.0000
vt 0.5832 0.7144 0.0000
vt 0.0000 0.5000 0.3558
vt 0.0000 0.4655 0.3415
vt 0.0467 0.4655 0.3415
vt 0.0467 0.5000 0.3558
vt 0.9533 0.5000 0.6381
vt 0.9533 0.4779 0.6381
vt 1.0000 0.4779 0.6381
vt 1.0000 0.5000 0.6381
vt 0.9533 0.5375 0.4629
vt 0.9533 0.4521 0.4629
vt 1.0000 0.4521 0.4629
vt 1.0000 0.5375 0.4629
vt 0.5371 0.5375 0.9533
vt 0.5652 0.5941 0.9533
vt 0.5221 0.6381 0.9533
vt 0.5371 0.4521 0.9533
vt 0.5000 0.6381 0.9533
vt 0.5000 0.3558 0.9533
vt 0.5678 0.3862 0.9533
vt 0.5345 0.3415 0.9533
vt 0.0467 0.3756 0.2856
vt 0.0467 0.4372 0.2856
vt 0.0000 0.4372 0.2856
vt 0.0000 0.3756 0.2856
vt 0.4322 0.3862 1.0000
vt 0.3756 0.2856 1.0000
vt 0.4372 0.2856 1.0000
vt 0.4655 0.3415 1.0000
vt 0.0000 0.3415 0.4655
vt 0.0000 0.2856 0.4372
vt 0.0467 0.2856 0.4372
vt 0.0467 0.3415 0.4655
vt 0.5628 0.2856 0.9533
vt 0.6244 0.2856 0.9533
vt 0.9533 0.3862 0.4322
vt 0.9533 0.2856 0.3756
vt 1.0000 0.2856 0.3756
vt 1.0000 0.3862 0.4322
vt 1.0000 0.3865 0.7144
vt 1.0000 0.4168 0.7144
vt 0.9533 0.4168 0.7144
vt 0.9533 0.3865 0.7144
vt 1.0000 0.5941 0.4348
vt 1.0000 0.6517 0.3943
vt 0.9533 0.6517 0.3943
vt 0.9533 0.5941 0.4348
vt 0.6057 0.6517 0.9533
vt 0.5659 0.6694 0.9533
vt 0.9533 0.4341 0.6694
vt 1.0000 0.4341 0.6694
vt 0.4779 0.6381 1.0000
vt 0.4341 0.6694 1.0000
vt 0.3943 0.6517 1.0000
vt 0.4348 0.5941 1.0000
vt 1.0000 0.7144 0.3865
vt 0.9533 0.7144 0.3865
vt 0.6135 0.7144 0.9533
vt 0.5832 0.7144 0.9533
vt 0.0467 0.6694 0.4341
vt 0.0467 0.7144 0.4168
vt 0.0000 0.7144 0.4168
vt 0.0000 0.6694 0.4341
vt 0.4168 0.7144 1.0000
vt 0.3865 0.7144 1.0000
vt 0.5000 0.3558 0.0000
vt 0.5371 0.4521 0.0000
vt 0.5371 0.5375 0.0000
vt 0.5000 0.6381 0.0000
vt 0.5000 0.6381 1.0000
vt 0.4629 0.5375 1.0000
vt 0.4629 0.4521 1.0000
vt 0.5000 0.3558 1.0000
vt 1.0000 0.5345 0.3415
vt 0.9533 0.5345 0.3415
vt 0.0467 0.5221 0.6381
vt 0.0000 0.5221 0.6381
vt 0.9533 0.5375 0.5371
vt 0.9533 0.4521 0.5371
vt 1.0000 0.4521 0.5371
vt 1.0000 0.5375 0.5371
vt 0.5652 0.5941 0.0467
vt 0.5221 0.6381 0.0467
vt 0.5371 0.5375 0.0467
vt 0.5371 0.4521 0.0467
vt 0.5345 0.3415 0.0467
vt 0.5678 0.3862 0.0467
vt 0.9533 0.6244 0.2856
vt 0.9533 0.5628 0.2856
vt 1.0000 0.5628 0.2856
vt 1.0000 0.6244 0.2856
vt 0.4322 0.3862 0.0000
vt 0.3756 0.2856 0.0000
vt 0.4372 0.2856 0.0000
vt 0.4655 0.3415 0.0000
vt 0.0000 0.3415 0.5345
vt 0.0000 0.2856 0.5628
vt 0.0467 0.2856 0.5628
vt 0.0467 0.3415 0.5345
vt 0.5628 0.2856 0.0467
vt 0.6244 0.2856 0.0467
vt 0.9533 0.3862 0.5678
vt 0.9533 0.2856 0.6244
vt 1.0000 0.2856 0.6244
vt 1.0000 0.3862 0.5678
vt 0.0000 0.6135 0.7144
vt 0.0000 0.5832 0.7144
vt 0.0467 0.5832 0.7144
vt 0.0467 0.6135 0.7144
vt 1.0000 0.5941 0.5652
vt 1.0000 0.6517 0.6057
vt 0.9533 0.6517 0.6057
vt 0.9533 0.5941 0.5652
vt 0.6057 0.6517 0.0467
vt 0.5659 0.6694 0.0467
vt 0.0467 0.5659 0.6694
vt 0.0000 0.5659 0.6694
vt 0.4779 0.6381 0.0000
vt 0.4341 0.6694 0.0000
vt 0.3943 0.6517 0.0000
vt 0.4348 0.5941 0.0000
vt 1.0000 0.7144 0.6135
vt 0.9533 0.7144 0.6135
vt 0.6135 0.7144 0.0467
vt 0.5832 0.7144 0.0467
vt 0.0467 0.6694 0.5659
vt 0.0467 0.7144 0.5832
vt 0.0000 0.7144 0.5832
vt 0.0000 0.6694 0.5659
vt 0.4168 0.7144 0.0000
vt 0.3865 0.7144 0.0000
vt 0.0467 0.5345 0.3415
vt 0.0000 0.5345 0.3415
vt 1.0000 0.5221 0.6381
vt 0.9533 0.5221 0.6381
vt 0.0467 0.5375 0.5371
vt 0.0000 0.5375 0.5371
vt 0.0000 0.4521 0.5371
vt 0.0467 0.4521 0.5371
vt 0.4322 0.3862 0.9533
vt 0.4655 0.3415 0.9533
vt 0.4779 0.6381 0.9533
vt 0.4348 0.5941 0.9533
vt 0.4629 0.5375 0.9533
vt 0.4629 0.4521 0.9533
vt 0.0467 0.6244 0.2856
vt 0.0000 0.6244 0.2856
vt 0.0000 0.5628 0.2856
vt 0.0467 0.5628 0.2856
vt 0.5678 0.3862 1.0000
vt 0.5345 0.3415 1.0000
vt 0.5628 0.2856 1.0000
vt 0.6244 0.2856 1.0000
vt 1.0000 0.3415 0.5345
vt 0.9533 0.3415 0.5345
vt 0.9533 0.2856 0.5628
vt 1.0000 0.2856 0.5628
vt 0.3756 0.2856 0.9533
vt 0.4372 0.2856 0.9533
vt 0.0467 0.3862 0.5678
vt 0.0000 0.3862 0.5678
vt 0.0000 0.2856 0.6244
vt 0.0467 0.2856 0.6244
vt 1.0000 0.6135 0.7144
vt 0.9533 0.6135 0.7144
vt 0.9533 0.5832 0.7144
vt 1.0000 0.5832 0.7144
vt 0.0000 0.5941 0.5652
vt 0.0467 0.5941 0.5652
vt 0.0467 0.6517 0.6057
vt 0.0000 0.6517 0.6057
vt 0.4341 0.6694 0.9533
vt 0.3943 0.6517 0.9533
vt 1.0000 0.5659 0.6694
vt 0.9533 0.5659 0.6694
vt 0.5221 0.6381 1.0000
vt 0.5652 0.5941 1.0000
vt 0.6057 0.6517 1.0000
vt 0.5659 0.6694 1.0000
vt 0.0467 0.7144 0.6135
vt 0.0000 0.7144 0.6135
vt 0.4168 0.7144 0.9533
vt 0.3865 0.7144 0.9533
vt 0.9533 0.6694 0.5659
vt 1.0000 0.6694 0.5659
vt 1.0000 0.7144 0.5832
vt 0.9533 0.7144 0.5832
vt 0.6135 0.7144 1.0000
vt 0.5832 0.7144 1.0000
vt 0.4629 0.5375 0.0000
vt 0.4629 0.4521 0.0000
vt 0.5371 0.4521 1.0000
vt 0.5371 0.5375 1.0000
vt 0.0467 0.5375 0.4860
vt 0.0467 0.3862 0.4860
vt 0.9533 0.5375 0.4860
vt 0.9533 0.3862 0.4860
vt 0.0467 0.3862 0.5140
vt 0.9533 0.3862 0.5140
vt 0.0467 0.5375 0.5140
vt 0.9533 0.5375 0.5140
vt 0.0467 0.4860 0.3862
vt 0.9533 0.4860 0.3862
vt 0.0467 0.5140 0.3862
vt 0.9533 0.5140 0.3862
vt 0.4860 0.5375 0.9533
vt 0.4860 0.3862 0.9533
vt 0.5140 0.5375 0.9533
vt 0.5140 0.3862 0.9533
vt 0.0467 0.4860 0.5375
vt 0.9533 0.4860 0.5375
vt 0.0467 0.5140 0.5375
vt 0.9533 0.5140 0.5375
vt 0.5140 0.3862 0.0467
vt 0.5140 0.5375 0.0467
vt 0.4860 0.3862 0.0467
vt 0.4860 0.5375 0.0467
# 280 texture coords

g WeaponRack_Building
s 1
f 1/1/1 2/2/2 3/3/3 
f 3/3/3 4/4/3 1/1/1 
f 5/5/4 6/6/4 7/7/5 
f 7/7/5 8/8/5 5/5/4 
f 9/9/6 10/10/6 11/11/7 
f 11/11/7 12/12/7 9/9/6 
s 2
f 3/13/8 2/14/8 5/15/8 
f 5/15/8 8/16/8 13/17/8 
f 5/15/8 13/17/8 9/18/8 
f 5/15/8 9/18/8 12/19/8 
f 3/13/8 5/15/8 12/19/8 
f 14/20/8 3/13/8 12/19/8 
s 4
f 15/21/9 16/22/9 17/23/9 
f 17/23/9 18/24/10 15/21/9 
s 2
f 19/25/11 4/26/11 17/27/11 
f 17/27/11 16/28/11 19/25/11 
s 1
f 4/29/3 3/30/3 18/31/12 
f 18/31/12 17/32/13 4/29/3 
s 2
f 3/13/8 14/20/8 15/33/8 
f 15/33/8 18/34/8 3/13/8 
s 1
f 14/35/14 19/36/14 16/37/15 
f 16/37/15 15/38/15 14/35/14 
s 4
f 20/39/4 21/40/4 22/41/4 
f 22/41/4 23/42/4 20/39/4 
s 1
f 24/43/16 13/44/16 25/45/17 
f 25/45/17 26/46/17 24/43/16 
s 2
f 13/17/8 8/16/8 27/47/8 
f 27/47/8 25/48/8 13/17/8 
s 1
f 8/8/5 7/7/5 28/49/18 
f 28/49/18 27/50/18 8/8/5 
s 2
f 7/51/11 24/52/11 26/53/11 
f 26/53/11 28/54/11 7/51/11 
s 1
f 26/46/17 25/45/17 21/55/19 
f 21/55/19 20/56/19 26/46/17 
s 2
f 25/48/8 27/47/8 22/57/8 
f 22/57/8 21/58/8 25/48/8 
s 1
f 27/59/18 28/60/18 23/61/20 
f 23/61/20 22/62/21 27/59/18 
s 2
f 28/54/11 26/53/11 20/63/11 
f 20/63/11 23/64/11 28/54/11 
s 1
f 13/44/16 24/43/16 10/10/6 
f 10/10/6 9/9/6 13/44/16 
f 19/36/14 14/35/14 12/12/7 
f 12/12/7 11/11/7 19/36/14 
f 29/65/2 30/66/22 31/67/22 
f 31/67/22 32/68/2 29/65/2 
f 33/69/4 34/70/23 35/71/23 
f 35/71/23 36/72/4 33/69/4 
f 37/73/24 38/74/25 39/75/25 
f 39/75/25 40/76/24 37/73/24 
s 2
f 37/77/11 41/78/11 34/79/11 
f 38/80/11 37/77/11 34/79/11 
f 34/79/11 33/81/11 32/82/11 
f 38/80/11 34/79/11 32/82/11 
f 42/83/11 38/80/11 32/82/11 
f 42/83/11 32/82/11 31/84/11 
s 4
f 43/85/10 44/86/10 45/87/10 
f 45/87/10 46/88/10 43/85/10 
s 2
f 47/89/8 46/90/8 45/91/8 
f 45/91/8 30/92/8 47/89/8 
s 1
f 30/93/22 45/94/13 44/95/13 
f 44/95/13 31/96/22 30/93/22 
s 2
f 31/84/11 44/97/11 43/98/11 
f 43/98/11 42/83/11 31/84/11 
s 1
f 42/99/26 43/100/27 46/101/27 
f 46/101/27 47/102/26 42/99/26 
s 4
f 48/103/4 49/104/4 50/105/4 
f 50/105/4 51/106/4 48/103/4 
s 1
f 52/107/28 53/108/29 54/109/29 
f 54/109/29 41/110/28 52/107/28 
s 2
f 41/78/11 54/111/11 55/112/11 
f 55/112/11 34/79/11 41/78/11 
s 1
f 34/70/23 55/113/30 56/114/30 
f 56/114/30 35/71/23 34/70/23 
s 2
f 35/115/8 56/116/8 53/117/8 
f 53/117/8 52/118/8 35/115/8 
s 1
f 53/108/29 48/119/31 51/120/31 
f 51/120/31 54/109/29 53/108/29 
s 2
f 54/111/11 51/121/11 50/122/11 
f 50/122/11 55/112/11 54/111/11 
s 1
f 55/123/30 50/124/21 49/125/21 
f 49/125/21 56/126/30 55/123/30 
s 2
f 56/116/8 49/127/8 48/128/8 
f 48/128/8 53/117/8 56/116/8 
s 1
f 41/110/28 37/73/24 40/76/24 
f 40/76/24 52/107/28 41/110/28 
f 47/102/26 39/75/25 38/74/25 
f 38/74/25 42/99/26 47/102/26 
s 2
f 1/129/11 4/26/11 19/25/11 
f 1/129/11 19/25/11 11/130/11 
f 10/131/11 24/52/11 7/51/11 
f 11/130/11 10/131/11 7/51/11 
f 1/129/11 11/130/11 7/51/11 
f 1/129/11 7/51/11 6/132/11 
f 36/133/8 35/115/8 52/118/8 
f 36/133/8 52/118/8 40/134/8 
f 36/133/8 40/134/8 39/135/8 
f 39/135/8 47/89/8 30/92/8 
f 36/133/8 39/135/8 30/92/8 
f 36/133/8 30/92/8 29/136/8 
s 4
f 1/1/32 57/137/33 58/138/33 
f 58/138/33 2/2/32 1/1/32 
s 1
f 5/5/4 59/139/34 60/140/34 
f 60/140/34 6/6/4 5/5/4 
f 61/141/35 62/142/36 63/143/36 
f 63/143/36 64/144/35 61/141/35 
s 2
f 65/145/8 59/146/8 5/15/8 
f 61/147/8 65/145/8 5/15/8 
f 62/148/8 61/147/8 5/15/8 
f 5/15/8 2/14/8 58/149/8 
f 62/148/8 5/15/8 58/149/8 
f 66/150/8 62/148/8 58/149/8 
s 8
f 67/151/37 68/152/38 69/153/37 
f 69/153/37 70/154/37 67/151/37 
s 2
f 71/155/11 70/156/11 69/157/11 
f 69/157/11 57/158/11 71/155/11 
s 4
f 57/159/33 69/160/39 68/161/40 
f 68/161/40 58/162/33 57/159/33 
s 2
f 58/149/8 68/163/8 67/164/8 
f 67/164/8 66/150/8 58/149/8 
s 1
f 66/165/41 67/166/42 70/167/42 
f 70/167/42 71/168/41 66/165/41 
s 4
f 72/169/4 73/170/4 74/171/4 
f 74/171/4 75/172/4 72/169/4 
s 1
f 76/173/43 77/174/44 78/175/44 
f 78/175/44 65/176/43 76/173/43 
s 2
f 65/145/8 78/177/8 79/178/8 
f 79/178/8 59/146/8 65/145/8 
s 1
f 59/139/34 79/179/45 80/180/45 
f 80/180/45 60/140/34 59/139/34 
s 2
f 60/181/11 80/182/11 77/183/11 
f 77/183/11 76/184/11 60/181/11 
s 1
f 77/174/44 72/185/46 75/186/46 
f 75/186/46 78/175/44 77/174/44 
s 2
f 78/177/8 75/187/8 74/188/8 
f 74/188/8 79/178/8 78/177/8 
s 1
f 79/189/45 74/190/47 73/191/48 
f 73/191/48 80/192/45 79/189/45 
s 2
f 80/182/11 73/193/11 72/194/11 
f 72/194/11 77/183/11 80/182/11 
s 1
f 65/176/43 61/141/35 64/144/35 
f 64/144/35 76/173/43 65/176/43 
f 71/168/41 63/143/36 62/142/36 
f 62/142/36 66/165/41 71/168/41 
s 4
f 29/65/49 32/68/32 81/195/50 
f 81/195/50 82/196/50 29/65/49 
s 1
f 33/69/4 36/72/4 83/197/51 
f 83/197/51 84/198/51 33/69/4 
f 85/199/52 86/200/52 87/201/53 
f 87/201/53 88/202/53 85/199/52 
s 2
f 89/203/11 81/204/11 32/82/11 
f 32/82/11 33/81/11 84/205/11 
f 84/205/11 90/206/11 85/207/11 
f 84/205/11 85/207/11 88/208/11 
f 32/82/11 84/205/11 88/208/11 
f 89/203/11 32/82/11 88/208/11 
s 8
f 91/209/38 92/210/38 93/211/38 
f 93/211/38 94/212/38 91/209/38 
s 2
f 95/213/8 82/214/8 93/215/8 
f 93/215/8 92/216/8 95/213/8 
s 4
f 82/217/50 81/218/50 94/219/39 
f 94/219/39 93/220/39 82/217/50 
s 2
f 81/204/11 89/203/11 91/221/11 
f 91/221/11 94/222/11 81/204/11 
s 1
f 89/223/54 95/224/54 92/225/55 
f 92/225/55 91/226/55 89/223/54 
s 4
f 96/227/4 97/228/4 98/229/4 
f 98/229/4 99/230/4 96/227/4 
s 1
f 100/231/56 90/232/56 101/233/57 
f 101/233/57 102/234/57 100/231/56 
s 2
f 90/206/11 84/205/11 103/235/11 
f 103/235/11 101/236/11 90/206/11 
s 1
f 84/198/51 83/197/51 104/237/58 
f 104/237/58 103/238/58 84/198/51 
s 2
f 83/239/8 100/240/8 102/241/8 
f 102/241/8 104/242/8 83/239/8 
s 1
f 102/234/57 101/233/57 97/243/59 
f 97/243/59 96/244/59 102/234/57 
s 2
f 101/236/11 103/235/11 98/245/11 
f 98/245/11 97/246/11 101/236/11 
s 1
f 103/247/58 104/248/58 99/249/47 
f 99/249/47 98/250/47 103/247/58 
s 2
f 104/242/8 102/241/8 96/251/8 
f 96/251/8 99/252/8 104/242/8 
s 1
f 90/232/56 100/231/56 86/200/52 
f 86/200/52 85/199/52 90/232/56 
f 95/224/54 89/223/54 88/202/53 
f 88/202/53 87/201/53 95/224/54 
s 2
f 1/129/11 6/132/11 60/181/11 
f 60/181/11 76/184/11 64/253/11 
f 60/181/11 64/253/11 63/254/11 
f 1/129/11 60/181/11 63/254/11 
f 1/129/11 63/254/11 71/155/11 
f 1/129/11 71/155/11 57/158/11 
f 36/133/8 29/136/8 82/214/8 
f 82/214/8 95/213/8 87/255/8 
f 36/133/8 82/214/8 87/255/8 
f 36/133/8 87/255/8 86/256/8 
f 36/133/8 86/256/8 100/240/8 
f 36/133/8 100/240/8 83/239/8 
s 1
f 105/257/60 106/258/60 107/259/60 
f 108/260/60 107/259/60 106/258/60 
f 109/261/61 110/262/61 111/263/61 
f 112/264/61 111/263/61 110/262/61 
s 2
f 108/265/38 106/266/38 109/267/38 
f 110/268/38 109/267/38 106/266/38 
s 4
f 107/269/8 108/270/8 111/271/8 
f 109/272/8 111/271/8 108/270/8 
s 2
f 105/273/4 107/274/4 112/275/4 
f 111/276/4 112/275/4 107/274/4 
s 4
f 106/277/11 105/278/11 110/279/11 
f 112/280/11 110/279/11 105/278/11 
# 212 faces

