# 3ds Max Wavefront OBJ Exporter v0.97b - (c)2007 guruware
# File Created: 13.07.2016 22:13:19

#
# object WorkshopCounterSetSquare_Building
#

v  1.0000 1.4000 -1.0000
v  -1.0000 1.4000 -1.0000
v  -1.0000 1.4000 1.0000
v  1.0000 1.4000 1.0000
v  -1.0000 0.5000 1.0000
v  1.0000 0.5000 1.0000
v  1.0000 0.5000 -1.0000
v  -1.0000 0.5000 -1.0000
# 8 vertices

vn 0.0000 1.0000 -0.0000
vn 0.0000 0.0000 1.0000
vn 1.0000 0.0000 -0.0000
vn 0.0000 0.0000 -1.0000
vn -1.0000 0.0000 -0.0000
# 5 vertex normals

vt 0.6861 0.9940 1.5000
vt 0.0020 0.9940 1.5000
vt 0.0020 0.3099 1.5000
vt 0.6861 0.3099 1.5000
vt 0.0020 0.0020 1.5000
vt 0.6861 0.0020 1.5000
vt 0.6862 0.3099 -0.5000
vt 0.0020 0.3099 -0.5000
vt 0.0020 0.0020 -0.5000
vt 0.6862 0.0020 -0.5000
vt 0.6861 0.3099 -1.5000
vt 0.0020 0.3099 -1.5000
vt 0.0020 0.0020 -1.5000
vt 0.6861 0.0020 -1.5000
vt 0.6861 0.3099 0.5000
vt 0.0020 0.3099 0.5000
vt 0.0020 0.0020 0.5000
vt 0.6861 0.0020 0.5000
# 18 texture coords

g WorkshopCounterSetSquare_Building
s 1
f 1/1/1 2/2/1 3/3/1 
f 3/3/1 4/4/1 1/1/1 
s 2
f 4/4/2 3/3/2 5/5/2 
f 5/5/2 6/6/2 4/4/2 
s 4
f 1/7/3 4/8/3 6/9/3 
f 6/9/3 7/10/3 1/7/3 
s 2
f 2/11/4 1/12/4 7/13/4 
f 7/13/4 8/14/4 2/11/4 
s 4
f 3/15/5 2/16/5 8/17/5 
f 8/17/5 5/18/5 3/15/5 
# 10 faces

#
# object WorkshopCounterSetSquare_Building_NoMat
#

v  -0.1980 1.4200 0.6307
v  -0.1717 1.4200 0.5650
v  -0.5455 1.4200 -0.3083
v  -0.5915 1.4200 -0.2886
v  0.7213 1.4200 0.2372
v  0.7016 1.4200 0.1912
v  -0.1454 1.4100 0.4994
v  -0.4996 1.4100 -0.3280
v  0.6820 1.4100 0.1452
v  -0.1980 1.4000 0.6307
v  -0.5915 1.4000 -0.2886
v  0.7213 1.4000 0.2372
v  0.6820 1.4000 0.1452
v  -0.1454 1.4000 0.4994
v  -0.4996 1.4000 -0.3280
# 15 vertices

vn 0.0000 1.0000 -0.0000
vn 0.0131 0.9994 -0.0326
vn 0.0906 0.9951 -0.0388
vn -0.0388 0.9951 -0.0906
vn 0.0521 0.9901 -0.1300
vn 0.1803 0.9806 -0.0772
vn -0.0772 0.9806 -0.1803
vn -0.9193 0.0000 0.3935
vn 0.3935 0.0000 0.9193
vn 0.9193 0.0000 -0.3935
vn -0.3935 0.0000 -0.9193
# 11 vertex normals

vt 0.9610 0.9928 0.0000
vt 0.9128 0.9446 0.0000
vt 0.9128 0.0289 0.0000
vt 0.9610 0.0289 0.0000
vt 0.7239 0.0279 0.0000
vt 0.7721 0.0279 0.0000
vt 0.7721 0.9436 0.0000
vt 0.7239 0.9918 0.0000
vt 0.8636 0.8964 0.0000
vt 0.8636 0.0289 0.0000
vt 0.8212 0.0279 0.0000
vt 0.8212 0.8954 0.0000
vt 0.9802 0.9928 0.0000
vt 0.9802 0.0289 0.0000
vt 0.7046 0.0279 0.0000
vt 0.7046 0.9918 0.0000
vt 0.7239 0.0086 0.0000
vt 0.8203 0.0086 0.0000
vt 0.8203 0.0183 0.0000
vt 0.8308 0.8954 0.0000
vt 0.8308 0.0279 0.0000
vt 0.8540 0.0289 0.0000
vt 0.8540 0.8964 0.0000
vt 0.8646 0.0192 0.0000
vt 0.8646 0.0096 0.0000
vt 0.9610 0.0096 0.0000
# 26 texture coords

g WorkshopCounterSetSquare_Building_NoMat
s 1
f 9/19/6 10/20/7 11/21/8 
f 11/21/8 12/22/6 9/19/6 
f 13/23/6 14/24/9 10/25/7 
f 10/25/7 9/26/6 13/23/6 
f 10/20/7 15/27/10 16/28/11 
f 16/28/11 11/21/8 10/20/7 
f 14/24/9 17/29/12 15/30/10 
f 15/30/10 10/25/7 14/24/9 
s 2
f 18/31/13 9/19/13 12/22/13 
f 12/22/13 19/32/13 18/31/13 
s 4
f 20/33/14 13/23/14 9/26/14 
f 9/26/14 18/34/14 20/33/14 
s 2
f 13/23/15 20/35/15 21/36/15 
f 21/36/15 17/37/15 14/24/15 
f 13/23/15 21/36/15 14/24/15 
s 4
f 22/38/16 15/30/16 17/29/16 
f 17/29/16 21/39/16 22/38/16 
s 2
f 23/40/15 16/28/15 15/27/15 
f 15/27/15 22/41/15 23/40/15 
s 4
f 16/42/16 23/43/16 19/44/16 
f 19/44/16 12/22/16 11/21/16 
f 16/42/16 19/44/16 11/21/16 
# 22 faces

