# 3ds Max Wavefront OBJ Exporter v0.97b - (c)2007 guruware
# File Created: 19.07.2016 19:18:14

#
# object WorkshopFarmersSpool_Building
#

v  -1.0000 0.7500 -0.0000
v  -1.0000 0.5000 -0.2500
v  -1.0000 0.5000 -0.0000
v  -1.0000 0.7500 -0.2500
v  -1.0000 1.7500 -0.0000
v  -1.0000 1.5000 -0.2500
v  -1.0000 1.5000 -0.0000
v  -1.0000 1.7500 -0.2500
v  -0.7500 0.7500 0.2500
v  -0.7500 0.5000 -0.0000
v  -0.7500 0.5000 0.2500
v  -0.7500 0.7500 -0.0000
v  -0.7500 0.7500 -0.2500
v  -0.7500 0.5000 -0.5000
v  -0.7500 0.5000 -0.2500
v  -0.7500 0.7500 -0.5000
v  -0.7500 1.7500 0.2500
v  -0.7500 1.5000 -0.0000
v  -0.7500 1.5000 0.2500
v  -0.7500 1.7500 -0.0000
v  -0.7500 1.7500 -0.2500
v  -0.7500 1.5000 -0.5000
v  -0.7500 1.5000 -0.2500
v  -0.7500 1.7500 -0.5000
v  -0.2500 1.0000 0.5000
v  -0.2500 0.7500 0.2500
v  -0.2500 0.7500 0.5000
v  -0.2500 1.0000 0.2500
v  -0.2500 1.0000 -0.5000
v  -0.2500 0.7500 -0.7500
v  -0.2500 0.7500 -0.5000
v  -0.2500 1.0000 -0.7500
v  0.0000 0.7500 0.5000
v  0.0000 0.5000 0.2500
v  0.0000 0.5000 0.5000
v  0.0000 0.7500 0.2500
v  0.0000 0.7500 -0.5000
v  0.0000 0.5000 -0.7500
v  0.0000 0.5000 -0.5000
v  0.0000 0.7500 -0.7500
v  0.0000 1.2500 0.5000
v  0.0000 1.0000 0.2500
v  0.0000 1.0000 0.5000
v  0.0000 1.2500 0.2500
v  0.0000 1.2500 -0.5000
v  0.0000 1.0000 -0.7500
v  0.0000 1.0000 -0.5000
v  0.0000 1.2500 -0.7500
v  -0.5000 0.5000 0.2500
v  -0.5000 0.5000 -0.0000
v  -0.5000 0.7500 0.2500
v  -0.5000 0.7500 -0.0000
v  -0.5000 0.5000 -0.2500
v  -0.5000 0.5000 -0.5000
v  -0.5000 0.7500 -0.2500
v  -0.5000 0.7500 -0.5000
v  -0.5000 1.5000 0.2500
v  -0.5000 1.5000 -0.0000
v  -0.5000 1.7500 0.2500
v  -0.5000 1.7500 -0.0000
v  -0.5000 1.5000 -0.2500
v  -0.5000 1.5000 -0.5000
v  -0.5000 1.7500 -0.2500
v  -0.5000 1.7500 -0.5000
v  -0.2500 0.5000 -0.0000
v  -0.2500 0.5000 -0.2500
v  -0.2500 0.7500 -0.0000
v  -0.2500 0.7500 -0.2500
v  -0.2500 1.5000 -0.0000
v  -0.2500 1.5000 -0.2500
v  -0.2500 1.7500 -0.0000
v  -0.2500 1.7500 -0.2500
v  0.2500 0.5000 0.5000
v  0.2500 0.5000 0.2500
v  0.2500 0.7500 0.5000
v  0.2500 0.7500 0.2500
v  0.2500 0.5000 -0.5000
v  0.2500 0.5000 -0.7500
v  0.2500 0.7500 -0.5000
v  0.2500 0.7500 -0.7500
v  0.2500 1.0000 0.5000
v  0.2500 1.0000 0.2500
v  0.2500 1.2500 0.5000
v  0.2500 1.2500 0.2500
v  0.2500 1.0000 -0.5000
v  0.2500 1.0000 -0.7500
v  0.2500 1.2500 -0.5000
v  0.2500 1.2500 -0.7500
v  0.5000 0.7500 0.5000
v  0.5000 0.7500 0.2500
v  0.5000 1.0000 0.5000
v  0.5000 1.0000 0.2500
v  0.5000 0.7500 -0.5000
v  0.5000 0.7500 -0.7500
v  0.5000 1.0000 -0.5000
v  0.5000 1.0000 -0.7500
# 96 vertices

vn -1.0000 0.0000 -0.0000
vn 1.0000 0.0000 -0.0000
vn 0.0000 0.0000 1.0000
vn 0.0000 0.0000 -1.0000
vn 0.0000 -1.0000 -0.0000
vn 0.0000 1.0000 -0.0000
# 6 vertex normals

vt 0.6996 0.0219 0.0000
vt 0.7681 0.0904 0.0000
vt 0.6996 0.0904 0.0000
vt 0.7681 0.0219 0.0000
vt 0.9096 0.3019 0.0000
vt 0.9781 0.3704 0.0000
vt 0.9096 0.3704 0.0000
vt 0.9781 0.3019 0.0000
vt 0.2264 0.7617 0.0000
vt 0.2949 0.8302 0.0000
vt 0.2264 0.8302 0.0000
vt 0.2949 0.7617 0.0000
vt 0.9096 0.3848 0.0000
vt 0.9781 0.4533 0.0000
vt 0.9096 0.4533 0.0000
vt 0.9781 0.3848 0.0000
vt 0.3237 0.7617 0.0000
vt 0.3922 0.8302 0.0000
vt 0.3237 0.8302 0.0000
vt 0.3922 0.7617 0.0000
vt 0.5337 0.1877 0.0000
vt 0.6022 0.2562 0.0000
vt 0.5337 0.2562 0.0000
vt 0.6022 0.1877 0.0000
vt 0.5337 0.1048 0.0000
vt 0.6022 0.1733 0.0000
vt 0.5337 0.1733 0.0000
vt 0.6022 0.1048 0.0000
vt 0.5337 0.0219 0.0000
vt 0.6022 0.0904 0.0000
vt 0.5337 0.0904 0.0000
vt 0.6022 0.0219 0.0000
vt 0.0219 0.4399 0.0000
vt 0.0904 0.5084 0.0000
vt 0.0219 0.5084 0.0000
vt 0.0904 0.4399 0.0000
vt 0.0219 0.3138 0.0000
vt 0.0904 0.3823 0.0000
vt 0.0219 0.3823 0.0000
vt 0.0904 0.3138 0.0000
vt 0.3679 0.0219 0.0000
vt 0.4364 0.0904 0.0000
vt 0.3679 0.0904 0.0000
vt 0.4364 0.0219 0.0000
vt 0.2850 0.1048 0.0000
vt 0.3535 0.1733 0.0000
vt 0.2850 0.1733 0.0000
vt 0.3535 0.1048 0.0000
vt 0.1048 0.0904 0.0000
vt 0.0363 0.0904 0.0000
vt 0.1048 0.0219 0.0000
vt 0.0363 0.0219 0.0000
vt 0.1048 0.7462 0.0000
vt 0.0363 0.7462 0.0000
vt 0.1048 0.6777 0.0000
vt 0.0363 0.6777 0.0000
vt 0.5049 0.3823 0.0000
vt 0.4364 0.3823 0.0000
vt 0.5049 0.3138 0.0000
vt 0.4364 0.3138 0.0000
vt 0.4220 0.5084 0.0000
vt 0.3535 0.5084 0.0000
vt 0.4220 0.4399 0.0000
vt 0.3535 0.4399 0.0000
vt 0.8952 0.4533 0.0000
vt 0.8267 0.4533 0.0000
vt 0.8952 0.3848 0.0000
vt 0.8267 0.3848 0.0000
vt 0.6852 0.1733 0.0000
vt 0.6166 0.1733 0.0000
vt 0.6852 0.1048 0.0000
vt 0.6166 0.1048 0.0000
vt 0.6852 0.0904 0.0000
vt 0.6166 0.0904 0.0000
vt 0.6852 0.0219 0.0000
vt 0.6166 0.0219 0.0000
vt 0.1733 0.5084 0.0000
vt 0.1048 0.5084 0.0000
vt 0.1733 0.4399 0.0000
vt 0.1048 0.4399 0.0000
vt 0.2706 0.2562 0.0000
vt 0.2021 0.2562 0.0000
vt 0.2706 0.1877 0.0000
vt 0.2021 0.1877 0.0000
vt 0.3535 0.0904 0.0000
vt 0.2850 0.0904 0.0000
vt 0.3535 0.0219 0.0000
vt 0.2850 0.0219 0.0000
vt 0.2706 0.1733 0.0000
vt 0.2021 0.1733 0.0000
vt 0.2706 0.1048 0.0000
vt 0.2021 0.1048 0.0000
vt 0.1877 0.2562 0.0000
vt 0.1192 0.2562 0.0000
vt 0.1877 0.1877 0.0000
vt 0.1192 0.1877 0.0000
vt 0.6218 0.8575 0.0000
vt 0.6199 0.9544 0.0000
vt 0.5724 0.9050 0.0000
vt 0.6693 0.9069 0.0000
vt 0.6237 0.7606 0.0000
vt 0.7168 0.9563 0.0000
vt 0.5743 0.8081 0.0000
vt 0.6712 0.8100 0.0000
vt 0.7187 0.8594 0.0000
vt 0.7662 0.9088 0.0000
vt 0.7206 0.7625 0.0000
vt 0.7681 0.8119 0.0000
vt 0.6996 0.2562 0.0000
vt 0.7681 0.1877 0.0000
vt 0.7681 0.2562 0.0000
vt 0.6996 0.1877 0.0000
vt 0.4364 0.5084 0.0000
vt 0.5049 0.4399 0.0000
vt 0.5049 0.5084 0.0000
vt 0.4364 0.4399 0.0000
vt 0.4066 0.8302 0.0000
vt 0.4751 0.7617 0.0000
vt 0.4751 0.8302 0.0000
vt 0.4066 0.7617 0.0000
vt 0.6166 0.2562 0.0000
vt 0.6852 0.1877 0.0000
vt 0.6852 0.2562 0.0000
vt 0.6166 0.1877 0.0000
vt 0.9096 0.2875 0.0000
vt 0.9781 0.2190 0.0000
vt 0.9781 0.2875 0.0000
vt 0.9096 0.2190 0.0000
vt 0.1877 0.3823 0.0000
vt 0.2562 0.3138 0.0000
vt 0.2562 0.3823 0.0000
vt 0.1877 0.3138 0.0000
vt 0.3679 0.2562 0.0000
vt 0.4364 0.1877 0.0000
vt 0.4364 0.2562 0.0000
vt 0.3679 0.1877 0.0000
vt 0.3679 0.1733 0.0000
vt 0.4364 0.1048 0.0000
vt 0.4364 0.1733 0.0000
vt 0.3679 0.1048 0.0000
vt 0.2021 0.0904 0.0000
vt 0.2706 0.0219 0.0000
vt 0.2706 0.0904 0.0000
vt 0.2021 0.0219 0.0000
vt 0.1192 0.1733 0.0000
vt 0.1877 0.1048 0.0000
vt 0.1877 0.1733 0.0000
vt 0.1192 0.1048 0.0000
vt 0.8267 0.1217 0.0000
vt 0.8267 0.0532 0.0000
vt 0.8952 0.1217 0.0000
vt 0.8952 0.0532 0.0000
vt 0.0904 0.6345 0.0000
vt 0.0904 0.5660 0.0000
vt 0.1589 0.6345 0.0000
vt 0.1589 0.5660 0.0000
vt 0.2021 0.7462 0.0000
vt 0.2021 0.6777 0.0000
vt 0.2706 0.7462 0.0000
vt 0.2706 0.6777 0.0000
vt 0.8267 0.5362 0.0000
vt 0.8267 0.4677 0.0000
vt 0.8952 0.5362 0.0000
vt 0.8952 0.4677 0.0000
vt 0.6996 0.1733 0.0000
vt 0.6996 0.1048 0.0000
vt 0.7681 0.1733 0.0000
vt 0.7681 0.1048 0.0000
vt 0.0606 0.8302 0.0000
vt 0.0606 0.7617 0.0000
vt 0.1291 0.8302 0.0000
vt 0.1291 0.7617 0.0000
vt 0.4508 0.2562 0.0000
vt 0.4508 0.1877 0.0000
vt 0.5193 0.2562 0.0000
vt 0.5193 0.1877 0.0000
vt 0.4508 0.1733 0.0000
vt 0.4508 0.1048 0.0000
vt 0.5193 0.1733 0.0000
vt 0.5193 0.1048 0.0000
vt 0.4508 0.0904 0.0000
vt 0.4508 0.0219 0.0000
vt 0.5193 0.0904 0.0000
vt 0.5193 0.0219 0.0000
vt 0.0363 0.2562 0.0000
vt 0.0363 0.1877 0.0000
vt 0.1048 0.2562 0.0000
vt 0.1048 0.1877 0.0000
vt 0.9306 0.5525 0.0000
vt 0.9781 0.6019 0.0000
vt 0.8812 0.6000 0.0000
vt 0.9287 0.6494 0.0000
vt 0.8337 0.5506 0.0000
vt 0.7844 0.5981 0.0000
vt 0.9762 0.6988 0.0000
vt 0.8318 0.6475 0.0000
vt 0.8793 0.6969 0.0000
vt 0.9268 0.7462 0.0000
vt 0.7825 0.6950 0.0000
vt 0.8299 0.7443 0.0000
vt 0.3391 0.3823 0.0000
vt 0.2706 0.3138 0.0000
vt 0.3391 0.3138 0.0000
vt 0.2706 0.3823 0.0000
vt 0.9781 0.5362 0.0000
vt 0.9096 0.4677 0.0000
vt 0.9781 0.4677 0.0000
vt 0.9096 0.5362 0.0000
vt 0.1877 0.7462 0.0000
vt 0.1192 0.6777 0.0000
vt 0.1877 0.6777 0.0000
vt 0.1192 0.7462 0.0000
vt 0.8952 0.2046 0.0000
vt 0.8267 0.1361 0.0000
vt 0.8952 0.1361 0.0000
vt 0.8267 0.2046 0.0000
vt 0.1877 0.0904 0.0000
vt 0.1192 0.0219 0.0000
vt 0.1877 0.0219 0.0000
vt 0.1192 0.0904 0.0000
vt 0.2562 0.5084 0.0000
vt 0.1877 0.4399 0.0000
vt 0.2562 0.4399 0.0000
vt 0.1877 0.5084 0.0000
vt 0.8952 0.2875 0.0000
vt 0.8267 0.2190 0.0000
vt 0.8952 0.2190 0.0000
vt 0.8267 0.2875 0.0000
vt 0.9781 0.1217 0.0000
vt 0.9096 0.0532 0.0000
vt 0.9781 0.0532 0.0000
vt 0.9096 0.1217 0.0000
vt 0.8952 0.3704 0.0000
vt 0.8267 0.3704 0.0000
vt 0.8952 0.3019 0.0000
vt 0.8267 0.3019 0.0000
vt 0.5580 0.8302 0.0000
vt 0.4895 0.8302 0.0000
vt 0.5580 0.7617 0.0000
vt 0.4895 0.7617 0.0000
vt 0.2418 0.6345 0.0000
vt 0.1733 0.6345 0.0000
vt 0.2418 0.5660 0.0000
vt 0.1733 0.5660 0.0000
vt 0.2120 0.8302 0.0000
vt 0.1435 0.8302 0.0000
vt 0.2120 0.7617 0.0000
vt 0.1435 0.7617 0.0000
vt 0.4220 0.3823 0.0000
vt 0.3535 0.3823 0.0000
vt 0.4220 0.3138 0.0000
vt 0.3535 0.3138 0.0000
vt 0.3391 0.5084 0.0000
vt 0.2706 0.5084 0.0000
vt 0.3391 0.4399 0.0000
vt 0.2706 0.4399 0.0000
vt 0.9781 0.2046 0.0000
vt 0.9096 0.2046 0.0000
vt 0.9781 0.1361 0.0000
vt 0.9096 0.1361 0.0000
vt 0.1733 0.3823 0.0000
vt 0.1048 0.3823 0.0000
vt 0.1733 0.3138 0.0000
vt 0.1048 0.3138 0.0000
vt 0.3535 0.2562 0.0000
vt 0.2850 0.2562 0.0000
vt 0.3535 0.1877 0.0000
vt 0.2850 0.1877 0.0000
vt 0.1048 0.1733 0.0000
vt 0.0363 0.1733 0.0000
vt 0.1048 0.1048 0.0000
vt 0.0363 0.1048 0.0000
vt 0.7844 0.8081 0.0000
vt 0.8337 0.7606 0.0000
vt 0.8318 0.8575 0.0000
vt 0.8812 0.8100 0.0000
vt 0.9306 0.7625 0.0000
vt 0.8299 0.9544 0.0000
vt 0.7825 0.9050 0.0000
vt 0.8793 0.9069 0.0000
vt 0.9287 0.8594 0.0000
vt 0.9781 0.8119 0.0000
vt 0.9268 0.9563 0.0000
vt 0.9762 0.9088 0.0000
# 284 texture coords

g WorkshopFarmersSpool_Building
s 1
f 1/1/1 2/2/1 3/3/1 
f 4/4/1 2/2/1 1/1/1 
f 5/5/1 6/6/1 7/7/1 
f 8/8/1 6/6/1 5/5/1 
f 9/9/1 10/10/1 11/11/1 
f 12/12/1 10/10/1 9/9/1 
f 13/13/1 14/14/1 15/15/1 
f 16/16/1 14/14/1 13/13/1 
f 17/17/1 18/18/1 19/19/1 
f 20/20/1 18/18/1 17/17/1 
f 21/21/1 22/22/1 23/23/1 
f 24/24/1 22/22/1 21/21/1 
f 25/25/1 26/26/1 27/27/1 
f 28/28/1 26/26/1 25/25/1 
f 29/29/1 30/30/1 31/31/1 
f 32/32/1 30/30/1 29/29/1 
f 33/33/1 34/34/1 35/35/1 
f 36/36/1 34/34/1 33/33/1 
f 37/37/1 38/38/1 39/39/1 
f 40/40/1 38/38/1 37/37/1 
f 41/41/1 42/42/1 43/43/1 
f 44/44/1 42/42/1 41/41/1 
f 45/45/1 46/46/1 47/47/1 
f 48/48/1 46/46/1 45/45/1 
f 49/49/2 50/50/2 51/51/2 
f 51/51/2 50/50/2 52/52/2 
f 53/53/2 54/54/2 55/55/2 
f 55/55/2 54/54/2 56/56/2 
f 57/57/2 58/58/2 59/59/2 
f 59/59/2 58/58/2 60/60/2 
f 61/61/2 62/62/2 63/63/2 
f 63/63/2 62/62/2 64/64/2 
f 65/65/2 66/66/2 67/67/2 
f 67/67/2 66/66/2 68/68/2 
f 69/69/2 70/70/2 71/71/2 
f 71/71/2 70/70/2 72/72/2 
f 73/73/2 74/74/2 75/75/2 
f 75/75/2 74/74/2 76/76/2 
f 77/77/2 78/78/2 79/79/2 
f 79/79/2 78/78/2 80/80/2 
f 81/81/2 82/82/2 83/83/2 
f 83/83/2 82/82/2 84/84/2 
f 85/85/2 86/86/2 87/87/2 
f 87/87/2 86/86/2 88/88/2 
f 89/89/2 90/90/2 91/91/2 
f 91/91/2 90/90/2 92/92/2 
f 93/93/2 94/94/2 95/95/2 
f 95/95/2 94/94/2 96/96/2 
f 33/97/3 25/98/3 27/99/3 
f 43/100/3 25/98/3 33/97/3 
f 73/101/3 43/100/3 33/97/3 
f 73/101/3 41/102/3 43/100/3 
f 73/101/3 33/97/3 35/103/3 
f 75/104/3 41/102/3 73/101/3 
f 81/105/3 41/102/3 75/104/3 
f 83/106/3 41/102/3 81/105/3 
f 89/107/3 81/105/3 75/104/3 
f 91/108/3 81/105/3 89/107/3 
f 49/109/3 9/110/3 11/111/3 
f 51/112/3 9/110/3 49/109/3 
f 57/113/3 17/114/3 19/115/3 
f 59/116/3 17/114/3 57/113/3 
f 10/117/3 1/118/3 3/119/3 
f 12/120/3 1/118/3 10/117/3 
f 18/121/3 5/122/3 7/123/3 
f 20/124/3 5/122/3 18/121/3 
f 65/125/3 52/126/3 50/127/3 
f 67/128/3 52/126/3 65/125/3 
f 69/129/3 60/130/3 58/131/3 
f 71/132/3 60/130/3 69/129/3 
f 37/133/3 29/134/3 31/135/3 
f 47/136/3 29/134/3 37/133/3 
f 77/137/3 37/138/3 39/139/3 
f 79/140/3 37/138/3 77/137/3 
f 85/141/3 45/142/3 47/143/3 
f 87/144/3 45/142/3 85/141/3 
f 93/145/3 85/146/3 79/147/3 
f 95/148/3 85/146/3 93/145/3 
f 26/149/4 28/150/4 36/151/4 
f 36/151/4 28/150/4 42/152/4 
f 34/153/4 36/154/4 74/155/4 
f 74/155/4 36/154/4 76/156/4 
f 42/157/4 44/158/4 82/159/4 
f 82/159/4 44/158/4 84/160/4 
f 76/161/4 82/162/4 90/163/4 
f 90/163/4 82/162/4 92/164/4 
f 2/165/4 4/166/4 15/167/4 
f 15/167/4 4/166/4 13/168/4 
f 6/169/4 8/170/4 23/171/4 
f 23/171/4 8/170/4 21/172/4 
f 53/173/4 55/174/4 66/175/4 
f 66/175/4 55/174/4 68/176/4 
f 61/177/4 63/178/4 70/179/4 
f 70/179/4 63/178/4 72/180/4 
f 14/181/4 16/182/4 54/183/4 
f 54/183/4 16/182/4 56/184/4 
f 22/185/4 24/186/4 62/187/4 
f 62/187/4 24/186/4 64/188/4 
f 30/189/4 32/190/4 40/191/4 
f 40/191/4 32/190/4 46/192/4 
f 38/193/4 40/191/4 78/194/4 
f 46/192/4 48/195/4 78/194/4 
f 40/191/4 46/192/4 78/194/4 
f 78/194/4 48/195/4 80/196/4 
f 80/196/4 48/195/4 86/197/4 
f 86/197/4 48/195/4 88/198/4 
f 80/196/4 86/197/4 94/199/4 
f 94/199/4 86/197/4 96/200/4 
f 26/201/5 33/202/5 27/203/5 
f 36/204/5 33/202/5 26/201/5 
f 76/205/5 89/206/5 75/207/5 
f 90/208/5 89/206/5 76/205/5 
f 30/209/5 37/210/5 31/211/5 
f 40/212/5 37/210/5 30/209/5 
f 80/213/5 93/214/5 79/215/5 
f 94/216/5 93/214/5 80/213/5 
f 18/217/5 57/218/5 19/219/5 
f 58/220/5 57/218/5 18/217/5 
f 6/221/5 18/222/5 7/223/5 
f 23/224/5 18/222/5 6/221/5 
f 61/225/5 69/226/5 58/227/5 
f 70/228/5 69/226/5 61/225/5 
f 22/229/5 61/230/5 23/231/5 
f 62/232/5 61/230/5 22/229/5 
f 9/233/6 51/234/6 12/235/6 
f 12/235/6 51/234/6 52/236/6 
f 1/237/6 12/238/6 4/239/6 
f 4/239/6 12/238/6 13/240/6 
f 52/241/6 67/242/6 55/243/6 
f 55/243/6 67/242/6 68/244/6 
f 13/245/6 55/246/6 16/247/6 
f 16/247/6 55/246/6 56/248/6 
f 25/249/6 43/250/6 28/251/6 
f 28/251/6 43/250/6 42/252/6 
f 81/253/6 91/254/6 82/255/6 
f 82/255/6 91/254/6 92/256/6 
f 29/257/6 47/258/6 32/259/6 
f 32/259/6 47/258/6 46/260/6 
f 85/261/6 95/262/6 86/263/6 
f 86/263/6 95/262/6 96/264/6 
f 41/265/6 83/266/6 44/267/6 
f 44/267/6 83/266/6 84/268/6 
f 45/269/6 87/270/6 48/271/6 
f 48/271/6 87/270/6 88/272/6 
f 17/273/6 59/274/6 20/275/6 
f 20/275/6 59/274/6 60/276/6 
f 60/276/6 71/277/6 8/278/6 
f 20/275/6 60/276/6 8/278/6 
f 5/279/6 20/275/6 8/278/6 
f 8/278/6 71/277/6 21/280/6 
f 21/280/6 71/277/6 63/281/6 
f 63/281/6 71/277/6 72/282/6 
f 21/280/6 63/281/6 24/283/6 
f 24/283/6 63/281/6 64/284/6 
# 154 faces

#
# object WorkshopFarmersSpool_Building_NoMat
#

v  -0.7500 1.5000 -0.0000
v  -0.7500 0.7500 -0.2500
v  -0.7500 0.7500 -0.0000
v  -0.7500 1.5000 -0.2500
v  0.0000 1.0000 0.2500
v  0.0000 0.7500 -0.5000
v  0.0000 0.7500 0.2500
v  0.0000 1.0000 -0.5000
v  -0.5000 0.7500 -0.0000
v  -0.5000 0.7500 -0.2500
v  -0.5000 1.5000 -0.0000
v  -0.5000 1.5000 -0.2500
v  0.2500 0.7500 0.2500
v  0.2500 0.7500 -0.5000
v  0.2500 1.0000 0.2500
v  0.2500 1.0000 -0.5000
# 16 vertices

vn -1.0000 0.0000 -0.0000
vn 1.0000 0.0000 -0.0000
vn 0.0000 0.0000 1.0000
vn 0.0000 0.0000 -1.0000
vn 0.0000 -1.0000 -0.0000
vn 0.0000 1.0000 -0.0000
# 6 vertex normals

vt 0.5625 0.5084 0.0000
vt 0.7681 0.4399 0.0000
vt 0.7681 0.5084 0.0000
vt 0.5625 0.4399 0.0000
vt 0.7681 0.7462 0.0000
vt 0.5625 0.6777 0.0000
vt 0.7681 0.6777 0.0000
vt 0.5625 0.7462 0.0000
vt 0.7681 0.3138 0.0000
vt 0.7681 0.3823 0.0000
vt 0.5625 0.3138 0.0000
vt 0.5625 0.3823 0.0000
vt 0.3138 0.6777 0.0000
vt 0.5193 0.6777 0.0000
vt 0.3138 0.7462 0.0000
vt 0.5193 0.7462 0.0000
vt 0.2949 0.9563 0.0000
vt 0.0894 0.8878 0.0000
vt 0.2949 0.8878 0.0000
vt 0.0894 0.9563 0.0000
vt 0.7681 0.6345 0.0000
vt 0.5625 0.6345 0.0000
vt 0.7681 0.5660 0.0000
vt 0.5625 0.5660 0.0000
vt 0.5049 0.5660 0.0000
vt 0.2994 0.6345 0.0000
vt 0.2994 0.5660 0.0000
vt 0.5049 0.6345 0.0000
vt 0.5580 0.8878 0.0000
vt 0.5580 0.9563 0.0000
vt 0.3525 0.8878 0.0000
vt 0.3525 0.9563 0.0000
# 32 texture coords

g WorkshopFarmersSpool_Building_NoMat
s 1
f 97/285/7 98/286/7 99/287/7 
f 100/288/7 98/286/7 97/285/7 
f 101/289/7 102/290/7 103/291/7 
f 104/292/7 102/290/7 101/289/7 
f 105/293/8 106/294/8 107/295/8 
f 107/295/8 106/294/8 108/296/8 
f 109/297/8 110/298/8 111/299/8 
f 111/299/8 110/298/8 112/300/8 
f 105/301/9 97/302/9 99/303/9 
f 107/304/9 97/302/9 105/301/9 
f 98/305/10 100/306/10 106/307/10 
f 106/307/10 100/306/10 108/308/10 
f 102/309/11 109/310/11 103/311/11 
f 110/312/11 109/310/11 102/309/11 
f 101/313/12 111/314/12 104/315/12 
f 104/315/12 111/314/12 112/316/12 
# 16 faces

