# 3ds Max Wavefront OBJ Exporter v0.97b - (c)2007 guruware
# File Created: 11.10.2015 16:44:24

#
# object WorkshopCounterTools_Building
#

v  -1.0000 0.5000 1.0000
v  -1.0000 0.5000 -1.0000
v  1.0000 0.5000 -1.0000
v  1.0000 0.5000 1.0000
v  -1.0000 1.4000 1.0000
v  1.0000 1.4000 1.0000
v  1.0000 1.4000 -1.0000
v  -1.0000 1.4000 -1.0000
# 8 vertices

vn 0.0000 -1.0000 -0.0000
vn 0.0000 1.0000 -0.0000
vn 0.0000 0.0000 1.0000
vn 1.0000 0.0000 -0.0000
vn 0.0000 0.0000 -1.0000
vn -1.0000 0.0000 -0.0000
# 6 vertex normals

vt 0.9995 0.0005 0.2750
vt 0.9995 0.9995 0.2750
vt 0.0005 0.9995 0.2750
vt 0.0005 0.0005 0.2750
vt 0.0005 0.0005 0.7250
vt 0.9995 0.0005 0.7250
vt 0.9995 0.9995 0.7250
vt 0.0005 0.9995 0.7250
vt 0.0005 0.2750 0.0005
vt 0.9995 0.2750 0.0005
vt 0.9995 0.7250 0.0005
vt 0.0005 0.7250 0.0005
vt 0.0005 0.2750 0.9995
vt 0.9995 0.2750 0.9995
vt 0.9995 0.7250 0.9995
vt 0.0005 0.7250 0.9995
# 16 texture coords

g WorkshopCounterTools_Building
f 1/1/1 2/2/1 3/3/1 
f 3/3/1 4/4/1 1/1/1 
f 5/5/2 6/6/2 7/7/2 
f 7/7/2 8/8/2 5/5/2 
f 1/9/3 4/10/3 6/11/3 
f 6/11/3 5/12/3 1/9/3 
f 4/13/4 3/14/4 7/15/4 
f 7/15/4 6/16/4 4/13/4 
f 3/13/5 2/14/5 8/15/5 
f 8/15/5 7/16/5 3/13/5 
f 2/9/6 1/10/6 5/11/6 
f 5/11/6 8/12/6 2/9/6 
# 12 faces

#
# object WorkshopCounterTools_Building_NoMatCutout
#

v  -1.0000 1.4200 -1.0000
v  -1.0000 1.4200 1.0000
v  1.0000 1.4200 -1.0000
v  1.0000 1.4200 1.0000
# 4 vertices

vn 0.0000 1.0000 -0.0000
# 1 vertex normals

vt 0.0000 1.0000 0.0000
vt 0.0000 0.0000 0.0000
vt 1.0000 1.0000 0.0000
vt 1.0000 0.0000 0.0000
# 4 texture coords

g WorkshopCounterTools_Building_NoMatCutout
f 9/17/7 10/18/7 11/19/7 
f 12/20/7 11/19/7 10/18/7 
# 2 faces

