# 3ds Max Wavefront OBJ Exporter v0.97b - (c)2007 guruware
# File Created: 08.08.2016 19:30:58

#
# object WorkshopCarpenters_Building_NoMat
#

v  -2.5000 1.2500 0.5000
v  -2.5000 1.5000 -2.7500
v  -2.5000 1.2500 -2.7500
v  -2.5000 1.5000 0.5000
v  -2.2500 1.5000 -1.0000
v  -2.2500 1.7500 -1.2500
v  -2.2500 1.5000 -1.2500
v  -2.2500 1.5000 -0.7500
v  -2.2500 1.7500 -1.0000
v  -2.2500 1.7500 -0.7500
v  -2.0000 1.2500 -1.5000
v  -2.0000 1.5000 -2.7500
v  -2.0000 1.2500 -2.7500
v  -2.0000 1.5000 -1.5000
v  -0.5000 0.7500 -1.7500
v  -0.5000 1.0000 -2.2500
v  -0.5000 0.7500 -2.2500
v  -0.5000 1.0000 -1.7500
v  -0.2500 0.5000 -1.7500
v  -0.2500 0.7500 -2.2500
v  -0.2500 0.5000 -2.2500
v  -0.2500 0.7500 -1.7500
v  -0.2500 1.0000 -2.5000
v  -0.2500 0.7500 -2.5000
v  -0.2500 1.0000 -2.2500
v  -0.2500 0.7500 -1.5000
v  -0.2500 1.0000 -1.7500
v  -0.2500 1.0000 -1.5000
v  1.0000 0.5000 1.7500
v  1.0000 0.7500 1.0000
v  1.0000 0.5000 1.0000
v  1.0000 0.7500 1.5000
v  1.0000 0.7500 1.7500
v  1.0000 0.5000 2.7500
v  1.0000 0.7500 2.0000
v  1.0000 0.5000 2.0000
v  1.0000 0.7500 2.2500
v  1.0000 0.7500 2.7500
v  1.0000 1.0000 1.5000
v  1.0000 1.0000 2.2500
v  1.2500 1.2500 -1.7500
v  1.2500 1.5000 -2.5000
v  1.2500 1.2500 -2.5000
v  1.2500 1.5000 -1.7500
v  -2.2500 1.2500 -1.5000
v  -2.2500 1.2500 -2.7500
v  -2.2500 1.5000 -2.7500
v  -2.2500 1.5000 -1.5000
v  -2.0000 1.5000 -1.0000
v  -2.0000 1.5000 -1.2500
v  -2.0000 1.7500 -1.2500
v  -2.0000 1.5000 -0.7500
v  -2.0000 1.7500 -1.0000
v  -2.0000 1.7500 -0.7500
v  -1.7500 1.2500 0.5000
v  -1.7500 1.2500 -2.7500
v  -1.7500 1.5000 -2.7500
v  -1.7500 1.5000 0.5000
v  0.2500 0.5000 -1.7500
v  0.2500 0.5000 -2.2500
v  0.2500 0.7500 -2.2500
v  0.2500 0.7500 -1.7500
v  0.2500 0.7500 -2.5000
v  0.2500 1.0000 -2.5000
v  0.2500 1.0000 -2.2500
v  0.2500 0.7500 -1.5000
v  0.2500 1.0000 -1.7500
v  0.2500 1.0000 -1.5000
v  0.5000 0.7500 -1.7500
v  0.5000 0.7500 -2.2500
v  0.5000 1.0000 -2.2500
v  0.5000 1.0000 -1.7500
v  1.7500 1.2500 -1.7500
v  1.7500 1.2500 -2.0000
v  1.7500 1.5000 -2.0000
v  1.7500 1.5000 -1.7500
v  2.5000 1.2500 -2.2500
v  2.5000 1.2500 -2.5000
v  2.5000 1.5000 -2.5000
v  2.5000 1.5000 -2.2500
v  2.7500 1.2500 -2.0000
v  2.7500 1.2500 -2.2500
v  2.7500 1.5000 -2.2500
v  2.7500 1.5000 -2.0000
v  3.0000 0.5000 1.7500
v  3.0000 0.5000 1.0000
v  3.0000 0.7500 1.0000
v  3.0000 0.7500 1.5000
v  3.0000 0.7500 1.7500
v  3.0000 0.5000 2.7500
v  3.0000 0.5000 2.0000
v  3.0000 0.7500 2.0000
v  3.0000 0.7500 2.2500
v  3.0000 0.7500 2.7500
v  3.0000 1.0000 1.5000
v  3.0000 1.0000 2.2500
v  1.7500 1.2500 -2.5000
v  1.7500 1.5000 -2.5000
v  2.7500 0.5000 1.0000
v  1.2500 0.5000 2.0000
v  2.7500 0.5000 2.0000
v  1.2500 0.5000 1.7500
v  2.7500 0.5000 1.7500
v  2.7500 0.5000 2.7500
v  -2.2500 1.5000 -0.5000
v  -2.0000 1.5000 -0.5000
# 106 vertices

vn -1.0000 0.0000 -0.0000
vn 1.0000 0.0000 -0.0000
vn 0.0000 0.0000 -1.0000
vn 0.0000 0.0000 1.0000
vn 0.0000 -1.0000 -0.0000
vn 0.0000 1.0000 -0.0000
# 6 vertex normals

vt 0.8104 0.3700 0.0000
vt 0.7820 0.7382 0.0000
vt 0.8104 0.7382 0.0000
vt 0.7820 0.3700 0.0000
vt 0.7305 0.0687 0.0000
vt 0.7022 0.0970 0.0000
vt 0.7305 0.0970 0.0000
vt 0.7305 0.0404 0.0000
vt 0.7022 0.0687 0.0000
vt 0.7022 0.0404 0.0000
vt 0.7614 0.8309 0.0000
vt 0.7330 0.9726 0.0000
vt 0.7614 0.9726 0.0000
vt 0.7330 0.8309 0.0000
vt 0.8644 0.8361 0.0000
vt 0.8361 0.8927 0.0000
vt 0.8644 0.8927 0.0000
vt 0.8361 0.8361 0.0000
vt 0.8104 0.0404 0.0000
vt 0.7820 0.0970 0.0000
vt 0.8104 0.0970 0.0000
vt 0.7820 0.0404 0.0000
vt 0.9597 0.8927 0.0000
vt 0.9880 0.8644 0.0000
vt 0.9597 0.8644 0.0000
vt 0.9880 0.8927 0.0000
vt 0.9366 0.0403 0.0000
vt 0.9649 0.0120 0.0000
vt 0.9366 0.0120 0.0000
vt 0.9649 0.0403 0.0000
vt 0.6507 0.1537 0.0000
vt 0.6223 0.2386 0.0000
vt 0.6507 0.2386 0.0000
vt 0.6223 0.1820 0.0000
vt 0.6223 0.1537 0.0000
vt 0.6507 0.0404 0.0000
vt 0.6223 0.1253 0.0000
vt 0.6507 0.1253 0.0000
vt 0.6223 0.0970 0.0000
vt 0.6223 0.0404 0.0000
vt 0.5940 0.1820 0.0000
vt 0.5940 0.0970 0.0000
vt 0.6403 0.7666 0.0000
vt 0.6120 0.8515 0.0000
vt 0.6403 0.8515 0.0000
vt 0.6120 0.7666 0.0000
vt 0.9649 0.4884 0.0000
vt 0.9649 0.3468 0.0000
vt 0.9366 0.3468 0.0000
vt 0.9366 0.4884 0.0000
vt 0.1142 0.7553 0.0000
vt 0.1142 0.7836 0.0000
vt 0.1425 0.7836 0.0000
vt 0.1142 0.7269 0.0000
vt 0.1425 0.7553 0.0000
vt 0.1425 0.7269 0.0000
vt 0.7305 0.4884 0.0000
vt 0.7305 0.1202 0.0000
vt 0.7022 0.1202 0.0000
vt 0.7022 0.4884 0.0000
vt 0.8129 0.8927 0.0000
vt 0.8129 0.8361 0.0000
vt 0.7846 0.8361 0.0000
vt 0.7846 0.8927 0.0000
vt 0.9366 0.0480 0.0000
vt 0.9366 0.0763 0.0000
vt 0.9649 0.0763 0.0000
vt 0.9649 0.0480 0.0000
vt 0.9597 0.8283 0.0000
vt 0.9597 0.8567 0.0000
vt 0.9880 0.8567 0.0000
vt 0.9880 0.8283 0.0000
vt 0.9159 0.9726 0.0000
vt 0.9159 0.9159 0.0000
vt 0.8876 0.9159 0.0000
vt 0.8876 0.9726 0.0000
vt 0.9237 0.8644 0.0000
vt 0.9237 0.8927 0.0000
vt 0.9520 0.8927 0.0000
vt 0.9520 0.8644 0.0000
vt 0.7846 0.7485 0.0000
vt 0.7846 0.7768 0.0000
vt 0.8129 0.7768 0.0000
vt 0.8129 0.7485 0.0000
vt 0.5399 0.7511 0.0000
vt 0.5399 0.7794 0.0000
vt 0.5682 0.7794 0.0000
vt 0.5682 0.7511 0.0000
vt 0.5425 0.1253 0.0000
vt 0.5425 0.0404 0.0000
vt 0.5142 0.0404 0.0000
vt 0.5142 0.0970 0.0000
vt 0.5142 0.1253 0.0000
vt 0.5425 0.2386 0.0000
vt 0.5425 0.1537 0.0000
vt 0.5142 0.1537 0.0000
vt 0.5142 0.1820 0.0000
vt 0.5142 0.2386 0.0000
vt 0.4858 0.0970 0.0000
vt 0.4858 0.1820 0.0000
vt 0.9520 0.8567 0.0000
vt 0.9237 0.8283 0.0000
vt 0.9237 0.8567 0.0000
vt 0.9520 0.8283 0.0000
vt 0.9159 0.8567 0.0000
vt 0.8876 0.8283 0.0000
vt 0.8876 0.8567 0.0000
vt 0.9159 0.8283 0.0000
vt 0.8361 0.9159 0.0000
vt 0.8644 0.9726 0.0000
vt 0.8644 0.9159 0.0000
vt 0.8361 0.9726 0.0000
vt 0.8851 0.0970 0.0000
vt 0.9134 0.1537 0.0000
vt 0.9134 0.0970 0.0000
vt 0.8851 0.1537 0.0000
vt 0.9134 0.2386 0.0000
vt 0.8851 0.2386 0.0000
vt 0.6043 0.7794 0.0000
vt 0.5759 0.7511 0.0000
vt 0.5759 0.7794 0.0000
vt 0.6043 0.7511 0.0000
vt 0.9391 0.9159 0.0000
vt 0.9674 0.9726 0.0000
vt 0.9674 0.9159 0.0000
vt 0.9391 0.9726 0.0000
vt 0.8644 0.8129 0.0000
vt 0.8361 0.7846 0.0000
vt 0.8361 0.8129 0.0000
vt 0.8644 0.7846 0.0000
vt 0.9159 0.8927 0.0000
vt 0.8876 0.8644 0.0000
vt 0.8876 0.8927 0.0000
vt 0.9159 0.8644 0.0000
vt 0.8129 0.8129 0.0000
vt 0.7846 0.7846 0.0000
vt 0.7846 0.8129 0.0000
vt 0.8129 0.7846 0.0000
vt 0.5322 0.7794 0.0000
vt 0.5038 0.7511 0.0000
vt 0.5038 0.7794 0.0000
vt 0.5322 0.7511 0.0000
vt 0.8851 0.5116 0.0000
vt 0.9134 0.7099 0.0000
vt 0.9134 0.5116 0.0000
vt 0.9134 0.7382 0.0000
vt 0.8851 0.7382 0.0000
vt 0.8851 0.2618 0.0000
vt 0.9134 0.4884 0.0000
vt 0.9134 0.2618 0.0000
vt 0.8851 0.4884 0.0000
vt 0.9366 0.5116 0.0000
vt 0.9649 0.5400 0.0000
vt 0.9649 0.5116 0.0000
vt 0.9649 0.7099 0.0000
vt 0.9649 0.7382 0.0000
vt 0.9366 0.7382 0.0000
vt 0.3634 0.8218 0.0000
vt 0.3351 0.8218 0.0000
vt 0.3351 0.9351 0.0000
vt 0.3634 0.9351 0.0000
vt 0.8644 0.7485 0.0000
vt 0.8361 0.7485 0.0000
vt 0.8361 0.7768 0.0000
vt 0.8644 0.7768 0.0000
vt 0.8851 0.0738 0.0000
vt 0.9134 0.0738 0.0000
vt 0.9134 0.0172 0.0000
vt 0.8851 0.0172 0.0000
vt 0.9159 0.7923 0.0000
vt 0.8876 0.7923 0.0000
vt 0.8876 0.8206 0.0000
vt 0.9159 0.8206 0.0000
vt 0.1201 0.0893 0.0000
vt 0.1485 0.0893 0.0000
vt 0.1485 0.0326 0.0000
vt 0.1201 0.0326 0.0000
vt 0.7846 0.9726 0.0000
vt 0.8129 0.9726 0.0000
vt 0.8129 0.9159 0.0000
vt 0.7846 0.9159 0.0000
vt 0.7614 0.7794 0.0000
vt 0.7330 0.7794 0.0000
vt 0.7330 0.8078 0.0000
vt 0.7614 0.8078 0.0000
vt 0.1425 0.6110 0.0000
vt 0.1142 0.6110 0.0000
vt 0.1142 0.6960 0.0000
vt 0.1425 0.6960 0.0000
vt 0.8335 0.7382 0.0000
vt 0.8619 0.7382 0.0000
vt 0.8619 0.7099 0.0000
vt 0.8619 0.5400 0.0000
vt 0.8619 0.5116 0.0000
vt 0.8335 0.5116 0.0000
vt 0.7820 0.3468 0.0000
vt 0.8104 0.3468 0.0000
vt 0.8104 0.1202 0.0000
vt 0.7820 0.1202 0.0000
vt 0.8335 0.4884 0.0000
vt 0.8619 0.4884 0.0000
vt 0.8619 0.2902 0.0000
vt 0.8619 0.2618 0.0000
vt 0.8335 0.2618 0.0000
vt 0.9366 0.3236 0.0000
vt 0.9649 0.2670 0.0000
vt 0.9366 0.2670 0.0000
vt 0.9649 0.3236 0.0000
vt 0.6635 0.7949 0.0000
vt 0.6918 0.8515 0.0000
vt 0.6918 0.7949 0.0000
vt 0.6635 0.8515 0.0000
vt 0.9366 0.1871 0.0000
vt 0.9649 0.2438 0.0000
vt 0.9649 0.1871 0.0000
vt 0.9366 0.2438 0.0000
vt 0.9366 0.1562 0.0000
vt 0.9649 0.0995 0.0000
vt 0.9366 0.0995 0.0000
vt 0.9649 0.1562 0.0000
vt 0.8335 0.2386 0.0000
vt 0.8619 0.0120 0.0000
vt 0.8335 0.0120 0.0000
vt 0.8619 0.2386 0.0000
vt 0.6507 0.4884 0.0000
vt 0.6507 0.2618 0.0000
vt 0.5940 0.2618 0.0000
vt 0.5940 0.4884 0.0000
vt 0.7588 0.7382 0.0000
vt 0.7588 0.5116 0.0000
vt 0.7022 0.5116 0.0000
vt 0.7022 0.7382 0.0000
vt 0.6120 0.8876 0.0000
vt 0.6120 0.9443 0.0000
vt 0.6403 0.9443 0.0000
vt 0.6403 0.8876 0.0000
vt 0.6403 0.9726 0.0000
vt 0.6970 0.9726 0.0000
vt 0.6403 0.8593 0.0000
vt 0.6970 0.9443 0.0000
vt 0.6970 0.8876 0.0000
vt 0.6970 0.8593 0.0000
vt 0.7253 0.9443 0.0000
vt 0.7253 0.8876 0.0000
vt 0.4626 0.4884 0.0000
vt 0.4626 0.2618 0.0000
vt 0.3777 0.2618 0.0000
vt 0.3777 0.4884 0.0000
vt 0.5888 0.9443 0.0000
vt 0.5888 0.8593 0.0000
vt 0.5605 0.9443 0.0000
vt 0.5888 0.8026 0.0000
vt 0.5322 0.8593 0.0000
vt 0.5605 0.9726 0.0000
vt 0.5322 0.9726 0.0000
vt 0.5038 0.8026 0.0000
vt 0.5038 0.8593 0.0000
vt 0.1768 0.4884 0.0000
vt 0.2051 0.4884 0.0000
vt 0.1768 0.3468 0.0000
vt 0.1201 0.4884 0.0000
vt 0.1485 0.4884 0.0000
vt 0.1485 0.3468 0.0000
vt 0.1768 0.3185 0.0000
vt 0.1485 0.3185 0.0000
vt 0.1768 0.2902 0.0000
vt 0.1485 0.2902 0.0000
vt 0.1768 0.2618 0.0000
vt 0.1485 0.2618 0.0000
vt 0.1768 0.2335 0.0000
vt 0.1485 0.2335 0.0000
vt 0.2051 0.1202 0.0000
vt 0.1201 0.1202 0.0000
vt 0.1717 0.0893 0.0000
vt 0.2000 0.0893 0.0000
vt 0.2000 0.0609 0.0000
vt 0.1717 0.0609 0.0000
vt 0.2000 0.0326 0.0000
vt 0.1717 0.0326 0.0000
# 279 texture coords

g WorkshopCarpenters_Building_NoMat
s 1
f 1/1/1 2/2/1 3/3/1 
f 1/1/1 4/4/1 2/2/1 
f 5/5/1 6/6/1 7/7/1 
f 8/8/1 9/9/1 5/5/1 
f 5/5/1 9/9/1 6/6/1 
f 8/8/1 10/10/1 9/9/1 
f 11/11/1 12/12/1 13/13/1 
f 11/11/1 14/14/1 12/12/1 
f 15/15/1 16/16/1 17/17/1 
f 15/15/1 18/18/1 16/16/1 
f 19/19/1 20/20/1 21/21/1 
f 19/19/1 22/22/1 20/20/1 
s 2
f 20/23/1 23/24/1 24/25/1 
f 20/23/1 25/26/1 23/24/1 
f 26/27/1 27/28/1 22/29/1 
f 26/27/1 28/30/1 27/28/1 
s 1
f 29/31/1 30/32/1 31/33/1 
f 29/31/1 32/34/1 30/32/1 
f 29/31/1 33/35/1 32/34/1 
f 34/36/1 35/37/1 36/38/1 
f 34/36/1 37/39/1 35/37/1 
f 34/36/1 38/40/1 37/39/1 
f 33/35/1 39/41/1 32/34/1 
f 37/39/1 39/41/1 35/37/1 
f 35/37/1 39/41/1 33/35/1 
f 37/39/1 40/42/1 39/41/1 
f 41/43/1 42/44/1 43/45/1 
f 41/43/1 44/46/1 42/44/1 
f 45/47/2 46/48/2 47/49/2 
f 45/47/2 47/49/2 48/50/2 
f 49/51/2 50/52/2 51/53/2 
f 52/54/2 49/51/2 53/55/2 
f 49/51/2 51/53/2 53/55/2 
f 52/54/2 53/55/2 54/56/2 
f 55/57/2 56/58/2 57/59/2 
f 55/57/2 57/59/2 58/60/2 
f 59/61/2 60/62/2 61/63/2 
f 59/61/2 61/63/2 62/64/2 
s 2
f 61/65/2 63/66/2 64/67/2 
f 61/65/2 64/67/2 65/68/2 
f 66/69/2 62/70/2 67/71/2 
f 66/69/2 67/71/2 68/72/2 
s 1
f 69/73/2 70/74/2 71/75/2 
f 69/73/2 71/75/2 72/76/2 
f 73/77/2 74/78/2 75/79/2 
f 73/77/2 75/79/2 76/80/2 
f 77/81/2 78/82/2 79/83/2 
f 77/81/2 79/83/2 80/84/2 
f 81/85/2 82/86/2 83/87/2 
f 81/85/2 83/87/2 84/88/2 
f 85/89/2 86/90/2 87/91/2 
f 85/89/2 87/91/2 88/92/2 
f 85/89/2 88/92/2 89/93/2 
f 90/94/2 91/95/2 92/96/2 
f 90/94/2 92/96/2 93/97/2 
f 90/94/2 93/97/2 94/98/2 
f 89/93/2 88/92/2 95/99/2 
f 93/97/2 92/96/2 95/99/2 
f 92/96/2 89/93/2 95/99/2 
f 93/97/2 95/99/2 96/100/2 
s 2
f 2/101/3 46/102/3 3/103/3 
f 2/101/3 47/104/3 46/102/3 
f 12/105/3 56/106/3 13/107/3 
f 12/105/3 57/108/3 56/106/3 
s 1
f 23/109/3 63/110/3 24/111/3 
f 23/109/3 64/112/3 63/110/3 
s 2
f 42/113/3 97/114/3 43/115/3 
f 42/113/3 98/116/3 97/114/3 
f 98/116/3 78/117/3 97/114/3 
f 98/116/3 79/118/3 78/117/3 
s 4
f 16/119/3 20/120/3 17/121/3 
f 16/119/3 25/122/3 20/120/3 
s 8
f 20/123/3 60/124/3 21/125/3 
f 20/123/3 61/126/3 60/124/3 
s 4
f 65/127/3 70/128/3 61/129/3 
f 65/127/3 71/130/3 70/128/3 
s 2
f 80/131/3 82/132/3 77/133/3 
f 80/131/3 83/134/3 82/132/3 
f 48/135/3 11/136/3 45/137/3 
f 48/135/3 14/138/3 11/136/3 
f 6/139/3 50/140/3 7/141/3 
f 6/139/3 51/142/3 50/140/3 
f 30/143/3 99/144/3 31/145/3 
f 30/143/3 86/146/3 99/144/3 
f 30/143/3 87/147/3 86/146/3 
f 39/148/3 88/149/3 32/150/3 
f 39/148/3 95/151/3 88/149/3 
f 35/152/3 100/153/3 36/154/3 
f 35/152/3 101/155/3 100/153/3 
f 35/152/3 91/156/3 101/155/3 
f 35/152/3 92/157/3 91/156/3 
f 75/158/4 74/159/4 81/160/4 
f 75/158/4 81/160/4 84/161/4 
s 4
f 18/162/4 15/163/4 22/164/4 
f 18/162/4 22/164/4 27/165/4 
s 8
f 22/166/4 19/167/4 59/168/4 
f 22/166/4 59/168/4 62/169/4 
s 4
f 67/170/4 62/171/4 69/172/4 
f 67/170/4 69/172/4 72/173/4 
s 2
f 44/174/4 41/175/4 73/176/4 
f 44/174/4 73/176/4 76/177/4 
s 1
f 28/178/4 26/179/4 66/180/4 
f 28/178/4 66/180/4 68/181/4 
s 2
f 10/182/4 8/183/4 52/184/4 
f 10/182/4 52/184/4 54/185/4 
f 4/186/4 1/187/4 55/188/4 
f 4/186/4 55/188/4 58/189/4 
f 33/190/4 29/191/4 102/192/4 
f 33/190/4 102/192/4 103/193/4 
f 33/190/4 103/193/4 85/194/4 
f 33/190/4 85/194/4 89/195/4 
f 40/196/4 37/197/4 93/198/4 
f 40/196/4 93/198/4 96/199/4 
f 38/200/4 34/201/4 104/202/4 
f 38/200/4 104/202/4 90/203/4 
f 38/200/4 90/203/4 94/204/4 
s 16
f 63/205/5 20/206/5 24/207/5 
f 63/205/5 61/208/5 20/206/5 
s 32
f 20/209/5 15/210/5 17/211/5 
f 20/209/5 22/212/5 15/210/5 
f 70/213/5 62/214/5 61/215/5 
f 70/213/5 69/216/5 62/214/5 
s 16
f 62/217/5 26/218/5 22/219/5 
f 62/217/5 66/220/5 26/218/5 
s 4
f 89/221/5 35/222/5 33/223/5 
f 89/221/5 92/224/5 35/222/5 
f 87/225/6 30/226/6 32/227/6 
f 87/225/6 32/227/6 88/228/6 
f 93/229/6 37/230/6 38/231/6 
f 93/229/6 38/231/6 94/232/6 
s 8
f 64/233/6 23/234/6 25/235/6 
f 64/233/6 25/235/6 65/236/6 
f 25/235/6 16/237/6 18/238/6 
f 71/239/6 65/236/6 18/238/6 
f 65/236/6 25/235/6 18/238/6 
f 71/239/6 18/238/6 27/240/6 
f 71/239/6 27/240/6 67/241/6 
f 71/239/6 67/241/6 72/242/6 
f 67/241/6 27/240/6 28/243/6 
f 67/241/6 28/243/6 68/244/6 
s 4
f 95/245/6 39/246/6 40/247/6 
f 95/245/6 40/247/6 96/248/6 
f 79/249/6 98/250/6 80/251/6 
f 98/250/6 42/252/6 75/253/6 
f 83/254/6 80/251/6 75/253/6 
f 80/251/6 98/250/6 75/253/6 
f 83/254/6 75/253/6 84/255/6 
f 75/253/6 42/252/6 44/256/6 
f 75/253/6 44/256/6 76/257/6 
f 47/258/6 2/259/6 48/260/6 
f 57/261/6 12/262/6 14/263/6 
f 48/260/6 2/259/6 7/264/6 
f 14/263/6 48/260/6 7/264/6 
f 57/261/6 14/263/6 50/265/6 
f 14/263/6 7/264/6 50/265/6 
f 7/264/6 2/259/6 5/266/6 
f 57/261/6 50/265/6 49/267/6 
f 5/266/6 2/259/6 8/268/6 
f 57/261/6 49/267/6 52/269/6 
f 8/268/6 2/259/6 105/270/6 
f 52/269/6 8/268/6 105/270/6 
f 57/261/6 52/269/6 106/271/6 
f 52/269/6 105/270/6 106/271/6 
f 105/270/6 2/259/6 4/272/6 
f 106/271/6 105/270/6 4/272/6 
f 57/261/6 106/271/6 58/273/6 
f 106/271/6 4/272/6 58/273/6 
f 51/274/6 6/275/6 9/276/6 
f 51/274/6 9/276/6 53/277/6 
f 53/277/6 9/276/6 10/278/6 
f 53/277/6 10/278/6 54/279/6 
# 171 faces

#
# object WorkshopCarpenters_Building
#

v  -3.0000 0.5000 1.0000
v  -3.0000 1.2500 -3.0000
v  -3.0000 0.5000 -3.0000
v  -3.0000 1.2500 1.0000
v  1.0000 0.5000 -1.0000
v  1.0000 1.2500 -3.0000
v  1.0000 0.5000 -3.0000
v  1.0000 1.2500 -1.0000
v  -1.0000 0.5000 1.0000
v  -1.0000 0.5000 -3.0000
v  -1.0000 1.2500 -3.0000
v  -1.0000 1.2500 1.0000
v  3.0000 0.5000 -1.0000
v  3.0000 0.5000 -3.0000
v  3.0000 1.2500 -3.0000
v  3.0000 1.2500 -1.0000
v  -1.2500 0.5000 -3.0000
v  2.7500 0.5000 -3.0000
v  1.2500 0.5000 -1.0000
v  -2.7500 0.5000 1.0000
v  -2.5000 1.2500 -2.7500
v  -2.2500 1.2500 -2.7500
v  -2.0000 1.2500 -2.7500
v  -1.7500 1.2500 -2.7500
v  1.2500 1.2500 -2.5000
v  1.7500 1.2500 -2.5000
v  2.5000 1.2500 -2.5000
v  2.5000 1.2500 -2.2500
v  2.7500 1.2500 -2.2500
v  2.7500 1.2500 -2.0000
v  1.2500 1.2500 -1.7500
v  1.7500 1.2500 -2.0000
v  1.7500 1.2500 -1.7500
v  -2.2500 1.2500 -1.5000
v  -2.0000 1.2500 -1.5000
v  -2.5000 1.2500 0.5000
v  -1.7500 1.2500 0.5000
# 37 vertices

vn -1.0000 0.0000 -0.0000
vn 1.0000 0.0000 -0.0000
vn 0.0000 0.0000 -1.0000
vn 0.0000 0.0000 1.0000
vn 0.0000 1.0000 -0.0000
# 5 vertex normals

vt 0.3545 0.2850 0.0000
vt 0.2695 0.7382 0.0000
vt 0.3545 0.7382 0.0000
vt 0.2695 0.2850 0.0000
vt 0.4626 0.0120 0.0000
vt 0.3777 0.2386 0.0000
vt 0.4626 0.2386 0.0000
vt 0.3777 0.0120 0.0000
vt 0.0969 0.4884 0.0000
vt 0.0969 0.0352 0.0000
vt 0.0120 0.0352 0.0000
vt 0.0120 0.4884 0.0000
vt 0.5708 0.7382 0.0000
vt 0.5708 0.5116 0.0000
vt 0.4858 0.5116 0.0000
vt 0.4858 0.7382 0.0000
vt 0.2695 0.0352 0.0000
vt 0.3545 0.2335 0.0000
vt 0.3545 0.0352 0.0000
vt 0.3545 0.2618 0.0000
vt 0.2695 0.2618 0.0000
vt 0.3777 0.5116 0.0000
vt 0.4626 0.7099 0.0000
vt 0.4626 0.5116 0.0000
vt 0.4626 0.7382 0.0000
vt 0.3777 0.7382 0.0000
vt 0.5940 0.7382 0.0000
vt 0.6790 0.7382 0.0000
vt 0.6790 0.7099 0.0000
vt 0.6790 0.5116 0.0000
vt 0.5940 0.5116 0.0000
vt 0.4858 0.4884 0.0000
vt 0.5708 0.4884 0.0000
vt 0.5708 0.4601 0.0000
vt 0.5708 0.2618 0.0000
vt 0.4858 0.2618 0.0000
vt 0.0120 0.9726 0.0000
vt 0.2386 0.9726 0.0000
vt 0.1819 0.9443 0.0000
vt 0.1536 0.9443 0.0000
vt 0.1253 0.9443 0.0000
vt 0.0969 0.9443 0.0000
vt 0.2695 0.7460 0.0000
vt 0.2695 0.9726 0.0000
vt 0.3261 0.9443 0.0000
vt 0.3261 0.8876 0.0000
vt 0.3261 0.8026 0.0000
vt 0.3545 0.8026 0.0000
vt 0.3545 0.7743 0.0000
vt 0.3828 0.7743 0.0000
vt 0.4111 0.9443 0.0000
vt 0.3828 0.8876 0.0000
vt 0.4111 0.8876 0.0000
vt 0.1536 0.8026 0.0000
vt 0.1253 0.8026 0.0000
vt 0.4961 0.9726 0.0000
vt 0.4961 0.7460 0.0000
vt 0.1819 0.5760 0.0000
vt 0.0969 0.5760 0.0000
vt 0.2386 0.5194 0.0000
vt 0.0120 0.5194 0.0000
# 61 texture coords

g WorkshopCarpenters_Building
s 1
f 107/280/7 108/281/7 109/282/7 
f 107/280/7 110/283/7 108/281/7 
f 111/284/7 112/285/7 113/286/7 
f 111/284/7 114/287/7 112/285/7 
f 115/288/8 116/289/8 117/290/8 
f 115/288/8 117/290/8 118/291/8 
f 119/292/8 120/293/8 121/294/8 
f 119/292/8 121/294/8 122/295/8 
s 2
f 108/296/9 123/297/9 109/298/9 
f 108/296/9 116/299/9 123/297/9 
f 108/296/9 117/300/9 116/299/9 
f 112/301/9 124/302/9 113/303/9 
f 112/301/9 120/304/9 124/302/9 
f 112/301/9 121/305/9 120/304/9 
f 114/306/10 111/307/10 125/308/10 
f 114/306/10 125/308/10 119/309/10 
f 114/306/10 119/309/10 122/310/10 
f 110/311/10 107/312/10 126/313/10 
f 110/311/10 126/313/10 115/314/10 
f 110/311/10 115/314/10 118/315/10 
s 4
f 117/316/11 108/317/11 127/318/11 
f 117/316/11 127/318/11 128/319/11 
f 117/316/11 128/319/11 129/320/11 
f 117/316/11 129/320/11 130/321/11 
f 121/322/11 112/323/11 131/324/11 
f 121/322/11 131/324/11 132/325/11 
f 121/322/11 132/325/11 133/326/11 
f 121/322/11 133/326/11 134/327/11 
f 121/322/11 134/327/11 135/328/11 
f 121/322/11 135/328/11 136/329/11 
f 131/324/11 112/323/11 137/330/11 
f 136/329/11 138/331/11 139/332/11 
f 129/320/11 128/319/11 140/333/11 
f 129/320/11 140/333/11 141/334/11 
f 139/332/11 137/330/11 114/335/11 
f 137/330/11 112/323/11 114/335/11 
f 136/329/11 139/332/11 122/336/11 
f 139/332/11 114/335/11 122/336/11 
f 121/322/11 136/329/11 122/336/11 
f 127/318/11 108/317/11 142/337/11 
f 117/316/11 130/321/11 143/338/11 
f 142/337/11 108/317/11 110/339/11 
f 143/338/11 142/337/11 110/339/11 
f 117/316/11 143/338/11 118/340/11 
f 143/338/11 110/339/11 118/340/11 
# 45 faces

