# 3ds Max Wavefront OBJ Exporter v0.97b - (c)2007 guruware
# File Created: 19.07.2016 19:11:47

#
# object WorkshopFarmersBench_Building
#

v  -0.5000 0.7500 0.2500
v  -0.5000 0.5000 0.2500
v  -0.5000 0.5000 0.5000
v  -0.5000 0.7500 -0.2500
v  -0.5000 0.5000 -0.5000
v  -0.5000 0.5000 -0.2500
v  -0.5000 1.0000 0.5000
v  -0.5000 1.0000 -0.5000
v  0.2500 0.7500 0.5000
v  0.2500 0.5000 0.2500
v  0.2500 0.5000 0.5000
v  0.2500 0.7500 0.2500
v  0.2500 0.7500 -0.2500
v  0.2500 0.5000 -0.5000
v  0.2500 0.5000 -0.2500
v  0.2500 0.7500 -0.5000
v  -0.2500 0.5000 0.5000
v  -0.2500 0.5000 0.2500
v  -0.2500 0.7500 0.5000
v  -0.2500 0.7500 0.2500
v  -0.2500 0.5000 -0.2500
v  -0.2500 0.5000 -0.5000
v  -0.2500 0.7500 -0.2500
v  -0.2500 0.7500 -0.5000
v  0.5000 0.5000 0.5000
v  0.5000 0.5000 0.2500
v  0.5000 0.7500 0.2500
v  0.5000 0.5000 -0.2500
v  0.5000 0.5000 -0.5000
v  0.5000 0.7500 -0.2500
v  0.5000 1.0000 0.5000
v  0.5000 1.0000 -0.5000
# 32 vertices

vn -1.0000 0.0000 -0.0000
vn 1.0000 0.0000 -0.0000
vn 0.0000 0.0000 1.0000
vn 0.0000 0.0000 -1.0000
vn 0.0000 -1.0000 -0.0000
vn 0.0000 1.0000 -0.0000
# 6 vertex normals

vt 0.4674 0.3686 0.0000
vt 0.4674 0.2698 0.0000
vt 0.5662 0.2698 0.0000
vt 0.2698 0.3686 0.0000
vt 0.1710 0.2698 0.0000
vt 0.2698 0.2698 0.0000
vt 0.5662 0.4674 0.0000
vt 0.1710 0.4674 0.0000
vt 0.8793 0.0405 0.0000
vt 0.9781 0.1393 0.0000
vt 0.8793 0.1393 0.0000
vt 0.9781 0.0405 0.0000
vt 0.0219 0.3686 0.0000
vt 0.1207 0.4674 0.0000
vt 0.0219 0.4674 0.0000
vt 0.1207 0.3686 0.0000
vt 0.1207 0.5997 0.0000
vt 0.0219 0.5997 0.0000
vt 0.1207 0.5009 0.0000
vt 0.0219 0.5009 0.0000
vt 0.1207 0.2195 0.0000
vt 0.0219 0.2195 0.0000
vt 0.1207 0.1207 0.0000
vt 0.0219 0.1207 0.0000
vt 0.1710 0.5177 0.0000
vt 0.2698 0.5177 0.0000
vt 0.2698 0.6165 0.0000
vt 0.4674 0.5177 0.0000
vt 0.5662 0.5177 0.0000
vt 0.4674 0.6165 0.0000
vt 0.1710 0.7152 0.0000
vt 0.5662 0.7152 0.0000
vt 0.2698 0.7655 0.0000
vt 0.1710 0.9631 0.0000
vt 0.1710 0.7655 0.0000
vt 0.2698 0.8643 0.0000
vt 0.4674 0.8643 0.0000
vt 0.5662 0.7655 0.0000
vt 0.4674 0.7655 0.0000
vt 0.5662 0.9631 0.0000
vt 0.0219 0.7152 0.0000
vt 0.1207 0.6165 0.0000
vt 0.1207 0.7152 0.0000
vt 0.0219 0.6165 0.0000
vt 0.0219 0.8476 0.0000
vt 0.1207 0.7488 0.0000
vt 0.1207 0.8476 0.0000
vt 0.0219 0.7488 0.0000
vt 0.7637 0.1393 0.0000
vt 0.7637 0.0405 0.0000
vt 0.8625 0.1393 0.0000
vt 0.8625 0.0405 0.0000
vt 0.0219 0.9631 0.0000
vt 0.0219 0.8643 0.0000
vt 0.1207 0.9631 0.0000
vt 0.1207 0.8643 0.0000
vt 0.5662 0.0219 0.0000
vt 0.5662 0.2195 0.0000
vt 0.4674 0.0219 0.0000
vt 0.4674 0.1207 0.0000
vt 0.2698 0.1207 0.0000
vt 0.2698 0.0219 0.0000
vt 0.1710 0.0219 0.0000
vt 0.1710 0.2195 0.0000
vt 0.8793 0.2548 0.0000
vt 0.6817 0.1560 0.0000
vt 0.8793 0.1560 0.0000
vt 0.6817 0.2548 0.0000
vt 0.9781 0.4524 0.0000
vt 0.5829 0.2548 0.0000
vt 0.9781 0.2548 0.0000
vt 0.8793 0.4524 0.0000
vt 0.6817 0.4524 0.0000
vt 0.5829 0.4524 0.0000
vt 0.8793 0.5512 0.0000
vt 0.6817 0.5512 0.0000
vt 0.9781 0.9631 0.0000
vt 0.5829 0.9631 0.0000
vt 0.9781 0.5680 0.0000
vt 0.5829 0.5680 0.0000
# 80 texture coords

g WorkshopFarmersBench_Building
s 1
f 1/1/1 2/2/1 3/3/1 
f 4/4/1 5/5/1 6/6/1 
f 7/7/1 1/1/1 3/3/1 
f 7/7/1 4/4/1 1/1/1 
f 8/8/1 5/5/1 4/4/1 
f 8/8/1 4/4/1 7/7/1 
f 9/9/1 10/10/1 11/11/1 
f 12/12/1 10/10/1 9/9/1 
f 13/13/1 14/14/1 15/15/1 
f 16/16/1 14/14/1 13/13/1 
f 17/17/2 18/18/2 19/19/2 
f 19/19/2 18/18/2 20/20/2 
f 21/21/2 22/22/2 23/23/2 
f 23/23/2 22/22/2 24/24/2 
f 25/25/2 26/26/2 27/27/2 
f 28/28/2 29/29/2 30/30/2 
f 25/25/2 27/27/2 31/31/2 
f 27/27/2 30/30/2 31/31/2 
f 30/30/2 29/29/2 32/32/2 
f 31/31/2 30/30/2 32/32/2 
f 17/33/3 7/34/3 3/35/3 
f 19/36/3 7/34/3 17/33/3 
f 9/37/3 7/34/3 19/36/3 
f 25/38/3 9/37/3 11/39/3 
f 31/40/3 7/34/3 9/37/3 
f 31/40/3 9/37/3 25/38/3 
f 21/41/3 4/42/3 6/43/3 
f 23/44/3 4/42/3 21/41/3 
f 28/45/3 13/46/3 15/47/3 
f 30/48/3 13/46/3 28/45/3 
f 2/49/4 1/50/4 18/51/4 
f 18/51/4 1/50/4 20/52/4 
f 10/53/4 12/54/4 26/55/4 
f 26/55/4 12/54/4 27/56/4 
f 5/57/4 8/58/4 22/59/4 
f 22/59/4 8/58/4 24/60/4 
f 24/60/4 8/58/4 16/61/4 
f 14/62/4 16/61/4 29/63/4 
f 16/61/4 8/58/4 32/64/4 
f 29/63/4 16/61/4 32/64/4 
f 20/65/5 9/66/5 19/67/5 
f 12/68/5 9/66/5 20/65/5 
f 4/69/5 27/70/5 12/68/5 
f 4/69/5 20/65/5 1/71/5 
f 4/69/5 12/68/5 20/65/5 
f 23/72/5 27/70/5 4/69/5 
f 13/73/5 27/70/5 23/72/5 
f 30/74/5 27/70/5 13/73/5 
f 24/75/5 13/73/5 23/72/5 
f 16/76/5 13/73/5 24/75/5 
f 7/77/6 31/78/6 8/79/6 
f 8/79/6 31/78/6 32/80/6 
# 52 faces

