# 3ds Max Wavefront OBJ Exporter v0.97b - (c)2007 guruware
# File Created: 10.12.2016 12:08:43

#
# object StaticMaterial
#

v  -0.0904 1.6504 0.1802
v  0.5309 1.5095 0.1693
v  0.1030 1.4689 -0.4141
v  0.9862 1.1638 0.1219
v  0.7333 1.1865 -0.4478
v  0.2612 1.0910 -0.8678
v  -0.5781 1.5155 -0.2282
v  -0.3696 1.1779 -0.8409
v  -0.8980 1.1645 -0.5571
v  -0.5609 1.5761 0.4880
v  -1.0412 1.2864 0.0555
v  -0.8704 1.2702 0.6615
v  0.1258 1.5703 0.7449
v  -0.3297 1.3512 1.0342
v  0.3006 1.2655 1.1038
v  0.7600 1.2831 0.7112
v  1.0982 0.8145 0.4202
v  1.0769 0.7581 -0.2961
v  0.8780 0.4877 0.6028
v  0.9903 0.4870 -0.0161
v  0.8494 0.4870 -0.6158
v  0.5734 0.4937 -0.7865
v  0.1633 0.4855 -0.9717
v  -0.7105 0.7464 -0.9394
v  -1.1274 0.8170 -0.3829
v  -0.3752 0.4870 -0.9193
v  -0.7809 0.4870 -0.6684
v  -0.9900 0.4877 -0.0886
v  -1.1062 0.8729 0.3334
v  -0.6675 0.9176 0.9358
v  -0.7529 0.4875 0.4906
v  -0.2717 0.4881 0.9329
v  0.0182 0.9152 1.1979
v  0.6949 0.8765 0.9989
v  0.3591 0.4875 0.9059
# 35 vertices

vn 0.0294 0.9970 -0.0712
vn 0.4200 0.9047 -0.0713
vn 0.1521 0.8888 -0.4324
vn 0.8088 0.5853 -0.0573
vn 0.5316 0.7619 -0.3700
vn 0.2014 0.7860 -0.5845
vn -0.2982 0.9049 -0.3038
vn -0.1914 0.7528 -0.6299
vn -0.6351 0.5620 -0.5299
vn -0.3567 0.9092 0.2146
vn -0.8118 0.5835 -0.0226
vn -0.7378 0.4458 0.5068
vn 0.1466 0.9201 0.3631
vn -0.2885 0.5499 0.7838
vn 0.2697 0.4891 0.8295
vn 0.6604 0.6267 0.4137
vn 0.9634 -0.0097 0.2678
vn 0.9798 -0.0623 -0.1898
vn 0.7553 -0.4039 0.5162
vn 0.9162 -0.4002 -0.0211
vn 0.8540 -0.4800 -0.2006
vn 0.3139 0.1834 -0.9316
vn 0.5342 0.2164 -0.8172
vn 0.1745 0.1106 -0.9784
vn -0.6483 -0.1111 -0.7533
vn -0.9495 -0.0815 -0.3029
vn -0.4216 -0.5978 -0.6818
vn -0.6906 -0.4878 -0.5339
vn -0.8715 -0.4898 0.0239
vn -0.9372 -0.1399 0.3196
vn -0.6019 -0.1470 0.7849
vn -0.6977 -0.5084 0.5048
vn -0.3075 -0.4720 0.8262
vn -0.0369 -0.1363 0.9900
vn 0.5817 -0.0776 0.8097
vn 0.2429 -0.4994 0.8317
vn 0.4700 0.4795 -0.7411
vn 0.5922 0.2763 -0.7570
vn 0.6188 0.2251 -0.7526
vn -0.0955 -0.1990 -0.9753
vn -0.0040 0.1096 -0.9940
vn 0.0086 0.1920 -0.9814
# 42 vertex normals

vt 0.4613 0.4194 0.8314
vt 0.6818 0.4232 0.7814
vt 0.5300 0.6303 0.7670
vt 0.8435 0.4401 0.6587
vt 0.7537 0.6423 0.6667
vt 0.5861 0.7914 0.6328
vt 0.2882 0.5644 0.7836
vt 0.3622 0.7819 0.6637
vt 0.1747 0.6811 0.6589
vt 0.2943 0.3102 0.8051
vt 0.1238 0.4637 0.7022
vt 0.1844 0.2486 0.6964
vt 0.5380 0.2190 0.8030
vt 0.3763 0.1163 0.7252
vt 0.6001 0.0915 0.6948
vt 0.7631 0.2309 0.7011
vt 0.4401 0.6587 0.8435
vt 0.3342 0.5347 0.8832
vt 0.5884 0.5147 0.8757
vt 0.2694 0.4187 0.8050
vt 0.4900 0.4184 0.8533
vt 0.7019 0.4184 0.7949
vt 0.4139 0.6328 0.7914
vt 0.2752 0.4980 0.7944
vt 0.5163 0.4951 0.8809
vt 0.3189 0.6589 0.1747
vt 0.1832 0.5106 0.2412
vt 0.3807 0.5356 0.0932
vt 0.7588 0.5106 0.8168
vt 0.6173 0.4184 0.8521
vt 0.7838 0.4184 0.7206
vt 0.2794 0.4184 0.2162
vt 0.4853 0.4187 0.1333
vt 0.7514 0.6964 0.1844
vt 0.6350 0.5554 0.1007
vt 0.8488 0.5713 0.2564
vt 0.6908 0.4187 0.2261
vt 0.2564 0.5713 0.1512
vt 0.2261 0.4187 0.3092
vt 0.3969 0.4189 0.1522
vt 0.6001 0.6948 0.0915
vt 0.4998 0.5704 0.0581
vt 0.7400 0.5567 0.1288
vt 0.6208 0.4187 0.1618
vt 0.8050 0.4187 0.2694
vt 0.7944 0.4980 0.7248
vt 0.2463 0.6667 0.6423
vt 0.6423 0.6667 0.7537
vt 0.8253 0.6589 0.6811
vt 0.6378 0.6637 0.7819
vt 0.5363 0.7022 0.1238
vt 0.3763 0.7252 0.1163
vt 0.1844 0.6964 0.2486
vt 0.1288 0.5567 0.7400
vt 0.2309 0.7011 0.7631
vt 0.7631 0.7011 0.2309
# 56 texture coords

g StaticMaterial
s 1
f 1/1/1 2/2/2 3/3/3 
f 2/2/2 4/4/4 5/5/5 
f 2/2/2 5/5/5 3/3/3 
f 3/3/3 5/5/5 6/6/6 
f 1/1/1 3/3/3 7/7/7 
f 3/3/3 6/6/6 8/8/8 
f 3/3/3 8/8/8 7/7/7 
f 7/7/7 8/8/8 9/9/9 
f 1/1/1 7/7/7 10/10/10 
f 7/7/7 9/9/9 11/11/11 
f 7/7/7 11/11/11 10/10/10 
f 10/10/10 11/11/11 12/12/12 
f 1/1/1 10/10/10 13/13/13 
f 10/10/10 12/12/12 14/14/14 
f 10/10/10 14/14/14 13/13/13 
f 13/13/13 14/14/14 15/15/15 
f 1/1/1 13/13/13 2/2/2 
f 13/13/13 15/15/15 16/16/16 
f 13/13/13 16/16/16 2/2/2 
f 2/2/2 16/16/16 4/4/4 
f 4/17/4 17/18/17 18/19/18 
f 17/18/17 19/20/19 20/21/20 
f 17/18/17 20/21/20 18/19/18 
f 18/19/18 20/21/20 21/22/21 
f 6/23/22 22/24/23 23/25/24 
f 9/26/9 24/27/25 25/28/26 
f 24/29/25 26/30/27 27/31/28 
f 24/27/25 27/32/28 25/28/26 
f 25/28/26 27/32/28 28/33/29 
f 12/34/12 29/35/30 30/36/31 
f 29/35/30 28/33/29 31/37/32 
f 29/35/30 31/37/32 30/36/31 
f 30/38/31 31/39/32 32/40/33 
f 15/41/15 33/42/34 34/43/35 
f 33/42/34 32/40/33 35/44/36 
f 33/42/34 35/44/36 34/43/35 
f 34/43/35 35/44/36 19/45/19 
f 21/22/37 22/46/23 18/19/38 
f 22/24/23 6/23/22 5/47/39 
f 22/46/23 5/48/39 18/19/38 
f 18/19/18 5/48/5 4/17/4 
f 26/30/40 24/29/41 23/25/24 
f 24/29/25 9/49/9 8/50/8 
f 24/29/41 8/50/42 23/25/24 
f 23/25/24 8/50/42 6/23/22 
f 28/33/29 29/35/30 25/28/26 
f 29/35/30 12/34/12 11/51/11 
f 29/35/30 11/51/11 25/28/26 
f 25/28/26 11/51/11 9/26/9 
f 32/40/33 33/42/34 30/38/31 
f 33/42/34 15/41/15 14/52/14 
f 33/42/34 14/52/14 30/38/31 
f 30/38/31 14/52/14 12/53/12 
f 19/20/19 17/18/17 34/54/35 
f 17/18/17 4/17/4 16/55/16 
f 17/18/17 16/55/16 34/54/35 
f 34/43/35 16/56/16 15/41/15 
# 57 faces

