# 3ds Max Wavefront OBJ Exporter v0.97b - (c)2007 guruware
# File Created: 19.06.2015 18:47:10

#
# object LayerMaterial
#

v  -1.0000 0.0000 -1.0000
v  1.0000 0.0000 -1.0000
v  1.0000 0.0000 1.0000
v  -1.0000 0.0000 1.0000
v  1.0000 0.5000 1.0000
v  1.0000 0.5000 -1.0000
v  -1.0000 0.5000 -1.0000
v  -1.0000 0.5000 1.0000
# 8 vertices

vn 0.0000 -1.0000 -0.0000
vn 0.0000 1.0000 -0.0000
vn 0.0000 0.0000 1.0000
vn 1.0000 0.0000 -0.0000
vn 0.0000 0.0000 -1.0000
vn -1.0000 0.0000 -0.0000
# 6 vertex normals

vt 1.0000 1.0000 0.0000
vt 0.0000 1.0000 0.0000
vt 0.0000 0.0000 0.0000
vt 1.0000 0.0000 0.0000
# 4 texture coords

g LayerMaterial
f 1/1/1 2/2/1 3/3/1 
f 3/3/1 4/4/1 1/1/1 
f 5/4/2 6/1/2 7/2/2 
f 7/2/2 8/3/2 5/4/2 
f 3/4/3 5/1/3 8/2/3 
f 8/2/3 4/3/3 3/4/3 
f 2/4/4 6/1/4 5/2/4 
f 5/2/4 3/3/4 2/4/4 
f 1/4/5 7/1/5 6/2/5 
f 6/2/5 2/3/5 1/4/5 
f 4/4/6 8/1/6 7/2/6 
f 7/2/6 1/3/6 4/4/6 
# 12 faces

#
# object NoMaterialCutout
#

v  -0.6884 1.6126 1.1723
v  0.8793 0.6899 1.1103
v  -0.3619 2.2788 -0.4898
v  1.2057 1.3561 -0.5518
v  -1.7805 0.5907 0.2248
v  -0.5468 0.9863 1.4881
v  -0.8732 1.5955 -0.9759
v  0.3605 1.9911 0.2874
v  -0.0941 2.1599 0.7208
v  1.1451 1.2986 -0.0216
v  -1.1693 1.6301 -0.4590
v  0.0699 0.7687 -1.2015
# 12 vertices

vn 0.4754 0.7804 0.4062
vn -0.5327 0.8024 0.2690
vn 0.2202 0.7991 -0.5595
vn 0.2202 0.7990 -0.5595
# 4 vertex normals

vt 0.0000 1.0000 0.0000
vt 0.0000 0.0000 0.0000
vt 1.0000 1.0000 0.0000
vt 1.0000 0.0000 0.0000
# 4 texture coords

g NoMaterialCutout
f 9/5/7 10/6/7 11/7/7 
f 12/8/7 11/7/7 10/6/7 
f 13/5/8 14/6/8 15/7/8 
f 16/8/8 15/7/8 14/6/8 
f 17/5/9 18/6/10 19/7/10 
f 20/8/10 19/7/10 18/6/10 
# 6 faces

#
# object StaticMaterial
#

v  0.1860 0.5000 0.0036
v  0.0523 0.5000 -0.1806
v  0.0222 0.8901 -0.0882
v  0.0889 0.8901 0.0036
v  -0.1642 0.5000 -0.1102
v  -0.0856 0.8901 -0.0532
v  -0.1642 0.5000 0.1174
v  -0.0856 0.8901 0.0603
v  0.0523 0.5000 0.1877
v  0.0222 0.8901 0.0953
v  -0.1219 1.1654 -0.0487
v  -0.0892 1.1846 0.0036
v  -0.1749 1.1343 -0.0287
v  -0.1749 1.1343 0.0358
v  -0.1219 1.1654 0.0558
v  -0.6084 1.3890 0.0036
v  -0.0354 0.8901 -0.0641
v  -0.0805 0.8901 0.0092
v  0.0807 1.3115 0.1834
v  0.1254 1.3404 0.1468
v  -0.0248 0.8901 0.0747
v  0.1085 1.2611 0.2126
v  0.0547 0.8901 0.0419
v  0.1703 1.2588 0.1940
v  0.0481 0.8901 -0.0438
v  0.1807 1.3078 0.1534
v  0.2212 1.3110 0.5591
v  -0.0182 0.8901 0.0759
v  0.0580 0.8901 0.0360
v  0.1315 1.0374 -0.1551
v  0.0894 1.0485 -0.1358
v  0.0435 0.8901 -0.0488
v  0.1228 1.0195 -0.1976
v  -0.0415 0.8901 -0.0612
v  0.0752 1.0195 -0.2046
v  -0.0797 0.8901 0.0158
v  0.0546 1.0374 -0.1664
v  0.0514 1.2526 -0.4215
# 38 vertices

vn 0.7933 0.1976 -0.5759
vn 0.7933 0.1976 -0.5758
vn 0.7932 0.1975 -0.5761
vn 0.7931 0.1974 -0.5762
vn -0.3031 0.1973 -0.9323
vn -0.3032 0.1973 -0.9323
vn -0.3029 0.1974 -0.9324
vn -0.3027 0.1975 -0.9324
vn -0.9803 0.1975 -0.0000
vn -0.3027 0.1975 0.9324
vn -0.3028 0.1975 0.9324
vn 0.7931 0.1975 0.5762
vn 0.7932 0.1974 0.5761
vn 0.7929 0.1976 0.5764
vn 0.7927 0.1977 0.5766
vn 0.7174 0.4480 -0.5335
vn 0.7213 0.4528 -0.5241
vn 0.6985 0.4256 -0.5752
vn 0.6928 0.4190 -0.5870
vn -0.3133 -0.0216 -0.9494
vn -0.3088 -0.0175 -0.9510
vn -0.3280 -0.0347 -0.9440
vn -0.3327 -0.0390 -0.9422
vn -0.9392 -0.3434 -0.0000
vn -0.3122 -0.0256 0.9497
vn -0.3087 -0.0252 0.9508
vn -0.3311 -0.0282 0.9432
vn -0.3379 -0.0292 0.9407
vn 0.7214 0.4395 0.5352
vn 0.7265 0.4393 0.5284
vn 0.6897 0.4400 0.5751
vn 0.6794 0.4399 0.5874
vn 0.3182 0.8082 -0.4956
vn -0.2138 -0.2439 -0.9459
vn -0.5066 -0.8622 -0.0000
vn -0.2137 -0.2441 0.9459
vn 0.3180 0.8078 0.4963
vn -0.7462 0.4778 -0.4635
vn -0.7487 0.4768 -0.4606
vn -0.7223 0.4873 -0.4908
vn -0.7198 0.4882 -0.4936
vn -0.7575 0.0283 0.6522
vn -0.7614 0.0329 0.6475
vn -0.7311 -0.0016 0.6822
vn -0.7283 -0.0047 0.6853
vn 0.3410 -0.4479 0.8265
vn 0.2481 -0.4146 0.8755
vn 0.9601 -0.2698 -0.0742
vn 0.9601 -0.2699 -0.0739
vn 0.9580 -0.2739 -0.0847
vn 0.9578 -0.2744 -0.0858
vn 0.2268 0.3464 -0.9103
vn 0.2215 0.3476 -0.9111
vn 0.2914 0.3300 -0.8979
vn 0.3001 0.3277 -0.8959
vn -0.4370 0.8843 0.1646
vn -0.8938 -0.2996 0.3338
vn 0.0055 -0.9900 0.1408
vn 0.9555 -0.2800 -0.0932
vn 0.5121 0.8570 -0.0579
vn 0.3417 0.6762 0.6527
vn 0.4606 0.5824 0.6698
vn 0.7705 -0.6237 -0.1317
vn 0.8964 -0.4432 0.0032
vn 0.0913 -0.7751 -0.6252
vn 0.0912 -0.7751 -0.6252
vn 0.0918 -0.7751 -0.6251
vn 0.0919 -0.7751 -0.6251
vn -0.8655 0.2580 -0.4294
vn -0.8331 0.1668 -0.5274
vn -0.4004 0.8196 0.4097
vn -0.5083 0.8134 0.2830
vn 0.4248 0.7624 0.4881
vn 0.9701 0.0758 -0.2305
vn 0.1078 -0.6713 -0.7333
vn -0.8791 -0.3697 -0.3008
vn -0.6315 0.5888 0.5046
# 77 vertex normals

vt 0.5639 0.1974 1.0000
vt 0.6835 0.1974 1.0000
vt 0.6835 0.4555 1.0000
vt 0.5639 0.4555 1.0000
vt 0.8031 0.1974 1.0000
vt 0.8031 0.4555 1.0000
vt 0.2052 0.1974 1.0000
vt 0.3248 0.1974 1.0000
vt 0.3248 0.4555 1.0000
vt 0.2052 0.4555 1.0000
vt 0.4443 0.1974 1.0000
vt 0.4443 0.4555 1.0000
vt 0.6835 0.7135 1.0000
vt 0.5639 0.7135 1.0000
vt 0.8031 0.7135 1.0000
vt 0.3248 0.7135 1.0000
vt 0.2052 0.7135 1.0000
vt 0.4443 0.7135 1.0000
vt 0.7314 0.8425 1.0000
vt 0.2650 0.8425 1.0000
# 20 texture coords

g StaticMaterial
f 21/9/11 22/10/12 23/11/13 
f 23/11/13 24/12/14 21/9/11 
f 22/10/15 25/13/16 26/14/17 
f 26/14/17 23/11/18 22/10/15 
f 25/15/19 27/16/19 28/17/19 
f 28/17/19 26/18/19 25/15/19 
f 27/16/20 29/19/21 30/20/20 
f 30/20/20 28/17/20 27/16/20 
f 29/19/22 21/9/23 24/12/24 
f 24/12/24 30/20/25 29/19/22 
f 24/12/26 23/11/27 31/21/28 
f 31/21/28 32/22/29 24/12/26 
f 23/11/30 26/14/31 33/23/32 
f 33/23/32 31/21/33 23/11/30 
f 26/18/34 28/17/34 34/24/34 
f 34/24/34 33/25/34 26/18/34 
f 28/17/35 30/20/36 35/26/37 
f 35/26/37 34/24/38 28/17/35 
f 30/20/39 24/12/40 32/22/41 
f 32/22/41 35/26/42 30/20/39 
f 32/22/43 31/21/43 36/27/43 
f 31/21/44 33/23/44 36/27/44 
f 33/25/45 34/24/45 36/28/45 
f 34/24/46 35/26/46 36/28/46 
f 35/26/47 32/22/47 36/27/47 
f 37/12/48 38/11/49 39/21/50 
f 39/21/50 40/22/51 37/12/48 
f 38/11/52 41/14/53 42/23/54 
f 42/23/54 39/21/55 38/11/52 
f 41/18/56 43/17/56 44/24/56 
f 44/24/57 42/25/57 41/18/57 
f 43/17/58 45/20/59 46/26/60 
f 46/26/60 44/24/61 43/17/58 
f 45/20/62 37/12/63 40/22/64 
f 40/22/64 46/26/65 45/20/62 
f 40/22/66 39/21/66 47/27/66 
f 39/21/67 42/23/67 47/27/67 
f 42/25/68 44/24/68 47/28/68 
f 44/24/61 46/26/60 47/28/69 
f 46/26/70 40/22/70 47/27/70 
f 48/12/71 49/11/71 50/21/71 
f 50/21/72 51/22/72 48/12/72 
f 49/11/73 52/14/73 53/23/73 
f 53/23/74 50/21/74 49/11/74 
f 52/18/75 54/17/76 55/24/77 
f 55/24/77 53/25/78 52/18/75 
f 54/17/79 56/20/79 57/26/79 
f 57/26/80 55/24/80 54/17/80 
f 56/20/81 48/12/81 51/22/81 
f 51/22/82 57/26/82 56/20/82 
f 51/22/83 50/21/83 58/27/83 
f 50/21/84 53/23/84 58/27/84 
f 53/25/85 55/24/85 58/28/85 
f 55/24/86 57/26/86 58/28/86 
f 57/26/87 51/22/87 58/27/87 
# 55 faces

