# 3ds Max Wavefront OBJ Exporter v0.97b - (c)2007 guruware
# File Created: 17.02.2015 13:54:03

#
# object LayerMaterial
#

v  -1.0000 0.0000 -1.0000
v  1.0000 0.0000 -1.0000
v  1.0000 0.0000 1.0000
v  -1.0000 0.0000 1.0000
v  1.0000 0.5000 1.0000
v  1.0000 0.5000 -1.0000
v  -1.0000 0.5000 -1.0000
v  -1.0000 0.5000 1.0000
# 8 vertices

vn 0.0000 -1.0000 -0.0000
vn 0.0000 1.0000 -0.0000
vn 0.0000 0.0000 1.0000
vn 1.0000 0.0000 -0.0000
vn 0.0000 0.0000 -1.0000
vn -1.0000 0.0000 -0.0000
# 6 vertex normals

vt 1.0000 1.0000 0.0000
vt 0.0000 1.0000 0.0000
vt 0.0000 0.0000 0.0000
vt 1.0000 0.0000 0.0000
# 4 texture coords

g LayerMaterial
f 1/1/1 2/2/1 3/3/1 
f 3/3/1 4/4/1 1/1/1 
f 5/4/2 6/1/2 7/2/2 
f 7/2/2 8/3/2 5/4/2 
f 3/4/3 5/1/3 8/2/3 
f 8/2/3 4/3/3 3/4/3 
f 2/4/4 6/1/4 5/2/4 
f 5/2/4 3/3/4 2/4/4 
f 1/4/5 7/1/5 6/2/5 
f 6/2/5 2/3/5 1/4/5 
f 4/4/6 8/1/6 7/2/6 
f 7/2/6 1/3/6 4/4/6 
# 12 faces

#
# object NoMaterialCutout
#

v  -0.6884 1.6126 1.1723
v  0.8793 0.6899 1.1103
v  -0.3619 2.2788 -0.4898
v  1.2057 1.3561 -0.5518
v  -1.7805 0.5907 0.2248
v  -0.5468 0.9863 1.4881
v  -0.8732 1.5955 -0.9759
v  0.3605 1.9911 0.2874
v  -0.0941 2.1599 0.7208
v  1.1451 1.2986 -0.0216
v  -1.1693 1.6301 -0.4590
v  0.0699 0.7687 -1.2015
# 12 vertices

vn 0.4754 0.7804 0.4061
vn 0.4754 0.7804 0.4062
vn -0.5327 0.8024 0.2690
vn 0.2202 0.7990 -0.5595
# 4 vertex normals

vt 0.0000 1.0000 0.0000
vt 0.0000 0.0000 0.0000
vt 1.0000 1.0000 0.0000
vt 1.0000 0.0000 0.0000
# 4 texture coords

g NoMaterialCutout
f 9/5/7 10/6/7 11/7/7 
f 12/8/8 11/7/7 10/6/7 
f 13/5/9 14/6/9 15/7/9 
f 16/8/9 15/7/9 14/6/9 
f 17/5/10 18/6/10 19/7/10 
f 20/8/10 19/7/10 18/6/10 
# 6 faces

#
# object StaticMaterial
#

v  0.1860 0.5000 0.0036
v  0.0523 0.5000 -0.1806
v  0.0222 0.8901 -0.0882
v  0.0889 0.8901 0.0036
v  -0.1642 0.5000 -0.1102
v  -0.0856 0.8901 -0.0532
v  -0.1642 0.5000 0.1174
v  -0.0856 0.8901 0.0603
v  0.0523 0.5000 0.1877
v  0.0222 0.8901 0.0953
v  -0.1219 1.1654 -0.0487
v  -0.0892 1.1846 0.0036
v  -0.1749 1.1343 -0.0287
v  -0.1749 1.1343 0.0358
v  -0.1219 1.1654 0.0558
v  -0.6084 1.3890 0.0036
v  -0.0354 0.8901 -0.0641
v  -0.0805 0.8901 0.0092
v  0.0807 1.3115 0.1834
v  0.1254 1.3404 0.1468
v  -0.0248 0.8901 0.0747
v  0.1085 1.2611 0.2126
v  0.0547 0.8901 0.0419
v  0.1703 1.2588 0.1940
v  0.0481 0.8901 -0.0438
v  0.1807 1.3078 0.1534
v  0.2212 1.3110 0.5591
v  -0.0182 0.8901 0.0759
v  0.0580 0.8901 0.0360
v  0.1315 1.0374 -0.1551
v  0.0894 1.0485 -0.1358
v  0.0435 0.8901 -0.0488
v  0.1228 1.0195 -0.1976
v  -0.0415 0.8901 -0.0612
v  0.0752 1.0195 -0.2046
v  -0.0797 0.8901 0.0158
v  0.0546 1.0374 -0.1664
v  0.0514 1.2526 -0.4215
# 38 vertices

vn 0.9704 0.2415 -0.0000
vn 0.2999 0.2415 -0.9229
vn 0.3478 0.2851 -0.8932
vn 0.9298 0.3680 -0.0015
vn -0.7851 0.2415 -0.5704
vn -0.7726 0.0249 -0.6344
vn -0.7851 0.2415 0.5704
vn -0.7733 0.0221 0.6336
vn 0.2999 0.2415 0.9229
vn 0.3480 0.2791 0.8950
vn 0.2179 0.3979 -0.8912
vn 0.6665 0.7455 -0.0045
vn -0.6098 -0.4458 -0.6553
vn -0.6126 -0.4439 0.6540
vn 0.2104 0.4041 0.8902
vn -0.8955 0.4450 0.0000
vn 0.0000 -1.0000 -0.0000
vn -0.3605 0.4953 -0.7904
vn -0.9259 0.3755 -0.0421
vn -0.8588 0.5026 0.0992
vn -0.0839 0.8671 -0.4910
vn -0.3941 -0.2001 0.8970
vn -0.5119 -0.5193 0.6843
vn 0.8083 -0.4223 0.4103
vn 0.7953 -0.5726 0.1992
vn 0.6269 0.1526 -0.7640
vn 0.8169 0.3685 -0.4438
vn 0.2260 0.0453 0.9731
vn -0.1167 0.8270 0.5499
vn 0.6325 0.4666 0.6183
vn 0.9238 0.2437 0.2952
vn 0.0190 0.8058 0.5919
vn 0.5138 -0.7639 -0.3905
vn 0.7122 -0.5052 -0.4874
vn -0.7485 -0.0918 -0.6568
vn -0.3935 -0.6122 -0.6859
vn -0.6060 0.7683 0.2062
vn -0.8978 0.4403 -0.0079
vn -0.1273 0.6590 -0.7413
# 39 vertex normals

vt 0.9123 0.0000 1.0000
vt 1.1556 0.0000 1.0000
vt 1.1556 0.5249 1.0000
vt 0.9123 0.5249 1.0000
vt 1.3989 0.0000 1.0000
vt 1.3989 0.5249 1.0000
vt 0.1825 0.0000 1.0000
vt 0.4258 0.0000 1.0000
vt 0.4258 0.5249 1.0000
vt 0.1825 0.5249 1.0000
vt 0.6690 0.0000 1.0000
vt 0.6690 0.5249 1.0000
vt 1.1556 1.0498 1.0000
vt 0.9123 1.0498 1.0000
vt 1.3989 1.0498 1.0000
vt 0.4258 1.0498 1.0000
vt 0.1825 1.0498 1.0000
vt 0.6690 1.0498 1.0000
vt 1.2529 1.3122 1.0000
vt 0.3041 1.3122 1.0000
vt -0.0608 0.0000 1.0000
vt -0.3041 0.0000 1.0000
vt -0.5474 0.0000 1.0000
# 23 texture coords

g StaticMaterial
f 21/9/11 22/10/12 23/11/13 
f 23/11/13 24/12/14 21/9/11 
f 22/10/12 25/13/15 26/14/16 
f 26/14/16 23/11/13 22/10/12 
f 25/15/15 27/16/17 28/17/18 
f 28/17/18 26/18/16 25/15/15 
f 27/16/17 29/19/19 30/20/20 
f 30/20/20 28/17/18 27/16/17 
f 29/19/19 21/9/11 24/12/14 
f 24/12/14 30/20/20 29/19/19 
f 24/12/14 23/11/13 31/21/21 
f 31/21/21 32/22/22 24/12/14 
f 23/11/13 26/14/16 33/23/23 
f 33/23/23 31/21/21 23/11/13 
f 26/18/16 28/17/18 34/24/24 
f 34/24/24 33/25/23 26/18/16 
f 28/17/18 30/20/20 35/26/25 
f 35/26/25 34/24/24 28/17/18 
f 30/20/20 24/12/14 32/22/22 
f 32/22/22 35/26/25 30/20/20 
f 32/22/22 31/21/21 36/27/26 
f 31/21/21 33/23/23 36/27/26 
f 33/25/23 34/24/24 36/28/26 
f 34/24/24 35/26/25 36/28/26 
f 35/26/25 32/22/22 36/27/26 
f 25/15/27 22/29/27 21/30/27 
f 27/16/27 25/15/27 21/30/27 
f 29/31/27 27/16/27 21/30/27 
f 37/12/28 38/11/29 39/21/30 
f 39/21/30 40/22/31 37/12/28 
f 38/11/29 41/14/32 42/23/33 
f 42/23/33 39/21/30 38/11/29 
f 41/18/32 43/17/34 44/24/35 
f 44/24/35 42/25/33 41/18/32 
f 43/17/34 45/20/36 46/26/37 
f 46/26/37 44/24/35 43/17/34 
f 45/20/36 37/12/28 40/22/31 
f 40/22/31 46/26/37 45/20/36 
f 40/22/31 39/21/30 47/27/38 
f 39/21/30 42/23/33 47/27/38 
f 42/25/33 44/24/35 47/28/38 
f 44/24/35 46/26/37 47/28/38 
f 46/26/37 40/22/31 47/27/38 
f 48/12/39 49/11/40 50/21/41 
f 50/21/41 51/22/42 48/12/39 
f 49/11/40 52/14/43 53/23/44 
f 53/23/44 50/21/41 49/11/40 
f 52/18/43 54/17/45 55/24/46 
f 55/24/46 53/25/44 52/18/43 
f 54/17/45 56/20/47 57/26/48 
f 57/26/48 55/24/46 54/17/45 
f 56/20/47 48/12/39 51/22/42 
f 51/22/42 57/26/48 56/20/47 
f 51/22/42 50/21/41 58/27/49 
f 50/21/41 53/23/44 58/27/49 
f 53/25/44 55/24/46 58/28/49 
f 55/24/46 57/26/48 58/28/49 
f 57/26/48 51/22/42 58/27/49 
# 58 faces

