# 3ds Max Wavefront OBJ Exporter v0.97b - (c)2007 guruware
# File Created: 01.06.2017 22:19:18

#
# object StaticMaterial
#

v  1.0000 0.0000 1.0000
v  -1.0000 0.0000 1.0000
v  -1.0000 0.0000 -1.0000
v  1.0000 0.0000 -1.0000
v  -1.0000 0.5000 -1.0000
v  -1.0000 0.5000 1.0000
v  1.0000 0.5000 1.0000
v  1.0000 0.5000 -1.0000
# 8 vertices

vn 0.0000 -1.0000 -0.0000
vn 0.0000 1.0000 -0.0000
vn 0.0000 0.0000 -1.0000
vn -1.0000 0.0000 -0.0000
vn 0.0000 0.0000 1.0000
vn 1.0000 0.0000 -0.0000
# 6 vertex normals

vt 0.0000 1.0000 0.0000
vt 1.0000 1.0000 0.0000
vt 1.0000 -0.0000 0.0000
vt -0.0000 0.0000 0.0000
vt 0.0000 -0.0000 0.1667
vt -0.0000 1.0000 0.1667
vt 1.0000 1.0000 0.1667
vt 1.0000 0.0000 0.1667
vt 0.0000 0.0000 -0.0000
vt 0.0000 0.1667 -0.0000
vt 1.0000 0.1667 0.0000
vt 1.0000 0.0000 0.0000
vt 0.0000 0.0000 1.0000
vt 0.0000 0.1667 1.0000
vt 1.0000 0.1667 1.0000
vt 1.0000 0.0000 1.0000
# 16 texture coords

g StaticMaterial
s 1
f 1/1/1 2/2/1 3/3/1 
f 3/3/1 4/4/1 1/1/1 
f 5/5/2 6/6/2 7/7/2 
f 7/7/2 8/8/2 5/5/2 
f 3/9/3 5/10/3 8/11/3 
f 8/11/3 4/12/3 3/9/3 
f 2/9/4 6/10/4 5/11/4 
f 5/11/4 3/12/4 2/9/4 
f 1/13/5 7/14/5 6/15/5 
f 6/15/5 2/16/5 1/13/5 
f 4/13/6 8/14/6 7/15/6 
f 7/15/6 1/16/6 4/13/6 
# 12 faces

