# 3ds Max Wavefront OBJ Exporter v0.97b - (c)2007 guruware
# File Created: 17.02.2015 12:38:23

#
# object NoMaterialCutout
#

v  -1.8875 1.7900 -0.8441
v  -1.4400 0.2691 1.7028
v  0.8994 2.8880 -0.6781
v  1.3469 1.3671 1.8689
v  -0.4811 0.4177 -2.3499
v  -2.2825 1.0736 -0.0424
v  1.6931 2.0836 -1.1260
v  -0.1083 2.7394 1.1815
v  -1.2182 2.2478 0.3772
v  0.3903 0.7114 2.3902
v  0.6103 1.3027 -1.8053
v  2.2188 -0.2337 0.2077
v  -1.1810 0.8523 1.7997
v  1.4029 -0.6685 1.6975
v  -0.6430 1.9503 -0.9399
v  1.9409 0.4295 -1.0420
v  -2.4847 -0.5200 0.2042
v  -0.4394 0.1359 2.2986
v  -0.9806 1.1459 -1.7864
v  1.0647 1.8018 0.3080
v  0.1190 1.3101 1.3001
v  2.3294 -0.2263 -0.0242
v  -1.7988 0.3650 -0.8044
v  0.4116 -1.1714 -2.1287
v  1.5536 2.6981 1.4309
v  1.7610 1.1773 -1.1467
v  -1.1020 3.7961 0.5694
v  -0.8946 2.2753 -2.0082
v  -0.1862 1.3258 2.5347
v  2.1376 1.9817 0.7543
v  -1.9828 2.9917 0.8034
v  0.3410 3.6476 -0.9770
v  1.2130 3.1559 0.0806
v  0.1624 1.6196 -2.2722
v  -1.1056 2.2108 1.7331
v  -2.1562 0.6744 -0.6197
# 36 vertices

vn -0.3388 0.7804 0.5255
vn -0.3379 0.8024 -0.4919
vn 0.5840 0.7990 0.1432
vn 0.4754 0.7804 0.4061
vn -0.5327 0.8024 0.2690
vn 0.2202 0.7990 -0.5595
vn 0.4601 0.7804 -0.4234
vn 0.2034 0.8024 0.5611
vn -0.5292 0.7990 -0.2855
# 9 vertex normals

vt 0.0000 1.0000 0.0000
vt 0.0000 0.0000 0.0000
vt 1.0000 1.0000 0.0000
vt 1.0000 0.0000 0.0000
# 4 texture coords

g NoMaterialCutout
f 1/1/1 2/2/1 3/3/1 
f 4/4/1 3/3/1 2/2/1 
f 5/1/2 6/2/2 7/3/2 
f 8/4/2 7/3/2 6/2/2 
f 9/1/3 10/2/3 11/3/3 
f 12/4/3 11/3/3 10/2/3 
f 13/1/4 14/2/4 15/3/4 
f 16/4/4 15/3/4 14/2/4 
f 17/1/5 18/2/5 19/3/5 
f 20/4/5 19/3/5 18/2/5 
f 21/1/6 22/2/6 23/3/6 
f 24/4/6 23/3/6 22/2/6 
f 25/1/7 26/2/7 27/3/7 
f 28/4/7 27/3/7 26/2/7 
f 29/1/8 30/2/8 31/3/8 
f 32/4/8 31/3/8 30/2/8 
f 33/1/9 34/2/9 35/3/9 
f 36/4/9 35/3/9 34/2/9 
# 18 faces

