# 3ds Max Wavefront OBJ Exporter v0.97b - (c)2007 guruware
# File Created: 17.02.2015 12:53:17

#
# object NoMaterialCutout
#

v  -1.7254 0.8523 -1.2870
v  -1.7788 -0.6685 1.2984
v  0.9768 1.9503 -0.5854
v  0.9235 0.4295 2.0000
v  -0.0545 -0.5200 -2.4925
v  -2.2680 0.1359 -0.5767
v  1.8421 1.1459 -0.8715
v  -0.3714 1.8018 1.0443
v  -1.3049 1.3101 0.0406
v  -0.1159 -0.2263 2.3266
v  0.9111 0.3650 -1.7472
v  2.1001 -1.1714 0.5388
# 12 vertices

vn -0.4340 0.7804 0.4501
vn -0.2365 0.8024 -0.5479
vn 0.5453 0.7990 0.2534
# 3 vertex normals

vt 0.0000 1.0000 0.0000
vt 0.0000 0.0000 0.0000
vt 1.0000 1.0000 0.0000
vt 1.0000 0.0000 0.0000
# 4 texture coords

g NoMaterialCutout
f 1/1/1 2/2/1 3/3/1 
f 4/4/1 3/3/1 2/2/1 
f 5/1/2 6/2/2 7/3/2 
f 8/4/2 7/3/2 6/2/2 
f 9/1/3 10/2/3 11/3/3 
f 12/4/3 11/3/3 10/2/3 
# 6 faces

