# 3ds Max Wavefront OBJ Exporter v0.97b - (c)2007 guruware
# File Created: 19.02.2017 14:58:47

#
# object StaticMaterial
#

v  0.3000 1.2000 0.3000
v  0.3000 1.2000 -0.3000
v  -0.3000 1.2000 -0.3000
v  -0.3000 1.2000 0.3000
v  -0.3000 1.4828 -0.7000
v  -0.3000 0.8000 -0.7000
v  -0.6000 0.5000 -1.0000
v  -0.6000 1.9071 -1.0000
v  -0.7000 1.4828 0.3000
v  -0.7000 0.8000 0.3000
v  -1.0000 0.5000 0.6000
v  -1.0000 1.9071 0.6000
v  0.3000 1.4828 0.7000
v  0.3000 0.8000 0.7000
v  0.6000 0.5000 1.0000
v  0.6000 1.9071 1.0000
v  1.0000 0.0000 1.0000
v  -1.0000 0.0000 1.0000
v  -1.0000 0.0000 -1.0000
v  1.0000 0.0000 -1.0000
v  0.7000 1.4828 -0.3000
v  0.7000 0.8000 -0.3000
v  1.0000 0.5000 -0.6000
v  1.0000 1.9071 -0.6000
v  -1.0000 0.5000 -0.6000
v  -0.7000 0.8000 -0.3000
v  -0.6000 0.5000 1.0000
v  -0.3000 0.8000 0.7000
v  1.0000 0.5000 0.6000
v  1.0000 1.9071 0.6000
v  1.0000 2.1899 1.0000
v  0.7000 0.8000 0.3000
v  0.5769 0.9231 -0.3000
v  0.6000 0.5000 -1.0000
v  0.6000 1.9071 -1.0000
v  1.0000 2.1899 -1.0000
v  0.3000 0.8000 -0.7000
v  -1.0000 2.1899 -1.0000
v  -1.0000 1.9071 -0.6000
v  -1.0000 2.1899 1.0000
v  -0.6000 1.9071 1.0000
v  -0.7000 1.4828 -0.3000
v  0.3000 1.4828 -0.7000
v  -0.3000 1.4828 0.7000
v  0.7000 1.4828 0.3000
# 45 vertices

vn 0.0000 1.0000 -0.0000
vn 0.7071 0.0000 -0.7071
vn -0.7071 0.0000 -0.7071
vn -0.7071 0.0000 0.7071
vn 0.0000 -1.0000 -0.0000
vn 0.7071 0.0000 0.7071
vn -1.0000 0.0000 -0.0000
vn -0.7071 0.7071 -0.0000
vn 0.0000 0.0000 1.0000
vn 0.0000 0.7071 0.7071
vn 1.0000 0.0000 -0.0000
vn 0.7071 0.7071 -0.0000
vn 0.0000 0.0000 -1.0000
vn 0.0000 0.7071 -0.7071
vn -0.5000 0.7071 0.5000
vn -0.5000 0.7071 -0.5000
vn 0.5000 0.7071 0.5000
vn 0.5000 0.7071 -0.5000
# 18 vertex normals

vt 0.3500 0.6500 0.5000
vt 0.6500 0.6500 0.5000
vt 0.6500 0.3500 0.5000
vt 0.3500 0.3500 0.5000
vt 0.3500 0.6179 0.8500
vt 0.3500 0.3333 0.8500
vt 0.2000 0.2083 1.0000
vt 0.2000 0.7946 1.0000
vt 0.3500 0.6179 0.1500
vt 0.3500 0.3333 0.1500
vt 0.2000 0.2083 0.0000
vt 0.2000 0.7946 0.0000
vt 1.0000 1.0000 -0.0000
vt 1.0000 0.0000 -0.0000
vt 0.0000 0.0000 -0.0000
vt 0.0000 1.0000 -0.0000
vt 0.8000 0.2083 0.0000
vt 1.0000 -0.0000 0.0000
vt 0.0000 -0.0000 0.0000
vt 0.6500 0.3333 0.1500
vt 0.6500 0.5000 0.3500
vt 0.3500 0.5000 0.3500
vt 0.8000 0.2083 1.0000
vt 0.8000 0.7946 1.0000
vt 1.0000 0.9125 1.0000
vt 1.0000 -0.0000 1.0000
vt 0.6500 0.3333 0.8500
vt 0.3500 0.3846 0.7884
vt 0.6500 0.5000 0.6500
vt 0.3500 0.5000 0.6500
vt 1.0000 0.9125 0.0000
vt 0.8000 0.7946 0.0000
vt -0.0000 0.9125 0.0000
vt 0.0000 -0.0000 1.0000
vt 0.0000 0.9125 1.0000
vt 0.0000 0.9125 0.0000
vt 1.0000 0.9125 -0.0000
vt 0.8500 0.6179 0.6500
vt 0.8500 0.3333 0.6500
vt 0.1500 0.6179 0.3500
vt 0.1500 0.3333 0.3500
vt 1.0000 0.7946 0.8000
vt 1.0000 0.2083 0.8000
vt 0.2116 0.3846 0.6500
vt 0.1500 0.3333 0.6500
vt 0.1500 0.6179 0.6500
vt 0.8500 0.6179 0.3500
vt 1.0000 0.7946 0.2000
vt 1.0000 0.2083 0.2000
vt 0.8500 0.3333 0.3500
vt 0.8000 1.0000 0.7946
vt 1.0000 1.0000 0.9125
vt 1.0000 0.8000 0.7946
vt 0.8500 0.6500 0.6179
vt 0.6500 0.8500 0.6179
vt 0.0000 0.8000 0.7946
vt 0.0000 1.0000 0.9125
vt 0.2000 1.0000 0.7946
vt 0.3500 0.8500 0.6179
vt 0.1500 0.6500 0.6179
vt 1.0000 0.2000 0.7946
vt 1.0000 0.0000 0.9125
vt 0.8000 0.0000 0.7946
vt 0.6500 0.1500 0.6179
vt 0.8500 0.3500 0.6179
vt 0.2000 0.0000 0.7946
vt -0.0000 0.0000 0.9125
vt 0.0000 0.2000 0.7946
vt 0.1500 0.3500 0.6179
vt 0.3500 0.1500 0.6179
# 70 texture coords

g StaticMaterial
s 1
f 1/1/1 2/2/1 3/3/1 
f 3/3/1 4/4/1 1/1/1 
f 5/5/2 6/6/2 7/7/2 
f 7/7/2 8/8/2 5/5/2 
f 9/9/3 10/10/3 11/11/3 
f 11/11/3 12/12/3 9/9/3 
f 13/9/4 14/10/4 15/11/4 
f 15/11/4 16/12/4 13/9/4 
f 17/13/5 18/14/5 19/15/5 
f 19/15/5 20/16/5 17/13/5 
f 21/5/6 22/6/6 23/7/6 
f 23/7/6 24/8/6 21/5/6 
s 2
f 11/11/7 25/17/7 19/18/7 
f 19/18/7 18/19/7 11/11/7 
s 8
f 26/20/8 25/17/8 11/11/8 
f 26/20/8 11/11/8 10/10/8 
f 3/21/8 26/20/8 10/10/8 
f 3/21/8 10/10/8 4/22/8 
s 4
f 17/19/9 15/11/9 27/17/9 
f 27/17/9 18/18/9 17/19/9 
s 16
f 28/20/10 27/17/10 15/11/10 
f 28/20/10 15/11/10 14/10/10 
f 4/21/10 28/20/10 14/10/10 
f 4/21/10 14/10/10 1/22/10 
s 2
f 29/23/11 30/24/11 31/25/11 
f 31/25/11 17/26/11 29/23/11 
s 8
f 29/23/12 23/7/12 22/6/12 
f 32/27/12 29/23/12 22/6/12 
f 32/27/12 22/6/12 33/28/12 
f 1/29/12 32/27/12 33/28/12 
f 1/29/12 33/28/12 2/30/12 
s 4
f 34/23/13 35/24/13 36/25/13 
f 36/25/13 20/26/13 34/23/13 
s 16
f 6/6/14 3/30/14 2/29/14 
f 6/6/14 2/29/14 37/27/14 
f 6/6/14 37/27/14 34/23/14 
f 6/6/14 34/23/14 7/7/14 
s 2
f 38/31/7 19/18/7 25/17/7 
f 25/17/7 39/32/7 38/31/7 
f 11/11/7 18/19/7 40/33/7 
f 40/33/7 12/12/7 11/11/7 
s 4
f 7/7/13 19/34/13 38/35/13 
f 38/35/13 8/8/13 7/7/13 
f 34/23/13 20/26/13 19/34/13 
f 19/34/13 7/7/13 34/23/13 
s 2
f 23/7/11 20/34/11 36/35/11 
f 36/35/11 24/8/11 23/7/11 
f 29/23/11 17/26/11 20/34/11 
f 20/34/11 23/7/11 29/23/11 
s 4
f 15/11/9 17/19/9 31/36/9 
f 31/36/9 16/12/9 15/11/9 
f 40/37/9 18/18/9 27/17/9 
f 27/17/9 41/32/9 40/37/9 
s 2
f 3/29/9 42/38/9 26/39/9 
s 4
f 5/40/11 3/22/11 6/41/11 
s 1
f 42/38/4 39/42/4 25/43/4 
f 25/43/4 26/39/4 42/38/4 
s 2
f 2/29/7 43/38/7 37/39/7 
s 4
f 33/44/9 22/45/9 21/46/9 
f 21/46/9 2/30/9 33/44/9 
s 1
f 43/38/3 35/42/3 34/43/3 
f 34/43/3 37/39/3 43/38/3 
s 2
f 9/40/13 4/22/13 10/41/13 
s 1
f 44/47/6 41/48/6 27/49/6 
f 27/49/6 28/50/6 44/47/6 
s 4
f 4/21/11 44/47/11 28/50/11 
s 2
f 13/46/7 1/30/7 14/45/7 
s 1
f 45/47/2 30/48/2 29/49/2 
f 29/49/2 32/50/2 45/47/2 
s 4
f 1/21/13 45/47/13 32/50/13 
s off
f 24/51/15 36/52/15 35/53/15 
f 35/53/15 43/54/15 2/2/15 
f 24/51/15 35/53/15 2/2/15 
f 21/55/15 24/51/15 2/2/15 
f 16/56/16 31/57/16 30/58/16 
f 30/58/16 45/59/16 1/1/16 
f 16/56/16 30/58/16 1/1/16 
f 13/60/16 16/56/16 1/1/16 
f 8/61/17 38/62/17 39/63/17 
f 39/63/17 42/64/17 3/3/17 
f 8/61/17 39/63/17 3/3/17 
f 5/65/17 8/61/17 3/3/17 
f 12/66/18 40/67/18 41/68/18 
f 41/68/18 44/69/18 4/4/18 
f 12/66/18 41/68/18 4/4/18 
f 9/70/18 12/66/18 4/4/18 
# 86 faces

