# 3ds Max Wavefront OBJ Exporter v0.97b - (c)2007 guruware
# File Created: 24.06.2015 22:08:27

#
# object StaticMaterial
#

v  0.3000 1.2000 0.3000
v  0.3000 1.2000 -0.3000
v  -0.3000 1.2000 -0.3000
v  -0.3000 1.2000 0.3000
v  0.3000 3.0000 0.7000
v  0.3000 3.0000 0.3000
v  0.3000 0.8000 0.7000
v  0.7000 3.0000 0.3000
v  0.7000 0.8000 0.3000
v  1.0000 3.0000 0.6000
v  1.0000 0.5000 0.6000
v  0.6000 3.0000 1.0000
v  0.6000 0.5000 1.0000
v  -0.3000 3.0000 0.3000
v  -0.3000 3.0000 0.7000
v  -0.3000 0.8000 0.7000
v  -0.6000 3.0000 1.0000
v  -0.6000 0.5000 1.0000
v  -1.0000 3.0000 0.6000
v  -0.7000 3.0000 0.3000
v  -0.7000 0.8000 0.3000
v  -1.0000 0.5000 0.6000
v  -0.3000 3.0000 -0.3000
v  -0.7000 3.0000 -0.3000
v  -0.7000 0.8000 -0.3000
v  -1.0000 3.0000 -0.6000
v  -1.0000 0.5000 -0.6000
v  -0.6000 3.0000 -1.0000
v  -0.3000 3.0000 -0.7000
v  -0.3000 0.8000 -0.7000
v  -0.6000 0.5000 -1.0000
v  1.0000 0.0000 1.0000
v  -1.0000 0.0000 1.0000
v  -1.0000 0.0000 -1.0000
v  1.0000 0.0000 -1.0000
v  0.7000 3.0000 -0.3000
v  0.3000 3.0000 -0.3000
v  0.7000 0.8000 -0.3000
v  0.3000 3.0000 -0.7000
v  0.3000 0.9231 -0.5769
v  0.3000 0.8000 -0.7000
v  0.6000 3.0000 -1.0000
v  0.6000 0.5000 -1.0000
v  1.0000 3.0000 -0.6000
v  1.0000 0.5000 -0.6000
v  1.0000 3.0000 1.0000
v  -1.0000 3.0000 1.0000
v  -1.0000 3.0000 -1.0000
v  1.0000 3.0000 -1.0000
# 49 vertices

vn 0.0000 1.0000 -0.0000
vn -1.0000 0.0000 -0.0000
vn 0.0000 0.0000 -1.0000
vn 0.7071 0.0000 -0.7071
vn -0.7071 0.0000 0.7071
vn 1.0000 0.0000 -0.0000
vn 0.7071 0.0000 0.7071
vn -0.7071 0.0000 -0.7071
vn 0.0000 0.0000 1.0000
vn 0.0000 -1.0000 -0.0000
vn 0.0000 0.7071 0.7071
vn -0.7071 0.7071 -0.0000
vn 0.0000 0.7071 -0.7071
vn 0.7071 0.7071 -0.0000
# 14 vertex normals

vt 0.6499 0.3501 0.4001
vt 0.6499 0.6499 0.4001
vt 0.3501 0.6499 0.4001
vt 0.3501 0.3501 0.4001
vt 0.8497 0.9995 0.6499
vt 0.6499 0.9995 0.6499
vt 0.6499 0.4001 0.6499
vt 0.8497 0.2669 0.6499
vt 0.3501 0.4001 0.3501
vt 0.3501 0.9995 0.3501
vt 0.1503 0.9995 0.3501
vt 0.1503 0.2669 0.3501
vt 0.3501 0.2669 0.8497
vt 0.3501 0.9995 0.8497
vt 0.2003 0.9995 0.9995
vt 0.2003 0.1670 0.9995
vt 0.9995 0.9995 0.7997
vt 0.9995 0.1670 0.7997
vt 0.3501 0.2669 0.1503
vt 0.3501 0.9995 0.1503
vt 0.2003 0.9995 0.0005
vt 0.2003 0.1670 0.0005
vt 0.9995 0.9995 0.2003
vt 0.8497 0.9995 0.3501
vt 0.8497 0.2669 0.3501
vt 0.9995 0.1670 0.2003
vt 0.6499 0.9995 0.3501
vt 0.6499 0.4001 0.3501
vt 0.3501 0.4001 0.6499
vt 0.3501 0.9995 0.6499
vt 0.1503 0.9995 0.6499
vt 0.1503 0.2669 0.6499
vt 0.0005 0.0005 0.0005
vt 0.9995 0.0005 0.0005
vt 0.9995 0.9995 0.0005
vt 0.0005 0.9995 0.0005
vt 0.2118 0.3079 0.6499
vt 0.8497 0.3501 0.9995
vt 0.6499 0.3501 0.9995
vt 0.6499 0.1503 0.9995
vt 0.9995 0.2003 0.9995
vt 0.7997 0.0005 0.9995
vt 0.9995 0.0005 0.9995
vt 0.7997 0.1670 0.0005
vt 0.7997 0.9995 0.0005
vt 0.6499 0.2669 0.1503
vt 0.0005 0.2003 0.9995
vt 0.0005 0.0005 0.9995
vt 0.2003 0.0005 0.9995
vt 0.1503 0.3501 0.9995
vt 0.3501 0.1503 0.9995
vt 0.3501 0.3501 0.9995
vt 0.0005 0.9995 0.9995
vt 0.0005 0.7997 0.9995
vt 0.3501 0.8497 0.9995
vt 0.1503 0.6499 0.9995
vt 0.3501 0.6499 0.9995
vt 0.9995 0.9995 0.9995
vt 0.7997 0.9995 0.9995
vt 0.7997 0.1670 0.9995
vt 0.3501 0.3079 0.7882
vt 0.6499 0.2669 0.8497
vt 0.6499 0.8497 0.9995
vt 0.6499 0.6499 0.9995
vt 0.8497 0.6499 0.9995
vt 0.9995 0.7997 0.9995
# 66 texture coords

g StaticMaterial
s 1
f 1/1/1 2/2/1 3/3/1 
f 3/3/1 4/4/1 1/1/1 
s 2
f 5/5/2 6/6/2 1/7/2 
f 1/7/2 7/8/2 5/5/2 
s 4
f 1/9/3 6/10/3 8/11/3 
f 8/11/3 9/12/3 1/9/3 
s 1
f 9/13/4 8/14/4 10/15/4 
f 10/15/4 11/16/4 9/13/4 
f 12/17/5 5/5/5 7/8/5 
f 7/8/5 13/18/5 12/17/5 
s 2
f 4/9/6 14/10/6 15/11/6 
f 15/11/6 16/12/6 4/9/6 
s 1
f 16/19/7 15/20/7 17/21/7 
f 17/21/7 18/22/7 16/19/7 
f 19/23/8 20/24/8 21/25/8 
f 21/25/8 22/26/8 19/23/8 
s 4
f 20/24/3 14/27/3 4/28/3 
f 4/28/3 21/25/3 20/24/3 
s 2
f 3/29/9 23/30/9 24/31/9 
f 24/31/9 25/32/9 3/29/9 
s 1
f 25/19/5 24/20/5 26/21/5 
f 26/21/5 27/22/5 25/19/5 
f 28/23/4 29/24/4 30/25/4 
f 30/25/4 31/26/4 28/23/4 
s 4
f 29/24/6 23/27/6 3/28/6 
f 3/28/6 30/25/6 29/24/6 
s 1
f 32/33/10 33/34/10 34/35/10 
f 34/35/10 35/36/10 32/33/10 
s 2
f 36/5/9 37/6/9 2/7/9 
f 2/7/9 38/8/9 36/5/9 
s 4
f 2/29/2 37/30/2 39/31/2 
f 39/31/2 40/37/2 2/29/2 
f 40/37/2 39/31/2 41/32/2 
s 1
f 41/13/8 39/14/8 42/15/8 
f 42/15/8 43/16/8 41/13/8 
f 44/17/7 36/5/7 38/8/7 
f 38/8/7 45/18/7 44/17/7 
s 8
f 8/38/1 6/39/1 5/40/1 
f 5/40/1 10/41/1 8/38/1 
f 10/41/1 5/40/1 12/42/1 
f 12/42/1 46/43/1 10/41/1 
s 2
f 18/22/9 17/21/9 47/36/9 
f 47/36/9 33/33/9 18/22/9 
f 18/22/9 33/33/9 32/34/9 
f 32/34/9 13/44/9 18/22/9 
f 13/44/9 32/34/9 46/35/9 
f 46/35/9 12/45/9 13/44/9 
s 8
f 1/28/11 4/9/11 16/19/11 
f 16/19/11 7/46/11 1/28/11 
f 7/46/11 16/19/11 18/22/11 
f 18/22/11 13/44/11 7/46/11 
f 19/47/1 47/48/1 17/49/1 
f 17/49/1 20/50/1 19/47/1 
f 20/50/1 17/49/1 15/51/1 
f 15/51/1 14/52/1 20/50/1 
s 4
f 47/35/2 19/45/2 22/44/2 
f 22/44/2 33/34/2 47/35/2 
f 22/44/2 27/22/2 34/33/2 
f 34/33/2 33/34/2 22/44/2 
f 27/22/2 26/21/2 48/36/2 
f 48/36/2 34/33/2 27/22/2 
s 16
f 4/28/12 3/9/12 25/19/12 
f 25/19/12 21/46/12 4/28/12 
f 21/46/12 25/19/12 27/22/12 
f 27/22/12 22/44/12 21/46/12 
s 8
f 28/15/1 48/53/1 26/54/1 
f 26/54/1 29/55/1 28/15/1 
f 29/55/1 26/54/1 24/56/1 
f 24/56/1 23/57/1 29/55/1 
s 2
f 48/58/3 28/59/3 31/60/3 
f 31/60/3 34/43/3 48/58/3 
f 31/60/3 43/16/3 35/48/3 
f 35/48/3 34/43/3 31/60/3 
f 49/53/3 35/48/3 43/16/3 
f 43/16/3 42/15/3 49/53/3 
s 8
f 3/7/13 2/29/13 40/61/13 
f 40/61/13 30/62/13 3/7/13 
f 30/62/13 40/61/13 41/13/13 
f 41/13/13 31/60/13 30/62/13 
f 31/60/13 41/13/13 43/16/13 
s 4
f 49/58/6 44/59/6 45/60/6 
f 45/60/6 35/43/6 49/58/6 
f 45/60/6 11/16/6 32/48/6 
f 32/48/6 35/43/6 45/60/6 
f 46/53/6 32/48/6 11/16/6 
f 11/16/6 10/15/6 46/53/6 
s 16
f 2/7/14 1/29/14 9/13/14 
f 9/13/14 38/62/14 2/7/14 
f 9/13/14 11/16/14 45/60/14 
f 45/60/14 38/62/14 9/13/14 
s 8
f 39/63/1 37/64/1 36/65/1 
f 36/65/1 42/59/1 39/63/1 
f 42/59/1 36/65/1 44/66/1 
f 44/66/1 49/58/1 42/59/1 
# 94 faces

