# 3ds Max Wavefront OBJ Exporter v0.97b - (c)2007 guruware
# File Created: 31.01.2016 23:25:26

#
# object GrowthMaterial
#

v  -0.2871 0.1096 0.3541
v  -0.0188 -0.0563 0.3541
v  -0.2042 -0.0563 0.0989
v  -0.5042 -0.0563 0.1964
v  -0.5042 -0.0563 0.5118
v  -0.2042 -0.0563 0.6093
v  -0.0700 -0.3246 0.5118
v  -0.0700 -0.3246 0.1964
v  -0.3700 -0.3246 0.0989
v  -0.5554 -0.3246 0.3541
v  -0.3700 -0.3246 0.6093
v  -0.2871 -0.4904 0.3541
# 12 vertices

vn 0.0000 1.0000 -0.0000
vn 0.8944 0.4472 -0.0000
vn 0.2764 0.4472 -0.8507
vn -0.7236 0.4472 -0.5257
vn -0.7236 0.4472 0.5257
vn 0.2764 0.4472 0.8507
vn 0.7236 -0.4472 0.5257
vn 0.7236 -0.4472 -0.5257
vn -0.2764 -0.4472 -0.8507
vn -0.8944 -0.4472 0.0000
vn -0.2764 -0.4472 0.8507
vn -0.0000 -1.0000 -0.0000
# 12 vertex normals

vt 0.7255 0.4755 0.0000
vt 0.6356 0.3182 0.0000
vt 0.8168 0.3190 0.0000
vt 0.9067 0.4763 0.0000
vt 0.9980 0.3198 -0.0000
vt 0.1819 0.4732 0.0000
vt 0.0919 0.3159 -0.0000
vt 0.2731 0.3167 0.0000
vt 0.3631 0.4740 0.0000
vt 0.4544 0.3174 0.0000
vt 0.5443 0.4748 0.0000
vt 0.5456 0.1609 -0.0000
vt 0.7269 0.1617 -0.0000
vt 0.9081 0.1624 -0.0000
vt 0.0020 0.1585 -0.0000
vt 0.1832 0.1593 0.0000
vt 0.3644 0.1601 -0.0000
vt 0.8181 0.0051 0.0000
vt 0.0933 0.0020 0.0000
vt 0.2745 0.0028 0.0000
vt 0.4557 0.0036 0.0000
vt 0.6369 0.0043 0.0000
# 22 texture coords

g GrowthMaterial
f 1/1/1 2/2/2 3/3/3 
f 1/4/1 3/3/3 4/5/4 
f 1/6/1 4/7/4 5/8/5 
f 1/9/1 5/8/5 6/10/6 
f 1/11/1 6/10/6 2/2/2 
f 2/2/2 7/12/7 8/13/8 
f 3/3/3 8/13/8 9/14/9 
f 4/7/4 9/15/9 10/16/10 
f 5/8/5 10/16/10 11/17/11 
f 6/10/6 11/17/11 7/12/7 
f 8/13/8 3/3/3 2/2/2 
f 9/14/9 4/5/4 3/3/3 
f 10/16/10 5/8/5 4/7/4 
f 11/17/11 6/10/6 5/8/5 
f 7/12/7 2/2/2 6/10/6 
f 12/18/12 9/14/9 8/13/8 
f 12/19/12 10/16/10 9/15/9 
f 12/20/12 11/17/11 10/16/10 
f 12/21/12 7/12/7 11/17/11 
f 12/22/12 8/13/8 7/12/7 
# 20 faces

