# 3ds Max Wavefront OBJ Exporter v0.97b - (c)2007 guruware
# File Created: 19.06.2015 19:18:33

#
# object StaticMaterial
#

v  -1.0000 0.0000 -1.0000
v  1.0000 0.0000 -1.0000
v  1.0000 0.0000 1.0000
v  -1.0000 0.0000 1.0000
v  1.0000 0.5000 1.0000
v  1.0000 0.5000 -1.0000
v  -1.0000 0.5000 -1.0000
v  -1.0000 0.5000 1.0000
v  0.5404 0.9815 0.3499
v  0.1530 0.9035 0.0147
v  0.0993 0.7822 0.5137
v  0.5571 0.6203 0.6821
v  0.8937 0.6415 0.2870
v  0.6440 0.8166 -0.1254
v  0.2669 0.5153 -0.2554
v  -0.0697 0.4941 0.1396
v  0.1800 0.3191 0.5521
v  0.6710 0.2321 0.4120
v  0.7247 0.3534 -0.0871
v  0.2836 0.1541 0.0767
v  0.2612 0.4691 -0.3705
v  0.1032 0.6812 -0.7433
v  0.1182 0.8264 -0.2922
v  -0.0093 0.5532 0.0216
v  -0.1030 0.2391 -0.2355
v  -0.0335 0.3183 -0.7083
v  -0.3587 0.5824 -0.8387
v  -0.2650 0.8965 -0.5816
v  -0.3345 0.8174 -0.1088
v  -0.4712 0.4544 -0.0738
v  -0.4862 0.3092 -0.5249
v  -0.6293 0.6666 -0.4466
v  -0.0546 0.5518 0.4288
v  -0.1552 0.2297 0.3935
v  -0.1992 0.4404 0.1017
v  -0.3072 0.7380 0.2399
v  -0.3300 0.7112 0.6171
v  -0.2360 0.3970 0.7121
v  -0.4700 0.2167 0.1829
v  -0.5640 0.5309 0.0879
v  -0.6448 0.6983 0.4065
v  -0.6008 0.4876 0.6983
v  -0.4928 0.1899 0.5601
v  -0.7454 0.3761 0.3712
v  0.6424 0.8324 -0.6876
v  0.9015 0.6459 -0.6266
v  0.6178 0.5757 -0.7948
v  0.3462 0.6582 -0.6717
v  0.4619 0.7794 -0.4275
v  0.8051 0.7717 -0.3996
v  0.8812 0.4775 -0.3289
v  0.7655 0.3563 -0.5731
v  0.4222 0.3639 -0.6011
v  0.3259 0.4898 -0.3740
v  0.6095 0.5600 -0.2058
v  0.5850 0.3032 -0.3130
v  -0.7361 0.7694 0.2865
v  -0.7323 0.8741 -0.0211
v  -0.9897 0.7690 0.1696
v  -0.9569 0.5105 0.3363
v  -0.6793 0.4558 0.2488
v  -0.5405 0.6806 0.0278
v  -0.6732 0.6252 -0.2491
v  -0.9508 0.6799 -0.1615
v  -1.0897 0.4551 0.0594
v  -0.8978 0.2615 0.1084
v  -0.6404 0.3666 -0.0823
v  -0.8941 0.3662 -0.1993
v  0.3309 0.3837 0.9566
v  0.3042 0.5583 0.6837
v  0.3295 0.6589 1.0045
v  0.1555 0.5198 1.2194
v  0.0228 0.3333 1.0314
v  0.1147 0.3571 0.7003
v  -0.0203 0.6158 0.5899
v  0.1125 0.8024 0.7778
v  0.0206 0.7786 1.1089
v  -0.1689 0.5774 1.1255
v  -0.1942 0.4768 0.8047
v  -0.1956 0.7520 0.8526
v  1.1127 0.7417 0.8057
v  1.0942 0.4144 1.0303
v  1.0052 0.4684 0.6315
v  0.7971 0.7673 0.5290
v  0.7576 0.8980 0.8644
v  0.9412 0.6799 1.1742
v  0.7276 0.3684 1.2277
v  0.7671 0.2377 0.8924
v  0.5835 0.4558 0.5825
v  0.4305 0.7213 0.7264
v  0.5196 0.6673 1.1252
v  0.4119 0.3940 0.9510
v  -0.4391 0.3468 0.8025
v  -0.5192 0.6015 0.6490
v  -0.3262 0.5649 0.9010
v  -0.4139 0.3958 1.1238
v  -0.6611 0.3277 1.0096
v  -0.7262 0.4549 0.7161
v  -0.7906 0.7399 0.7612
v  -0.5434 0.8079 0.8754
v  -0.4783 0.6808 1.1688
v  -0.6854 0.5342 1.2359
v  -0.8784 0.5707 0.9840
v  -0.7654 0.7889 1.0825
v  -0.8816 0.6188 -0.8986
v  -0.5893 0.5753 -0.8118
v  -0.8386 0.3757 -0.8033
v  -1.0951 0.4731 -0.7001
v  -1.0045 0.7330 -0.6449
v  -0.6918 0.7961 -0.7140
v  -0.5315 0.6626 -0.5045
v  -0.6222 0.4027 -0.5597
v  -0.9348 0.3396 -0.4907
v  -1.0373 0.5604 -0.3928
v  -0.7881 0.7600 -0.4013
v  -0.7451 0.5169 -0.3059
# 116 vertices

vn 0.0000 -1.0000 -0.0000
vn 0.0000 1.0000 -0.0000
vn 0.0000 0.0000 1.0000
vn 1.0000 0.0000 -0.0000
vn 0.0000 0.0000 -1.0000
vn -1.0000 0.0000 -0.0000
vn 0.2521 0.9298 0.2681
vn -0.5143 0.7615 -0.3945
vn -0.6284 0.4907 0.6035
vn 0.2935 0.1207 0.9483
vn 0.9742 0.1695 0.1489
vn 0.4649 0.5683 -0.6789
vn -0.2935 -0.1206 -0.9483
vn -0.9742 -0.1695 -0.1490
vn -0.5454 -0.4022 0.7354
vn 0.6862 -0.4697 0.5554
vn 0.6617 -0.3122 -0.6817
vn -0.4877 -0.7422 -0.4598
vn 0.9909 -0.0554 0.1229
vn 0.6148 0.3321 -0.7154
vn 0.6215 0.7458 0.2397
vn 0.3759 -0.0421 0.9257
vn 0.2971 -0.6563 0.6935
vn 0.3093 -0.4358 -0.8453
vn -0.3759 0.0420 -0.9257
vn -0.1600 0.9260 -0.3418
vn -0.3104 0.7213 0.6191
vn -0.6219 -0.1045 0.7761
vn -0.7868 -0.4702 -0.3997
vn -0.9538 0.2893 -0.0808
vn 0.9555 0.2840 0.0798
vn 0.9531 -0.3011 0.0308
vn 0.5461 0.1475 -0.8246
vn 0.2493 0.8677 -0.4300
vn 0.1894 0.7869 0.5872
vn 0.4450 -0.0016 0.8955
vn -0.3691 -0.3684 -0.8532
vn -0.4543 0.2166 -0.8641
vn -0.6641 0.7474 0.0176
vn -0.5569 0.0767 0.8271
vn -0.4633 -0.5059 0.7276
vn -0.9950 -0.0740 -0.0676
vn 0.0716 0.8547 -0.5142
vn 0.8831 0.1687 -0.4379
vn 0.0544 -0.1358 -0.9892
vn -0.8116 0.2813 -0.5120
vn -0.4768 0.7927 0.3798
vn 0.5150 0.7445 0.4249
vn 0.8222 -0.0588 0.5661
vn 0.5578 -0.5694 -0.6039
vn -0.6229 -0.6333 -0.4593
vn -0.8831 -0.1686 0.4379
vn -0.0543 0.1359 0.9892
vn -0.2826 -0.5530 0.7838
vn 0.3033 0.5757 0.7593
vn 0.1738 0.9584 -0.2264
vn -0.6843 0.6702 0.2874
vn -0.4205 -0.1780 0.8897
vn 0.5982 -0.2999 0.7431
vn 0.9699 0.2421 0.0279
vn 0.4206 0.1781 -0.8896
vn -0.6087 0.4257 -0.6696
vn -0.9699 -0.2420 -0.0279
vn -0.5327 -0.7806 0.3268
vn 0.8176 -0.3932 -0.4206
vn -0.4338 -0.3615 -0.8253
vn 0.7636 -0.6266 0.1557
vn 0.7461 0.0539 -0.6637
vn 0.8387 0.4612 0.2897
vn 0.2620 -0.1551 0.9525
vn -0.2296 -0.9076 0.3516
vn 0.0582 -0.8024 -0.5939
vn -0.2619 0.1550 -0.9526
vn 0.2297 0.9075 -0.3517
vn -0.0580 0.8024 0.5939
vn -0.7460 -0.0540 0.6637
vn -0.8386 -0.4613 -0.2897
vn -0.7636 0.6267 -0.1557
vn 0.8561 0.4967 -0.1429
vn 0.8255 -0.4563 0.3322
vn 0.5953 -0.4241 -0.6824
vn 0.0850 0.5031 -0.8601
vn -0.0378 0.9948 0.0950
vn 0.4044 0.4480 0.7974
vn -0.0849 -0.5030 0.8601
vn 0.1647 -0.9861 -0.0223
vn -0.3731 -0.3122 -0.8737
vn -0.8255 0.4564 -0.3322
vn -0.5952 0.4242 0.6825
vn -0.9021 -0.3156 0.2943
vn 0.4687 -0.7623 -0.4464
vn 0.3217 0.1752 -0.9305
vn 0.9800 0.1553 -0.1245
vn 0.5948 -0.5578 0.5789
vn -0.3498 -0.9165 0.1940
vn -0.5120 -0.5040 -0.6956
vn -0.5948 0.5577 -0.5790
vn 0.3498 0.9165 -0.1941
vn 0.5121 0.5040 0.6955
vn -0.3217 -0.1753 0.9305
vn -0.9800 -0.1554 0.1244
vn -0.4686 0.7623 0.4463
vn -0.2439 0.2349 -0.9409
vn 0.7424 -0.0602 -0.6672
vn -0.0557 -0.6739 -0.7367
vn -0.9038 -0.2926 -0.3122
vn -0.6587 0.7428 -0.1201
vn 0.2995 0.8922 -0.3382
vn 0.9038 0.2927 0.3122
vn 0.7539 -0.6366 0.1622
vn -0.4201 -0.7996 0.4291
vn -0.7425 0.0603 0.6672
vn 0.0014 0.7867 0.6173
vn 0.2440 -0.2350 0.9409
# 114 vertex normals

vt 1.0000 1.0000 0.2253
vt -0.0000 1.0000 0.2253
vt 0.0000 -0.0000 0.2253
vt 1.0000 0.0000 0.2253
vt 1.0000 -0.0000 0.4753
vt 1.0000 1.0000 0.4753
vt 0.0000 1.0000 0.4753
vt -0.0000 0.0000 0.4753
vt 1.0000 0.2253 -0.0000
vt 1.0000 0.4753 -0.0000
vt -0.0000 0.4753 0.0000
vt -0.0000 0.2253 0.0000
vt 1.0000 0.2253 1.0000
vt 1.0000 0.4753 1.0000
vt -0.0000 0.4753 1.0000
vt -0.0000 0.2253 1.0000
vt 0.7702 0.3250 0.7746
vt 0.5765 0.4926 0.7356
vt 0.5496 0.2431 0.6750
vt 0.7702 0.7746 0.3250
vt 0.5496 0.6750 0.2431
vt 0.7785 0.5940 0.1589
vt 0.3250 0.7746 0.7702
vt 0.1589 0.5940 0.7785
vt 0.3565 0.6047 0.9468
vt 0.9468 0.3565 0.6047
vt 0.8220 0.5627 0.6922
vt 0.5074 0.7356 0.5765
vt 0.3723 0.5415 0.6335
vt 0.5698 0.5309 0.4651
vt 0.7569 0.6750 0.5496
vt 0.7761 0.4434 0.5900
vt 0.5900 0.4434 0.2239
vt 0.8355 0.3999 0.2940
vt 0.2940 0.3999 0.8355
vt 0.5435 0.4606 0.8623
vt 0.1780 0.6922 0.5627
vt 0.1377 0.4606 0.5435
vt 0.3665 0.5415 0.6277
vt 0.5627 0.6922 0.8220
vt 0.4235 0.7356 0.4926
vt 0.3582 0.4616 0.3609
vt 0.4100 0.2239 0.4434
vt 0.5349 0.4302 0.5309
vt 0.3582 0.3609 0.4616
vt 0.5384 0.3609 0.6418
vt 0.6852 0.5185 0.6306
vt 0.8716 0.6245 0.5516
vt 0.6461 0.6971 0.5591
vt 0.4892 0.5605 0.4954
vt 0.3694 0.6852 0.5185
vt 0.5046 0.4892 0.5605
vt 0.5515 0.6177 0.4035
vt 0.8541 0.4430 0.4833
vt 0.4484 0.6245 0.8716
vt 0.6793 0.5751 0.9194
vt 0.6325 0.7321 0.7908
vt 0.5591 0.6461 0.6971
vt 0.3675 0.7908 0.7321
vt 0.3328 0.5544 0.6926
vt 0.4954 0.5605 0.4892
vt 0.3328 0.6926 0.5544
vt 0.2644 0.5111 0.5369
vt 0.5167 0.4430 0.8541
vt 0.7431 0.4385 0.7625
vt 0.5516 0.8716 0.6245
vt 0.5591 0.6971 0.6461
vt 0.4485 0.4035 0.6177
vt 0.1854 0.7233 0.6172
vt 0.2767 0.6172 0.1854
vt 0.4631 0.5111 0.2644
vt 0.4456 0.6926 0.3328
vt 0.2375 0.4385 0.2569
vt 0.0806 0.5751 0.3207
vt 0.3207 0.9194 0.5751
vt 0.2856 0.5598 0.4727
vt 0.3033 0.3988 0.4224
vt 0.4492 0.5041 0.4004
vt 0.3801 0.6529 0.3464
vt 0.4727 0.2856 0.5598
vt 0.3464 0.3801 0.6529
vt 0.3350 0.1915 0.6395
vt 0.1915 0.6395 0.3350
vt 0.1440 0.4824 0.3820
vt 0.5996 0.5041 0.4492
vt 0.7350 0.3923 0.4086
vt 0.7820 0.5494 0.4561
vt 0.2180 0.4561 0.5494
vt 0.1776 0.2968 0.6330
vt 0.1996 0.1509 0.5277
vt 0.3820 0.4824 0.1440
vt 0.1996 0.5277 0.1509
vt 0.2536 0.3788 0.2200
vt 0.6536 0.6529 0.3801
vt 0.3350 0.6395 0.1915
vt 0.6856 0.4719 0.1273
vt 0.5439 0.5494 0.2180
vt 0.5914 0.3923 0.2650
vt 0.7032 0.6330 0.1776
vt 0.8491 0.5277 0.1996
vt 0.7800 0.3788 0.2536
vt 0.8115 0.7001 0.8515
vt 0.7005 0.6068 0.9249
vt 0.8590 0.5718 0.8793
vt 0.1485 0.7001 0.8115
vt 0.1207 0.5718 0.8590
vt 0.2618 0.6130 0.9072
vt 0.8515 0.8115 0.7001
vt 0.7382 0.9072 0.6130
vt 0.6966 0.7786 0.6736
vt 0.8121 0.6509 0.6697
vt 0.9249 0.7005 0.6068
vt 0.5991 0.5226 0.8155
vt 0.7277 0.4620 0.8571
vt 0.1207 0.8590 0.5718
vt 0.1429 0.7277 0.4620
vt 0.2583 0.8554 0.4659
vt 0.2583 0.4659 0.8554
vt 0.3712 0.5288 0.8058
vt 0.2214 0.6736 0.6966
vt 0.1942 0.5288 0.6288
vt 0.3527 0.5639 0.6744
vt 0.8121 0.6697 0.6509
vt 0.6744 0.5639 0.6473
vt 0.8155 0.5226 0.5991
vt 0.0928 0.6130 0.7382
vt 0.6744 0.6473 0.5639
vt 0.9249 0.6068 0.7005
vt 0.2978 0.6948 0.4355
vt 0.3712 0.8058 0.5288
vt 0.3052 0.4355 0.7022
vt 0.7022 0.4355 0.6948
vt 0.1722 0.4287 0.6686
vt 0.1742 0.5825 0.7210
vt 0.0455 0.4872 0.6684
vt 0.1722 0.6686 0.4287
vt 0.0455 0.6684 0.4872
vt 0.0618 0.5391 0.4038
vt 0.2007 0.5118 0.4475
vt 0.4287 0.6686 0.1722
vt 0.4475 0.5118 0.2007
vt 0.5580 0.6242 0.2701
vt 0.2701 0.5580 0.6242
vt 0.8258 0.7210 0.5825
vt 0.7963 0.5965 0.6965
vt 0.9351 0.6238 0.6527
vt 0.5128 0.6684 0.0455
vt 0.3473 0.6238 0.0649
vt 0.4578 0.5115 -0.0046
vt 0.5962 0.5391 0.0618
vt 0.4823 0.4147 0.0914
vt 0.6131 0.4672 0.2201
vt 0.6965 0.5965 0.2037
vt 0.0649 0.6527 0.6238
vt 0.0914 0.4147 0.5177
vt 0.5825 0.7210 0.1742
vt 0.3284 0.4670 0.0933
vt 0.9067 0.6716 0.4670
vt 0.9086 0.5177 0.4147
vt 1.0046 0.5422 0.5115
vt 0.9067 0.4670 0.6716
vt 0.7799 0.4672 0.6131
vt 0.7993 0.4475 0.5118
vt 0.7799 0.6131 0.4672
# 164 texture coords

g StaticMaterial
f 1/1/1 2/2/1 3/3/1 
f 3/3/1 4/4/1 1/1/1 
f 5/5/2 6/6/2 7/7/2 
f 7/7/2 8/8/2 5/5/2 
f 3/9/3 5/10/3 8/11/3 
f 8/11/3 4/12/3 3/9/3 
f 2/13/4 6/14/4 5/15/4 
f 5/15/4 3/16/4 2/13/4 
f 1/13/5 7/14/5 6/15/5 
f 6/15/5 2/16/5 1/13/5 
f 4/9/6 8/10/6 7/11/6 
f 7/11/6 1/12/6 4/9/6 
f 9/17/7 10/18/8 11/19/9 
f 9/20/7 11/21/9 12/22/10 
f 9/23/7 12/24/10 13/25/11 
f 9/17/7 13/26/11 14/27/12 
f 9/17/7 14/27/12 10/18/8 
f 10/28/8 15/29/13 16/30/14 
f 11/31/9 16/30/14 17/32/15 
f 12/22/10 17/33/15 18/34/16 
f 13/25/11 18/35/16 19/36/17 
f 14/37/12 19/38/17 15/39/13 
f 16/30/14 11/31/9 10/28/8 
f 17/33/15 12/22/10 11/21/9 
f 18/35/16 13/25/11 12/24/10 
f 19/36/17 14/40/12 13/25/11 
f 15/39/13 10/41/8 14/37/12 
f 20/42/18 17/43/15 16/44/14 
f 20/45/18 15/39/13 19/38/17 
f 20/46/18 16/30/14 15/29/13 
f 21/47/19 22/48/20 23/49/21 
f 21/47/19 23/49/21 24/50/22 
f 21/51/19 24/52/22 25/53/23 
f 21/47/19 26/54/24 22/48/20 
f 22/55/20 27/56/25 28/57/26 
f 23/58/21 28/59/26 29/60/27 
f 24/61/22 29/62/27 30/63/28 
f 26/64/24 31/65/29 27/56/25 
f 28/59/26 23/58/21 22/66/20 
f 29/62/27 24/61/22 23/67/21 
f 30/63/28 25/68/23 24/61/22 
f 27/56/25 22/55/20 26/64/24 
f 32/69/30 29/60/27 28/59/26 
f 32/70/30 30/71/28 29/72/27 
f 32/70/30 31/73/29 30/71/28 
f 32/70/30 27/74/25 31/73/29 
f 32/69/30 28/59/26 27/75/25 
f 33/76/31 34/77/32 35/78/33 
f 33/76/31 35/78/33 36/79/34 
f 33/80/31 36/81/34 37/82/35 
f 33/76/31 37/83/35 38/84/36 
f 33/76/31 38/84/36 34/77/32 
f 35/85/33 39/86/37 40/87/38 
f 36/81/34 40/88/38 41/89/39 
f 37/82/35 41/89/39 42/90/40 
f 38/91/36 42/92/40 43/93/41 
f 40/87/38 36/94/34 35/85/33 
f 41/89/39 37/82/35 36/81/34 
f 42/92/40 38/91/36 37/95/35 
f 44/96/42 40/97/38 39/98/37 
f 44/96/42 41/99/39 40/97/38 
f 44/96/42 42/100/40 41/99/39 
f 44/96/42 43/101/41 42/100/40 
f 45/102/43 46/103/44 47/104/45 
f 45/105/43 47/106/45 48/107/46 
f 45/108/43 48/109/46 49/110/47 
f 45/108/43 49/110/47 50/111/48 
f 45/108/43 50/111/48 46/112/44 
f 46/103/44 51/113/49 52/114/50 
f 47/115/45 52/116/50 53/117/51 
f 48/107/46 53/118/51 54/119/52 
f 49/120/47 54/121/52 55/122/53 
f 50/123/48 55/124/53 51/125/49 
f 52/114/50 47/104/45 46/103/44 
f 53/118/51 48/107/46 47/106/45 
f 54/121/52 49/120/47 48/126/46 
f 55/127/53 50/111/48 49/110/47 
f 51/125/49 46/128/44 50/123/48 
f 56/129/54 54/130/52 53/117/51 
f 56/131/54 55/122/53 54/121/52 
f 56/132/54 51/125/49 55/124/53 
f 57/133/55 58/134/56 59/135/57 
f 57/136/55 59/137/57 60/138/58 
f 57/136/55 60/138/58 61/139/59 
f 57/140/55 61/141/59 62/142/60 
f 57/133/55 62/143/60 58/134/56 
f 58/144/56 63/145/61 64/146/62 
f 59/147/57 64/148/62 65/149/63 
f 60/150/58 65/149/63 66/151/64 
f 62/142/60 67/152/65 63/153/61 
f 64/154/62 59/135/57 58/134/56 
f 65/149/63 60/150/58 59/147/57 
f 66/155/64 61/139/59 60/138/58 
f 67/152/65 62/142/60 61/141/59 
f 63/153/61 58/156/56 62/142/60 
f 68/157/66 65/149/63 64/148/62 
f 68/158/66 66/159/64 65/160/63 
f 68/161/66 63/145/61 67/162/65 
f 68/161/66 64/146/62 63/145/61 
f 69/133/67 70/134/68 71/135/69 
f 69/136/67 71/137/69 72/138/70 
f 69/136/67 72/138/70 73/139/71 
f 69/140/67 73/141/71 74/142/72 
f 69/133/67 74/143/72 70/134/68 
f 70/144/68 75/145/73 76/146/74 
f 71/147/69 76/148/74 77/149/75 
f 72/150/70 77/149/75 78/151/76 
f 73/163/71 78/159/76 79/164/77 
f 74/142/72 79/152/77 75/153/73 
f 76/154/74 71/135/69 70/134/68 
f 77/149/75 72/150/70 71/147/69 
f 78/155/76 73/139/71 72/138/70 
f 79/152/77 74/142/72 73/141/71 
f 75/153/73 70/156/68 74/142/72 
f 80/157/78 77/149/75 76/148/74 
f 80/158/78 78/159/76 77/160/75 
f 80/158/78 79/164/77 78/159/76 
f 80/161/78 75/145/73 79/162/77 
f 80/161/78 76/146/74 75/145/73 
f 81/133/79 82/134/80 83/135/81 
f 81/136/79 83/137/81 84/138/82 
f 81/136/79 84/138/82 85/139/83 
f 81/140/79 85/141/83 86/142/84 
f 81/133/79 86/143/84 82/134/80 
f 82/144/80 87/145/85 88/146/86 
f 83/147/81 88/148/86 89/149/87 
f 84/150/82 89/149/87 90/151/88 
f 85/163/83 90/159/88 91/164/89 
f 86/142/84 91/152/89 87/153/85 
f 88/154/86 83/135/81 82/134/80 
f 89/149/87 84/150/82 83/147/81 
f 90/155/88 85/139/83 84/138/82 
f 91/152/89 86/142/84 85/141/83 
f 87/153/85 82/156/80 86/142/84 
f 92/158/90 90/159/88 89/160/87 
f 92/158/90 91/164/89 90/159/88 
f 92/161/90 87/145/85 91/162/89 
f 92/161/90 88/146/86 87/145/85 
f 93/133/91 94/134/92 95/135/93 
f 93/136/91 95/137/93 96/138/94 
f 93/136/91 96/138/94 97/139/95 
f 93/140/91 97/141/95 98/142/96 
f 93/133/91 98/143/96 94/134/92 
f 94/144/92 99/145/97 100/146/98 
f 95/147/93 100/148/98 101/149/99 
f 96/150/94 101/149/99 102/151/100 
f 97/163/95 102/159/100 103/164/101 
f 98/142/96 103/152/101 99/153/97 
f 100/154/98 95/135/93 94/134/92 
f 101/149/99 96/150/94 95/147/93 
f 102/155/100 97/139/95 96/138/94 
f 103/152/101 98/142/96 97/141/95 
f 99/153/97 94/156/92 98/142/96 
f 104/157/102 101/149/99 100/148/98 
f 104/158/102 102/159/100 101/160/99 
f 104/158/102 103/164/101 102/159/100 
f 104/161/102 99/145/97 103/162/101 
f 104/161/102 100/146/98 99/145/97 
f 105/133/103 106/134/104 107/135/105 
f 105/136/103 107/137/105 108/138/106 
f 105/136/103 108/138/106 109/139/107 
f 105/140/103 109/141/107 110/142/108 
f 105/133/103 110/143/108 106/134/104 
f 106/144/104 111/145/109 112/146/110 
f 108/150/106 113/149/111 114/151/112 
f 109/163/107 114/159/112 115/164/113 
f 110/142/108 115/152/113 111/153/109 
f 112/154/110 107/135/105 106/134/104 
f 113/149/111 108/150/106 107/147/105 
f 114/155/112 109/139/107 108/138/106 
f 115/152/113 110/142/108 109/141/107 
f 111/153/109 106/156/104 110/142/108 
f 116/157/114 113/149/111 112/148/110 
f 116/158/114 114/159/112 113/160/111 
f 116/158/114 115/164/113 114/159/112 
f 116/161/114 111/145/109 115/162/113 
f 116/161/114 112/146/110 111/145/109 
# 177 faces

