# 3ds Max Wavefront OBJ Exporter v0.97b - (c)2007 guruware
# File Created: 19.06.2014 18:49:04

#
# object RAMP
#

v  -1.0000 0.0000 1.0000
v  -1.0000 0.0000 -1.0000
v  1.0000 0.0000 -1.0000
v  1.0000 0.0000 1.0000
v  -1.0000 0.5000 1.0000
v  1.0000 0.5000 1.0000
v  1.0000 3.5000 -1.0000
v  -1.0000 3.5000 -1.0000
# 8 vertices

vn 0.0000 -1.0000 -0.0000
vn -0.0000 0.5547 0.8321
vn 0.0000 0.5547 0.8321
vn 0.0000 0.0000 1.0000
vn 1.0000 0.0000 -0.0000
vn 0.0000 0.0000 -1.0000
vn -1.0000 0.0000 -0.0000
# 7 vertex normals

vt 1.0000 0.0000 0.0000
vt 1.0000 1.0000 0.0000
vt 0.0000 1.0000 0.0000
vt 0.0000 0.0000 0.0000
# 4 texture coords

g StaticMaterial
s 2
f 1/1/1 2/2/1 3/3/1 4/4/1 
s 4
f 5/4/2 6/1/3 7/2/2 8/3/2 
s 8
f 1/4/4 4/1/4 6/2/4 5/3/4 
s 16
f 4/4/5 3/1/5 7/2/5 6/3/5 
s 32
f 3/4/6 2/1/6 8/2/6 7/3/6 
s 64
f 2/4/7 1/1/7 5/2/7 8/3/7 
# 6 polygons

