# 3ds Max Wavefront OBJ Exporter v0.97b - (c)2007 guruware
# File Created: 31.01.2016 21:54:41

#
# object LayerMaterial
#

v  -1.0000 0.0000 -1.0000
v  1.0000 0.0000 -1.0000
v  1.0000 0.0000 1.0000
v  -1.0000 0.0000 1.0000
v  1.0000 0.5000 1.0000
v  1.0000 0.5000 -1.0000
v  -1.0000 0.5000 -1.0000
v  -1.0000 0.5000 1.0000
# 8 vertices

vn 0.0000 -1.0000 -0.0000
vn 0.0000 1.0000 -0.0000
vn 0.0000 0.0000 1.0000
vn 1.0000 0.0000 -0.0000
vn 0.0000 0.0000 -1.0000
vn -1.0000 0.0000 -0.0000
# 6 vertex normals

vt 1.0000 1.0000 0.0000
vt 0.0000 1.0000 0.0000
vt 0.0000 0.0000 0.0000
vt 1.0000 0.0000 0.0000
# 4 texture coords

g LayerMaterial
f 1/1/1 2/2/1 3/3/1 
f 3/3/1 4/4/1 1/1/1 
f 5/4/2 6/1/2 7/2/2 
f 7/2/2 8/3/2 5/4/2 
f 3/4/3 5/1/3 8/2/3 
f 8/2/3 4/3/3 3/4/3 
f 2/4/4 6/1/4 5/2/4 
f 5/2/4 3/3/4 2/4/4 
f 1/4/5 7/1/5 6/2/5 
f 6/2/5 2/3/5 1/4/5 
f 4/4/6 8/1/6 7/2/6 
f 7/2/6 1/3/6 4/4/6 
# 12 faces

#
# object GrowthCutout
#

v  1.3314 2.9030 1.2913
v  1.0266 1.1279 -0.8146
v  -0.8559 4.3466 0.3907
v  -1.1607 2.5715 -1.7150
v  0.4617 1.8246 1.9213
v  2.0330 2.4268 -0.2600
v  -1.5767 3.3543 0.8753
v  -0.0056 3.9566 -1.3060
v  0.9798 3.7762 -0.1240
v  -0.4583 2.4649 -1.7878
v  -0.5078 2.9696 1.7978
v  -1.9460 1.6582 0.1339
# 12 vertices

vn 0.3183 0.7804 -0.5382
vn 0.3182 0.7804 -0.5382
vn 0.3567 0.8024 0.4785
vn -0.5891 0.7990 -0.1206
vn -0.6041 -0.5641 0.5629
vn -0.6041 -0.5641 0.5630
vn -0.3567 -0.8024 -0.4785
vn 0.5891 -0.7990 0.1206
# 8 vertex normals

vt 0.0000 1.0000 0.0000
vt 0.0000 0.0000 0.0000
vt 1.0000 1.0000 0.0000
vt 1.0000 0.0000 0.0000
# 4 texture coords

g GrowthCutout
f 9/5/7 10/6/7 11/7/7 
f 12/8/8 11/7/7 10/6/7 
f 13/5/9 14/6/9 15/7/9 
f 16/8/9 15/7/9 14/6/9 
f 17/5/10 18/6/10 19/7/10 
f 20/8/10 19/7/10 18/6/10 
f 10/6/11 9/5/11 11/7/11 
f 11/7/11 12/8/12 10/6/11 
f 14/6/13 13/5/13 15/7/13 
f 15/7/13 16/8/13 14/6/13 
f 18/6/14 17/5/14 19/7/14 
f 19/7/14 20/8/14 18/6/14 
# 12 faces

#
# object StaticMaterial
#

v  0.0222 1.7365 -0.0882
v  0.0889 1.7365 0.0036
v  0.1860 0.5000 0.0036
v  0.0523 0.5000 -0.1806
v  -0.0856 1.7365 -0.0532
v  -0.1642 0.5000 -0.1102
v  -0.0856 1.7365 0.0603
v  -0.1642 0.5000 0.1174
v  0.0222 1.7365 0.0953
v  0.0523 0.5000 0.1877
v  -0.1219 2.2731 -0.0487
v  -0.0892 2.2923 0.0036
v  -0.1749 2.2420 -0.0287
v  -0.1749 2.2420 0.0358
v  -0.1219 2.2731 0.0558
v  -0.6084 2.4967 0.0036
v  -0.0354 1.7365 -0.0641
v  -0.0805 1.7365 0.0092
v  0.0807 2.4192 0.1834
v  0.1254 2.4481 0.1468
v  -0.0248 1.7365 0.0747
v  0.1085 2.3688 0.2126
v  0.0547 1.7365 0.0419
v  0.1703 2.3665 0.1940
v  0.0481 1.7365 -0.0438
v  0.1807 2.4155 0.1534
v  0.2212 2.6519 0.5591
v  -0.0182 1.7365 0.0759
v  0.0580 1.7365 0.0360
v  0.1315 2.1451 -0.1551
v  0.0894 2.1562 -0.1358
v  0.0435 1.7365 -0.0488
v  0.1228 2.1272 -0.1976
v  0.0752 2.1272 -0.2046
v  -0.0415 1.7365 -0.0612
v  -0.0797 1.7365 0.0158
v  0.0546 2.1451 -0.1664
v  0.0514 2.3603 -0.4215
# 38 vertices

vn 0.8074 0.0634 -0.5866
vn 0.8076 0.0635 -0.5863
vn 0.8077 0.0635 -0.5862
vn -0.3087 0.0261 -0.9508
vn -0.3100 0.0309 -0.9502
vn -0.3086 0.0634 -0.9491
vn -0.9980 0.0634 -0.0000
vn -0.3087 0.0294 0.9507
vn -0.3100 0.0237 0.9505
vn -0.3082 0.0634 0.9492
vn 0.8071 0.0635 0.5870
vn 0.8075 0.0634 0.5865
vn 0.8075 0.0634 0.5864
vn 0.7780 0.2494 -0.5766
vn 0.7774 0.2491 -0.5775
vn 0.7824 0.2519 -0.5695
vn 0.7829 0.2521 -0.5688
vn -0.3379 -0.0210 -0.9410
vn -0.3414 -0.0225 -0.9397
vn -0.9848 -0.1740 -0.0000
vn -0.3396 -0.0151 0.9405
vn -0.3451 -0.0155 0.9385
vn 0.7770 0.2510 0.5773
vn 0.7761 0.2510 0.5785
vn 0.7824 0.2509 0.5700
vn 0.7828 0.2509 0.5694
vn 0.3182 0.8082 -0.4956
vn -0.2138 -0.2439 -0.9459
vn -0.5066 -0.8622 -0.0000
vn -0.2137 -0.2441 0.9459
vn 0.3180 0.8078 0.4963
vn -0.8076 0.3175 -0.4969
vn -0.7177 0.3420 -0.6066
vn -0.7595 0.0179 0.6502
vn -0.7617 0.0193 0.6477
vn -0.7292 -0.0022 0.6843
vn -0.7272 -0.0034 0.6864
vn 0.3660 -0.2813 0.8871
vn 0.2695 -0.2591 0.9275
vn 0.9826 -0.1699 -0.0757
vn 0.9812 -0.1919 0.0197
vn 0.9807 -0.1951 0.0158
vn 0.9815 -0.1901 0.0220
vn 0.9821 -0.1866 0.0264
vn 0.2443 0.2260 -0.9430
vn 0.2456 0.2258 -0.9427
vn 0.2307 0.2283 -0.9459
vn 0.2300 0.2284 -0.9460
vn -0.6470 0.7325 -0.2118
vn -0.8645 -0.2131 0.4553
vn 0.1500 -0.7890 0.5958
vn 0.4882 0.7320 -0.4753
vn 0.4422 0.3132 0.8405
vn 0.4404 0.3141 0.8411
vn 0.4595 0.3035 0.8347
vn 0.4619 0.3022 0.8339
vn 0.9546 -0.2527 -0.1579
vn 0.9530 -0.2555 -0.1630
vn 0.9676 -0.2267 -0.1108
vn 0.9692 -0.2232 -0.1044
vn 0.1347 -0.3764 -0.9166
vn 0.1348 -0.3764 -0.9166
vn 0.1338 -0.3764 -0.9167
vn 0.1337 -0.3764 -0.9167
vn -0.8902 0.0947 -0.4456
vn -0.8917 0.0958 -0.4424
vn -0.8660 0.0765 -0.4941
vn -0.8628 0.0742 -0.5000
vn -0.6179 0.4752 0.6264
vn -0.6150 0.4751 0.6293
vn -0.6560 0.4759 0.5858
vn -0.6615 0.4759 0.5796
vn 0.4248 0.7624 0.4882
vn 0.9701 0.0758 -0.2305
vn 0.1078 -0.6713 -0.7333
vn -0.8791 -0.3697 -0.3008
vn -0.6315 0.5888 0.5046
# 77 vertex normals

vt 0.5712 0.3789 1.0000
vt 0.4740 0.3789 1.0000
vt 0.4740 0.0000 1.0000
vt 0.5712 0.0000 1.0000
vt 0.6684 0.3789 1.0000
vt 0.6684 0.0000 1.0000
vt 0.2797 0.3789 1.0000
vt 0.1825 0.3789 1.0000
vt 0.1825 0.0000 1.0000
vt 0.2797 0.0000 1.0000
vt 0.3768 0.3789 1.0000
vt 0.3768 0.0000 1.0000
vt 0.5712 0.7578 1.0000
vt 0.4740 0.7578 1.0000
vt 0.6684 0.7578 1.0000
vt 0.2797 0.7578 1.0000
vt 0.1825 0.7578 1.0000
vt 0.3768 0.7578 1.0000
vt 0.6101 0.9472 1.0000
vt 0.2311 0.9472 1.0000
# 20 texture coords

g StaticMaterial
f 21/9/15 22/10/15 23/11/16 
f 23/11/16 24/12/17 21/9/15 
f 25/13/18 21/9/19 24/12/20 
f 24/12/20 26/14/20 25/13/18 
f 27/15/21 25/16/21 26/17/21 
f 26/17/21 28/18/21 27/15/21 
f 29/19/22 27/15/23 28/18/24 
f 28/18/24 30/20/24 29/19/22 
f 22/10/25 29/19/25 30/20/26 
f 30/20/26 23/11/27 22/10/25 
f 31/21/28 32/22/29 22/10/30 
f 22/10/30 21/9/31 31/21/28 
f 21/9/19 25/13/18 33/23/32 
f 33/23/32 31/21/33 21/9/19 
f 34/24/34 33/25/34 25/16/34 
f 25/16/34 27/15/34 34/24/34 
f 27/15/23 29/19/22 35/26/35 
f 35/26/35 34/24/36 27/15/23 
f 32/22/37 35/26/38 29/19/39 
f 29/19/39 22/10/40 32/22/37 
f 32/22/41 31/21/41 36/27/41 
f 31/21/42 33/23/42 36/27/42 
f 33/25/43 34/24/43 36/28/43 
f 34/24/44 35/26/44 36/28/44 
f 35/26/45 32/22/45 36/27/45 
f 37/10/46 38/9/46 39/21/46 
f 39/21/47 40/22/47 37/10/47 
f 38/9/48 41/13/49 42/23/50 
f 42/23/50 39/21/51 38/9/48 
f 41/16/52 43/15/52 44/24/52 
f 44/24/53 42/25/53 41/16/53 
f 43/15/54 45/19/54 46/26/54 
f 46/26/55 47/28/56 44/24/57 
f 44/24/57 43/15/58 46/26/55 
f 40/22/59 46/26/60 45/19/61 
f 45/19/61 37/10/62 40/22/59 
f 40/22/63 39/21/63 47/27/63 
f 39/21/64 42/23/64 47/27/64 
f 42/25/65 44/24/65 47/28/65 
f 46/26/66 40/22/66 47/27/66 
f 48/10/67 49/9/68 50/21/69 
f 50/21/69 51/22/70 48/10/67 
f 49/9/71 52/13/72 53/23/73 
f 53/23/73 50/21/74 49/9/71 
f 54/24/75 53/25/76 52/16/77 
f 52/16/77 55/15/78 54/24/75 
f 55/15/79 56/19/80 57/26/81 
f 57/26/81 54/24/82 55/15/79 
f 56/19/83 48/10/84 51/22/85 
f 51/22/85 57/26/86 56/19/83 
f 51/22/87 50/21/87 58/27/87 
f 50/21/88 53/23/88 58/27/88 
f 53/25/89 54/24/89 58/28/89 
f 54/24/90 57/26/90 58/28/90 
f 57/26/91 51/22/91 58/27/91 
# 55 faces

