# 3ds Max Wavefront OBJ Exporter v0.97b - (c)2007 guruware
# File Created: 19.06.2014 18:29:32

#
# object STAIR_DOWN
#

v  1.0000 0.0000 -1.0000
v  -1.0000 0.0000 -1.0000
v  -1.0000 0.5000 -1.0000
v  1.0000 0.5000 -1.0000
v  -1.0000 0.0000 1.0000
v  -1.0000 0.5000 1.0000
v  1.0000 0.0000 1.0000
v  1.0000 0.5000 1.0000
v  0.7000 0.0000 0.0000
v  0.7000 0.0000 0.4000
v  0.7000 0.5000 0.4000
v  0.7000 0.5000 0.0000
v  0.4000 0.0000 0.7000
v  0.4000 0.5000 0.7000
v  -0.4000 0.0000 0.7000
v  -0.4000 0.5000 0.7000
v  -0.7000 0.0000 0.4000
v  -0.7000 0.5000 0.4000
v  -0.7000 0.0000 0.0000
v  -0.7000 0.5000 0.0000
v  0.3000 0.0000 -0.6000
v  0.3000 0.1300 -0.6000
v  -0.3000 0.1300 -0.6000
v  -0.3000 0.0000 -0.6000
v  -0.5000 0.3700 -0.3000
v  0.5000 0.3700 -0.3000
v  0.5000 0.5000 -0.3000
v  -0.5000 0.5000 -0.3000
# 28 vertices

vn 0.0000 0.0000 -1.0000
vn -1.0000 0.0000 -0.0000
vn 0.0000 0.0000 1.0000
vn 1.0000 0.0000 -0.0000
vn -0.9571 -0.0000 0.2898
vn -0.9239 0.0000 -0.3827
vn -0.9571 0.0000 0.2898
vn -0.3827 0.0000 -0.9239
vn 0.3827 0.0000 -0.9239
vn 0.9239 0.0000 -0.3827
vn 0.9571 0.0000 0.2898
vn 0.9571 -0.0000 0.2898
vn 0.0000 -1.0000 -0.0000
vn 0.8321 0.0000 0.5547
vn 0.8321 -0.0000 0.5547
vn -0.8321 0.0000 0.5547
vn -0.8321 -0.0000 0.5547
vn 0.0000 1.0000 -0.0000
vn -0.0000 -0.0000 1.0000
vn 0.0000 -0.7809 0.6247
# 20 vertex normals

g StaticMaterial
s 1
f 1//1 2//1 3//1 4//1 
s 2
f 2//2 5//2 6//2 3//2 
s 1
f 5//3 7//3 8//3 6//3 
s 2
f 7//4 1//4 4//4 8//4 
s 1
f 9//5 10//6 11//6 12//7 
f 10//6 13//8 14//8 11//6 
f 13//8 15//9 16//9 14//8 
f 15//9 17//10 18//10 16//9 
f 17//10 19//11 20//12 18//10 
s 4
f 1//13 10//13 9//13 21//13 
s 2
f 21//3 22//3 23//3 24//3 
s 1
f 19//11 24//14 23//14 25//15 
f 9//5 26//16 22//17 21//16 
s 4
f 12//18 11//18 4//18 27//18 
s 2
f 26//19 27//19 28//19 25//19 
s 4
f 26//20 25//20 23//20 22//20 
f 2//13 19//13 17//13 5//13 
f 2//13 1//13 24//13 19//13 
f 1//13 21//13 24//13 
f 15//13 7//13 5//13 17//13 
f 13//13 10//13 7//13 15//13 
f 10//13 1//13 7//13 
s 1
f 20//12 19//11 25//15 28//15 
f 26//16 9//5 12//7 27//16 
s 4
f 18//18 20//18 3//18 6//18 
f 28//18 4//18 3//18 20//18 
f 27//18 4//18 28//18 
f 6//18 8//18 16//18 18//18 
f 8//18 11//18 14//18 16//18 
f 4//18 11//18 8//18 
# 26 polygons - 4 triangles

