# 3ds Max Wavefront OBJ Exporter v0.97b - (c)2007 guruware
# File Created: 15.01.2016 19:04:59

#
# object StaticMaterial
#

v  1.5000 0.0988 -0.1347
v  1.0000 0.3750 -0.0000
v  1.0000 0.2500 0.1082
v  1.0000 0.2500 -0.1082
v  1.0000 0.1250 -0.0000
v  -0.2871 0.3750 0.3541
v  -0.2871 0.2500 0.4623
v  -0.2871 0.2500 0.2459
v  -0.2871 0.1250 0.3541
v  -1.0000 0.3750 -0.0000
v  -1.0000 0.2500 0.1082
v  -1.0000 0.2500 -0.1082
v  -1.0000 0.1250 -0.0000
v  -1.5000 0.4134 -0.0349
v  0.2062 0.2419 1.5000
v  0.0000 0.3750 1.0000
v  -0.1082 0.2500 1.0000
v  0.1082 0.2500 1.0000
v  0.0000 0.1250 1.0000
v  -0.3953 0.2500 0.3541
v  -0.1789 0.2500 0.3541
v  0.0000 0.3750 -1.0000
v  -0.1082 0.2500 -1.0000
v  0.1082 0.2500 -1.0000
v  0.0000 0.1250 -1.0000
v  -0.0859 0.4383 -1.5000
# 26 vertices

vn 1.0000 0.0000 -0.0000
vn 0.1177 0.9930 -0.0000
vn 0.1177 0.4965 0.8600
vn 0.0001 0.6545 -0.7561
vn 0.1177 -0.9930 -0.0000
vn 0.1177 -0.4965 -0.8600
vn 0.1897 -0.6426 0.7424
vn 0.0000 1.0000 -0.0000
vn 0.0000 0.5000 0.8660
vn 0.0867 0.6520 -0.7532
vn 0.0000 -1.0000 -0.0000
vn 0.0000 -0.5000 -0.8660
vn -0.0639 -0.6531 0.7545
vn -0.1177 0.9930 -0.0000
vn -0.1177 0.4965 0.8600
vn 0.2306 0.6368 -0.7357
vn -0.1177 -0.9930 -0.0000
vn -0.1177 -0.4965 -0.8600
vn -0.3720 -0.6075 0.7018
vn -1.0000 0.0000 -0.0000
vn 0.0000 0.0000 1.0000
vn 0.0000 0.9930 0.1177
vn -0.8600 0.4965 0.1177
vn 0.7382 0.6390 -0.2160
vn 0.0000 -0.9930 0.1177
vn 0.8600 -0.4965 0.1177
vn -0.7054 -0.6106 0.3598
vn -0.8660 0.5000 -0.0000
vn 0.7529 0.6517 -0.0917
vn 0.8660 -0.5000 -0.0000
vn -0.7542 -0.6528 0.0706
vn 0.0000 0.9930 -0.1177
vn -0.8600 0.4965 -0.1177
vn 0.7542 0.6528 0.0706
vn 0.0000 -0.9930 -0.1177
vn 0.8600 -0.4965 -0.1177
vn -0.7382 -0.6390 -0.2161
vn 0.0000 0.0000 -1.0000
# 38 vertex normals

vt 0.8333 0.0000 1.0000
vt 1.0000 0.2500 1.0000
vt 0.7084 0.2500 1.0000
vt -0.0000 0.0000 1.0000
vt 0.2084 0.2500 1.0000
vt -0.0000 0.2500 1.0000
vt 0.3333 0.0000 1.0000
vt 0.5000 0.2500 1.0000
vt 0.5000 0.0000 1.0000
vt 1.0000 0.5000 1.0000
vt 0.7084 0.5000 1.0000
vt 0.2084 0.5000 1.0000
vt -0.0000 0.5000 1.0000
vt 0.5000 0.5000 1.0000
vt 1.0000 0.7500 1.0000
vt 0.7084 0.7500 1.0000
vt 0.2084 0.7500 1.0000
vt -0.0000 0.7500 1.0000
vt 0.5000 0.7500 1.0000
vt 1.0000 1.0000 1.0000
vt 0.1667 1.0000 1.0000
vt 0.5000 1.0000 1.0000
vt 0.6667 1.0000 1.0000
# 23 texture coords

g StaticMaterial
f 1/1/1 2/2/2 3/3/3 
f 1/4/1 4/5/4 2/6/2 
f 1/7/1 5/8/5 4/5/6 
f 1/9/1 3/3/7 5/8/5 
f 3/3/3 2/2/2 6/10/8 
f 6/10/8 7/11/9 3/3/3 
f 2/6/2 4/5/4 8/12/10 
f 8/12/10 6/13/8 2/6/2 
f 4/5/6 5/8/5 9/14/11 
f 9/14/11 8/12/12 4/5/6 
f 5/8/5 3/3/7 7/11/13 
f 7/11/13 9/14/11 5/8/5 
f 7/11/9 6/10/8 10/15/14 
f 10/15/14 11/16/15 7/11/9 
f 6/13/8 8/12/10 12/17/16 
f 12/17/16 10/18/14 6/13/8 
f 8/12/12 9/14/11 13/19/17 
f 13/19/17 12/17/18 8/12/12 
f 9/14/11 7/11/13 11/16/19 
f 11/16/19 13/19/17 9/14/11 
f 11/16/15 10/15/14 14/20/20 
f 10/18/14 12/17/16 14/21/20 
f 12/17/18 13/19/17 14/22/20 
f 13/19/17 11/16/19 14/23/20 
f 15/1/21 16/2/22 17/3/23 
f 15/4/21 18/5/24 16/6/22 
f 15/7/21 19/8/25 18/5/26 
f 15/9/21 17/3/27 19/8/25 
f 17/3/23 16/2/22 6/10/8 
f 6/10/8 20/11/28 17/3/23 
f 16/6/22 18/5/24 21/12/29 
f 21/12/29 6/13/8 16/6/22 
f 18/5/26 19/8/25 9/14/11 
f 9/14/11 21/12/30 18/5/26 
f 19/8/25 17/3/27 20/11/31 
f 20/11/31 9/14/11 19/8/25 
f 20/11/28 6/10/8 22/15/32 
f 22/15/32 23/16/33 20/11/28 
f 6/13/8 21/12/29 24/17/34 
f 24/17/34 22/18/32 6/13/8 
f 21/12/30 9/14/11 25/19/35 
f 25/19/35 24/17/36 21/12/30 
f 9/14/11 20/11/31 23/16/37 
f 23/16/37 25/19/35 9/14/11 
f 23/16/33 22/15/32 26/20/38 
f 22/18/32 24/17/34 26/21/38 
f 24/17/36 25/19/35 26/22/38 
f 25/19/35 23/16/37 26/23/38 
# 48 faces

