# 3ds Max Wavefront OBJ Exporter v0.97b - (c)2007 guruware
# File Created: 15.01.2016 19:14:17

#
# object StaticMaterial
#

v  1.0000 0.0000 -0.4142
v  0.4142 0.0000 -1.0000
v  0.4142 3.0000 -1.0000
v  1.0000 3.0000 -0.4142
v  -0.4142 0.0000 -1.0000
v  -0.4142 3.0000 -1.0000
v  -1.0000 0.0000 -0.4142
v  -1.0000 3.0000 -0.4142
v  -1.0000 0.0000 0.4142
v  -1.0000 3.0000 0.4142
v  -0.4142 0.0000 1.0000
v  -0.4142 3.0000 1.0000
v  0.4142 0.0000 1.0000
v  0.4142 3.0000 1.0000
v  1.0000 0.0000 0.4142
v  1.0000 3.0000 0.4142
# 16 vertices

vn 0.9239 0.0000 -0.3827
vn 0.3827 0.0000 -0.9239
vn -0.3827 0.0000 -0.9239
vn -0.9239 0.0000 -0.3827
vn -0.9239 0.0000 0.3827
vn -0.3827 0.0000 0.9239
vn 0.3827 0.0000 0.9239
vn 0.9239 0.0000 0.3827
vn 0.0000 -1.0000 -0.0000
vn 0.0000 1.0000 -0.0000
# 10 vertex normals

vt 0.0000 0.0000 0.0000
vt 0.1250 0.0000 0.0000
vt 0.1250 1.0000 0.0000
vt 0.0000 1.0000 0.0000
vt 0.2500 0.0000 0.0000
vt 0.2500 1.0000 0.0000
vt 0.3750 0.0000 0.0000
vt 0.3750 1.0000 0.0000
vt 0.5000 0.0000 0.0000
vt 0.5000 1.0000 0.0000
vt 0.6250 0.0000 0.0000
vt 0.6250 1.0000 0.0000
vt 0.7500 0.0000 0.0000
vt 0.7500 1.0000 0.0000
vt 0.8750 0.0000 0.0000
vt 0.8750 1.0000 0.0000
vt 1.0000 0.0000 0.0000
vt 1.0000 1.0000 0.0000
vt 0.1464 0.1464 0.0000
vt 0.8536 0.1464 0.0000
vt 0.0000 0.5000 0.0000
vt 0.1464 0.8536 0.0000
vt 0.8536 0.8536 0.0000
vt 1.0000 0.5000 0.0000
# 24 texture coords

g StaticMaterial
f 1/1/1 2/2/2 3/3/2 
f 1/1/1 3/3/2 4/4/1 
f 2/2/2 5/5/3 6/6/3 
f 2/2/2 6/6/3 3/3/2 
f 5/5/3 7/7/4 8/8/4 
f 5/5/3 8/8/4 6/6/3 
f 7/7/4 9/9/5 10/10/5 
f 7/7/4 10/10/5 8/8/4 
f 9/9/5 11/11/6 12/12/6 
f 9/9/5 12/12/6 10/10/5 
f 11/11/6 13/13/7 14/14/7 
f 11/11/6 14/14/7 12/12/6 
f 13/13/7 15/15/8 16/16/8 
f 13/13/7 16/16/8 14/14/7 
f 15/15/8 1/17/1 4/18/1 
f 15/15/8 4/18/1 16/16/8 
f 11/19/9 15/20/9 13/9/9 
f 9/21/9 15/20/9 11/19/9 
f 7/22/9 15/20/9 9/21/9 
f 5/10/9 15/20/9 7/22/9 
f 2/23/9 15/20/9 5/10/9 
f 1/24/9 15/20/9 2/23/9 
f 12/19/10 14/9/10 16/20/10 
f 10/21/10 12/19/10 16/20/10 
f 8/22/10 10/21/10 16/20/10 
f 6/10/10 8/22/10 16/20/10 
f 3/23/10 6/10/10 16/20/10 
f 4/24/10 3/23/10 16/20/10 
# 28 faces

