# 3ds Max Wavefront OBJ Exporter v0.97b - (c)2007 guruware
# File Created: 15.01.2016 17:01:58

#
# object StaticMaterial
#

v  -0.0000 0.2500 2.0000
v  -0.0000 0.5000 1.0000
v  -0.2165 0.3750 1.0000
v  0.2165 0.3750 1.0000
v  0.2165 0.1250 1.0000
v  -0.0000 -0.0000 1.0000
v  -0.2165 0.1250 1.0000
v  0.0000 0.5000 -0.0000
v  -0.2165 0.3750 -0.0000
v  0.2165 0.3750 -0.0000
v  0.2165 0.1250 -0.0000
v  -0.0000 -0.0000 -0.0000
v  -0.2165 0.1250 -0.0000
v  0.0000 0.5000 -1.0000
v  -0.2165 0.3750 -1.0000
v  0.2165 0.3750 -1.0000
v  0.2165 0.1250 -1.0000
v  0.0000 -0.0000 -1.0000
v  -0.2165 0.1250 -1.0000
v  0.0000 0.2500 -2.0000
# 20 vertices

vn -0.0000 0.0000 1.0000
vn 0.0000 0.9930 0.1177
vn -0.8600 0.4965 0.1177
vn 0.8600 0.4965 0.1177
vn 0.8600 -0.4965 0.1177
vn 0.0000 -0.9930 0.1177
vn -0.8600 -0.4965 0.1177
vn 0.0000 1.0000 -0.0000
vn -0.8660 0.5000 -0.0000
vn 0.8660 0.5000 0.0000
vn 0.8660 -0.5000 0.0000
vn -0.0000 -1.0000 0.0000
vn -0.8660 -0.5000 -0.0000
vn 0.0000 0.9930 -0.1177
vn -0.8600 0.4965 -0.1177
vn 0.8600 0.4965 -0.1177
vn 0.8600 -0.4965 -0.1177
vn -0.0000 -0.9930 -0.1177
vn -0.8600 -0.4965 -0.1177
vn 0.0000 -0.0000 -1.0000
# 20 vertex normals

vt 0.8333 0.0000 1.0000
vt 1.0000 0.2500 1.0000
vt 0.8333 0.2500 1.0000
vt -0.0000 0.0000 1.0000
vt 0.1667 0.2500 1.0000
vt -0.0000 0.2500 1.0000
vt 0.1667 0.0000 1.0000
vt 0.3333 0.2500 1.0000
vt 0.3333 0.0000 1.0000
vt 0.5000 0.2500 1.0000
vt 0.5000 0.0000 1.0000
vt 0.6667 0.2500 1.0000
vt 0.6667 0.0000 1.0000
vt 1.0000 0.5000 1.0000
vt 0.8333 0.5000 1.0000
vt 0.1667 0.5000 1.0000
vt -0.0000 0.5000 1.0000
vt 0.3333 0.5000 1.0000
vt 0.5000 0.5000 1.0000
vt 0.6667 0.5000 1.0000
vt 1.0000 0.7500 1.0000
vt 0.8333 0.7500 1.0000
vt 0.1667 0.7500 1.0000
vt -0.0000 0.7500 1.0000
vt 0.3333 0.7500 1.0000
vt 0.5000 0.7500 1.0000
vt 0.6667 0.7500 1.0000
vt 1.0000 1.0000 1.0000
vt 0.1667 1.0000 1.0000
vt 0.3333 1.0000 1.0000
vt 0.5000 1.0000 1.0000
vt 0.6667 1.0000 1.0000
vt 0.8333 1.0000 1.0000
# 33 texture coords

g StaticMaterial
f 1/1/1 2/2/2 3/3/3 
f 1/4/1 4/5/4 2/6/2 
f 1/7/1 5/8/5 4/5/4 
f 1/9/1 6/10/6 5/8/5 
f 1/11/1 7/12/7 6/10/6 
f 1/13/1 3/3/3 7/12/7 
f 3/3/3 8/14/8 9/15/9 
f 3/3/3 2/2/2 8/14/8 
f 2/6/2 10/16/10 8/17/8 
f 2/6/2 4/5/4 10/16/10 
f 4/5/4 11/18/11 10/16/10 
f 4/5/4 5/8/5 11/18/11 
f 5/8/5 12/19/12 11/18/11 
f 5/8/5 6/10/6 12/19/12 
f 6/10/6 13/20/13 12/19/12 
f 6/10/6 7/12/7 13/20/13 
f 7/12/7 9/15/9 13/20/13 
f 7/12/7 3/3/3 9/15/9 
f 9/15/9 14/21/14 15/22/15 
f 9/15/9 8/14/8 14/21/14 
f 8/17/8 16/23/16 14/24/14 
f 8/17/8 10/16/10 16/23/16 
f 10/16/10 17/25/17 16/23/16 
f 10/16/10 11/18/11 17/25/17 
f 11/18/11 18/26/18 17/25/17 
f 11/18/11 12/19/12 18/26/18 
f 12/19/12 19/27/19 18/26/18 
f 12/19/12 13/20/13 19/27/19 
f 13/20/13 15/22/15 19/27/19 
f 13/20/13 9/15/9 15/22/15 
f 15/22/15 14/21/14 20/28/20 
f 14/24/14 16/23/16 20/29/20 
f 16/23/16 17/25/17 20/30/20 
f 17/25/17 18/26/18 20/31/20 
f 18/26/18 19/27/19 20/32/20 
f 19/27/19 15/22/15 20/33/20 
# 36 faces

