# 3ds Max Wavefront OBJ Exporter v0.97b - (c)2007 guruware
# File Created: 12.11.2016 18:42:56

#
# object StaticMaterial
#

v  -1.0000 0.0000 -1.0000
v  1.0000 0.0000 -1.0000
v  1.0000 0.0000 1.0000
v  -1.0000 0.0000 1.0000
v  -1.0000 3.0000 -1.0000
v  -1.0000 3.0000 1.0000
v  1.0000 3.0000 1.0000
v  -1.0000 0.5000 -1.0000
v  1.0000 0.5000 -1.0000
v  1.0000 0.5000 1.0000
# 10 vertices

vn 0.0000 -1.0000 -0.0000
vn 0.0000 1.0000 -0.0000
vn 0.0000 0.0000 -1.0000
vn 1.0000 0.0000 -0.0000
vn 0.0000 0.0000 1.0000
vn -1.0000 0.0000 -0.0000
vn 0.7071 0.0000 -0.7071
# 7 vertex normals

vt 1.0000 0.0000 0.0000
vt 0.0000 0.0000 0.0000
vt 0.0000 1.0000 0.0000
vt 1.0000 1.0000 0.0000
vt 0.0000 0.0000 1.0000
vt 0.0000 1.0000 1.0000
vt 1.0000 1.0000 1.0000
vt 0.0000 0.1667 0.0000
vt 1.0000 0.1667 0.0000
vt 0.0000 0.1667 1.0000
vt 1.0000 0.1667 1.0000
vt 1.0000 0.0000 1.0000
vt 0.0000 0.0000 0.1667
vt 1.0000 1.0000 0.1667
vt 1.0000 0.0000 0.1667
# 15 texture coords

g StaticMaterial
s 2
f 1/1/1 2/2/1 3/3/1 
f 3/3/1 4/4/1 1/1/1 
s 4
f 5/5/2 6/6/2 7/7/2 
s 8
f 1/2/3 8/8/3 9/9/3 
f 9/9/3 2/1/3 1/2/3 
s 16
f 2/5/4 9/10/4 10/11/4 
f 10/11/4 3/12/4 2/5/4 
s 4
f 8/13/2 10/14/2 9/15/2 
s 32
f 10/10/5 7/6/5 6/7/5 
f 6/7/5 4/12/5 3/5/5 
f 10/10/5 6/7/5 3/5/5 
s 64
f 6/3/6 5/4/6 8/9/6 
f 4/2/6 6/3/6 8/9/6 
f 4/2/6 8/9/6 1/1/6 
s off
f 8/8/7 5/3/7 7/7/7 
f 7/7/7 10/11/7 8/8/7 
# 16 faces

