# 3ds Max Wavefront OBJ Exporter v0.97b - (c)2007 guruware
# File Created: 22.10.2016 23:31:54

#
# object StaticMaterial
#

v  1.0000 0.0000 1.0000
v  -1.0000 0.0000 1.0000
v  1.0000 0.0000 -1.0000
v  -1.0000 0.0000 -1.0000
v  1.0000 3.0000 1.0000
v  1.0000 3.0000 -1.0000
v  -1.0000 3.0000 1.0000
v  -1.0000 3.0000 -1.0000
# 8 vertices

vn 0.0000 -1.0000 -0.0000
vn 0.0000 1.0000 -0.0000
vn 0.0000 0.0000 -1.0000
vn 1.0000 0.0000 -0.0000
vn 0.0000 0.0000 1.0000
vn -1.0000 0.0000 -0.0000
# 6 vertex normals

vt 0.0050 0.9950 0.0050
vt 0.9950 0.9950 0.0050
vt 0.0050 0.0050 0.0050
vt 0.9950 0.0050 0.0050
vt 0.9950 0.9950 0.9950
vt 0.9950 0.0050 0.9950
vt 0.0050 0.9950 0.9950
vt 0.0050 0.0050 0.9950
# 8 texture coords

g StaticMaterial
s 1
f 1/1/1 2/2/1 3/3/1 
f 4/4/1 3/3/1 2/2/1 
f 5/5/2 6/6/2 7/7/2 
f 8/8/2 7/7/2 6/6/2 
s 2
f 6/2/3 3/4/3 8/1/3 
f 4/3/3 8/1/3 3/4/3 
s 4
f 5/5/4 1/6/4 6/7/4 
f 3/8/4 6/7/4 1/6/4 
s 2
f 7/5/5 2/6/5 5/7/5 
f 1/8/5 5/7/5 2/6/5 
s 4
f 8/2/6 4/4/6 7/1/6 
f 2/3/6 7/1/6 4/4/6 
# 12 faces

