# 3ds Max Wavefront OBJ Exporter v0.97b - (c)2007 guruware
# File Created: 12.11.2016 18:44:09

#
# object StaticMaterial
#

v  -1.0000 3.0000 -1.0000
v  -1.0000 3.0000 1.0000
v  1.0000 3.0000 1.0000
v  1.0000 0.0000 1.0000
v  -1.0000 0.0000 1.0000
v  -1.0000 0.0000 -1.0000
# 6 vertices

vn 0.0000 1.0000 -0.0000
vn 0.0000 0.0000 1.0000
vn -1.0000 0.0000 -0.0000
vn 0.7071 0.0000 -0.7071
vn 0.0000 -1.0000 -0.0000
# 5 vertex normals

vt 0.0000 0.0000 1.0000
vt 0.0000 1.0000 1.0000
vt 1.0000 1.0000 1.0000
vt 1.0000 0.0000 1.0000
vt 1.0000 0.0000 0.0000
vt 0.0000 0.0000 0.0000
vt 0.0000 1.0000 0.0000
vt 1.0000 1.0000 0.0000
# 8 texture coords

g StaticMaterial
s 4
f 1/1/1 2/2/1 3/3/1 
s 32
f 4/1/2 3/2/2 2/3/2 
f 2/3/2 5/4/2 4/1/2 
s 64
f 6/5/3 5/6/3 2/7/3 
f 2/7/3 1/8/3 6/5/3 
s off
f 6/6/4 1/7/4 3/3/4 
f 3/3/4 4/4/4 6/6/4 
f 5/8/5 6/5/5 4/7/5 
# 8 faces

