# 3ds Max Wavefront OBJ Exporter v0.97b - (c)2007 guruware
# File Created: 12.11.2016 19:06:18

#
# object StaticMaterial
#

v  0.4142 3.0000 1.0000
v  0.4142 0.0000 1.0000
v  1.0000 0.0000 0.4142
v  1.0000 3.0000 0.4142
v  -0.4142 3.0000 1.0000
v  -0.4142 0.0000 1.0000
v  -1.0000 3.0000 0.4142
v  -1.0000 0.0000 0.4142
v  -1.0000 3.0000 -0.4142
v  -1.0000 0.0000 -0.4142
v  -0.4142 3.0000 -1.0000
v  -0.4142 0.0000 -1.0000
v  0.4142 3.0000 -1.0000
v  0.4142 0.0000 -1.0000
v  1.0000 3.0000 -0.4142
v  1.0000 0.0000 -0.4142
# 16 vertices

vn 0.3827 0.0000 0.9239
vn 0.9239 0.0000 0.3827
vn -0.3827 0.0000 0.9239
vn -0.9239 0.0000 0.3827
vn -0.9239 0.0000 -0.3827
vn -0.3827 0.0000 -0.9239
vn 0.3827 0.0000 -0.9239
vn 0.9239 0.0000 -0.3827
vn 0.0000 -1.0000 -0.0000
vn 0.0000 1.0000 -0.0000
# 10 vertex normals

vt 1.0000 1.0000 0.7071
vt 1.0000 0.0000 0.7071
vt 0.7071 0.0000 1.0000
vt 0.7071 1.0000 1.0000
vt 0.2929 0.0000 1.0000
vt 0.2929 1.0000 1.0000
vt 0.7071 1.0000 0.0000
vt 0.7071 0.0000 0.0000
vt 0.2929 0.0000 0.0000
vt 0.2929 1.0000 0.0000
vt 1.0000 1.0000 0.2929
vt 1.0000 0.0000 0.2929
vt 0.0000 0.2929 0.0000
vt 0.0000 0.7071 0.0000
vt 1.0000 0.7071 0.0000
vt 1.0000 0.2929 0.0000
vt 1.0000 0.7071 1.0000
vt 1.0000 0.2929 1.0000
vt 0.0000 0.7071 1.0000
vt 0.0000 0.2929 1.0000
# 20 texture coords

g StaticMaterial
s 1
f 1/1/1 2/2/1 3/3/2 
f 3/3/2 4/4/2 1/1/1 
f 5/4/3 6/3/3 2/5/1 
f 2/5/1 1/6/1 5/4/3 
f 7/1/4 8/2/4 6/3/3 
f 6/3/3 5/4/3 7/1/4 
f 9/7/5 10/8/5 8/9/4 
f 8/9/4 7/10/4 9/7/5 
f 11/11/6 12/12/6 10/8/5 
f 10/8/5 9/7/5 11/11/6 
f 13/7/7 14/8/7 12/9/6 
f 12/9/6 11/10/6 13/7/7 
f 15/11/8 16/12/8 14/8/7 
f 14/8/7 13/7/7 15/11/8 
f 4/4/2 3/3/2 16/5/8 
f 16/5/8 15/6/8 4/4/2 
s 2
f 12/8/9 14/9/9 16/13/9 
f 16/13/9 3/14/9 2/10/9 
f 16/13/9 2/10/9 6/7/9 
f 16/13/9 6/7/9 8/15/9 
f 16/13/9 8/15/9 10/16/9 
f 12/8/9 16/13/9 10/16/9 
f 1/4/10 4/17/10 15/18/10 
f 5/6/10 1/4/10 15/18/10 
f 7/19/10 5/6/10 15/18/10 
f 9/20/10 7/19/10 15/18/10 
f 11/5/10 9/20/10 15/18/10 
f 11/5/10 15/18/10 13/3/10 
# 28 faces

