# Blender v2.76 (sub 0) OBJ File: 'NestBox8.blend'
# www.blender.org

g NoMaterialBuilding
v -0.232934 1.272735 0.380348
v -0.232934 1.148146 0.706823
v -0.286496 1.351523 0.413754
v 0.232934 1.148146 0.706823
v 0.232934 1.272735 0.380348
v -0.286496 1.503647 -0.000000
v -0.286496 1.351523 -0.413754
v 0.286496 1.351523 -0.413754
v 0.286496 1.503647 0.000000
v 0.286496 1.351523 0.413754
v -0.232934 1.258721 0.375000
v -0.232934 1.134132 0.701475
v -0.286496 1.337456 0.408548
v 0.232934 1.134132 0.701475
v 0.232934 1.258721 0.375000
v -0.286496 1.488647 -0.000000
v -0.286496 1.337456 -0.408548
v 0.286496 1.337456 -0.408548
v 0.286496 1.488647 0.000000
v 0.286496 1.337456 0.408548
v 0.225000 0.939902 0.350000
v 0.225000 0.939902 -0.350000
v -0.225000 0.939902 0.350000
v -0.225000 0.939902 -0.350000
v -0.186304 0.939902 -0.055146
v -0.186304 0.939902 -0.285146
v -0.016304 0.939902 -0.285146
v -0.016304 0.939902 -0.055146
v -0.176304 0.506867 0.102250
v -0.176304 0.513510 0.109724
v -0.176304 0.955345 -0.296333
v -0.176304 0.961988 -0.288858
v -0.026304 0.506867 0.102250
v -0.026304 0.513510 0.109724
v -0.026304 0.955345 -0.296333
v -0.026304 0.961988 -0.288858
v 0.226798 0.965554 -0.002863
v 0.226798 1.259827 -0.002863
v 0.226798 1.259827 -0.297137
v 0.226798 0.965554 -0.297137
v 0.256798 1.259827 -0.297137
v 0.256798 0.965554 -0.297137
v 0.256798 1.259827 -0.002863
v 0.256798 0.965554 -0.002863
v 0.226798 0.982313 -0.019622
v 0.226798 1.243068 -0.019622
v 0.226798 1.243068 -0.280378
v 0.226798 0.982313 -0.280378
v 0.256798 1.243068 -0.280378
v 0.256798 0.982313 -0.280378
v 0.256798 1.243068 -0.019622
v 0.256798 0.982313 -0.019622
v 0.256107 1.107419 0.058025
v 0.256107 1.127283 0.055695
v 0.256107 1.098098 -0.021430
v 0.256107 1.117962 -0.023760
v 0.276107 1.106111 0.046872
v 0.276107 1.125975 0.044542
v 0.276107 1.099407 -0.010277
v 0.276107 1.119270 -0.012607
v 0.226798 1.079691 0.027133
v 0.226798 1.145691 0.027133
v 0.226798 1.079691 0.007133
v 0.226798 1.145691 0.007133
v 0.256798 1.079691 0.027133
v 0.256798 1.145691 0.027133
v 0.256798 1.079691 0.007133
v 0.256798 1.145691 0.007133
v 0.250000 1.262832 -0.300000
v 0.250000 1.262832 0.000000
v 0.250000 0.962832 0.000000
v 0.250000 0.962832 -0.300000
v 0.225000 0.962832 0.000000
v 0.225000 1.262832 0.000000
v 0.225000 1.262832 -0.300000
v 0.225000 0.962832 -0.300000
v 0.225000 0.939902 0.350000
v 0.225000 1.299479 0.350000
v 0.225000 1.299479 -0.350000
v 0.225000 0.939902 -0.350000
v -0.225000 0.939902 0.350000
v -0.225000 1.299479 0.350000
v -0.225000 1.299479 -0.350000
v -0.225000 0.939902 -0.350000
vt 0.036309 0.201127
vt 0.036309 0.029629
vt 0.277104 0.029629
vt 0.277104 0.201127
vt 0.310966 0.227525
vt 0.009973 0.227525
vt 0.009973 0.010180
vt 0.310966 0.010180
vt 0.310966 0.232995
vt 0.009973 0.232995
vt 0.009973 0.015649
vt 0.310966 0.015649
vt 0.310966 0.012915
vt 0.009973 0.012915
vt 0.310966 0.240384
vt 0.009973 0.240384
vt 0.093539 0.216282
vt 0.277100 0.216368
vt 0.277104 0.208488
vt 0.093543 0.208403
vt 0.036310 0.208488
vt 0.163741 0.070069
vt 0.312842 0.015250
vt 0.163741 0.064664
vt 0.016516 0.010180
vt 0.014640 0.015250
vt 0.553331 0.029703
vt 0.418634 0.046220
vt 0.342165 0.046220
vt 0.342165 0.118780
vt 0.320603 0.221775
vt 0.320603 0.029703
vt 0.553152 0.029725
vt 0.553152 0.221540
vt 0.320735 0.221540
vt 0.342268 0.118683
vt 0.418634 0.118683
vt 0.699007 0.128701
vt 0.993286 0.128670
vt 0.993286 0.122129
vt 0.699006 0.122160
vt 0.694118 0.122160
vt 0.694118 0.024044
vt 0.699007 0.024044
vt 0.694118 0.128701
vt 0.694117 0.226818
vt 0.699007 0.226818
vt 0.992360 0.122160
vt 0.992361 0.024044
vt 0.992360 0.128701
vt 0.992360 0.226818
vt 0.609207 0.170710
vt 0.619617 0.170710
vt 0.619617 0.080228
vt 0.609207 0.080228
vt 0.685529 0.176525
vt 0.675119 0.176525
vt 0.675119 0.074412
vt 0.685529 0.074412
vt 0.650189 0.080228
vt 0.660599 0.080228
vt 0.660599 0.170710
vt 0.650189 0.170710
vt 0.573167 0.176525
vt 0.562757 0.176525
vt 0.562757 0.074413
vt 0.573167 0.074413
vt 0.675280 0.064003
vt 0.573167 0.064003
vt 0.675280 0.074412
vt 0.675280 0.176525
vt 0.675280 0.186935
vt 0.573167 0.186935
vt 0.578983 0.170710
vt 0.669465 0.170710
vt 0.669465 0.080228
vt 0.578983 0.080228
vt 0.629275 0.080199
vt 0.629275 0.170680
vt 0.639685 0.170680
vt 0.639685 0.080199
vt 0.588709 0.080228
vt 0.599119 0.080228
vt 0.599119 0.170710
vt 0.588709 0.170710
vt 0.586697 0.149546
vt 0.612894 0.146473
vt 0.612126 0.139924
vt 0.585928 0.142997
vt 0.586024 0.138953
vt 0.592618 0.139384
vt 0.592618 0.132835
vt 0.586024 0.132403
vt 0.609217 0.146905
vt 0.590374 0.149115
vt 0.589606 0.142566
vt 0.608448 0.140355
vt 0.586024 0.139815
vt 0.586024 0.133266
vt 0.612556 0.159021
vt 0.586359 0.159021
vt 0.590036 0.165615
vt 0.608879 0.165615
vt 0.623942 0.146180
vt 0.619127 0.163746
vt 0.629018 0.163746
vt 0.629018 0.141985
vt 0.619127 0.141985
vt 0.602708 0.155616
vt 0.596114 0.155616
vt 0.596114 0.133855
vt 0.602708 0.133855
vt 0.608974 0.128035
vt 0.608974 0.134629
vt 0.618865 0.134629
vt 0.618865 0.128035
vt 0.614130 0.117890
vt 0.655451 0.117890
vt 0.634791 0.117029
vt 0.593470 0.117029
vt 0.520293 0.124373
vt 0.520293 0.141292
vt 0.520293 0.103223
vt 0.520293 0.162441
vt 0.520293 0.082074
vt 0.520293 0.065154
vn -0.000000 0.934300 0.356500
vn -0.000000 0.938600 0.345100
vn 0.000000 0.938600 -0.345100
vn 0.000000 -0.934300 -0.356500
vn 0.000000 -0.937800 -0.347100
vn -0.000000 -0.937800 0.347100
vn -0.000000 -0.347100 0.937800
vn -1.000000 0.000000 -0.000000
vn 0.000000 -0.356500 0.934300
vn 1.000000 0.000000 0.000000
vn 0.000000 -0.347100 -0.937800
vn 0.000000 1.000000 0.000000
vn 0.000000 0.747500 -0.664300
vn 0.000000 -0.747500 0.664300
vn 0.000000 -0.664300 -0.747500
vn 0.000000 0.664300 0.747500
vn 0.000000 0.000000 -1.000000
vn 0.000000 0.000000 1.000000
vn 0.000000 -1.000000 0.000000
vn 0.489600 -0.101600 -0.866000
vn 0.489600 0.101600 0.866000
vn 0.000000 -0.993200 0.116500
vn -0.000000 0.993200 -0.116500

f 1/1/1 2/2/1 4/3/1 5/4/1
f 9/5/2 6/6/2 3/7/2 10/8/2
f 8/9/3 7/10/3 6/11/3 9/12/3
f 15/4/4 14/3/4 12/2/4 11/1/4
f 20/13/5 13/14/5 16/6/5 19/5/5
f 19/13/6 16/14/6 17/6/6 18/5/6
f 10/15/7 3/16/7 13/10/7 20/9/7
f 2/17/8 1/18/8 11/19/8 12/20/8
f 4/19/9 2/21/9 12/1/9 14/4/9
f 5/18/10 4/17/10 14/20/10 15/19/10
f 6/22/8 7/23/8 17/8/8 16/24/8 13/25/8 3/26/8
f 7/16/11 8/15/11 18/9/11 17/10/11
f 9/22/10 10/26/10 20/25/10 19/24/10 18/8/10 8/23/10
f 23/27/12 25/28/12 26/29/12 27/30/12 22/31/12 24/32/12
f 23/33/12 21/34/12 22/35/12 27/36/12 28/37/12 25/28/12
f 30/38/8 32/39/8 31/40/8 29/41/8
f 32/42/13 36/43/13 35/44/13 31/41/13
f 36/39/10 34/38/10 33/41/10 35/40/10
f 34/45/14 30/46/14 29/47/14 33/38/14
f 29/41/15 31/48/15 35/49/15 33/44/15
f 34/38/16 36/50/16 32/51/16 30/47/16
f 46/52/17 51/53/17 52/54/17 45/55/17
f 39/56/17 41/57/17 42/58/17 40/59/17
f 48/60/18 50/61/18 49/62/18 47/63/18
f 43/64/18 38/65/18 37/66/18 44/67/18
f 37/68/19 40/69/19 42/67/19 44/70/19
f 43/64/12 41/71/12 39/72/12 38/73/12
f 51/74/10 49/75/10 41/71/10 43/64/10
f 50/76/10 52/77/10 51/74/10 43/64/10 44/67/10 42/70/10 41/71/10 49/75/10
f 46/78/19 47/79/19 49/80/19 51/81/19
f 45/82/12 52/83/12 50/84/12 48/85/12
f 54/86/8 56/87/8 55/88/8 53/89/8
f 56/90/20 60/91/20 59/92/20 55/93/20
f 60/94/10 58/95/10 57/96/10 59/97/10
f 58/91/21 54/98/21 53/99/21 57/92/21
f 53/100/22 55/101/22 59/102/22 57/103/22
f 58/103/23 60/102/23 56/101/23 54/100/23
f 62/104/8 64/104/8 63/104/8 61/104/8
f 64/105/17 68/106/17 67/107/17 63/108/17
f 68/109/10 66/110/10 65/111/10 67/112/10
f 66/106/18 62/105/18 61/108/18 65/107/18
f 61/113/19 63/114/19 67/115/19 65/116/19
f 66/116/12 68/115/12 64/114/12 62/113/12
f 70/117/17 71/117/17 73/117/17 74/117/17
f 69/118/19 70/118/19 74/118/19 75/118/19
f 75/119/18 76/119/18 72/119/18 69/119/18
f 76/120/12 73/120/12 71/120/12 72/120/12
f 74/121/8 73/121/8 77/121/8 78/121/8 79/121/8 75/121/8
f 73/122/8 76/122/8 75/122/8 79/122/8 80/122/8 77/122/8
f 78/123/17 77/123/17 81/123/17 82/123/17
f 78/124/19 82/124/19 83/124/19 79/124/19
f 83/125/18 84/125/18 80/125/18 79/125/18
f 82/126/10 81/126/10 84/126/10 83/126/10

g NoMaterialBuildingCutout
v 0.242737 0.982547 -0.019857
v 0.242737 1.242834 -0.019857
v 0.242737 1.242834 -0.280143
v 0.242737 0.982547 -0.280143
v 0.228500 0.545339 0.330218
v 0.228500 0.888800 0.330218
v 0.228500 0.888800 -0.330218
v 0.228500 0.545339 -0.330218
v -0.232516 0.545339 0.330218
v -0.232516 0.888800 0.330218
v -0.232516 0.888800 -0.330218
v -0.232516 0.545339 -0.330218
v 0.202060 0.545339 -0.355256
v 0.202060 0.888800 -0.355256
v -0.206487 0.888800 -0.355256
v -0.206487 0.545339 -0.355256
v 0.202060 0.545339 0.357744
v 0.202060 0.888800 0.357744
v -0.206487 0.888800 0.357744
v -0.206487 0.545339 0.357744
vt 0.384052 0.505148
vt 0.199306 0.505148
vt 0.199306 0.320402
vt 0.384052 0.320402
vt 0.530497 0.533892
vt 0.061733 0.533892
vt 0.061733 0.290111
vt 0.530497 0.290111
vt 0.149555 0.533892
vt 0.439533 0.533892
vt 0.439533 0.290111
vt 0.149555 0.290111
vn 1.000000 0.000000 0.000000
vn -1.000000 0.000000 0.000000
vn 0.000000 0.000000 -1.000000
vn -0.000000 0.000000 1.000000

f 87/127/24 86/128/24 85/129/24 88/130/24
f 91/131/24 90/132/24 89/133/24 92/134/24
f 96/134/25 93/133/25 94/132/25 95/131/25
f 99/135/26 98/136/26 97/137/26 100/138/26
f 104/138/27 101/137/27 102/136/27 103/135/27

g BuildingMaterial
v -0.229197 1.272735 0.380348
v 0.229197 1.272735 0.380348
v -0.229197 1.258721 0.375000
v 0.229197 1.258721 0.375000
v 0.226798 0.965554 -0.002863
v 0.226798 1.259827 -0.002863
v 0.226798 1.259827 -0.297137
v 0.226798 0.965554 -0.297137
v 0.226798 0.982313 -0.019622
v 0.226798 1.243068 -0.019622
v 0.226798 1.243068 -0.280378
v 0.226798 0.982313 -0.280378
v -0.203261 0.917363 0.375000
v -0.203261 0.917363 0.666165
v -0.203261 1.147658 0.666165
v -0.203261 1.258721 0.375000
v -0.250000 0.889902 0.375000
v 0.203261 0.917363 0.375000
v 0.203261 0.917363 0.666165
v 0.203261 1.147658 0.666165
v -0.250000 1.349479 0.375000
v 0.250000 0.889902 0.375000
v 0.203261 1.258721 0.375000
v -0.250000 1.488647 -0.000000
v -0.250000 1.349479 -0.375000
v -0.204255 0.889376 0.375000
v 0.250000 1.349479 0.375000
v 0.250000 1.349479 -0.375000
v -0.250000 0.889376 -0.329609
v -0.204255 0.545189 0.375000
v 0.204255 0.889376 0.375000
v 0.250000 1.262832 -0.300000
v 0.204255 0.889376 -0.375000
v -0.250000 0.545189 -0.329609
v -0.250000 0.889376 0.330290
v 0.250000 1.262832 0.000000
v 0.250000 1.488647 0.000000
v 0.250000 0.962832 0.000000
v -0.250000 0.503978 0.375000
v -0.204255 0.545189 0.330290
v -0.204255 0.889376 0.330290
v 0.204255 0.889376 0.330290
v 0.204255 0.545189 0.375000
v 0.250000 0.962832 -0.300000
v -0.204255 0.889376 -0.375000
v 0.204255 0.545189 -0.375000
v -0.250000 0.503978 -0.375000
v -0.204255 0.545189 -0.329609
v -0.204255 0.889376 -0.329609
v -0.250000 0.545189 0.330290
v 0.250000 0.503978 0.375000
v 0.204255 0.545189 0.330290
v -0.204255 0.933841 0.330290
v 0.204255 0.933841 0.330290
v -0.204255 0.545189 -0.375000
v 0.204255 0.889376 -0.329609
v 0.250000 0.503978 -0.375000
v 0.204255 0.545189 -0.329609
v -0.204255 0.933841 -0.329609
v 0.250000 0.889376 -0.329609
v -0.204255 0.503978 0.330290
v 0.204255 0.503978 0.330290
v 0.204255 0.503978 -0.329609
v 0.250000 0.889376 0.330290
v 0.250000 0.545189 0.330290
v 0.204255 0.933841 -0.329609
v -0.186304 0.933841 -0.055146
v -0.016304 0.933841 -0.055146
v -0.016304 0.933841 -0.285146
v -0.186304 0.933841 -0.285146
v 0.250000 0.545189 -0.329609
v -0.204255 0.503978 -0.329609
v -0.186304 0.939902 -0.055146
v -0.186304 0.939902 -0.285146
v -0.016304 0.939902 -0.285146
v -0.016304 0.939902 -0.055146
v 0.250000 0.926729 -0.375000
v -0.250000 0.926729 -0.375000
vt 0.783778 0.923578
vt 0.654572 0.281146
vt 0.875413 0.281146
vt 0.875413 0.455818
vt 0.654572 0.540057
vt 0.617127 0.563429
vt 0.617127 0.891040
vt 0.920516 0.891040
vt 0.920516 0.563429
vt 0.958440 0.542601
vt 0.958440 0.959877
vt 0.579204 0.959877
vt 0.579204 0.542601
vt 0.616939 0.281146
vt 0.920328 0.281146
vt 0.920328 0.501987
vt 0.616939 0.501987
vt 0.616939 0.327314
vt 0.920328 0.327314
vt 0.875413 0.540057
vt 0.654572 0.455818
vt 0.294776 0.825458
vt 0.522318 0.825458
vt 0.579204 0.891178
vt 0.294776 0.996733
vt 0.010349 0.891178
vt 0.010349 0.542601
vt 0.294776 0.597916
vt 0.959249 0.603382
vt 0.959249 0.342326
vt 0.993160 0.342326
vt 0.993160 0.603382
vt 0.959249 0.342657
vt 0.959249 0.652500
vt 0.993160 0.652500
vt 0.993160 0.342657
vt 0.923744 0.542202
vt 0.923744 0.281146
vt 0.613900 0.281146
vt 0.579204 0.249889
vt 0.958440 0.249889
vt 0.993945 0.342326
vt 0.993945 0.603382
vt 0.993137 0.750405
vt 0.993137 0.249889
vt 0.958440 0.750405
vt 0.993676 0.652500
vt 0.993676 0.342657
vt 0.993676 0.603382
vt 0.993676 0.342326
vt 0.990506 0.652500
vt 0.990506 0.342657
vt 0.959249 0.603713
vt 0.993945 0.342657
vt 0.993945 0.603713
vt 0.989697 0.249889
vt 0.989697 0.750405
vt 0.613900 0.542202
vt 0.579204 0.570533
vt 0.958440 0.570533
vt 0.958440 0.891178
vt 0.545292 0.281146
vt 0.044776 0.281146
vt 0.044776 0.542202
vt 0.010349 0.570533
vt 0.010349 0.249889
vt 0.545292 0.542202
vt 0.044260 0.281146
vt 0.044260 0.542202
vt 0.544776 0.542202
vt 0.522318 0.597916
vt 0.544776 0.281146
vn 0.000000 0.356500 -0.934300
vn -1.000000 0.000000 0.000000
vn 0.000000 0.000000 1.000000
vn 0.000000 -1.000000 0.000000
vn 1.000000 0.000000 0.000000
vn 0.000000 1.000000 0.000000
vn 0.000000 0.000000 -1.000000
vn 0.000000 0.934300 0.356400
vn 0.000000 0.937500 -0.347900
vn -0.000000 0.937500 0.347900

f 105/139/28 106/139/28 108/139/28 107/139/28
f 116/139/29 115/139/29 114/139/29 110/139/29 111/139/29 112/139/29
f 113/139/29 116/139/29 112/139/29 109/139/29 110/139/29 114/139/29
f 117/140/29 118/141/29 119/142/29 120/143/29
f 117/144/30 120/145/30 127/146/30 122/147/30 126/148/30 131/149/30 125/150/30 121/151/30
f 117/152/31 122/153/31 123/154/31 118/155/31
f 124/154/30 119/155/30 118/156/30 123/157/30
f 127/158/32 124/159/32 123/140/32 122/141/32
f 140/160/32 136/161/32 132/162/32 141/163/32 131/164/32 126/165/32 142/166/32
f 130/167/32 134/168/32 144/169/32 145/170/32
f 135/171/31 130/172/31 145/173/31 146/174/31
f 135/175/30 147/176/30 134/177/30 143/178/30 155/179/30 126/148/30
f 133/180/30 138/181/30 152/167/30 153/168/30
f 139/182/31 133/183/31 153/179/31 145/184/31
f 134/172/33 147/171/33 156/174/33 144/173/33
f 154/181/34 139/180/34 145/168/34 144/167/34
f 147/168/29 135/167/29 146/170/29 156/169/29
f 146/139/34 145/139/34 157/139/34 158/139/34
f 149/185/31 137/186/31 160/171/31 153/172/31
f 137/187/29 150/188/29 162/168/29 160/167/29
f 138/183/33 154/182/33 144/184/33 152/179/33
f 159/188/32 149/187/32 153/167/32 152/168/32
f 145/139/32 153/139/32 163/139/32 157/139/32
f 161/139/31 155/139/31 143/139/31 165/139/31 166/139/31 167/139/31
f 166/189/34 165/190/34 144/171/34 156/172/34
f 168/168/34 169/167/34 156/181/34 146/180/34
f 160/139/29 146/139/29 158/139/29 170/139/29
f 170/139/31 158/139/31 157/139/31 171/139/31 172/139/31 173/139/31
f 170/139/31 173/139/31 174/139/31 171/139/31 157/139/31 163/139/31
f 153/139/30 160/139/30 170/139/30 163/139/30
f 150/186/33 159/185/33 152/172/33 162/171/33
f 175/191/30 164/171/30 160/192/30 162/193/30
f 161/139/31 167/139/31 176/139/31 165/139/31 143/139/31 151/139/31
f 165/184/32 176/179/32 152/194/32 144/195/32
f 167/179/29 166/184/29 156/195/29 162/194/29
f 164/179/31 168/184/31 146/182/31 160/183/31
f 169/184/33 175/179/33 162/183/33 156/182/33
f 176/190/30 167/189/30 162/172/30 152/171/30
f 178/139/32 177/139/32 171/139/32 174/139/32
f 179/139/30 178/139/30 174/139/30 173/139/30
f 177/139/34 180/139/34 172/139/34 171/139/34
f 180/139/29 179/139/29 173/139/29 172/139/29
f 120/139/35 119/139/35 124/139/35 127/139/35
f 132/139/36 129/139/36 128/139/36 141/139/36
f 141/139/37 128/139/37 125/139/37 131/139/37
f 151/179/34 159/176/34 150/177/34 137/196/34 181/197/34 161/178/34
f 137/196/34 149/175/34 159/176/34 151/179/34 182/198/34 129/199/34 132/162/34 181/197/34
f 143/178/29 154/200/29 138/201/29 133/202/29 182/203/29 151/204/29
f 121/151/29 125/162/29 128/163/29 129/164/29 182/203/29 133/202/29 139/205/29 154/200/29 143/178/29
f 142/166/32 126/165/32 155/204/32 169/206/32 168/207/32 164/208/32 181/197/32 132/162/32 136/161/32 148/209/32
f 155/204/32 161/178/32 181/197/32 164/208/32 175/210/32 169/206/32
f 134/177/30 130/196/30 135/175/30 126/148/30 122/147/30 117/144/30 121/151/30 143/178/30
