# Blender v2.76 (sub 0) OBJ File: 'NestBox.blend'
# www.blender.org

g NoMaterialBuilding
v -0.379296 1.541801 -0.630069
v -0.809898 1.377475 -0.630069
v -0.423357 1.625718 -0.700714
v -0.809898 1.377475 -0.015615
v -0.379296 1.541801 -0.015615
v 0.122361 1.826361 -0.700714
v 0.668078 1.625718 -0.700714
v 0.668078 1.625718 0.055030
v 0.122361 1.826361 0.055030
v -0.423357 1.625718 0.055030
v -0.372243 1.523317 -0.630069
v -0.802845 1.358991 -0.630069
v -0.416491 1.607164 -0.700714
v -0.802845 1.358991 -0.015615
v -0.372243 1.523317 -0.015615
v 0.122361 1.806576 -0.700714
v 0.661212 1.607164 -0.700714
v 0.661212 1.607164 0.055030
v 0.122361 1.806576 0.055030
v -0.416491 1.607164 0.055030
v -0.012501 0.511666 -0.555377
v -0.022360 0.520428 -0.555377
v 0.513207 1.103181 -0.555377
v 0.503348 1.111943 -0.555377
v -0.012501 0.511666 -0.357535
v -0.022360 0.520428 -0.357535
v 0.513207 1.103181 -0.357535
v 0.503348 1.111943 -0.357535
vt 0.722656 0.367188
vt 0.531250 0.367188
vt 0.531250 0.097656
vt 0.722656 0.097656
vt 0.460938 0.421875
vt 0.460938 0.035156
vt 0.730469 0.035156
vt 0.730469 0.421875
vt 0.539062 0.367188
vt 0.730469 0.367188
vt 0.730469 0.097656
vt 0.539062 0.097656
vt 0.468750 0.421875
vt 0.468750 0.035156
vt 0.480469 0.035156
vt 0.480469 0.421875
vt 0.500000 0.113281
vt 0.500000 0.351562
vt 0.511719 0.343750
vt 0.511719 0.105469
vt 0.496094 0.386719
vt 0.496094 0.078125
vt 0.511719 0.078125
vt 0.511719 0.386719
vt 0.468750 0.226562
vt 0.507812 0.410156
vt 0.515625 0.406250
vt 0.476562 0.226562
vt 0.515625 0.046875
vt 0.507812 0.042969
vt 0.949219 0.031250
vt 0.949219 0.425781
vt 0.957031 0.425781
vt 0.957031 0.031250
vt 0.828125 0.031250
vt 0.957031 0.035156
vt 0.828125 0.035156
vt 0.828125 0.425781
vt 0.835938 0.031250
vt 0.835938 0.425781
vt 0.957031 0.421875
vt 0.828125 0.421875
vt 0.824219 0.210938
vt 0.960938 0.210938
vt 0.960938 0.160156
vt 0.824219 0.160156
vt 0.695312 0.078125
vt 0.695312 0.386719
vt 0.710938 0.386719
vt 0.710938 0.078125
vn -0.356500 0.934300 -0.000000
vn -0.345100 0.938600 0.000000
vn 0.345100 0.938600 0.000000
vn 0.356500 -0.934300 0.000000
vn 0.347100 -0.937800 0.000000
vn -0.347100 -0.937800 0.000000
vn -0.937800 -0.347100 -0.000000
vn 0.000000 0.000000 -1.000000
vn -0.934300 -0.356500 0.000000
vn -0.000000 -0.000000 1.000000
vn 0.937800 -0.347100 0.000000
vn 0.664300 0.747500 0.000000
vn -0.664300 -0.747500 0.000000
vn 0.747500 -0.664300 0.000000
vn -0.747500 0.664300 0.000000
vn 0.934300 0.356500 0.000000

f 1/1/1 2/2/1 4/3/1 5/4/1
f 9/5/2 6/6/2 3/7/2 10/8/2
f 8/5/3 7/6/3 6/7/3 9/8/3
f 15/9/4 14/10/4 12/11/4 11/12/4
f 20/6/5 13/5/5 16/8/5 19/7/5
f 19/8/6 16/7/6 17/6/6 18/5/6
f 10/13/7 3/14/7 13/15/7 20/16/7
f 2/17/8 1/18/8 11/19/8 12/20/8
f 4/21/9 2/22/9 12/23/9 14/24/9
f 5/18/10 4/17/10 14/20/10 15/19/10
f 6/25/8 7/26/8 17/27/8 16/28/8 13/29/8 3/30/8
f 7/14/11 8/13/11 18/16/11 17/15/11
f 9/25/10 10/30/10 20/29/10 19/28/10 18/27/10 8/26/10
f 22/31/8 24/32/8 23/33/8 21/34/8
f 24/35/12 28/34/12 27/36/12 23/37/12
f 28/38/10 26/35/10 25/39/10 27/40/10
f 26/41/13 22/42/13 21/38/13 25/33/13
f 21/43/14 23/44/14 27/45/14 25/46/14
f 26/36/15 28/33/15 24/38/15 22/37/15
f 1/47/16 5/48/16 15/49/16 11/50/16

g NoMaterialBuildingCutout
v 0.148550 1.139060 -0.002686
v 0.148550 1.482363 -0.002686
v 0.491853 1.482363 -0.002686
v 0.491853 1.139060 -0.002686
v -0.313177 0.562408 -0.021464
v -0.313177 1.015413 -0.021464
v 0.557899 1.015413 -0.021464
v 0.557899 0.562408 -0.021464
v -0.313177 0.562408 -0.629517
v -0.313177 1.015413 -0.629517
v 0.557899 1.015413 -0.629517
v 0.557899 0.562408 -0.629517
v 0.590922 0.562408 -0.056337
v 0.590922 1.015413 -0.056337
v 0.590922 1.015413 -0.595187
v 0.590922 0.562408 -0.595187
v -0.349483 0.562408 -0.056337
v -0.349483 1.015413 -0.056337
v -0.349483 1.015413 -0.595187
v -0.349483 0.562408 -0.595187
vt 0.738281 0.816406
vt 0.738281 0.621094
vt 0.925781 0.621094
vt 0.925781 0.816406
vt 0.703125 0.957031
vt 0.703125 0.480469
vt 0.953125 0.480469
vt 0.953125 0.957031
vt 0.703125 0.570312
vt 0.703125 0.867188
vt 0.953125 0.867188
vt 0.953125 0.570312
vn -0.000000 0.000000 1.000000
vn 0.000000 0.000000 -1.000000
vn 1.000000 0.000000 0.000000
vn -1.000000 0.000000 -0.000000

f 31/51/17 30/52/17 29/53/17 32/54/17
f 35/55/17 34/56/17 33/57/17 36/58/17
f 40/58/18 37/57/18 38/56/18 39/55/18
f 43/59/19 42/60/19 41/61/19 44/62/19
f 48/62/20 45/61/20 46/60/20 47/59/20

g BuildingMaterial
v 0.126137 1.116646 -0.023709
v 0.126137 1.504776 -0.023709
v 0.514267 1.504776 -0.023709
v 0.514267 1.116646 -0.023709
v 0.514267 1.504776 0.015859
v 0.514267 1.116646 0.015859
v 0.126137 1.504776 0.015859
v 0.126137 1.116646 0.015859
v 0.148241 1.138751 -0.023709
v 0.148241 1.482672 -0.023709
v 0.492162 1.482672 -0.023709
v 0.492162 1.138751 -0.023709
v 0.492162 1.482672 0.015859
v 0.492162 1.138751 0.015859
v 0.148241 1.482672 0.015859
v 0.148241 1.138751 0.015859
v 0.045829 1.301117 0.014949
v 0.048902 1.327316 0.014949
v 0.150625 1.288823 0.014949
v 0.153699 1.315023 0.014949
v 0.060539 1.299392 0.041328
v 0.063612 1.325591 0.041328
v 0.135915 1.290549 0.041328
v 0.138989 1.316748 0.041328
v 0.086574 1.268658 -0.023709
v 0.086574 1.347481 -0.023709
v 0.112953 1.268658 -0.023709
v 0.112953 1.347481 -0.023709
v 0.086574 1.275825 0.015859
v 0.086574 1.340315 0.015859
v 0.112953 1.275825 0.015859
v 0.112953 1.340315 0.015859
v 0.072361 1.787672 0.067158
v 0.072361 1.826230 0.067158
v 0.072361 1.787672 -0.712842
v 0.072361 1.826230 -0.712842
v 0.172361 1.787672 0.067158
v 0.172361 1.826230 0.067158
v 0.172361 1.787672 -0.712842
v 0.172361 1.826230 -0.712842
v 0.122361 1.844622 -0.712842
v 0.122361 1.844622 0.067158
v -0.339269 1.082814 -0.026080
v 0.583990 1.082814 -0.026080
v -0.339269 1.082814 -0.619604
v 0.583990 1.082814 -0.619604
v 0.195095 1.082814 -0.568566
v 0.498452 1.082814 -0.568566
v 0.498452 1.082814 -0.344346
v 0.195095 1.082814 -0.344346
v 0.122361 1.113057 -0.026080
v 0.122361 1.508739 -0.026080
v 0.518043 1.508739 -0.026080
v 0.518043 1.113057 -0.026080
v -0.339269 1.082814 -0.026080
v -0.339269 1.557074 -0.026080
v 0.583990 1.557074 -0.026080
v 0.583990 1.082814 -0.026080
v -0.339269 1.082814 -0.619604
v -0.339269 1.557074 -0.619604
v 0.583990 1.557074 -0.619604
v 0.583990 1.082814 -0.619604
v -0.372243 1.076960 -0.590932
v -0.756272 1.076960 -0.590932
v -0.756272 1.376831 -0.590932
v -0.372243 1.523317 -0.590932
v -0.372243 1.016166 -0.652577
v -0.372243 1.076960 -0.054752
v -0.756272 1.076960 -0.054752
v -0.756272 1.376831 -0.054752
v -0.372243 1.523317 -0.054752
v -0.372243 1.623021 -0.652577
v -0.372243 1.016172 -0.592242
v -0.372243 1.623021 0.006894
v -0.372243 0.562210 -0.592242
v -0.372243 1.016172 -0.053442
v -0.372243 1.016166 0.006894
v 0.122361 1.806576 0.006894
v 0.122361 1.806576 -0.652577
v -0.313273 1.016172 -0.652577
v -0.372243 0.507855 -0.652577
v -0.313273 0.562210 -0.592242
v -0.313273 1.016172 -0.592242
v -0.313273 1.016172 -0.053442
v 0.616964 1.623021 0.006898
v 0.616964 1.623021 -0.652577
v -0.313273 0.562210 -0.652577
v 0.557096 1.016172 -0.652577
v -0.372243 0.507855 0.006894
v -0.372243 0.562210 -0.053442
v -0.313273 0.562210 -0.053442
v -0.313273 1.074819 -0.592242
v -0.313273 1.074819 -0.053442
v 0.616964 1.016166 0.006894
v -0.313273 1.016172 0.006894
v 0.616964 1.016172 -0.053442
v 0.616964 1.016172 -0.592242
v 0.616964 0.562210 -0.592242
v 0.616964 0.507855 -0.652577
v 0.616964 1.016166 -0.652577
v 0.557096 1.016172 -0.592242
v 0.616964 0.507855 0.006894
v -0.313273 0.507855 -0.592242
v -0.313273 0.507855 -0.053442
v 0.557096 0.507855 -0.053442
v 0.557096 0.562210 -0.652577
v 0.557096 0.562210 -0.592242
v -0.313273 0.562210 0.006894
v 0.557096 1.016172 -0.053442
v 0.557096 1.074819 -0.053442
v 0.557096 1.074819 -0.592242
v 0.195095 1.074819 -0.568566
v 0.195095 1.074819 -0.344346
v 0.498452 1.074819 -0.344346
v 0.557096 1.016172 0.006894
v 0.616964 0.562210 -0.053442
v 0.557096 0.507855 -0.592242
v 0.557096 0.562210 0.006894
v 0.557096 0.562210 -0.053442
v 0.498452 1.074819 -0.568566
v 0.195095 1.082814 -0.568566
v 0.195095 1.082814 -0.344346
v 0.498452 1.082814 -0.344346
v 0.498452 1.082814 -0.568566
v 0.124351 1.506562 0.006898
v 0.516053 1.506562 0.006898
v 0.516053 1.114861 0.006898
v 0.124351 1.114861 0.006898
vt 0.332031 0.902344
vt 0.000000 0.000000
vt 0.339844 0.902344
vt 0.343750 0.902344
vt 0.648438 0.855469
vt 0.335938 0.972656
vt 0.027344 0.855469
vt 0.027344 0.472656
vt 0.062500 0.472656
vt 0.609375 0.472656
vt 0.648438 0.472656
vt 0.027344 0.425781
vt 0.027344 0.042969
vt 0.066406 0.042969
vt 0.402344 0.042969
vt 0.441406 0.042969
vt 0.441406 0.425781
vt 0.582031 0.781250
vt 0.582031 0.535156
vt 0.339844 0.535156
vt 0.339844 0.781250
vn 1.000000 0.000000 0.000000
vn -1.000000 0.000000 0.000000
vn 0.000000 -1.000000 0.000000
vn 0.000000 1.000000 0.000000
vn -0.000000 -0.000000 1.000000
vn 0.000000 -0.000000 -1.000000
vn 0.866000 -0.101600 0.489600
vn -0.866000 0.101600 0.489600
vn -0.116500 -0.993200 -0.000000
vn 0.116500 0.993200 0.000000
vn -0.000000 -0.984000 0.178200
vn -0.000000 0.984000 0.178200
vn -0.345200 0.938500 0.000000
vn 0.345200 0.938500 0.000000
vn -0.356400 0.934300 0.000000
vn -0.347900 0.937500 -0.000000
vn 0.347900 0.937500 -0.000000
vn 0.000000 -0.997800 -0.065900
vn 0.000000 0.998500 -0.054600
vn -0.998200 0.000000 -0.060200
vn 0.998200 0.000000 -0.060200

f 58/63/21 63/63/21 64/63/21 57/63/21
f 51/63/21 53/63/21 54/63/21 52/63/21
f 60/63/22 62/63/22 61/63/22 59/63/22
f 55/63/22 50/63/22 49/63/22 56/63/22
f 49/63/23 52/63/23 54/63/23 56/63/23
f 55/63/24 53/63/24 51/63/24 50/63/24
f 63/63/25 61/63/25 53/63/25 55/63/25
f 62/63/25 64/63/25 63/63/25 55/63/25 56/63/25 54/63/25 53/63/25 61/63/25
f 58/63/23 59/63/23 61/63/23 63/63/23
f 57/63/24 64/63/24 62/63/24 60/63/24
f 66/63/26 68/63/26 67/63/26 65/63/26
f 68/63/27 72/63/27 71/63/27 67/63/27
f 72/63/25 70/63/25 69/63/25 71/63/25
f 70/63/28 66/63/28 65/63/28 69/63/28
f 65/63/29 67/63/29 71/63/29 69/63/29
f 70/63/30 72/63/30 68/63/30 66/63/30
f 74/63/26 76/63/26 75/63/26 73/63/26
f 76/63/21 80/63/21 79/63/21 75/63/21
f 80/63/25 78/63/25 77/63/25 79/63/25
f 78/63/22 74/63/22 73/63/22 77/63/22
f 73/63/31 75/63/31 79/63/31 77/63/31
f 78/63/32 80/63/32 76/63/32 74/63/32
f 82/64/22 84/64/22 83/64/22 81/64/22
f 84/64/26 89/64/26 88/64/26 87/64/26 83/64/26
f 88/64/21 86/64/21 85/64/21 87/64/21
f 86/64/25 90/64/25 82/64/25 81/64/25 85/64/25
f 81/64/23 83/64/23 87/64/23 85/64/23
f 90/64/33 89/64/33 84/64/33 82/64/33
f 86/64/34 88/64/34 89/64/34 90/64/34
f 93/65/23 94/65/23 92/65/23 97/65/23 96/65/23 95/65/23
f 93/65/23 95/65/23 98/65/23 97/65/23 92/65/23 91/65/23
f 100/65/25 101/65/25 105/65/25 104/65/25 103/65/25 99/65/25
f 99/65/25 103/65/25 106/65/25 105/65/25 101/65/25 102/65/25
f 104/65/22 108/65/22 107/65/22 103/65/22
f 104/65/24 105/65/24 109/65/24 108/65/24
f 109/65/21 105/65/21 106/65/21 110/65/21
f 108/65/26 109/65/26 110/65/26 107/65/26
f 111/65/26 112/65/26 113/65/26 114/65/26
f 111/65/23 116/65/23 117/65/23 112/65/23
f 118/65/22 113/65/22 112/65/22 117/65/22
f 114/65/35 113/65/35 118/65/35 119/65/35
f 120/66/22 115/66/22 111/65/22 114/65/22 119/65/22 116/65/22 125/65/22 122/65/22
f 119/65/25 118/65/25 117/65/25 116/65/25
f 126/65/36 127/65/36 120/66/36 122/65/36
f 121/65/25 123/65/25 130/65/25 131/65/25
f 124/65/23 121/65/23 131/65/23 132/65/23
f 133/65/37 134/65/37 127/65/37 126/65/37
f 123/65/24 138/65/24 139/65/24 130/65/24
f 135/65/21 128/65/21 131/65/21 130/65/21
f 138/65/26 124/65/26 132/65/26 139/65/26
f 132/65/21 131/65/21 140/65/21 141/65/21
f 128/65/23 136/65/23 149/65/23 131/65/23
f 150/65/23 137/65/23 129/65/23 151/65/23 152/65/23 153/65/23
f 152/65/21 151/65/21 130/65/21 139/65/21
f 154/65/24 135/65/24 130/65/24 155/65/24
f 143/65/21 156/65/21 139/65/21 132/65/21
f 157/65/26 132/65/26 141/65/26 158/65/26
f 131/65/25 149/65/25 159/65/25 140/65/25
f 158/65/23 141/65/23 140/65/23 160/65/23 161/65/23 162/65/23
f 145/65/23 144/65/23 157/65/23 149/65/23
f 146/65/25 145/65/25 149/65/25 155/65/25
f 136/65/22 154/65/22 155/65/22 149/65/22
f 150/65/23 153/65/23 165/65/23 151/65/23 129/65/23 147/65/23
f 153/65/26 152/65/26 139/65/26 167/65/26
f 151/65/25 165/65/25 155/65/25 130/65/25
f 163/65/23 143/65/23 132/65/23 157/65/23
f 156/65/24 166/65/24 167/65/24 139/65/24
f 149/65/22 157/65/22 158/65/22 159/65/22
f 158/65/23 162/65/23 168/65/23 160/65/23 140/65/23 159/65/23
f 169/65/21 170/65/21 161/65/21 160/65/21
f 170/65/26 171/65/26 162/65/26 161/65/26
f 144/65/26 164/65/26 167/65/26 157/65/26
f 164/65/24 146/65/24 155/65/24 167/65/24
f 165/65/22 153/65/22 167/65/22 155/65/22
f 166/65/22 163/65/22 157/65/22 167/65/22
f 171/65/22 172/65/22 168/65/22 162/65/22
f 172/65/25 169/65/25 160/65/25 168/65/25
f 120/67/26 127/68/26 134/69/26 148/70/26 136/71/26 128/72/26 115/73/26
f 137/65/25 150/65/25 142/65/25 163/65/25 166/65/25 156/65/25 143/65/25 125/65/25
f 145/65/21 146/65/21 164/65/21 144/65/21 142/65/21 150/65/21 147/65/21 148/65/21
f 133/74/21 142/75/21 144/76/21 145/77/21 148/78/21 134/79/21
f 135/65/26 154/65/26 136/65/26 148/65/26 147/65/26 129/65/26 115/66/26 128/65/26
f 116/65/22 111/65/22 115/66/22 121/65/22 124/65/22 125/65/22
f 123/65/22 121/65/22 115/66/22 129/65/22 137/65/22 125/65/22 124/65/22 138/65/22
f 101/65/38 174/65/38 173/65/38 100/65/38
f 99/65/39 176/65/39 175/65/39 102/65/39
f 102/65/40 175/65/40 174/65/40 101/65/40
f 99/65/41 100/65/41 173/65/41 176/65/41
f 133/67/25 174/80/25 175/81/25 176/82/25 125/70/25 143/71/25 163/72/25 142/73/25
f 122/69/25 125/70/25 176/82/25 173/83/25 174/80/25 133/67/25 126/68/25
