# 3ds Max Wavefront OBJ Exporter v0.97b - (c)2007 guruware
# File Created: 24.01.2015 17:13:54

#
# object Box001
#

v  -66.4000 0.0000 27.2000
v  -66.4000 0.0000 -33.0667
v  -13.0667 0.0000 -33.0667
v  -13.0667 0.0000 27.2000
v  -66.4000 37.8667 27.2000
v  -13.0667 37.8667 27.2000
v  -13.0667 37.8667 -33.0667
v  -66.4000 37.8667 -33.0667
# 8 vertices

vn 0.0000 -1.0000 -0.0000
vn 0.0000 1.0000 -0.0000
vn 0.0000 0.0000 1.0000
vn 1.0000 0.0000 -0.0000
vn 0.0000 0.0000 -1.0000
vn -1.0000 0.0000 -0.0000
# 6 vertex normals

vt 1.0000 0.0000 0.0000
vt 1.0000 1.0000 0.0000
vt 0.0000 1.0000 0.0000
vt 0.0000 0.0000 0.0000
# 4 texture coords

g Box001
f 1/1/1 2/2/1 3/3/1 
f 3/3/1 4/4/1 1/1/1 
f 5/4/2 6/1/2 7/2/2 
f 7/2/2 8/3/2 5/4/2 
f 1/4/3 4/1/3 6/2/3 
f 6/2/3 5/3/3 1/4/3 
f 4/4/4 3/1/4 7/2/4 
f 7/2/4 6/3/4 4/4/4 
f 3/4/5 2/1/5 8/2/5 
f 8/2/5 7/3/5 3/4/5 
f 2/4/6 1/1/6 5/2/6 
f 5/2/6 8/3/6 2/4/6 
# 12 faces

#
# object Box002
#

v  12.0000 0.0000 11.7333
v  12.0000 0.0000 -12.8000
v  42.4000 0.0000 -12.8000
v  42.4000 0.0000 11.7333
v  12.0000 15.4667 11.7333
v  42.4000 15.4667 11.7333
v  42.4000 15.4667 -12.8000
v  12.0000 15.4667 -12.8000
# 8 vertices

vn 0.0000 -1.0000 -0.0000
vn 0.0000 1.0000 -0.0000
vn 0.0000 0.0000 1.0000
vn 1.0000 0.0000 -0.0000
vn 0.0000 0.0000 -1.0000
vn -1.0000 0.0000 -0.0000
# 6 vertex normals

vt 1.0000 0.0000 0.0000
vt 1.0000 1.0000 0.0000
vt 0.0000 1.0000 0.0000
vt 0.0000 0.0000 0.0000
# 4 texture coords

g Box002
f 9/5/7 10/6/7 11/7/7 
f 11/7/7 12/8/7 9/5/7 
f 13/8/8 14/5/8 15/6/8 
f 15/6/8 16/7/8 13/8/8 
f 9/8/9 12/5/9 14/6/9 
f 14/6/9 13/7/9 9/8/9 
f 12/8/10 11/5/10 15/6/10 
f 15/6/10 14/7/10 12/8/10 
f 11/8/11 10/5/11 16/6/11 
f 16/6/11 15/7/11 11/8/11 
f 10/8/12 9/5/12 13/6/12 
f 13/6/12 16/7/12 10/8/12 
# 12 faces

#
# object Box003
#

v  56.8000 0.0000 4.8000
v  56.8000 0.0000 -4.2667
v  70.6667 0.0000 -4.2667
v  70.6667 0.0000 4.8000
v  56.8000 14.4000 4.8000
v  70.6667 14.4000 4.8000
v  70.6667 14.4000 -4.2667
v  56.8000 14.4000 -4.2667
# 8 vertices

vn 0.0000 -1.0000 -0.0000
vn 0.0000 1.0000 -0.0000
vn 0.0000 0.0000 1.0000
vn 1.0000 0.0000 -0.0000
vn 0.0000 0.0000 -1.0000
vn -1.0000 0.0000 -0.0000
# 6 vertex normals

vt 1.0000 0.0000 0.0000
vt 1.0000 1.0000 0.0000
vt 0.0000 1.0000 0.0000
vt 0.0000 0.0000 0.0000
# 4 texture coords

g Box003
f 17/9/13 18/10/13 19/11/13 
f 19/11/13 20/12/13 17/9/13 
f 21/12/14 22/9/14 23/10/14 
f 23/10/14 24/11/14 21/12/14 
f 17/12/15 20/9/15 22/10/15 
f 22/10/15 21/11/15 17/12/15 
f 20/12/16 19/9/16 23/10/16 
f 23/10/16 22/11/16 20/12/16 
f 19/12/17 18/9/17 24/10/17 
f 24/10/17 23/11/17 19/12/17 
f 18/12/18 17/9/18 21/10/18 
f 21/10/18 24/11/18 18/12/18 
# 12 faces

