# 3ds Max Wavefront OBJ Exporter v0.97b - (c)2007 guruware
# File Created: 10.06.2015 22:28:57

#
# object StaticMaterial
#

v  -1.0000 0.0000 -1.0000
v  -1.0000 0.5000 -1.0000
v  1.0000 0.5000 -1.0000
v  1.0000 0.0000 -1.0000
v  -1.0000 0.0000 1.0000
v  -1.0000 0.5000 1.0000
v  1.0000 0.0000 1.0000
v  1.0000 0.5000 1.0000
v  0.7000 0.0000 0.4000
v  0.7000 0.5000 0.4000
v  0.7000 0.5000 -0.0000
v  0.7000 0.0000 -0.0000
v  0.4000 0.0000 0.7000
v  0.4000 0.5000 0.7000
v  -0.4000 0.0000 0.7000
v  -0.4000 0.5000 0.7000
v  -0.7000 0.0000 0.4000
v  -0.7000 0.5000 0.4000
v  -0.7000 0.0000 -0.0000
v  -0.7000 0.5000 -0.0000
v  0.3000 0.0000 -0.6000
v  0.3000 0.1300 -0.6000
v  -0.3000 0.1300 -0.6000
v  -0.3000 0.0000 -0.6000
v  -0.5000 0.3700 -0.3000
v  0.5000 0.3700 -0.3000
v  0.5000 0.5000 -0.3000
v  -0.5000 0.5000 -0.3000
# 28 vertices

vn 0.0000 0.0000 -1.0000
vn -1.0000 0.0000 -0.0000
vn 0.0000 0.0000 1.0000
vn 1.0000 0.0000 -0.0000
vn -0.7071 0.0000 -0.7071
vn 0.7071 0.0000 -0.7071
vn 0.0000 -1.0000 -0.0000
vn 0.8321 0.0000 0.5547
vn -0.8321 0.0000 0.5547
vn 0.0000 1.0000 -0.0000
vn 0.0000 -0.7809 0.6247
# 11 vertex normals

vt 0.9995 0.0005 0.9995
vt 0.9995 0.1670 0.9995
vt 0.0005 0.1670 0.9995
vt 0.0005 0.0005 0.9995
vt 0.9995 0.0005 0.0005
vt 0.9995 0.1670 0.0005
vt 0.0005 0.1670 0.0005
vt 0.0005 0.0005 0.0005
vt 0.6998 0.0005 0.8497
vt 0.6998 0.1670 0.8497
vt 0.5000 0.1670 0.8497
vt 0.5000 0.0005 0.8497
vt 0.3002 0.0005 0.1503
vt 0.3002 0.1670 0.1503
vt 0.1503 0.1670 0.3002
vt 0.1503 0.0005 0.3002
vt 0.6998 0.0005 0.1503
vt 0.6998 0.1670 0.1503
vt 0.5000 0.0005 0.1503
vt 0.5000 0.1670 0.1503
vt 0.1503 0.5000 0.0005
vt 0.3501 0.7997 0.0005
vt 0.0005 0.9995 0.0005
vt 0.1503 0.3002 0.0005
vt 0.6499 0.0438 0.7997
vt 0.3501 0.0438 0.7997
vt 0.3501 0.0005 0.7997
vt 0.6499 0.0005 0.7997
vt 0.7997 0.0005 0.3501
vt 0.7997 0.0438 0.3501
vt 0.6499 0.1237 0.2502
vt 0.3501 0.1237 0.7498
vt 0.2003 0.0438 0.6499
vt 0.2003 0.0005 0.6499
vt 0.9995 0.9995 0.1670
vt 0.7498 0.6499 0.1670
vt 0.8497 0.5000 0.1670
vt 0.8497 0.3002 0.1670
vt 0.7498 0.1670 0.6499
vt 0.2502 0.1670 0.6499
vt 0.2502 0.1237 0.6499
vt 0.7498 0.1237 0.6499
vt 0.8497 0.5000 0.0005
vt 0.8497 0.3002 0.0005
vt 0.9995 0.9995 0.0005
vt 0.6499 0.7997 0.0005
vt 0.6998 0.1503 0.0005
vt 0.3002 0.1503 0.0005
vt 0.6499 0.1670 0.2502
vt 0.3501 0.1670 0.7498
vt 0.1503 0.5000 0.1670
vt 0.0005 0.9995 0.1670
vt 0.0005 0.0005 0.1670
vt 0.1503 0.3002 0.1670
vt 0.2502 0.6499 0.1670
vt 0.3002 0.1503 0.1670
vt 0.9995 0.0005 0.1670
vt 0.6998 0.1503 0.1670
# 58 texture coords

g StaticMaterial
f 1/1/1 2/2/1 3/3/1 
f 3/3/1 4/4/1 1/1/1 
f 5/5/2 6/6/2 2/7/2 
f 2/7/2 1/8/2 5/5/2 
f 7/5/3 8/6/3 6/7/3 
f 6/7/3 5/8/3 7/5/3 
f 4/1/4 3/2/4 8/3/4 
f 8/3/4 7/4/4 4/1/4 
f 9/9/2 10/10/2 11/11/2 
f 11/11/2 12/12/2 9/9/2 
f 13/13/5 14/14/5 10/15/5 
f 10/15/5 9/16/5 13/13/5 
f 15/17/1 16/18/1 14/14/1 
f 14/14/1 13/13/1 15/17/1 
f 17/13/6 18/14/6 16/15/6 
f 16/15/6 15/16/6 17/13/6 
f 19/19/4 20/20/4 18/14/4 
f 18/14/4 17/13/4 19/19/4 
f 12/21/7 21/22/7 4/23/7 
f 4/23/7 9/24/7 12/21/7 
f 22/25/3 23/26/3 24/27/3 
f 24/27/3 21/28/3 22/25/3 
f 24/29/8 23/30/8 25/31/8 
f 25/31/8 19/19/8 24/29/8 
f 26/32/9 22/33/9 21/34/9 
f 21/34/9 12/12/9 26/32/9 
f 3/35/10 27/36/10 11/37/10 
f 11/37/10 10/38/10 3/35/10 
f 27/39/3 28/40/3 25/41/3 
f 25/41/3 26/42/3 27/39/3 
f 25/41/11 23/26/11 22/25/11 
f 22/25/11 26/42/11 25/41/11 
f 19/43/7 17/44/7 5/5/7 
f 5/5/7 1/45/7 19/43/7 
f 24/46/7 19/43/7 1/45/7 
f 1/45/7 4/23/7 24/46/7 
f 4/23/7 21/22/7 24/46/7 
f 5/5/7 17/44/7 15/47/7 
f 15/47/7 7/8/7 5/5/7 
f 7/8/7 15/47/7 13/48/7 
f 13/48/7 9/24/7 7/8/7 
f 9/24/7 4/23/7 7/8/7 
f 20/20/8 19/19/8 25/31/8 
f 25/31/8 28/49/8 20/20/8 
f 26/32/9 12/12/9 11/11/9 
f 11/11/9 27/50/9 26/32/9 
f 20/51/10 2/52/10 6/53/10 
f 6/53/10 18/54/10 20/51/10 
f 2/52/10 20/51/10 28/55/10 
f 28/55/10 3/35/10 2/52/10 
f 27/36/10 3/35/10 28/55/10 
f 16/56/10 18/54/10 6/53/10 
f 6/53/10 8/57/10 16/56/10 
f 14/58/10 16/56/10 8/57/10 
f 8/57/10 10/38/10 14/58/10 
f 3/35/10 10/38/10 8/57/10 
# 56 faces

