# 3ds Max Wavefront OBJ Exporter v0.97b - (c)2007 guruware
# File Created: 10.06.2015 22:25:19

#
# object StaticMaterial
#

v  -1.0000 0.0000 -1.0000
v  -1.0000 0.5000 -1.0000
v  1.0000 0.5000 -1.0000
v  1.0000 0.0000 -1.0000
v  -1.0000 0.0000 1.0000
v  -1.0000 0.5000 1.0000
v  1.0000 0.0000 1.0000
v  1.0000 0.5000 1.0000
v  0.7000 0.5000 -0.3000
v  0.5000 0.5000 -0.3000
v  0.3000 0.5000 -0.6000
v  0.8000 3.0000 -0.7000
v  0.8000 0.5000 -0.7000
v  0.7000 0.5000 -0.8000
v  0.7000 3.0000 -0.8000
v  0.8000 3.0000 -0.4000
v  0.8000 0.5000 -0.4000
v  0.7000 3.0000 -0.3000
v  -0.3000 0.5000 -0.6000
v  0.3000 0.6300 -0.6000
v  -0.3000 0.6300 -0.6000
v  0.5000 2.8700 -0.3000
v  0.5000 2.5000 -0.3000
v  0.5000 2.3700 -0.3000
v  -0.7000 3.0000 -0.3000
v  -0.8000 3.0000 -0.4000
v  -0.8000 0.5000 -0.4000
v  -0.7000 0.5000 -0.3000
v  -0.8000 3.0000 -0.7000
v  -0.8000 0.5000 -0.7000
v  -0.7000 3.0000 -0.8000
v  -0.7000 0.5000 -0.8000
v  -0.5000 0.8700 -0.3000
v  -0.5000 0.5000 -0.3000
v  0.5000 0.8700 -0.3000
v  -0.3000 1.0000 -0.6000
v  -0.5000 1.0000 -0.3000
v  0.5000 1.0000 -0.3000
v  0.3000 1.0000 -0.6000
v  0.3000 1.1300 -0.6000
v  -0.3000 1.1300 -0.6000
v  -0.5000 1.3700 -0.3000
v  0.5000 1.3700 -0.3000
v  -0.3000 1.5000 -0.6000
v  -0.5000 1.5000 -0.3000
v  0.5000 1.5000 -0.3000
v  0.3000 1.5000 -0.6000
v  0.3000 1.6300 -0.6000
v  -0.3000 1.6300 -0.6000
v  -0.5000 1.8700 -0.3000
v  0.5000 1.8700 -0.3000
v  -0.3000 2.0000 -0.6000
v  -0.5000 2.0000 -0.3000
v  0.5000 2.0000 -0.3000
v  0.3000 2.0000 -0.6000
v  0.3000 2.1300 -0.6000
v  -0.3000 2.1300 -0.6000
v  -0.5000 2.3700 -0.3000
v  -0.3000 2.5000 -0.6000
v  -0.5000 2.5000 -0.3000
v  0.3000 2.5000 -0.6000
v  0.3000 2.6300 -0.6000
v  -0.3000 2.6300 -0.6000
v  -0.5000 2.8700 -0.3000
# 64 vertices

vn 0.0000 0.0000 -1.0000
vn -1.0000 0.0000 -0.0000
vn 0.0000 0.0000 1.0000
vn 1.0000 0.0000 -0.0000
vn 0.0000 -1.0000 -0.0000
vn 0.0000 1.0000 -0.0000
vn 0.7071 0.0000 -0.7071
vn 0.7071 0.0000 0.7071
vn -0.7071 0.0000 0.7071
vn -0.7071 0.0000 -0.7071
vn 0.8321 0.0000 0.5547
vn -0.8321 0.0000 0.5547
vn 0.0000 -0.7809 0.6247
# 13 vertex normals

vt 0.9995 0.0005 0.9995
vt 0.9995 0.1670 0.9995
vt 0.0005 0.1670 0.9995
vt 0.0005 0.0005 0.9995
vt 0.9995 0.0005 0.0005
vt 0.9995 0.1670 0.0005
vt 0.0005 0.1670 0.0005
vt 0.0005 0.0005 0.0005
vt 0.9995 0.9995 0.0005
vt 0.0005 0.9995 0.0005
vt 0.9995 0.0005 0.1670
vt 0.8497 0.6499 0.1670
vt 0.7498 0.6499 0.1670
vt 0.6499 0.7997 0.1670
vt 0.8497 0.9995 0.8996
vt 0.8497 0.1670 0.8996
vt 0.8996 0.1670 0.8497
vt 0.8996 0.9995 0.8497
vt 0.6998 0.9995 0.8996
vt 0.6998 0.1670 0.8996
vt 0.8497 0.9995 0.6499
vt 0.8497 0.1670 0.6499
vt 0.8996 0.1670 0.6998
vt 0.8996 0.9995 0.6998
vt 0.3501 0.1670 0.7997
vt 0.6499 0.1670 0.7997
vt 0.6499 0.2103 0.7997
vt 0.3501 0.2103 0.7997
vt 0.7498 0.9562 0.6499
vt 0.7498 0.8330 0.6499
vt 0.7498 0.7897 0.6499
vt 0.3501 0.9995 0.1503
vt 0.3002 0.9995 0.1004
vt 0.3002 0.1670 0.1004
vt 0.3501 0.1670 0.1503
vt 0.1503 0.9995 0.1004
vt 0.1503 0.1670 0.1004
vt 0.1503 0.8996 0.9995
vt 0.1004 0.8497 0.9995
vt 0.1004 0.6998 0.9995
vt 0.1503 0.6499 0.9995
vt 0.7997 0.2103 0.3501
vt 0.6499 0.2902 0.2502
vt 0.6499 0.1670 0.2502
vt 0.7997 0.1670 0.3501
vt 0.2003 0.2103 0.6499
vt 0.2003 0.1670 0.6499
vt 0.3501 0.1670 0.7498
vt 0.3501 0.2902 0.7498
vt 0.7498 0.2902 0.6499
vt 0.2502 0.2902 0.6499
vt 0.3501 0.7997 0.3335
vt 0.2502 0.6499 0.3335
vt 0.7498 0.6499 0.3335
vt 0.6499 0.7997 0.3335
vt 0.3501 0.3335 0.7997
vt 0.6499 0.3335 0.7997
vt 0.6499 0.3768 0.7997
vt 0.3501 0.3768 0.7997
vt 0.7997 0.3768 0.3501
vt 0.6499 0.4567 0.2502
vt 0.6499 0.3335 0.2502
vt 0.7997 0.3335 0.3501
vt 0.2003 0.3768 0.6499
vt 0.2003 0.3335 0.6499
vt 0.3501 0.3335 0.7498
vt 0.3501 0.4567 0.7498
vt 0.7498 0.4567 0.6499
vt 0.2502 0.4567 0.6499
vt 0.3501 0.7997 0.5000
vt 0.2502 0.6499 0.5000
vt 0.7498 0.6499 0.5000
vt 0.6499 0.7997 0.5000
vt 0.3501 0.5000 0.7997
vt 0.6499 0.5000 0.7997
vt 0.6499 0.5433 0.7997
vt 0.3501 0.5433 0.7997
vt 0.7997 0.5433 0.3501
vt 0.6499 0.6232 0.2502
vt 0.6499 0.5000 0.2502
vt 0.7997 0.5000 0.3501
vt 0.2003 0.5433 0.6499
vt 0.2003 0.5000 0.6499
vt 0.3501 0.5000 0.7498
vt 0.3501 0.6232 0.7498
vt 0.7498 0.6232 0.6499
vt 0.2502 0.6232 0.6499
vt 0.3501 0.7997 0.6665
vt 0.2502 0.6499 0.6665
vt 0.7498 0.6499 0.6665
vt 0.6499 0.7997 0.6665
vt 0.3501 0.6665 0.7997
vt 0.6499 0.6665 0.7997
vt 0.6499 0.7098 0.7997
vt 0.3501 0.7098 0.7997
vt 0.7997 0.7098 0.3501
vt 0.6499 0.7897 0.2502
vt 0.6499 0.6665 0.2502
vt 0.7997 0.6665 0.3501
vt 0.2003 0.7098 0.6499
vt 0.2003 0.6665 0.6499
vt 0.3501 0.6665 0.7498
vt 0.3501 0.7897 0.7498
vt 0.2502 0.7897 0.6499
vt 0.3501 0.7997 0.8330
vt 0.2502 0.6499 0.8330
vt 0.7498 0.6499 0.8330
vt 0.6499 0.7997 0.8330
vt 0.1503 0.1670 0.8996
vt 0.1503 0.9995 0.8996
vt 0.3501 0.8330 0.7997
vt 0.6499 0.8330 0.7997
vt 0.6499 0.8763 0.7997
vt 0.3501 0.8763 0.7997
vt 0.2003 0.8763 0.6499
vt 0.2003 0.8330 0.6499
vt 0.3501 0.8330 0.7498
vt 0.3501 0.9562 0.7498
vt 0.7997 0.8763 0.3501
vt 0.6499 0.9562 0.2502
vt 0.6499 0.8330 0.2502
vt 0.7997 0.8330 0.3501
vt 0.2502 0.9562 0.6499
vt 0.8497 0.8996 0.1670
vt 0.9995 0.9995 0.1670
vt 0.0005 0.9995 0.1670
vt 0.1503 0.8996 0.1670
vt 0.1004 0.8497 0.1670
vt 0.0005 0.0005 0.1670
vt 0.1004 0.6998 0.1670
vt 0.1503 0.6499 0.1670
vt 0.2502 0.6499 0.1670
vt 0.8996 0.8497 0.1670
vt 0.8996 0.6998 0.1670
vt 0.3501 0.7997 0.1670
vt 0.7498 0.6665 0.6499
vt 0.2502 0.6665 0.6499
vt 0.7498 0.3335 0.6499
vt 0.2502 0.3335 0.6499
vt 0.7498 0.5000 0.6499
vt 0.2502 0.5000 0.6499
vt 0.7498 0.1670 0.6499
vt 0.1503 0.9995 0.6499
vt 0.1503 0.1670 0.6499
vt 0.2502 0.1670 0.6499
vt 0.2502 0.8330 0.6499
vt 0.8996 0.8497 0.9995
vt 0.8497 0.6499 0.9995
vt 0.8996 0.6998 0.9995
vt 0.8497 0.8996 0.9995
# 150 texture coords

g StaticMaterial
f 1/1/1 2/2/1 3/3/1 
f 3/3/1 4/4/1 1/1/1 
f 5/5/2 6/6/2 2/7/2 
f 2/7/2 1/8/2 5/5/2 
f 7/5/3 8/6/3 6/7/3 
f 6/7/3 5/8/3 7/5/3 
f 4/1/4 3/2/4 8/3/4 
f 8/3/4 7/4/4 4/1/4 
f 5/5/5 1/9/5 4/10/5 
f 4/10/5 7/8/5 5/5/5 
f 8/11/6 9/12/6 10/13/6 
f 10/13/6 11/14/6 8/11/6 
f 12/15/7 13/16/7 14/17/7 
f 14/17/7 15/18/7 12/15/7 
f 12/15/4 16/19/4 17/20/4 
f 17/20/4 13/16/4 12/15/4 
f 18/21/8 9/22/8 17/23/8 
f 17/23/8 16/24/8 18/21/8 
f 19/25/3 11/26/3 20/27/3 
f 20/27/3 21/28/3 19/25/3 
f 18/21/3 22/29/3 23/30/3 
f 23/30/3 24/31/3 18/21/3 
f 25/32/9 26/33/9 27/34/9 
f 27/34/9 28/35/9 25/32/9 
f 29/36/2 30/37/2 27/34/2 
f 27/34/2 26/33/2 29/36/2 
f 31/15/10 32/16/10 30/17/10 
f 30/17/10 29/18/10 31/15/10 
f 31/38/6 29/39/6 26/40/6 
f 26/40/6 25/41/6 31/38/6 
f 21/42/11 33/43/11 34/44/11 
f 34/44/11 19/45/11 21/42/11 
f 20/46/12 11/47/12 10/48/12 
f 10/48/12 35/49/12 20/46/12 
f 21/28/13 20/27/13 35/50/13 
f 35/50/13 33/51/13 21/28/13 
f 36/52/6 37/53/6 38/54/6 
f 38/54/6 39/55/6 36/52/6 
f 36/56/3 39/57/3 40/58/3 
f 40/58/3 41/59/3 36/56/3 
f 41/60/11 42/61/11 37/62/11 
f 37/62/11 36/63/11 41/60/11 
f 40/64/12 39/65/12 38/66/12 
f 38/66/12 43/67/12 40/64/12 
f 41/59/13 40/58/13 43/68/13 
f 43/68/13 42/69/13 41/59/13 
f 44/70/6 45/71/6 46/72/6 
f 46/72/6 47/73/6 44/70/6 
f 44/74/3 47/75/3 48/76/3 
f 48/76/3 49/77/3 44/74/3 
f 49/78/11 50/79/11 45/80/11 
f 45/80/11 44/81/11 49/78/11 
f 48/82/12 47/83/12 46/84/12 
f 46/84/12 51/85/12 48/82/12 
f 49/77/13 48/76/13 51/86/13 
f 51/86/13 50/87/13 49/77/13 
f 52/88/6 53/89/6 54/90/6 
f 54/90/6 55/91/6 52/88/6 
f 52/92/3 55/93/3 56/94/3 
f 56/94/3 57/95/3 52/92/3 
f 57/96/11 58/97/11 53/98/11 
f 53/98/11 52/99/11 57/96/11 
f 56/100/12 55/101/12 54/102/12 
f 54/102/12 24/103/12 56/100/12 
f 57/95/13 56/94/13 24/31/13 
f 24/31/13 58/104/13 57/95/13 
f 59/105/6 60/106/6 23/107/6 
f 23/107/6 61/108/6 59/105/6 
f 14/109/1 32/16/1 31/15/1 
f 31/15/1 15/110/1 14/109/1 
f 59/111/3 61/112/3 62/113/3 
f 62/113/3 63/114/3 59/111/3 
f 62/115/12 61/116/12 23/117/12 
f 23/117/12 22/118/12 62/115/12 
f 63/119/11 64/120/11 60/121/11 
f 60/121/11 59/122/11 63/119/11 
f 63/114/13 62/113/13 22/29/13 
f 22/29/13 64/123/13 63/114/13 
f 14/124/6 3/125/6 2/126/6 
f 2/126/6 32/127/6 14/124/6 
f 30/128/6 32/127/6 2/126/6 
f 2/126/6 6/129/6 30/128/6 
f 27/130/6 30/128/6 6/129/6 
f 6/129/6 28/131/6 27/130/6 
f 34/132/6 28/131/6 6/129/6 
f 6/129/6 8/11/6 34/132/6 
f 3/125/6 14/124/6 13/133/6 
f 13/133/6 8/11/6 3/125/6 
f 8/11/6 13/133/6 17/134/6 
f 17/134/6 9/12/6 8/11/6 
f 11/14/6 19/135/6 34/132/6 
f 34/132/6 8/11/6 11/14/6 
f 54/136/3 53/137/3 50/87/3 
f 50/87/3 51/86/3 54/136/3 
f 38/138/3 37/139/3 33/51/3 
f 33/51/3 35/50/3 38/138/3 
f 46/140/3 45/141/3 42/69/3 
f 42/69/3 43/68/3 46/140/3 
f 9/22/3 18/21/3 35/50/3 
f 35/50/3 10/142/3 9/22/3 
f 38/138/3 35/50/3 18/21/3 
f 18/21/3 43/68/3 38/138/3 
f 46/140/3 43/68/3 18/21/3 
f 18/21/3 51/86/3 46/140/3 
f 54/136/3 51/86/3 18/21/3 
f 18/21/3 24/31/3 54/136/3 
f 33/51/3 25/143/3 28/144/3 
f 28/144/3 34/145/3 33/51/3 
f 25/143/3 33/51/3 37/139/3 
f 37/139/3 42/69/3 25/143/3 
f 25/143/3 42/69/3 45/141/3 
f 45/141/3 50/87/3 25/143/3 
f 25/143/3 50/87/3 53/137/3 
f 53/137/3 58/104/3 25/143/3 
f 25/143/3 58/104/3 60/146/3 
f 60/146/3 64/123/3 25/143/3 
f 22/29/3 18/21/3 25/143/3 
f 25/143/3 64/123/3 22/29/3 
f 23/30/3 60/146/3 58/104/3 
f 58/104/3 24/31/3 23/30/3 
f 12/147/6 25/41/6 18/148/6 
f 18/148/6 16/149/6 12/147/6 
f 15/150/6 31/38/6 25/41/6 
f 25/41/6 12/147/6 15/150/6 
# 124 faces

