# Blender v2.75 (sub 0) OBJ File: ''
 
#
# object BuildingMaterial
#
 
v 0.226716 1.492001 0.867001
v 0.238281 1.496062 0.128938
v 0.232055 0.756125 0.868876
v 0.226716 0.757999 0.132999
v 0.219709 2.739542 0.864541
v 0.236749 2.745523 0.129477
v 0.236749 2.004477 0.870524
v 0.249860 1.999907 0.124907
v 0.150000 2.125000 0.250000
v -0.236749 0.754477 0.129477
v -0.249860 1.500093 0.124907
v -0.150000 1.375000 0.250000
v -0.236749 1.495523 0.870524
v -0.219709 0.760459 0.864541
v -0.232055 2.743876 0.868876
v -0.226716 2.742002 0.132999
v -0.238281 2.003939 0.128938
v -0.150000 2.125000 0.750000
v -0.249862 1.999948 0.875094
v 0.249911 1.500059 -0.124894
v 0.243082 1.497747 -0.872747
v 0.236749 0.754477 -0.129477
v 0.219709 0.760459 -0.864541
v 0.150000 1.375000 -0.250000
v 0.226716 2.742002 -0.132999
v 0.232055 2.743876 -0.868876
v 0.240483 2.003166 -0.128166
v 0.249925 1.999890 -0.875110
v 0.150000 2.125000 -0.750000
v -0.240483 1.496835 -0.128166
v -0.249925 1.500110 -0.875110
v -0.150000 1.375000 -0.750000
v -0.232055 0.756125 -0.868876
v -0.150000 0.875000 -0.250000
v -0.249862 0.749948 -0.124906
v -0.243082 2.002253 -0.872747
v -0.219709 2.739542 -0.864541
v -0.236749 2.745523 -0.129477
v -0.150000 2.125000 -0.250000
v -0.249911 1.999941 -0.124894
v -0.250000 0.500000 1.000000
v 0.250000 3.000000 1.000000
v -0.250000 3.000000 1.000000
v 0.250000 0.500000 1.000000
v -0.250000 3.000000 -1.000000
v 0.250000 3.000000 -1.000000
v 0.250000 0.500000 -1.000000
v -0.250000 0.500000 -1.000000
v 0.249999 1.831679 -0.823619
v 0.250865 1.677323 -0.787279
v 0.251119 1.837208 -0.777662
v 0.250000 1.877120 -0.804034
v 0.252905 1.626568 -0.785609
v -0.250922 1.673360 -0.813147
v -0.258874 1.838332 -0.820388
v -0.249999 1.831679 -0.776381
v -0.249769 1.648323 -0.768280
v -0.250000 1.877120 -0.795965
v 0.251024 1.635410 -0.822974
v 0.328022 1.659881 -0.824768
v 0.314268 1.712000 -0.800410
v 0.347181 1.699334 -0.773045
v 0.372878 1.709459 -0.805899
v 0.352256 1.839911 -0.803191
v 0.311953 1.803102 -0.777915
v 0.320805 1.818078 -0.826479
v -0.328066 1.852100 -0.807729
v -0.315631 1.828987 -0.772121
v -0.356091 1.783928 -0.827129
v -0.375064 1.727908 -0.779252
v -0.321072 1.722453 -0.800071
v -0.346942 1.662701 -0.800000
v -0.255300 1.630815 -0.823903
vn 0.999800 -0.015600 0.015600
vn 0.999900 0.007200 -0.007200
vn 0.990700 -0.134300 0.021900
vn 0.990700 0.021900 -0.134300
vn 0.786400 0.010000 0.617700
vn 0.786400 0.617700 0.010000
vn -0.786400 -0.010000 0.617700
vn -0.990700 0.134300 0.021900
vn -0.990700 -0.021900 -0.134300
vn -0.786400 -0.617700 0.010000
vn -0.990300 0.014800 0.137900
vn -0.991500 -0.130100 -0.006900
vn -0.785700 0.618500 -0.008900
vn -0.788100 0.013700 -0.615400
vn 0.783800 -0.621000 -0.005200
vn 0.989400 -0.029800 0.142000
vn 0.990700 0.134300 -0.021900
vn 0.786200 -0.010100 -0.617800
vn 0.991500 -0.130100 0.006900
vn 0.989900 0.017500 -0.140600
vn 0.788000 0.013800 0.615600
vn 0.784800 0.619600 0.007200
vn -0.784800 -0.619600 0.007200
vn -0.788000 -0.013800 0.615600
vn -0.987900 0.109900 0.109900
vn -0.985500 -0.119900 -0.119900
vn -0.788000 0.615500 -0.013800
vn -0.785000 0.007200 -0.619500
vn -0.989400 0.029800 0.142000
vn -0.990700 -0.134300 -0.021900
vn -0.783800 0.621000 -0.005200
vn -0.786200 0.010100 -0.617800
vn 0.000000 0.000000 1.000000
vn 0.000000 1.000000 0.000000
vn 0.000000 0.000000 -1.000000
vn 0.000000 -1.000000 0.000000
vn 0.999600 -0.022800 0.017700
vn 0.999700 -0.019700 0.015600
vn 1.000000 0.005200 -0.001700
vn 0.999700 -0.000100 -0.024300
vn 0.998800 -0.013800 -0.046600
vn 1.000000 0.000300 -0.000600
vn 0.932500 -0.180500 -0.312700
vn 0.999900 -0.002600 0.017000
vn 0.999800 0.014900 0.012600
vn 0.983800 0.022100 0.177900
vn 0.997800 -0.066300 0.007100
vn 0.999200 0.018400 -0.036800
vn 0.999200 0.018500 -0.036800
vn 0.999100 0.017800 -0.038400
vn 0.978200 -0.204700 -0.034600
vn 0.998600 -0.052000 0.000000
vn 0.966700 0.020300 -0.255300
vn 0.998500 -0.019900 0.050800
vn 0.985000 0.000000 -0.172400
vn 0.991700 -0.126800 0.022000
vn 1.000000 0.000000 0.000600
vn 0.988000 -0.012700 0.153600
vn 0.962900 -0.027500 0.268300
vn 0.991700 0.126800 -0.022000
vn 0.998700 -0.022600 0.045400
vn 0.998800 -0.017900 0.045500
vn 0.999100 -0.015400 0.038400
vn 0.995900 -0.082100 0.039200
vn 0.997800 0.066300 -0.007100
vn 0.996000 0.089900 0.000000
vn 0.992500 0.006900 -0.122400
vn 0.985400 0.004600 -0.169900
vn 0.997600 -0.036300 -0.058800
vn 0.999800 0.018800 0.006500
vn 0.999100 0.040600 0.012300
vn 0.997500 -0.070100 -0.008900
vn -0.999600 0.022800 0.017700
vn -0.999500 -0.025800 -0.015700
vn -0.890900 -0.023000 0.453700
vn -0.980600 -0.038800 0.191900
vn -0.999700 -0.000100 0.025600
vn -0.990000 0.014200 -0.140100
vn -0.987800 -0.090200 0.126600
vn -0.999900 -0.000600 0.014400
vn -0.999900 -0.008000 0.012600
vn -0.983800 -0.022100 0.177900
vn -0.996400 0.081700 -0.023200
vn -0.999200 0.012400 -0.037200
vn -0.999200 -0.018500 -0.036800
vn -0.998500 -0.017200 0.051800
vn -0.980700 -0.188200 0.053900
vn -0.998600 0.052000 0.000000
vn -0.966700 -0.020300 -0.255300
vn -0.962100 -0.022500 -0.271800
vn -1.000000 0.000000 -0.001100
vn -0.991700 0.126800 0.022000
vn -1.000000 0.000000 0.000600
vn -0.988000 0.012700 0.153600
vn -0.962900 0.027500 0.268300
vn -0.991700 -0.126800 -0.022000
vn -0.998700 0.022600 0.045400
vn -0.998800 0.017900 0.045500
vn -0.999100 0.015400 0.038400
vn -0.995900 0.082100 0.039200
vn -0.997800 -0.066300 -0.007100
vn -0.996000 -0.089900 0.000000
vn -0.983800 0.022100 -0.177700
vn -0.947400 -0.010900 -0.319900
vn -0.980900 0.138200 0.136900
vn -0.999800 -0.018800 0.005000
vn -1.000000 0.000000 0.000100
vn -0.998700 0.049700 -0.009000
vn -0.218300 0.632300 -0.743400
vn 0.289500 -0.928100 -0.234200
vn -0.355500 0.317100 -0.879200
vn -0.259600 0.718800 0.644900
vn -0.152000 0.026400 0.988000
vn 0.533100 -0.756200 0.379300
vn 0.650800 -0.700400 0.293200
vn 0.319900 0.070200 -0.944900
vn 0.586900 0.018000 -0.809500
vn -0.908700 -0.045900 -0.414800
vn -0.984600 0.017900 -0.173900
vn -0.670200 -0.193900 0.716400
vn 0.400800 0.178200 0.898700
vn 0.766600 0.108100 0.632900
vn -0.461500 -0.820600 -0.337200
vn 0.096200 0.658000 -0.746800
vn 0.149900 0.391300 -0.908000
vn -0.182500 -0.975600 0.121800
vn 0.216800 0.380100 0.899200
vn 0.191500 0.544800 0.816400
vn -0.046400 0.539800 -0.840500
vn -0.110100 0.313700 -0.943100
vn 0.030400 -0.987400 -0.155400
vn 0.043300 0.395400 0.917500
vn -0.325500 0.737200 0.592200
vn -0.929100 0.365100 0.059100
vn 0.223200 -0.283300 -0.932700
vn 0.652500 -0.223300 0.724100
vn -0.749800 0.403900 0.524000
vn 0.325300 -0.255500 0.910500
vn -0.821900 -0.182800 -0.539600
vn -0.319700 -0.229800 -0.919200
vn 0.820900 0.544000 0.173600
vn -0.008600 0.245900 -0.969200
vn 0.576000 0.720000 0.387000
vn 0.335100 0.624700 0.705300
vn -0.337200 -0.414400 0.845300
vn -0.238200 -0.919400 0.313100

s off
f 1//1 4//1 2//1
f 4//2 1//2 3//2
f 5//3 9//3 6//3
f 9//4 5//4 7//4
f 8//5 6//5 9//5
f 7//6 8//6 9//6
f 11//7 10//7 12//7
f 14//8 12//8 10//8
f 12//9 14//9 13//9
f 13//10 11//10 12//10
f 18//11 16//11 17//11
f 16//12 18//12 15//12
f 18//13 17//13 19//13
f 19//14 15//14 18//14
f 24//15 21//15 20//15
f 24//16 23//16 21//16
f 23//17 24//17 22//17
f 20//18 22//18 24//18
f 25//19 29//19 26//19
f 29//20 25//20 27//20
f 28//21 26//21 29//21
f 27//22 28//22 29//22
f 30//23 31//23 32//23
f 31//24 33//24 32//24
f 34//25 32//25 33//25
f 32//26 34//26 30//26
f 34//27 33//27 35//27
f 35//28 30//28 34//28
f 39//29 37//29 36//29
f 37//30 39//30 38//30
f 39//31 36//31 40//31
f 40//32 38//32 39//32
f 41//33 42//33 43//33
f 42//33 41//33 44//33
f 45//34 42//34 46//34
f 42//34 45//34 43//34
f 47//35 45//35 46//35
f 45//35 47//35 48//35
f 41//36 47//36 44//36
f 47//36 41//36 48//36
f 7//37 2//37 8//37
f 2//38 7//38 1//38
f 49//39 50//39 59//39
f 51//40 50//40 49//40
f 28//41 49//41 21//41
f 28//42 52//42 49//42
f 28//43 51//43 52//43
f 51//44 27//44 50//44
f 27//45 51//45 28//45
f 28//46 46//46 26//46
f 46//47 25//47 26//47
f 8//48 27//48 25//48
f 27//49 8//49 20//49
f 8//50 25//50 6//50
f 46//51 6//51 25//51
f 42//52 6//52 46//52
f 42//53 7//53 5//53
f 7//54 42//54 1//54
f 44//55 1//55 42//55
f 6//56 42//56 5//56
f 46//57 28//57 47//57
f 21//58 47//58 28//58
f 23//59 47//59 21//59
f 22//60 47//60 23//60
f 2//61 20//61 8//61
f 20//62 2//62 22//62
f 4//63 22//63 2//63
f 4//64 47//64 22//64
f 44//65 4//65 3//65
f 4//66 44//66 47//66
f 1//67 44//67 3//67
f 59//68 21//68 49//68
f 53//69 21//69 59//69
f 20//70 50//70 27//70
f 50//71 20//71 53//71
f 53//72 20//72 21//72
f 13//73 17//73 11//73
f 17//74 13//74 19//74
f 54//75 55//75 73//75
f 54//76 56//76 55//76
f 57//77 56//77 54//77
f 31//78 73//78 36//78
f 31//79 57//79 73//79
f 57//80 30//80 56//80
f 30//81 57//81 31//81
f 31//82 48//82 33//82
f 48//83 35//83 33//83
f 11//84 30//84 35//84
f 30//85 11//85 40//85
f 11//86 35//86 10//86
f 48//87 10//87 35//87
f 41//88 10//88 48//88
f 41//89 13//89 14//89
f 13//90 41//90 19//90
f 43//91 19//91 41//91
f 10//92 41//92 14//92
f 48//93 31//93 45//93
f 36//94 45//94 31//94
f 37//95 45//95 36//95
f 38//96 45//96 37//96
f 17//97 40//97 11//97
f 40//98 17//98 38//98
f 16//99 38//99 17//99
f 16//100 45//100 38//100
f 43//101 16//101 15//101
f 16//102 43//102 45//102
f 19//103 43//103 15//103
f 55//104 36//104 73//104
f 58//105 36//105 55//105
f 40//106 56//106 30//106
f 56//107 40//107 58//107
f 58//108 40//108 36//108
f 60//109 59//109 50//109
f 59//110 60//110 53//110
f 60//111 50//111 61//111
f 61//112 50//112 62//112
f 53//113 62//113 50//113
f 53//114 60//114 62//114
f 60//115 63//115 62//115
f 60//116 64//116 63//116
f 66//117 64//117 60//117
f 66//118 60//118 61//118
f 66//119 61//119 65//119
f 65//120 61//120 62//120
f 64//121 65//121 62//121
f 63//122 64//122 62//122
f 51//123 66//123 65//123
f 66//124 49//124 64//124
f 49//125 52//125 64//125
f 49//126 66//126 51//126
f 64//127 51//127 65//127
f 52//128 51//128 64//128
f 55//129 67//129 58//129
f 69//130 67//130 55//130
f 55//131 56//131 68//131
f 58//132 68//132 56//132
f 67//133 68//133 58//133
f 69//134 70//134 67//134
f 71//135 69//135 55//135
f 71//136 55//136 68//136
f 67//137 70//137 68//137
f 71//138 68//138 70//138
f 69//139 72//139 70//139
f 69//140 73//140 72//140
f 73//141 69//141 71//141
f 73//142 71//142 54//142
f 71//143 57//143 54//143
f 57//144 71//144 70//144
f 72//145 57//145 70//145
f 72//146 73//146 57//146
