# Blender v2.75 (sub 0) OBJ File: ''
 
#
# object BuildingMaterial
#
 
v 0.381678 2.750000 -0.298408
v 0.500000 2.750000 -0.299999
v 0.348112 2.750000 -0.233780
v 0.500000 2.750000 0.299999
v 0.289641 2.750000 -0.219805
v 0.232809 2.750000 -0.251180
v -0.274706 2.750000 -0.222153
v -0.229032 2.750000 -0.261242
v -0.219999 2.750000 -0.299999
v 0.219999 2.750000 -0.299999
v -0.500000 2.750000 0.299999
v -0.334634 2.750001 -0.226932
v -0.500000 2.750000 -0.299999
v -0.372383 2.750000 -0.263117
v -0.379999 2.750000 -0.299999
v 0.900833 2.006486 0.299999
v 0.900673 2.007957 -0.299999
v 0.500000 0.500000 -0.299999
v 0.500000 0.500000 0.299999
v -0.900673 2.007957 0.299999
v -0.900833 2.006485 -0.299999
v 0.384287 0.500000 -0.305348
v 0.217362 0.500000 -0.301474
v 0.336880 0.500000 -0.372384
v 0.261958 0.500000 -0.374656
v -0.217169 0.500000 -0.309235
v -0.274332 0.500000 -0.378987
v -0.362494 0.500000 -0.356985
v -0.500000 0.500000 0.299999
v -0.379999 0.500000 -0.299999
v -0.500000 0.500000 -0.299999
v 0.529013 1.718899 0.299999
v 0.567826 1.719515 0.299999
v 0.529603 1.518761 0.300039
v 0.532165 1.680489 0.299999
v 0.532164 1.480489 0.299999
v 0.570992 1.681104 0.299999
v 0.567828 1.519508 0.299999
v 0.572622 1.482653 0.300128
v 0.550680 1.486766 0.360830
v 0.569489 1.534333 0.353689
v 0.550430 1.534000 0.333992
v 0.528953 1.528173 0.351598
v 0.525268 1.519694 0.374434
v 0.537934 1.482700 0.338797
v 0.565933 1.515582 0.387430
v 0.574770 1.529424 0.381454
v 0.543086 1.565885 0.368084
v 0.538978 1.544901 0.412533
v 0.572781 1.567003 0.410710
v 0.568658 1.586954 0.381184
v 0.528958 1.587367 0.385354
v 0.524982 1.623719 0.407560
v 0.550000 1.600000 0.427306
v 0.542356 1.611260 0.375621
v 0.557576 1.657832 0.412234
v 0.572726 1.649235 0.401121
v 0.566887 1.637154 0.370789
v 0.534869 1.656213 0.408357
v 0.533292 1.640235 0.367908
v 0.562667 1.711166 0.356199
v 0.576030 1.684689 0.347367
v 0.553788 1.666551 0.333922
v 0.529242 1.676327 0.339017
v 0.525740 1.698907 0.347681
v 0.538822 1.710475 0.357013
v -0.217653 3.000000 -0.303348
v -0.336880 3.000001 -0.372384
v -0.289641 3.000000 -0.219805
v -0.242555 3.000001 -0.242555
v -0.261958 3.000000 -0.374656
v -0.384054 3.000000 -0.309370
v -0.348112 3.000000 -0.233780
v 0.377280 3.000000 -0.271366
v 0.220648 3.000000 -0.322259
v 0.274332 3.000000 -0.378987
v 0.274706 3.000000 -0.222153
v 0.362494 3.000000 -0.356986
v 0.334633 3.000000 -0.226932
v 0.229032 2.999999 -0.261242
vn -0.000000 1.000000 0.000000
vn 0.966500 -0.256800 -0.000900
vn 0.966400 -0.257100 0.000000
vn -0.880200 0.474500 -0.000900
vn -0.879900 0.475100 0.000000
vn 0.879900 0.475100 0.000000
vn 0.880200 0.474500 0.000900
vn 0.000000 -1.000000 0.000000
vn -0.000000 0.000000 1.000000
vn 0.000000 0.000200 1.000000
vn 0.002500 0.000200 1.000000
vn -0.000000 0.000300 1.000000
vn -0.000400 -0.001100 1.000000
vn 0.001100 -0.000000 1.000000
vn -0.004300 0.002900 1.000000
vn -0.003200 0.000100 1.000000
vn 0.000700 -0.000200 1.000000
vn 0.000000 0.000700 -1.000000
vn 0.017900 0.004100 -0.999800
vn -0.013400 -0.007300 -0.999900
vn 0.046200 -0.012300 -0.998900
vn 0.001300 0.003100 -1.000000
vn 0.000000 0.000000 -1.000000
vn -0.966400 -0.257100 0.000000
vn -0.966500 -0.256800 0.000900
vn 0.122500 -0.986200 0.111100
vn 0.989500 0.128500 -0.066100
vn 0.257200 0.929400 -0.264600
vn -0.018300 0.916300 -0.400000
vn -0.385700 0.906800 -0.170400
vn -0.996100 -0.066600 -0.057200
vn -0.878500 -0.451400 0.156400
vn 0.053200 -0.997400 0.048900
vn 0.702400 -0.646600 0.297700
vn 0.862100 -0.448800 0.235300
vn 0.966500 0.210500 -0.146600
vn -0.964100 0.258900 -0.059400
vn -0.597000 -0.653200 0.465900
vn -0.034300 -0.668000 0.743400
vn 0.524300 0.675400 -0.518700
vn -0.626700 0.497200 -0.600000
vn -0.497600 -0.630200 0.596000
vn 0.323900 -0.425700 0.844900
vn 0.822000 -0.322100 0.469600
vn 0.980300 0.103400 -0.168200
vn 0.071300 0.462800 -0.883600
vn -0.294900 0.473400 -0.830000
vn -0.988700 0.043000 -0.143600
vn -0.306700 0.471500 -0.826800
vn -0.900900 -0.133900 0.412800
vn 0.243600 -0.296300 0.923500
vn 0.992200 0.105100 -0.067500
vn 0.343000 0.159300 -0.925700
vn -0.701100 0.105900 -0.705200
vn -0.657800 -0.069500 0.750000
vn 0.665700 0.086900 0.741100
vn 0.629900 0.117600 0.767700
vn 0.991000 0.007300 -0.133400
vn 0.020400 -0.202000 -0.979200
vn -0.152300 -0.298400 -0.942200
vn -0.979800 0.014600 -0.199300
vn -0.528100 0.140200 0.837500
vn -0.180700 0.270100 0.945700
vn 0.997700 0.008500 0.066900
vn 0.235600 -0.465600 -0.853000
vn 0.061200 -0.238800 -0.969100
vn 0.678500 0.500300 0.537900
vn 0.890200 0.353300 0.287700
vn 0.695300 -0.420800 -0.582600
vn -0.018900 -0.785000 -0.619200
vn -0.385100 -0.602700 -0.698900
vn -0.869000 -0.365000 -0.334200
vn -0.906900 0.268000 0.325000
vn -0.749800 0.482800 0.452500
vn 0.002500 0.724200 0.689600
vn -0.169900 0.683800 0.709600
vn -0.985400 -0.099900 -0.137900
vn -0.015700 0.989200 0.145500
vn 0.901900 0.407400 0.143300
vn 0.990400 0.081600 -0.111500
vn 0.635300 -0.772200 -0.009100
vn 0.014600 -0.921600 -0.388000
vn -0.389600 -0.912300 -0.126500
vn -0.987500 -0.109500 -0.113700
vn -0.993200 -0.081500 -0.083100
vn -0.729800 0.646900 0.221100
vn -0.023500 0.988400 0.150100
vn 0.854500 -0.001100 0.519500
vn -0.030300 0.001900 -0.999500
vn -0.242100 -0.003500 -0.970200
vn 0.435000 0.017500 0.900300
vn 0.773400 -0.002700 -0.633900
vn 0.849400 0.001400 -0.527800
vn -0.955900 0.000000 -0.293600
vn -0.991000 -0.011100 0.133200
vn -0.979300 -0.008300 0.202200
vn -0.800500 0.004500 -0.599300
vn 0.973900 -0.006100 0.227000
vn 0.650100 -0.021600 0.759600
vn 0.925200 0.021700 0.379000
vn -0.232400 0.014100 0.972500
vn -0.079500 -0.014100 0.996700
vn -0.691900 -0.017500 0.721800
vn -0.902500 0.037300 0.429100
vn 0.984800 0.035700 -0.170100
vn 0.952900 0.002000 -0.303400
vn -0.999900 0.001200 -0.015900
vn 0.242100 0.003500 -0.970200
vn 0.030300 -0.001900 -0.999500
vn -0.726300 0.002400 -0.687300
vn -0.853900 -0.003200 -0.520400
vn 0.079500 0.014100 0.996700
vn 0.232400 -0.014100 0.972500
vn 0.886900 -0.034200 0.460600
vn -0.650100 0.020800 0.759600
vn -0.967000 0.025100 0.253700
vn -0.990600 -0.009500 0.136100
vn 0.816500 -0.004800 -0.577400
vn -0.483200 -0.020600 0.875300
vn 0.721300 0.019900 0.692300

s off
f 3//1 2//1 1//1
f 2//1 3//1 4//1
f 5//1 4//1 3//1
f 6//1 4//1 5//1
f 9//1 6//1 10//1
f 8//1 6//1 9//1
f 6//1 8//1 7//1
f 6//1 7//1 4//1
f 11//1 7//1 12//1
f 13//1 14//1 15//1
f 13//1 12//1 14//1
f 11//1 12//1 13//1
f 7//1 11//1 4//1
f 16//2 18//2 17//2
f 18//3 16//3 19//3
f 20//4 13//4 21//4
f 13//5 20//5 11//5
f 4//6 17//6 2//6
f 17//7 4//7 16//7
f 19//8 22//8 18//8
f 23//8 22//8 19//8
f 22//8 23//8 24//8
f 24//8 23//8 25//8
f 19//8 26//8 23//8
f 26//8 28//8 27//8
f 29//8 26//8 19//8
f 26//8 30//8 28//8
f 26//8 29//8 30//8
f 30//8 29//8 31//8
f 32//9 11//9 20//9
f 11//9 32//9 4//9
f 4//9 32//9 16//9
f 33//9 16//9 32//9
f 34//10 32//10 20//10
f 32//11 34//11 35//11
f 35//12 34//12 37//12
f 20//13 36//13 34//13
f 29//9 36//9 20//9
f 19//9 36//9 29//9
f 37//9 16//9 33//9
f 38//14 37//14 34//14
f 37//9 38//9 16//9
f 39//15 16//15 38//15
f 36//16 19//16 39//16
f 39//17 19//17 16//17
f 23//18 9//18 10//18
f 9//19 23//19 26//19
f 17//20 1//20 2//20
f 22//21 17//21 18//21
f 17//22 22//22 1//22
f 15//23 21//23 13//23
f 30//23 21//23 15//23
f 21//23 30//23 31//23
f 29//24 21//24 31//24
f 21//25 29//25 20//25
f 39//26 40//26 45//26
f 39//27 38//27 41//27
f 41//28 38//28 42//28
f 38//29 34//29 42//29
f 42//30 34//30 43//30
f 36//31 44//31 34//31
f 36//32 45//32 44//32
f 39//33 45//33 36//33
f 39//34 46//34 40//34
f 39//35 47//35 46//35
f 47//36 39//36 41//36
f 43//37 34//37 44//37
f 45//38 40//38 44//38
f 40//39 46//39 49//39
f 41//40 42//40 48//40
f 48//41 42//41 43//41
f 40//42 49//42 44//42
f 46//43 50//43 49//43
f 47//44 50//44 46//44
f 47//45 41//45 51//45
f 51//46 41//46 48//46
f 48//47 43//47 52//47
f 43//48 44//48 53//48
f 52//49 43//49 53//49
f 44//50 49//50 53//50
f 50//51 54//51 49//51
f 50//52 47//52 51//52
f 51//53 48//53 55//53
f 55//54 48//54 52//54
f 49//55 54//55 53//55
f 50//56 57//56 54//56
f 57//57 56//57 54//57
f 58//58 50//58 51//58
f 58//59 51//59 55//59
f 55//60 52//60 60//60
f 60//61 52//61 53//61
f 54//62 59//62 53//62
f 56//63 59//63 54//63
f 50//64 62//64 57//64
f 62//65 50//65 58//65
f 60//66 58//66 55//66
f 57//67 61//67 56//67
f 62//68 61//68 57//68
f 62//69 58//69 63//69
f 63//70 58//70 60//70
f 63//71 60//71 64//71
f 64//72 60//72 53//72
f 59//73 65//73 53//73
f 66//74 65//74 59//74
f 66//75 56//75 61//75
f 56//76 66//76 59//76
f 65//77 64//77 53//77
f 33//78 32//78 61//78
f 62//79 33//79 61//79
f 37//80 33//80 62//80
f 37//81 62//81 63//81
f 37//82 63//82 35//82
f 35//83 63//83 64//83
f 32//84 64//84 65//84
f 35//85 64//85 32//85
f 66//86 32//86 65//86
f 61//87 32//87 66//87
f 67//88 9//88 26//88
f 27//89 68//89 71//89
f 68//90 27//90 28//90
f 7//91 70//91 69//91
f 27//92 71//92 26//92
f 67//93 26//93 71//93
f 15//94 28//94 30//94
f 28//95 15//95 72//95
f 71//1 70//1 67//1
f 71//1 69//1 70//1
f 68//1 69//1 71//1
f 68//1 73//1 69//1
f 72//1 73//1 68//1
f 14//96 72//96 15//96
f 68//97 28//97 72//97
f 9//98 67//98 8//98
f 8//99 70//99 7//99
f 70//100 8//100 67//100
f 12//101 69//101 73//101
f 69//102 12//102 7//102
f 73//103 14//103 12//103
f 72//104 14//104 73//104
f 1//105 78//105 74//105
f 78//106 1//106 22//106
f 23//107 10//107 75//107
f 24//108 76//108 78//108
f 76//109 24//109 25//109
f 76//110 25//110 75//110
f 23//111 75//111 25//111
f 78//1 79//1 74//1
f 76//1 79//1 78//1
f 76//1 77//1 79//1
f 75//1 77//1 76//1
f 75//1 80//1 77//1
f 5//112 79//112 77//112
f 79//113 5//113 3//113
f 1//114 74//114 3//114
f 80//115 6//115 77//115
f 6//116 75//116 10//116
f 75//117 6//117 80//117
f 24//118 78//118 22//118
f 77//119 6//119 5//119
f 3//120 74//120 79//120
