# 3ds Max Wavefront OBJ Exporter v0.97b - (c)2007 guruware
# File Created: 29.10.2016 21:45:07

#
# object BAR
#

v  -0.7500 0.0000 -0.0000
v  0.7500 0.0000 -0.0000
v  0.6500 0.5000 -0.1000
v  -0.6500 0.5000 -0.1000
v  -0.7500 0.0000 -0.7500
v  -0.6500 0.5000 -0.6500
v  0.7500 0.0000 -0.7500
v  0.6500 0.5000 -0.6500
v  -0.7500 0.5000 0.3750
v  0.7500 0.5000 0.3750
v  0.6500 1.0000 0.2750
v  -0.6500 1.0000 0.2750
v  -0.7500 0.5000 -0.3750
v  -0.6500 1.0000 -0.2750
v  0.7500 0.5000 -0.3750
v  0.6500 1.0000 -0.2750
v  -0.7500 0.0000 0.7500
v  0.7500 0.0000 0.7500
v  0.6500 0.5000 0.6500
v  -0.6500 0.5000 0.6500
v  -0.6500 0.5000 0.1000
v  0.6500 0.5000 0.1000
# 22 vertices

vn 0.0000 0.1961 0.9806
vn -0.9631 0.2693 -0.0000
vn 0.0000 0.1961 -0.9806
vn 0.9631 0.2693 -0.0000
vn 0.0000 1.0000 -0.0000
vn 0.0000 -1.0000 -0.0000
# 6 vertex normals

vt -0.7500 0.3750 0.0000
vt 0.7500 0.3750 0.0000
vt 0.6500 0.2750 0.5000
vt -0.6500 0.2750 0.5000
vt -0.7500 -0.3750 0.0000
vt -0.6500 -0.2750 0.5000
vt 0.7500 -0.3750 0.0000
vt 0.6500 -0.2750 0.5000
# 8 texture coords

g BAR
s 2
f 1/1/1 2/2/1 3/3/1 
f 3/3/1 4/4/1 1/1/1 
s 4
f 5/5/2 1/1/2 4/4/2 
f 4/4/2 6/6/2 5/5/2 
s 8
f 7/7/3 5/5/3 6/6/3 
f 6/6/3 8/8/3 7/7/3 
s 17
f 2/2/4 7/7/4 8/8/4 
f 8/8/4 3/3/4 2/2/4 
s 1024
f 3/3/5 8/8/5 6/6/5 
f 6/6/5 4/4/5 3/3/5 
f 5/5/6 7/7/6 2/2/6 
f 2/2/6 1/1/6 5/5/6 
s 2
f 9/1/1 10/2/1 11/3/1 
f 11/3/1 12/4/1 9/1/1 
s 4
f 13/5/2 9/1/2 12/4/2 
f 12/4/2 14/6/2 13/5/2 
s 8
f 15/7/3 13/5/3 14/6/3 
f 14/6/3 16/8/3 15/7/3 
s 17
f 10/2/4 15/7/4 16/8/4 
f 16/8/4 11/3/4 10/2/4 
s 1024
f 11/3/5 16/8/5 14/6/5 
f 14/6/5 12/4/5 11/3/5 
f 13/5/6 15/7/6 10/2/6 
f 10/2/6 9/1/6 13/5/6 
s 2
f 17/1/1 18/2/1 19/3/1 
f 19/3/1 20/4/1 17/1/1 
s 4
f 1/5/2 17/1/2 20/4/2 
f 20/4/2 21/6/2 1/5/2 
s 8
f 2/7/3 1/5/3 21/6/3 
f 21/6/3 22/8/3 2/7/3 
s 17
f 18/2/4 2/7/4 22/8/4 
f 22/8/4 19/3/4 18/2/4 
s 1024
f 19/3/5 22/8/5 21/6/5 
f 21/6/5 20/4/5 19/3/5 
f 1/5/6 2/7/6 18/2/6 
f 18/2/6 17/1/6 1/5/6 
# 36 faces

