# 3ds Max Wavefront OBJ Exporter v0.97b - (c)2007 guruware
# File Created: 29.10.2016 21:42:54

#
# object BLOCKS
#

v  -0.5149 0.0000 -0.8825
v  0.4851 0.0000 -0.8825
v  0.4851 0.0000 0.8675
v  -0.5149 0.0000 0.8675
v  -0.5149 1.0000 -0.8825
v  -0.5149 1.0000 0.8675
v  0.4851 1.0000 0.8675
v  0.4851 1.0000 -0.8825
# 8 vertices

vn 0.0000 -1.0000 -0.0000
vn 0.0000 1.0000 -0.0000
vn 0.0000 0.0000 -1.0000
vn 1.0000 0.0000 -0.0000
vn 0.0000 0.0000 1.0000
vn -1.0000 0.0000 -0.0000
# 6 vertex normals

vt 1.0000 0.0000 0.0000
vt 0.0000 0.0000 0.0000
vt 0.0000 1.0000 0.0000
vt 1.0000 1.0000 0.0000
# 4 texture coords

g BLOCKS
s 2
f 1/1/1 2/2/1 3/3/1 
f 3/3/1 4/4/1 1/1/1 
s 4
f 5/2/2 6/3/2 7/4/2 
f 7/4/2 8/1/2 5/2/2 
s 8
f 1/2/3 5/3/3 8/4/3 
f 8/4/3 2/1/3 1/2/3 
s 16
f 2/2/4 8/3/4 7/4/4 
f 7/4/4 3/1/4 2/2/4 
s 32
f 3/2/5 7/3/5 6/4/5 
f 6/4/5 4/1/5 3/2/5 
s 64
f 4/2/6 6/3/6 5/4/6 
f 5/4/6 1/1/6 4/2/6 
# 12 faces

