# 3ds Max Wavefront OBJ Exporter v0.97b - (c)2007 guruware
# File Created: 01.11.2016 00:10:10

#
# object CABINET
#

v  0.7000 0.8000 0.8235
v  -0.7000 0.8000 0.8235
v  -0.7000 -0.0000 0.8235
v  0.7000 -0.0000 0.8235
v  0.7000 0.8000 -0.9765
v  0.7000 -0.0000 -0.9765
v  -0.7000 -0.0000 -0.9765
v  -0.7000 0.8000 -0.9765
v  0.7000 0.8000 0.9835
v  -0.7000 0.8000 0.9835
v  -0.7000 -0.0000 0.9835
v  0.7000 -0.0000 0.9835
# 12 vertices

vn 0.0000 0.0000 1.0000
vn 0.0000 0.0000 -1.0000
vn 0.0000 1.0000 -0.0000
vn -1.0000 0.0000 -0.0000
vn 0.0000 -1.0000 -0.0000
vn 1.0000 0.0000 -0.0000
# 6 vertex normals

vt 0.9345 0.2184 0.0000
vt 0.5847 0.2184 0.0000
vt 0.5847 0.4183 0.0000
vt 0.9345 0.4183 0.0000
vt 0.9345 0.2019 0.0000
vt 0.9345 0.0020 0.0000
vt 0.5847 0.0020 0.0000
vt 0.5847 0.2019 0.0000
vt 0.0020 0.5082 0.0000
vt 0.0020 0.9980 0.0000
vt 0.3518 0.9980 0.0000
vt 0.3518 0.5082 0.0000
vt 0.3683 0.0020 0.0000
vt 0.3683 0.4918 0.0000
vt 0.5682 0.4918 0.0000
vt 0.5682 0.0020 0.0000
vt 0.0020 0.0020 0.0000
vt 0.0020 0.4918 0.0000
vt 0.3518 0.4918 0.0000
vt 0.3518 0.0020 0.0000
vt 0.3683 0.5082 0.0000
vt 0.3683 0.9980 0.0000
vt 0.5682 0.9980 0.0000
vt 0.5682 0.5082 0.0000
# 24 texture coords

g CABINET
s 1
f 1/1/1 2/2/1 3/3/1 
f 3/3/1 4/4/1 1/1/1 
f 5/5/2 6/6/2 7/7/2 
f 7/7/2 8/8/2 5/5/2 
s 2
f 9/9/3 5/10/3 8/11/3 
f 8/11/3 10/12/3 9/9/3 
s 4
f 10/13/4 8/14/4 7/15/4 
f 7/15/4 11/16/4 10/13/4 
s 2
f 11/17/5 7/18/5 6/19/5 
f 6/19/5 12/20/5 11/17/5 
s 4
f 12/21/6 6/22/6 5/23/6 
f 5/23/6 9/24/6 12/21/6 
# 12 faces

