# 3ds Max Wavefront OBJ Exporter v0.97b - (c)2007 guruware
# File Created: 29.10.2016 22:54:16

#
# object CHAIR
#

v  -0.2992 0.0323 0.2570
v  -0.0557 0.4537 0.2600
v  -0.1306 0.4818 0.2591
v  -0.2243 0.0042 0.2579
v  -0.2932 0.0323 -0.2229
v  -0.2183 0.0042 -0.2220
v  -0.1247 0.4818 -0.2209
v  -0.0498 0.4537 -0.2199
v  0.1219 0.0042 -0.0978
v  0.2032 0.2290 0.1432
v  0.1190 0.0042 0.1422
v  0.2062 0.2290 -0.0967
v  -0.1777 0.1166 -0.1015
v  -0.0964 0.3413 0.1395
v  -0.0934 0.3413 -0.1005
v  -0.1806 0.1166 0.1385
# 16 vertices

vn -0.0124 -0.0000 0.9999
vn -0.0124 0.0000 0.9999
vn -0.3511 -0.9363 -0.0044
vn 0.0124 -0.0000 -0.9999
vn 0.3511 0.9363 0.0044
vn 0.9363 -0.3511 0.0116
vn -0.9363 0.3511 -0.0116
# 7 vertex normals

vt 0.6500 0.6250 0.6500
vt 0.3500 0.5750 0.6500
vt 0.3500 0.6250 0.6500
vt 0.6500 0.5750 0.6500
vt 0.6500 0.6250 0.3500
vt 0.3500 0.5750 0.3500
vt 0.3500 0.6250 0.3500
vt 0.6500 0.5750 0.3500
vt 0.6500 0.3500 0.5750
vt 0.3500 0.6500 0.5750
vt 0.6500 0.6500 0.5750
vt 0.3500 0.3500 0.5750
vt 0.6500 0.6500 0.6250
vt 0.3500 0.3500 0.6250
vt 0.3500 0.6500 0.6250
vt 0.6500 0.3500 0.6250
vt 0.5750 0.4250 0.3750
vt 0.4250 0.5750 0.3750
vt 0.5750 0.5750 0.3750
vt 0.4250 0.4250 0.3750
vt 0.4250 0.4250 0.5750
vt 0.5750 0.5750 0.5750
vt 0.5750 0.4250 0.5750
vt 0.4250 0.5750 0.5750
vt 0.4250 0.3750 0.4250
vt 0.5750 0.5750 0.4250
vt 0.5750 0.3750 0.4250
vt 0.4250 0.5750 0.4250
vt 0.4250 0.3750 0.5750
vt 0.5750 0.3750 0.5750
# 30 texture coords

g CHAIR
s 1
f 1/1/1 2/2/2 3/3/2 
f 2/2/2 1/1/1 4/4/1 
s 2
f 5/5/3 4/6/3 1/7/3 
f 4/6/3 5/5/3 6/8/3 
s 1
f 7/5/4 6/6/4 5/7/4 
f 6/6/4 7/5/4 8/8/4 
s 2
f 3/1/5 8/2/5 7/3/5 
f 8/2/5 3/1/5 2/4/5 
s 4
f 6/9/6 2/10/6 4/11/6 
f 2/10/6 6/9/6 8/12/6 
f 3/13/7 5/14/7 1/15/7 
f 5/14/7 3/13/7 7/16/7 
s 1
f 9/17/6 10/18/6 11/19/6 
f 10/18/6 9/17/6 12/20/6 
f 13/21/7 14/22/7 15/23/7 
f 14/22/7 13/21/7 16/24/7 
s 2
f 9/25/4 15/26/4 12/27/4 
f 15/26/4 9/25/4 13/28/4 
s 4
f 12/29/5 14/22/5 10/30/5 
f 14/22/5 12/29/5 15/24/5 
s 2
f 10/29/2 16/22/2 11/30/1 
f 16/22/2 10/29/2 14/24/2 
s 4
f 11/25/3 13/26/3 9/27/3 
f 13/26/3 11/25/3 16/28/3 
# 24 faces

