# 3ds Max Wavefront OBJ Exporter v0.97b - (c)2007 guruware
# File Created: 29.10.2016 21:25:59

#
# object SMALLGEM
#

v  -0.2682 0.4182 -0.4384
v  -0.2784 0.4068 -0.4337
v  -0.3645 0.5332 -0.3125
v  -0.3543 0.5446 -0.3171
v  -0.1415 0.2814 -0.4958
v  -0.1517 0.2700 -0.4912
v  0.0064 0.1551 -0.4811
v  -0.0038 0.1437 -0.4764
v  0.1530 0.0584 -0.3961
v  0.1427 0.0470 -0.3915
v  0.2761 0.0060 -0.2541
v  0.2658 -0.0054 -0.2495
v  0.3567 0.0061 -0.0764
v  0.3465 -0.0054 -0.0718
v  0.3828 0.0584 0.1097
v  0.3726 0.0470 0.1143
v  0.3503 0.1551 0.2759
v  0.3401 0.1437 0.2805
v  -0.0905 0.1028 0.2379
v  0.2540 0.2700 0.4018
v  -0.2017 0.2094 0.2552
v  0.1273 0.4068 0.4592
v  -0.0206 0.5332 0.4444
v  -0.1672 0.6298 0.3595
v  -0.3110 0.2698 0.1632
v  -0.2903 0.6823 0.2175
v  -0.3543 0.2486 0.0158
v  -0.3970 0.6299 -0.1463
v  -0.3062 0.1582 -0.1007
v  -0.0423 0.0123 0.1214
v  -0.1949 0.0515 -0.1181
v  -0.3098 0.0060 0.1192
v  -0.0857 -0.0089 -0.0260
v  -0.3709 0.6822 0.0398
v  -0.0796 0.5143 -0.3553
v  0.1089 0.3336 -0.3846
v  0.2941 0.2312 -0.2287
v  0.2642 0.2814 0.3971
v  0.1375 0.4182 0.4546
v  -0.0104 0.5446 0.4398
v  -0.1570 0.6413 0.3549
v  -0.2801 0.6937 0.2129
v  -0.3607 0.6936 0.0352
v  -0.3868 0.6413 -0.1509
v  -0.1611 0.6675 -0.1579
v  0.0656 0.4704 -0.3287
v  0.2173 0.3555 -0.2774
v  0.3675 0.2672 0.0211
v  0.3222 0.3286 -0.1127
v  0.2860 0.4204 0.2184
v  0.0974 0.6011 0.2478
v  -0.0877 0.7035 0.0919
v  -0.0440 0.6059 -0.2367
v  0.3189 0.4054 0.0688
v  0.2093 0.5409 0.1607
v  0.0576 0.6558 0.1094
v  -0.0473 0.6827 -0.0553
# 57 vertices

vn -0.8315 0.0000 -0.5556
vn -0.5556 0.0000 -0.8315
vn -0.1951 0.0000 -0.9808
vn 0.1951 0.0000 -0.9808
vn 0.5556 0.0000 -0.8315
vn 0.8315 0.0000 -0.5556
vn 0.9808 0.0000 -0.1951
vn 0.9808 0.0000 0.1951
vn 0.6246 -0.7287 0.2809
vn 0.6448 -0.7162 0.2671
vn 0.5879 -0.7071 0.3928
vn 0.2431 -0.7287 0.6402
vn 0.2671 -0.7162 0.6448
vn 0.1379 -0.7071 0.6935
vn -0.2671 -0.7162 0.6448
vn -0.2431 -0.7287 0.6402
vn -0.1379 -0.7071 0.6935
vn -0.2809 -0.7287 0.6246
vn -0.3928 -0.7071 0.5879
vn -0.6448 -0.7162 -0.2671
vn -0.6402 -0.7287 -0.2432
vn -0.6935 -0.7071 -0.1380
vn -0.2671 -0.7162 -0.6448
vn -0.2809 -0.7287 -0.6246
vn -0.3928 -0.7071 -0.5879
vn -0.6246 -0.7287 -0.2807
vn -0.5879 -0.7071 -0.3928
vn 0.6402 -0.7287 -0.2431
vn 0.6448 -0.7162 -0.2671
vn 0.6935 -0.7071 -0.1379
vn -0.2431 -0.7287 -0.6402
vn -0.1379 -0.7071 -0.6935
vn -0.2610 -0.7314 -0.6301
vn 0.2671 -0.7162 -0.6448
vn 0.2431 -0.7287 -0.6402
vn 0.1379 -0.7071 -0.6935
vn 0.2809 -0.7287 -0.6246
vn 0.3928 -0.7071 -0.5879
vn 0.2610 -0.7314 -0.6301
vn 0.6246 -0.7287 -0.2809
vn 0.5879 -0.7071 -0.3928
vn 0.6402 -0.7287 0.2431
vn 0.6935 -0.7071 0.1379
vn 0.6301 -0.7314 -0.2610
vn 0.2809 -0.7287 0.6246
vn 0.3928 -0.7071 0.5879
vn 0.6301 -0.7314 0.2610
vn -0.6448 -0.7162 0.2671
vn -0.6246 -0.7287 0.2809
vn -0.5879 -0.7071 0.3928
vn 0.2610 -0.7314 0.6301
vn -0.6402 -0.7287 0.2431
vn -0.6935 -0.7071 0.1379
vn -0.2610 -0.7314 0.6301
vn -0.6301 -0.7314 -0.2610
vn -0.6301 -0.7314 0.2610
vn -0.6524 0.7081 -0.2702
vn -0.6169 0.7255 -0.3051
vn -0.6081 0.6820 -0.4063
vn -0.2702 0.7081 -0.6524
vn -0.2207 0.7255 -0.6519
vn -0.1427 0.6820 -0.7173
vn 0.2207 0.7255 -0.6519
vn 0.2702 0.7081 -0.6524
vn 0.1427 0.6820 -0.7173
vn 0.3049 0.7255 -0.6170
vn 0.4063 0.6820 -0.6081
vn 0.8315 0.0000 0.5556
vn 0.5556 0.0000 0.8315
vn 0.1951 0.0000 0.9808
vn -0.1951 0.0000 0.9808
vn -0.5556 0.0000 0.8315
vn -0.8315 0.0000 0.5556
vn -0.9808 0.0000 0.1951
vn -0.9808 0.0000 -0.1951
vn -0.6524 0.7081 0.2702
vn -0.6519 0.7255 0.2207
vn -0.7173 0.6820 0.1427
vn -0.6519 0.7255 -0.2205
vn -0.7173 0.6820 -0.1427
vn -0.3049 0.7255 -0.6170
vn -0.4063 0.6820 -0.6081
vn -0.2562 0.7429 -0.6185
vn 0.6170 0.7255 -0.3049
vn 0.6524 0.7081 -0.2702
vn 0.6081 0.6820 -0.4063
vn 0.2562 0.7429 -0.6185
vn 0.6519 0.7255 0.2207
vn 0.6524 0.7081 0.2702
vn 0.7173 0.6820 0.1427
vn 0.6519 0.7255 -0.2207
vn 0.7173 0.6820 -0.1427
vn 0.6185 0.7429 -0.2562
vn 0.6170 0.7255 0.3049
vn 0.6081 0.6820 0.4063
vn 0.3049 0.7255 0.6170
vn 0.2702 0.7081 0.6524
vn 0.4063 0.6820 0.6081
vn 0.2207 0.7255 0.6519
vn 0.1427 0.6820 0.7173
vn -0.2702 0.7081 0.6524
vn -0.3049 0.7255 0.6170
vn -0.4063 0.6820 0.6081
vn -0.2207 0.7255 0.6519
vn -0.1427 0.6820 0.7173
vn -0.6170 0.7255 0.3049
vn -0.6081 0.6820 0.4063
vn -0.6182 0.7431 -0.2561
vn 0.0000 0.8909 -0.4541
vn -0.3211 0.8910 -0.3211
vn 0.3211 0.8909 -0.3211
vn 0.6185 0.7429 0.2562
vn 0.4541 0.8909 -0.0000
vn 0.2562 0.7429 0.6185
vn -0.2562 0.7429 0.6185
vn -0.6185 0.7429 0.2562
vn -0.4541 0.8909 -0.0000
vn -0.3211 0.8909 0.3211
vn 0.0000 0.8909 0.4541
vn 0.3211 0.8909 0.3211
vn 0.0000 1.0000 -0.0000
# 121 vertex normals

vt 1.0000 1.0000 1.0000
vt 1.0000 0.0000 1.0000
vt 0.0000 0.0000 0.0000
vt 0.0000 1.0000 0.0000
vt 1.0000 1.0000 0.0000
vt 0.0000 0.0000 1.0000
vt 0.0000 1.0000 1.0000
vt 1.0000 0.0000 0.0000
vt 1.0000 0.7716 1.0000
vt 0.6598 0.0000 1.0000
vt 0.0000 1.0000 0.1280
vt 0.0000 0.1280 1.0000
vt 0.7716 0.0000 1.0000
vt 0.0000 0.3402 1.0000
vt 0.1280 1.0000 1.0000
vt 0.7716 1.0000 1.0000
vt 0.0000 0.6598 1.0000
vt 0.0000 0.2284 1.0000
vt 0.3402 1.0000 1.0000
vt 0.0000 1.0000 0.8720
vt 0.2509 0.3103 0.3746
vt 1.0000 0.4388 0.3746
vt 1.0000 1.0000 0.8720
vt 0.2284 1.0000 1.0000
vt 1.0000 0.6598 1.0000
vt 0.0000 0.4388 0.3746
vt 0.7491 0.3103 0.3746
vt 1.0000 0.2284 1.0000
vt 0.6598 1.0000 1.0000
vt 0.3103 0.7491 0.3746
vt 0.4388 0.0000 0.3746
vt 0.2284 0.0000 1.0000
vt 1.0000 0.3402 1.0000
vt 0.4388 1.0000 0.3746
vt 0.3103 0.2509 0.3746
vt 0.0000 0.7716 1.0000
vt 0.3402 0.0000 1.0000
vt 0.7491 0.6897 0.3746
vt -0.0000 0.5612 0.3746
vt 0.1280 0.0000 1.0000
vt 1.0000 0.5612 0.3746
vt 0.2509 0.6897 0.3746
vt 0.5612 0.0000 0.3746
vt 0.6897 0.7491 0.3746
vt 0.6897 0.2509 0.3746
vt 0.5612 1.0000 0.3746
vt 0.3171 1.0000 1.0000
vt 1.0000 0.0000 0.4946
vt 1.0000 0.7570 0.0000
vt 0.0000 0.7570 0.0000
vt 0.3171 1.0000 0.0000
vt 1.0000 0.0000 0.5054
vt -0.0000 0.0000 0.0000
vt -0.0000 1.0000 0.0000
vt 0.0000 0.0000 0.2430
vt 0.7570 1.0000 0.0000
vt 0.6829 1.0000 0.0000
vt 0.0000 0.0000 0.5054
vt 0.7881 1.0000 0.0000
vt 1.0000 0.0216 0.7541
vt 0.4059 0.0000 1.0000
vt 0.0000 0.4706 0.7541
vt 0.2119 1.0000 0.0000
vt 1.0000 0.4706 0.7541
vt 0.5940 0.0000 1.0000
vt -0.0000 0.0217 0.7541
vt 0.2430 0.0000 0.0000
vt 0.2430 1.0000 0.0000
vt 0.0000 0.7881 0.0000
vt 0.9784 1.0000 0.7541
vt 1.0000 0.4059 1.0000
vt 0.5294 0.0000 0.7541
vt 0.6829 1.0000 1.0000
vt -0.0000 0.0000 0.4946
vt 0.0000 0.2430 0.0000
vt 1.0000 0.2430 0.0000
vt 0.0000 0.0000 0.4946
vt 0.0216 1.0000 0.7541
vt 1.0000 0.7881 0.0000
vt 0.4706 0.0000 0.7541
vt 0.0000 0.4059 1.0000
vt 0.4999 0.0000 1.0000
vt 0.0000 1.0000 0.0002
vt 0.9665 0.0000 1.0000
vt 0.0000 0.9665 1.0000
vt 1.0000 0.9663 1.0000
vt 0.0335 0.0000 1.0000
vt -0.0000 0.2119 0.0000
vt 0.5294 1.0000 0.7541
vt 1.0000 0.5940 1.0000
vt 0.9783 0.0000 0.7541
vt -0.0000 1.0000 0.0002
vt 0.2119 0.0000 0.0000
vt -0.0000 0.9784 0.7541
vt 0.5941 1.0000 1.0000
vt 1.0000 0.5294 0.7541
vt 0.7881 0.0000 0.0000
vt -0.0000 0.5294 0.7541
vt 0.4060 1.0000 1.0000
vt 1.0000 0.9783 0.7541
vt 1.0000 0.2119 0.0000
vt 0.0216 0.0000 0.7541
vt 0.0000 0.5941 1.0000
vt 0.4706 1.0000 0.7541
vt 0.5000 0.0000 0.0000
vt 0.0000 0.0337 1.0000
vt 0.9665 1.0000 1.0000
vt 0.4999 0.0000 0.0000
vt 0.0000 1.0000 0.9998
vt 0.0337 1.0000 1.0000
vt 1.0000 0.0335 1.0000
vt 0.5858 0.0001 0.0000
vt 0.2929 0.0000 0.0000
vt 0.0000 0.9997 0.0000
vt 1.0000 0.0002 0.0000
vt 0.7071 1.0000 0.0000
vt 0.4142 0.9999 0.0000
# 117 texture coords

g SMALLGEM
s 1
f 1/1/1 2/2/1 3/3/1 
f 1/1/1 3/3/1 4/4/1 
f 5/1/2 6/2/2 2/3/2 
f 5/1/2 2/3/2 1/4/2 
f 7/1/3 8/2/3 6/3/3 
f 7/1/3 6/3/3 5/4/3 
f 9/1/4 10/2/4 8/3/4 
f 9/1/4 8/3/4 7/4/4 
f 11/1/5 12/2/5 10/3/5 
f 11/1/5 10/3/5 9/4/5 
f 13/5/6 14/2/6 12/6/6 
f 13/5/6 12/6/6 11/7/6 
f 15/1/7 16/2/7 14/3/7 
f 15/1/7 14/3/7 13/4/7 
f 17/5/8 18/8/8 16/6/8 
f 17/5/8 16/6/8 15/7/8 
f 19/4/9 18/9/10 20/10/11 
f 21/2/12 22/11/13 23/5/14 
f 24/12/15 21/5/16 23/2/17 
f 25/5/18 24/13/15 26/14/19 
f 3/15/20 27/8/21 28/6/22 
f 6/16/23 29/8/24 2/17/25 
f 29/8/26 3/18/20 2/19/27 
f 30/8/28 14/20/29 16/1/30 
f 31/8/31 6/20/23 8/1/32 
f 32/8/33 29/21/24 6/7/23 
f 32/8/33 6/7/23 31/22/31 
f 10/23/34 31/3/35 8/7/36 
f 33/3/37 10/24/34 12/25/38 
f 32/3/39 31/26/35 10/1/34 
f 32/3/39 10/1/34 33/27/37 
f 14/28/29 33/3/40 12/29/41 
f 18/23/10 30/3/42 16/7/43 
f 32/3/44 33/30/40 14/1/29 
f 32/3/44 14/1/29 30/31/28 
f 22/32/13 19/4/45 20/33/46 
f 32/4/47 30/34/42 18/2/10 
f 32/4/47 18/2/10 19/35/9 
f 34/36/48 25/5/49 26/37/50 
f 32/4/51 19/38/45 22/2/13 
f 32/4/51 22/2/13 21/39/12 
f 27/5/52 34/40/48 28/7/53 
f 32/5/54 21/41/16 24/6/15 
f 32/5/54 24/6/15 25/42/18 
f 27/43/21 3/7/20 29/44/26 
f 27/43/21 29/44/26 32/8/55 
f 32/5/56 25/45/49 34/6/48 
f 32/5/56 34/6/48 27/46/52 
f 4/3/57 35/47/58 1/48/59 
f 5/49/60 36/6/61 7/4/62 
f 36/2/63 9/50/64 7/5/65 
f 9/6/64 37/51/66 11/52/67 
f 38/5/68 20/8/68 18/6/68 
f 38/5/68 18/6/68 17/7/68 
f 39/5/69 22/8/69 20/6/69 
f 39/5/69 20/6/69 38/7/69 
f 40/5/70 23/8/70 22/6/70 
f 40/5/70 22/6/70 39/7/70 
f 41/1/71 24/2/71 23/3/71 
f 41/1/71 23/3/71 40/4/71 
f 42/5/72 26/8/72 24/6/72 
f 42/5/72 24/6/72 41/7/72 
f 43/1/73 34/8/73 26/53/73 
f 43/1/73 26/53/73 42/54/73 
f 44/5/74 28/8/74 34/6/74 
f 44/5/74 34/6/74 43/7/74 
f 4/1/75 3/2/75 28/3/75 
f 4/1/75 28/3/75 44/4/75 
f 43/55/76 45/1/77 44/8/78 
f 45/6/79 4/56/57 44/8/80 
f 35/57/81 5/2/60 1/58/82 
f 5/59/60 35/60/81 46/61/83 
f 5/59/60 46/61/83 36/62/61 
f 37/57/84 13/2/85 11/58/86 
f 9/63/64 36/64/63 47/65/87 
f 9/63/64 47/65/87 37/66/66 
f 48/1/88 17/67/89 15/4/90 
f 13/68/85 48/2/91 15/3/92 
f 13/69/85 37/70/84 49/71/93 
f 13/69/85 49/71/93 48/72/91 
f 17/6/89 50/51/94 38/52/95 
f 50/73/96 39/8/97 38/74/98 
f 39/75/97 51/1/99 40/8/100 
f 41/53/101 52/47/102 42/48/103 
f 51/7/104 41/76/101 40/3/105 
f 52/73/106 43/8/76 42/77/107 
f 35/78/58 4/79/57 45/80/79 
f 35/78/58 45/80/79 53/81/108 
f 36/82/109 46/83/109 47/5/109 
f 35/5/110 53/84/110 46/85/110 
f 37/4/111 47/86/111 49/87/111 
f 17/88/89 48/89/88 54/90/112 
f 17/88/89 54/90/112 50/91/94 
f 48/82/113 49/92/113 54/5/113 
f 39/93/97 50/94/96 55/95/114 
f 39/93/97 55/95/114 51/96/99 
f 41/97/101 51/98/104 56/99/115 
f 41/97/101 56/99/115 52/100/102 
f 43/101/76 52/102/106 57/103/116 
f 43/101/76 57/103/116 45/104/77 
f 45/105/117 57/7/117 53/1/117 
f 52/8/118 56/106/118 57/107/118 
f 51/108/119 55/109/119 56/1/119 
f 50/3/120 54/110/120 55/111/120 
f 55/3/121 57/5/121 56/112/121 
f 55/113/121 54/114/121 57/5/121 
f 54/3/121 53/5/121 57/115/121 
f 54/3/121 49/4/121 53/5/121 
f 49/3/121 46/116/121 53/8/121 
f 49/3/121 47/117/121 46/5/121 
# 110 faces

