# 3ds Max Wavefront OBJ Exporter v0.97b - (c)2007 guruware
# File Created: 10.02.2015 10:38:33

#
# object base
#

v  1.0000 0.0000 -1.0000
v  1.0000 0.0000 1.0000
v  -1.0000 0.0000 1.0000
v  -1.0000 0.0000 -1.0000
v  -1.0000 3.5000 -1.0000
v  0.0000 2.0000 -1.0000
v  1.0000 3.5000 -1.0000
v  1.0000 2.0000 -0.0000
v  1.0000 0.5000 1.0000
v  0.0000 2.0000 1.0000
v  -1.0000 3.5000 1.0000
v  -1.0000 2.0000 -0.0000
v  0.0000 0.5000 -0.0000
# 13 vertices

vn 0.0000 -1.0000 -0.0000
vn 0.0000 0.0000 -1.0000
vn 1.0000 0.0000 -0.0000
vn 0.0000 0.0000 1.0000
vn -1.0000 0.0000 -0.0000
vn -0.6396 0.4264 0.6396
vn 0.6396 0.4264 -0.6396
vn 0.6396 0.4264 0.6396
# 8 vertex normals

vt 0.0005 0.0005 0.0005
vt 0.0005 0.9995 0.0005
vt 0.9995 0.9995 0.0005
vt 0.9995 0.0005 0.0005
vt 0.5000 0.5714 0.0005
vt 0.9995 0.0005 0.9995
vt 0.0005 0.0005 0.9995
vt 0.0005 0.9995 0.9995
vt 0.5000 0.5714 0.9995
vt 0.9995 0.1432 0.9995
vt 0.0005 0.1432 0.9995
vt 0.9995 0.9995 0.9995
vt 0.5000 0.1432 0.5000
vt 0.0005 0.5714 0.5000
# 14 texture coords

g StaticMaterial
f 1/1/1 2/2/1 3/3/1 
f 3/3/1 4/4/1 1/1/1 
f 1/4/2 4/1/2 5/2/2 
f 1/4/2 5/2/2 6/5/2 
f 1/4/2 6/5/2 7/3/2 
f 2/6/3 1/7/3 7/8/3 
f 2/6/3 7/8/3 8/9/3 
f 2/6/3 8/9/3 9/10/3 
f 3/6/4 2/7/4 9/11/4 
f 3/6/4 9/11/4 10/9/4 
f 3/6/4 10/9/4 11/12/4 
f 4/4/5 3/1/5 11/2/5 
f 4/4/5 11/2/5 12/5/5 
f 4/4/5 12/5/5 5/3/5 
f 7/2/6 13/13/6 8/14/6 
f 10/9/7 13/13/7 11/8/7 
f 12/5/8 13/13/8 5/2/8 
f 5/2/8 13/13/8 6/14/8 
f 8/14/6 13/13/6 9/11/6 
f 13/13/7 12/14/7 11/8/7 
f 6/5/6 13/13/6 7/2/6 
f 13/13/7 10/9/7 9/10/7 
# 22 faces

