# 3ds Max Wavefront OBJ Exporter v0.97b - (c)2007 guruware
# File Created: 10.02.2015 09:10:51

#
# object base
#

v  1.0000 0.0000 -1.0000
v  1.0000 0.0000 1.0000
v  -1.0000 0.0000 1.0000
v  -1.0000 0.0000 -1.0000
v  -1.0000 0.5000 -1.0000
v  1.0000 0.5000 -1.0000
v  1.0000 3.5000 1.0000
v  -1.0000 0.5000 1.0000
v  0.0000 0.5000 -0.0000
# 9 vertices

vn 0.0000 -1.0000 -0.0000
vn 0.0000 0.0000 -1.0000
vn 1.0000 0.0000 -0.0000
vn 0.0000 0.0000 1.0000
vn -1.0000 0.0000 -0.0000
vn -0.6396 0.4264 -0.6396
vn 0.0000 1.0000 -0.0000
# 7 vertex normals

vt 0.0005 0.0005 0.0005
vt 0.0005 0.9995 0.0005
vt 0.9995 0.9995 0.0005
vt 0.9995 0.0005 0.0005
vt 0.0005 0.1432 0.0005
vt 0.9995 0.1432 0.0005
vt 0.0005 0.1432 0.9995
vt 0.9995 0.9995 0.9995
vt 0.9995 0.0005 0.9995
vt 0.0005 0.0005 0.9995
vt 0.0005 0.9995 0.9995
vt 0.9995 0.1432 0.9995
vt 0.5000 0.1432 0.5000
vt 0.0005 0.9995 0.1432
vt 0.5000 0.5000 0.1432
vt 0.0005 0.0005 0.1432
vt 0.9995 0.0005 0.1432
# 17 texture coords

g StaticMaterial
f 1/1/1 2/2/1 3/3/1 
f 3/3/1 4/4/1 1/1/1 
f 5/5/2 6/6/2 1/4/2 
f 1/4/2 4/1/2 5/5/2 
f 6/7/3 7/8/3 2/9/3 
f 2/9/3 1/10/3 6/7/3 
f 7/11/4 8/12/4 3/9/4 
f 3/9/4 2/10/4 7/11/4 
f 8/5/5 5/6/5 4/4/5 
f 4/4/5 3/1/5 8/5/5 
f 6/12/6 9/13/6 7/11/6 
f 7/11/6 9/13/6 8/5/6 
f 8/14/7 9/15/7 5/16/7 
f 5/16/7 9/15/7 6/17/7 
# 14 faces

