# 3ds Max Wavefront OBJ Exporter v0.97b - (c)2007 guruware
# File Created: 10.02.2015 09:08:56

#
# object base
#

v  1.0000 0.0000 -1.0000
v  1.0000 0.0000 1.0000
v  -1.0000 0.0000 1.0000
v  -1.0000 0.0000 -1.0000
v  -1.0000 3.5000 -1.0000
v  1.0000 0.5000 -1.0000
v  1.0000 0.5000 1.0000
v  -1.0000 0.5000 1.0000
v  0.0000 2.0000 -0.0000
# 9 vertices

vn 0.0000 -1.0000 -0.0000
vn 0.0000 0.0000 -1.0000
vn 1.0000 0.0000 -0.0000
vn 0.0000 0.0000 1.0000
vn -1.0000 0.0000 -0.0000
vn 0.8321 0.5547 -0.0000
vn 0.0000 0.5547 0.8321
vn -0.0000 0.5547 0.8321
# 8 vertex normals

vt 0.0005 0.0005 0.0005
vt 0.0005 0.9995 0.0005
vt 0.9995 0.9995 0.0005
vt 0.9995 0.0005 0.0005
vt 0.9995 0.1432 0.0005
vt 0.0005 0.1432 0.9995
vt 0.9995 0.1432 0.9995
vt 0.9995 0.0005 0.9995
vt 0.0005 0.0005 0.9995
vt 0.0005 0.1432 0.0005
vt 0.5000 0.5714 0.5000
# 11 texture coords

g StaticMaterial
f 1/1/1 2/2/1 3/3/1 
f 3/3/1 4/4/1 1/1/1 
f 5/2/2 6/5/2 1/4/2 
f 1/4/2 4/1/2 5/2/2 
f 6/6/3 7/7/3 2/8/3 
f 2/8/3 1/9/3 6/6/3 
f 7/6/4 8/7/4 3/8/4 
f 3/8/4 2/9/4 7/6/4 
f 8/10/5 5/3/5 4/4/5 
f 4/4/5 3/1/5 8/10/5 
f 6/6/6 9/11/6 7/7/6 
f 7/6/7 9/11/7 8/7/7 
f 8/7/8 9/11/8 5/3/8 
f 5/2/6 9/11/6 6/6/6 
# 14 faces

