# 3ds Max Wavefront OBJ Exporter v0.97b - (c)2007 guruware
# File Created: 01.06.2017 22:29:10

#
# object StaticMaterial
#

v  1.0000 0.0000 -1.0000
v  1.0000 0.0000 1.0000
v  -1.0000 0.0000 1.0000
v  -1.0000 0.0000 -1.0000
v  -1.0000 3.5000 -1.0000
v  0.0000 3.5000 -1.0000
v  1.0000 3.5000 -1.0000
v  1.0000 2.0000 -0.0000
v  1.0000 3.5000 1.0000
v  0.0000 3.5000 1.0000
v  -1.0000 3.5000 1.0000
v  -1.0000 2.0000 -0.0000
v  0.0000 2.0000 -0.0000
# 13 vertices

vn 0.0000 -1.0000 -0.0000
vn 0.0000 0.0000 -1.0000
vn 1.0000 0.0000 -0.0000
vn 0.0000 0.0000 1.0000
vn -1.0000 0.0000 -0.0000
vn 0.0000 0.5547 0.8321
vn 0.0000 0.5547 -0.8321
# 7 vertex normals

vt 1.0000 0.0000 0.0000
vt 1.0000 1.0000 0.0000
vt -0.0000 1.0000 0.0000
vt 0.0000 -0.0000 0.0000
vt 0.0000 -0.0000 1.1667
vt 0.5000 0.0000 1.1667
vt 1.0000 0.0000 1.1667
vt 1.0000 0.5000 0.6667
vt 1.0000 1.0000 1.1667
vt 0.5000 1.0000 1.1667
vt -0.0000 1.0000 1.1667
vt 0.0000 0.5000 0.6667
vt 0.5000 0.5000 0.6667
# 13 texture coords

g StaticMaterial
s 1
f 1/1/1 2/2/1 3/3/1 
f 3/3/1 4/4/1 1/1/1 
f 1/1/2 4/4/2 5/5/2 
f 1/1/2 5/5/2 6/6/2 
f 1/1/2 6/6/2 7/7/2 
f 2/2/3 1/1/3 7/7/3 
f 2/2/3 7/7/3 8/8/3 
f 2/2/3 8/8/3 9/9/3 
f 3/3/4 2/2/4 9/9/4 
f 3/3/4 9/9/4 10/10/4 
f 3/3/4 10/10/4 11/11/4 
f 4/4/5 3/3/5 11/11/5 
f 4/4/5 11/11/5 12/12/5 
f 4/4/5 12/12/5 5/5/5 
f 7/7/6 13/13/6 8/8/6 
f 10/10/7 13/13/7 11/11/7 
f 12/12/6 13/13/6 5/5/6 
f 5/5/6 13/13/6 6/6/6 
f 8/8/7 13/13/7 9/9/7 
f 13/13/7 12/12/7 11/11/7 
f 6/6/6 13/13/6 7/7/6 
f 13/13/7 10/10/7 9/9/7 
# 22 faces

