<svg width="116" height="116" viewBox="0 0 116 116" xmlns="http://www.w3.org/2000/svg"><title>Slice 1</title><g fill="none" fill-rule="evenodd"><path d="M11.034 24.389A57.42 57.42 0 0 0 0 58.307a57.419 57.419 0 0 0 11.034 33.917s80.577-15.185 80.577-33.917-80.577-33.918-80.577-33.918" fill="#AFF4CB"/><path d="M68.165 26.058C50.35 20.27 11.013 92.195 11.013 92.195 21.501 106.617 38.497 116 57.693 116c6.224 0 12.212-.997 17.828-2.821 0 0 10.46-81.332-7.356-87.121" fill="#AF96F3"/><path d="M91.574 56.836c-.014-.32-.036-.639-.059-.958-.016-.218-.03-.436-.05-.653a32.798 32.798 0 0 0-.135-1.217c-.014-.114-.027-.228-.043-.341a34.176 34.176 0 0 0-.241-1.5l-.003-.017a34.092 34.092 0 0 0-7.641-15.954l-.065-.074a34.749 34.749 0 0 0-2.365-2.471 35.242 35.242 0 0 0-2.199-1.906 32.58 32.58 0 0 0-1.587-1.187 34.844 34.844 0 0 0-1.319-.883 33.999 33.999 0 0 0-15.727-5.188c-.159-.012-.316-.027-.476-.037-.313-.018-.624-.025-.937-.035-.276-.008-.551-.019-.829-.021-14.381-.094-27.79 9.034-32.471 23.441l-14.414 44.36c.007.01 46.68.029 46.68.029 14.862 0 27.482-9.562 32.067-22.867l.182-.56a33.989 33.989 0 0 0 1.431-6.531c.009-.078.022-.156.03-.235.042-.379.07-.757.1-1.135.016-.213.036-.424.048-.638.017-.286.023-.572.032-.858.01-.294.021-.588.023-.884.001-.269-.005-.536-.01-.803a36.4 36.4 0 0 0-.022-.877" fill="#617091"/><path d="M115.387 58.307V58.3s-74.12-35.082-85.131-19.927c-11.01 15.154 45.261 74.808 45.261 74.808 23.137-7.511 39.87-29.233 39.87-54.874" fill="#EDDC75"/><path d="M77.392 30.704c-.146-.104-.294-.202-.441-.304-.332-.228-.664-.457-1.005-.674-.072-.046-.145-.089-.217-.134a34.105 34.105 0 0 0-14.412-5.002 33.206 33.206 0 0 0-4.442-.183 30.669 30.669 0 0 0-1.583.075 32.955 32.955 0 0 0-1.611.154 33.85 33.85 0 0 0-4.118.751 33.88 33.88 0 0 0-1.51.41 39.42 39.42 0 0 0-1.484.477 33.729 33.729 0 0 0-1.464.546c-.412.165-.821.337-1.226.518l-.222.099c-.434.198-.864.404-1.29.619l-.147.075c-.437.224-.87.458-1.297.7l-.13.074a34.103 34.103 0 0 0-7.039 5.379l-.22.219a34.108 34.108 0 0 0-6.644 9.61c-.038.085-.08.167-.118.251-.152.337-.291.677-.431 1.016-.086.208-.175.413-.257.624-.1.258-.191.518-.285.778-.104.286-.208.571-.304.861-4.523 13.643.015 29.206 12.265 38.106 0 0 37.76 27.431 37.761 27.43l14.421-44.382c4.689-14.431-.82-29.725-12.55-38.093" fill="#806650"/><path d="M75.517 3.432S19.246 63.086 30.256 78.24c11.011 15.155 85.131-19.926 85.131-19.926v-.007c0-25.642-16.733-47.364-39.87-54.875" fill="#74CDF3"/><path d="M115.387 58.314V58.3L77.632 30.869c-12.212-8.873-28.354-8.407-39.925.036-.389.284-.768.577-1.141.874-.084.066-.168.13-.251.197-.307.249-.603.506-.899.764-.153.133-.308.262-.459.399-.187.169-.366.343-.549.515-.254.241-.51.48-.758.729-.062.063-.121.128-.183.191a34.204 34.204 0 0 0-5.094 6.686l-.04.069a33.65 33.65 0 0 0-2.035 4.152 34.03 34.03 0 0 0-1.043 2.933c-.128.42-.248.841-.36 1.265l-.068.264a34.59 34.59 0 0 0-.311 1.339l-.05.243c-.091.445-.173.892-.246 1.34l-.045.293c-.065.424-.122.848-.171 1.273-.016.137-.03.274-.044.411a33.766 33.766 0 0 0-.098 5.785c.026.381.059.763.098 1.144a34.11 34.11 0 0 0 .215 1.684l.045.293c.073.448.155.895.246 1.341l.05.242c.094.448.199.895.311 1.339l.068.264a34.412 34.412 0 0 0 2.022 5.62c.16.347.328.692.501 1.035.062.123.124.247.188.369.232.446.473.888.727 1.326l.04.069a34.204 34.204 0 0 0 5.094 6.686c.062.063.121.128.183.191.248.25.504.488.758.729.183.172.362.347.549.515.151.137.306.266.459.4.296.257.592.515.899.763.083.067.167.131.251.197.373.297.752.59 1.141.874 11.571 8.444 27.713 8.909 39.925.036l37.755-27.43" fill="#4E8953"/><path d="M68.165 90.555c17.816-5.789 7.356-87.121 7.356-87.121A57.635 57.635 0 0 0 57.693.613c-19.196 0-36.192 9.383-46.68 23.805 0 0 39.337 71.925 57.152 66.137z" fill="#DA0A6B"/><path d="M91.551 56.355c-.012-.214-.032-.425-.048-.637-.03-.379-.058-.757-.1-1.136-.008-.079-.021-.156-.03-.235a34.005 34.005 0 0 0-1.431-6.531l-.182-.56c-4.585-13.304-17.205-22.867-32.067-22.867 0 0-46.673.019-46.68.029l14.414 44.36c4.681 14.407 18.089 23.534 32.47 23.441.279-.002.556-.013.834-.021.31-.01.621-.017.932-.035.161-.009.32-.025.481-.037a33.98 33.98 0 0 0 8.021-1.571 33.976 33.976 0 0 0 7.773-3.663c.424-.27.839-.55 1.248-.837l.22-.156a33.617 33.617 0 0 0 2.33-1.825l.311-.27a33.633 33.633 0 0 0 2.308-2.226c.335-.356.663-.717.982-1.086l.065-.076a34.074 34.074 0 0 0 7.641-15.953l.003-.017a34.176 34.176 0 0 0 .419-3.058c.02-.216.034-.435.05-.653.023-.319.045-.637.059-.958a36.4 36.4 0 0 0 .022-.877c.005-.267.011-.534.01-.803-.002-.296-.013-.589-.023-.884-.009-.286-.015-.572-.032-.858" fill="#813455"/><path d="M37.76 30.864c-12.25 8.9-16.788 24.463-12.265 38.106.096.29.2.575.304.861.094.26.185.52.285.779.082.21.171.415.257.623.14.34.279.68.431 1.016.038.085.08.167.118.251a34.108 34.108 0 0 0 6.644 9.611l.22.219a34.574 34.574 0 0 0 2.049 1.88 35.263 35.263 0 0 0 2.442 1.879 33.945 33.945 0 0 0 2.548 1.619l.13.074c.427.243.86.476 1.297.7l.147.075a36.326 36.326 0 0 0 1.512.718 33.816 33.816 0 0 0 8.168 2.466 33.85 33.85 0 0 0 4.828.465 31.505 31.505 0 0 0 1.564.003 35.579 35.579 0 0 0 2.878-.185c.072-.008.145-.015.217-.024a34.031 34.031 0 0 0 6.631-1.445 33.965 33.965 0 0 0 7.564-3.534c.072-.045.145-.088.217-.134.341-.217.673-.445 1.005-.674.147-.102.295-.2.441-.304 11.73-8.368 17.239-23.662 12.55-38.093L75.517 3.432 37.76 30.864" fill="#782669"/><path d="M93.358 58.307c0 19.696-15.968 35.664-35.664 35.664-19.697 0-35.665-15.968-35.665-35.664 0-19.697 15.968-35.665 35.665-35.665 19.696 0 35.664 15.968 35.664 35.665" fill="#372565"/><path d="M72.969 37.904H52.602c-5.625 0-10.184 4.825-10.184 10.45 0 5.624 4.559 10.45 10.184 10.45H42.418c-5.625 0-10.184 4.329-10.184 9.953s4.559 9.953 10.184 9.953h20.367c5.625 0 10.184-4.329 10.184-9.953s-4.559-9.953-10.184-9.953h10.184c5.625 0 10.184-4.826 10.184-10.45 0-5.625-4.559-10.45-10.184-10.45" fill="#FFF"/></g></svg>