# Blender v2.75 (sub 0) OBJ File: ''
 
#
# object BuildingMaterial
#
 
v -0.750000 0.500000 0.750000
v -0.750000 0.625000 -0.750000
v -0.750000 0.500000 -0.750000
v -0.750000 0.625000 0.750000
v 0.750000 0.625000 -0.750000
v 0.625000 0.625000 -0.625000
v 0.750000 0.625000 0.750000
v -0.625000 0.625000 -0.625000
v -0.625000 0.625000 0.625000
v 0.625000 0.625000 0.625000
v 0.750000 0.500000 -0.750000
v 0.750000 0.500000 0.750000
v -0.625000 0.750000 -0.450000
v -0.625000 0.750000 -0.625000
v -0.625000 0.750000 -0.349999
v -0.625000 0.787499 -0.450000
v -0.625000 0.750000 0.349999
v -0.625000 0.750000 0.450000
v -0.625000 0.787499 0.349999
v -0.625000 0.750000 0.625000
v -0.625000 0.787499 -0.349999
v -0.625000 0.787499 0.450000
v 0.625000 0.750000 0.625000
v 0.625000 0.750000 0.450000
v 0.625000 0.750000 -0.450000
v 0.625000 0.750000 -0.625000
v 0.625000 0.750000 -0.349999
v 0.604147 0.750172 -0.118476
v 0.563798 0.750008 -0.114156
v 0.530689 0.750053 -0.096336
v 0.506310 0.751256 -0.071865
v 0.487194 0.750953 -0.025963
v 0.625000 0.750000 0.349999
v 0.602298 0.750101 0.118548
v 0.565703 0.751316 0.115313
v 0.530324 0.750385 0.096516
v 0.505081 0.750364 0.067971
v 0.490213 0.751032 0.035308
v 0.623953 0.750638 0.083068
v 0.585885 0.750327 -0.079391
v 0.546556 0.750111 0.061221
v 0.542938 0.750015 -0.057013
v 0.518054 0.750305 0.013698
v 0.625000 0.787499 0.349999
v 0.625000 0.787499 0.450000
v 0.625399 0.750979 0.112964
v 0.624778 0.748333 -0.078838
v 0.624989 0.735307 0.074680
v 0.625000 0.787499 -0.450000
v 0.625000 0.787499 -0.349999
v 0.625571 0.733766 -0.116512
v 0.625098 0.717645 -0.104772
v 0.625002 0.720093 -0.081443
v 0.625234 0.724471 0.112570
v 0.624929 0.715670 0.092746
v 0.625402 0.748857 -0.113954
v 0.482427 0.770893 0.000151
v 0.490010 0.772423 -0.036804
v 0.501871 0.784356 -0.011333
v 0.524205 0.777406 -0.041425
v 0.522619 0.768813 0.000520
v 0.525165 0.751327 -0.027473
v 0.511515 0.776653 -0.066603
v 0.545040 0.763448 -0.059183
v 0.532429 0.763406 -0.096669
v 0.541809 0.774979 -0.085028
v 0.563904 0.768471 -0.082131
v 0.568415 0.764297 -0.109730
v 0.625238 0.757404 -0.105627
v 0.633921 0.752978 -0.086667
v 0.669920 0.737506 -0.096446
v 0.646077 0.735707 -0.063912
v 0.646247 0.718068 -0.069402
v 0.679559 0.705153 -0.061364
v 0.663869 0.713578 -0.092283
v 0.696421 0.722005 -0.071618
v 0.701473 0.740625 -0.045632
v 0.672501 0.744185 -0.052477
v 0.669024 0.723551 -0.036760
v 0.675714 0.708104 -0.042513
v 0.712272 0.721878 -0.037106
v 0.681923 0.740433 -0.027400
v 0.704130 0.705019 -0.034402
v 0.719183 0.717166 0.000001
v 0.709094 0.739006 0.021654
v 0.692122 0.741222 0.015336
v 0.676446 0.726251 -0.000000
v 0.693632 0.701048 0.007904
v 0.711739 0.715346 0.037505
v 0.674315 0.730106 0.024298
v 0.673579 0.710437 0.040048
v 0.691345 0.704464 0.051723
v 0.696420 0.722005 0.071618
v 0.680314 0.745522 0.074096
v 0.666419 0.746684 0.065528
v 0.663367 0.732432 0.046368
v 0.655767 0.710536 0.086824
v 0.670053 0.727609 0.098574
v 0.647515 0.738699 0.064941
v 0.644497 0.717744 0.069874
v 0.636863 0.737663 0.114152
v 0.617605 0.758780 0.094076
v 0.592782 0.764059 0.107498
v 0.579400 0.762030 0.081283
v 0.542038 0.773635 0.092757
v 0.539626 0.773638 0.064087
v 0.544004 0.761387 0.056603
v 0.506773 0.768859 0.070438
v 0.508656 0.780535 0.051724
v 0.490110 0.772402 0.037119
v 0.526661 0.767955 0.025575
vn -1.000000 0.000000 0.000000
vn 0.000000 1.000000 0.000000
vn 1.000000 0.000000 0.000000
vn 0.000000 0.000000 -1.000000
vn 0.000000 -1.000000 0.000000
vn 0.000000 0.000000 1.000000
vn 0.060700 0.998100 0.004700
vn -0.004200 1.000000 -0.001100
vn 0.001600 1.000000 0.000400
vn 0.078200 0.996500 0.028900
vn -0.002500 1.000000 0.005600
vn 0.000000 1.000000 -0.004500
vn -0.037000 0.999300 0.004100
vn 0.033400 0.999400 -0.002800
vn -0.033800 0.999300 0.014100
vn -0.004400 1.000000 0.003200
vn -0.000900 1.000000 0.000000
vn -0.001300 1.000000 -0.001200
vn 0.004300 0.999800 0.018500
vn 0.000000 1.000000 0.001300
vn 0.051400 0.998600 -0.014000
vn -0.006700 1.000000 -0.000300
vn -0.007600 1.000000 -0.000600
vn 0.068800 0.997600 -0.002900
vn -0.026900 0.999400 0.020200
vn 0.997900 0.065200 0.004200
vn 0.999500 -0.032700 -0.004700
vn 1.000000 0.000700 -0.000300
vn 0.999600 0.028400 0.001100
vn 1.000000 0.008000 -0.000700
vn 1.000000 -0.002700 0.000400
vn 1.000000 -0.005600 0.000800
vn 1.000000 -0.006300 0.001700
vn 0.998800 -0.048600 0.006200
vn 1.000000 -0.000500 -0.000200
vn 1.000000 0.000800 0.000000
vn 0.999900 0.011500 -0.001600
vn -0.602600 0.792900 -0.090800
vn 0.516500 0.834800 0.190600
vn 0.996700 0.063900 0.050800
vn 0.978400 -0.123200 0.165900
vn -0.979400 0.027500 -0.199800
vn -0.797800 0.274700 -0.536700
vn -0.448000 0.871500 -0.199600
vn 0.158300 0.981300 -0.109100
vn 0.731700 0.342300 0.589400
vn 0.854800 -0.050400 0.516500
vn -0.920500 -0.073100 -0.383800
vn -0.726300 0.279000 -0.628200
vn -0.289500 0.785200 -0.547300
vn 0.028300 0.998600 -0.044200
vn 0.275100 0.959700 0.057600
vn 0.719900 0.251600 0.646900
vn -0.704700 0.074200 -0.705700
vn -0.324600 0.374000 -0.868800
vn -0.231700 0.776800 -0.585500
vn 0.489600 0.676200 0.550500
vn 0.460500 0.070900 0.884800
vn -0.473500 0.039800 -0.879900
vn -0.102000 0.324300 -0.940400
vn 0.137700 0.749300 -0.647700
vn 0.135000 0.954100 -0.267100
vn 0.224100 0.912800 0.341300
vn 0.232700 0.965300 0.118800
vn 0.127000 0.296700 0.946500
vn 0.191600 0.686800 -0.701100
vn 0.035400 0.840800 0.540200
vn 0.396000 0.157700 -0.904600
vn 0.417200 0.638300 -0.646900
vn 0.079200 0.814000 0.575500
vn -0.602700 -0.078100 0.794100
vn -0.494600 -0.262600 0.828500
vn -0.410100 -0.678500 0.609500
vn -0.296400 -0.950000 0.098500
vn -0.019800 -0.967100 -0.253500
vn 0.193600 -0.581300 -0.790300
vn 0.416300 -0.257000 -0.872100
vn 0.733100 0.477300 -0.484500
vn 0.439600 0.837500 -0.324400
vn 0.034600 0.976600 0.212100
vn 0.079700 0.981600 0.173300
vn -0.473800 0.560900 0.678900
vn -0.473000 0.582900 0.660700
vn -0.790100 -0.189100 0.583100
vn -0.670900 -0.495900 0.551400
vn -0.374900 -0.924500 0.068300
vn 0.480100 -0.753600 -0.449000
vn 0.565100 -0.278100 -0.776800
vn 0.862300 0.317100 -0.394900
vn 0.095000 0.989100 0.112300
vn -0.825300 0.423500 0.373500
vn -0.467900 -0.882700 0.042800
vn 0.076200 -0.994300 -0.074400
vn 0.483500 -0.754200 -0.444400
vn 0.810300 -0.451200 -0.373800
vn 0.881700 0.459800 -0.105800
vn 0.868900 0.487300 -0.086700
vn -0.022100 0.999700 -0.013200
vn 0.125900 0.992000 0.009600
vn -0.762700 0.623900 0.170500
vn -0.820600 0.557800 0.124700
vn -0.855200 -0.459600 0.239600
vn -0.837300 -0.506300 0.206300
vn 0.545200 -0.836400 0.056800
vn 0.864600 -0.452500 -0.218500
vn 0.949800 0.240300 0.200200
vn -0.583700 0.792400 -0.176900
vn -0.996100 -0.029000 -0.082800
vn -0.745900 -0.599600 -0.290200
vn 0.547300 -0.834200 0.068200
vn 0.518600 -0.849900 0.093300
vn 0.885300 0.323100 0.334500
vn 0.784600 0.498500 0.368600
vn 0.142100 0.989200 -0.034900
vn 0.118700 0.991200 -0.058000
vn -0.619800 0.686700 -0.379800
vn -0.631100 0.667200 -0.395800
vn -0.869500 -0.288500 -0.400900
vn -0.736000 -0.616900 -0.278900
vn -0.098100 -0.992500 0.072300
vn 0.635800 -0.652200 0.412800
vn 0.692700 0.412000 0.591900
vn -0.314900 0.784900 -0.533700
vn -0.766700 -0.040400 -0.640700
vn -0.725900 -0.143800 -0.672600
vn -0.374500 -0.916500 -0.140700
vn 0.401700 -0.735300 0.545800
vn 0.416600 -0.725500 0.547800
vn 0.487600 0.484600 0.726200
vn 0.508500 0.579300 0.637100
vn 0.279700 0.922600 0.265600
vn 0.164100 0.977400 -0.133500
vn -0.202900 0.727700 -0.655200
vn -0.244500 0.632900 -0.734600
vn -0.413000 0.415500 -0.810400
vn -0.371000 -0.161900 -0.914400
vn -0.619900 -0.530300 -0.578400
vn -0.207300 -0.942300 -0.262800
vn -0.073800 -0.911100 0.405600
vn 0.260300 -0.685600 0.679800
vn 0.300400 -0.370200 0.879000
vn 0.149200 0.674300 0.723200
vn 0.325700 0.913700 0.243000
vn -0.119200 -0.014000 0.992800
vn -0.050800 0.598400 0.799600
vn 0.131300 0.981000 -0.143000
vn 0.234600 0.841300 -0.487000
vn 0.198800 0.664600 -0.720300
vn -0.445600 0.357200 0.820900
vn -0.093300 0.657000 0.748100
vn 0.372100 0.891400 -0.258900
vn 0.189900 0.981700 -0.015900
vn 0.460100 0.576800 -0.674900
vn 0.562700 -0.201100 -0.801800
vn -0.529700 0.388700 0.753800
vn -0.396900 0.796100 0.456800
vn -0.748900 -0.019900 0.662300
vn -0.604600 0.701700 0.377000
vn 0.150500 0.987700 0.043700
vn 0.322700 0.946100 -0.027100
vn 0.817300 0.462600 -0.343400
vn 0.799100 0.494500 -0.342000
vn 0.857400 -0.016700 -0.514300
vn 0.862100 -0.084200 -0.499700
vn -0.893300 0.021800 0.449000
vn -0.909700 -0.039400 0.413300
vn -0.466700 0.878400 0.103400
vn -0.536300 0.840500 0.077200
vn 0.624700 0.777300 -0.074200
vn 0.925400 -0.342900 -0.161100
vn -0.955700 -0.290600 0.047500
vn -0.978700 -0.022000 0.204300

s off
f 1//1 2//1 3//1
f 2//1 1//1 4//1
f 5//2 6//2 7//2
f 5//2 8//2 6//2
f 8//2 2//2 9//2
f 2//2 8//2 5//2
f 10//2 7//2 6//2
f 9//2 7//2 10//2
f 9//2 4//2 7//2
f 4//2 9//2 2//2
f 7//3 11//3 5//3
f 11//3 7//3 12//3
f 11//4 2//4 5//4
f 2//4 11//4 3//4
f 1//5 11//5 12//5
f 11//5 1//5 3//5
f 1//6 7//6 4//6
f 7//6 1//6 12//6
f 8//1 13//1 14//1
f 13//1 15//1 16//1
f 8//1 15//1 13//1
f 8//1 17//1 15//1
f 17//1 18//1 19//1
f 9//1 17//1 8//1
f 17//1 9//1 18//1
f 18//1 9//1 20//1
f 16//1 15//1 21//1
f 19//1 18//1 22//1
f 18//2 23//2 24//2
f 23//2 18//2 20//2
f 14//2 25//2 26//2
f 25//2 14//2 13//2
f 27//7 28//7 56//7
f 27//8 29//8 28//8
f 27//9 30//9 29//9
f 27//10 31//10 30//10
f 31//11 15//11 32//11
f 15//12 31//12 27//12
f 34//13 33//13 46//13
f 35//14 33//14 34//14
f 36//15 33//15 35//15
f 37//16 33//16 36//16
f 17//17 32//17 15//17
f 32//18 17//18 38//18
f 38//19 17//19 37//19
f 37//20 17//20 33//20
f 40//21 39//21 47//21
f 39//22 40//22 41//22
f 40//23 42//23 41//23
f 42//24 62//24 41//24
f 43//25 41//25 62//25
f 44//3 45//3 33//3
f 47//26 39//26 48//26
f 49//3 50//3 25//3
f 25//3 6//3 26//3
f 27//3 25//3 50//3
f 25//3 27//3 6//3
f 52//27 27//27 51//27
f 27//28 52//28 6//28
f 55//29 52//29 53//29
f 48//30 53//30 47//30
f 55//31 53//31 48//31
f 52//32 55//32 6//32
f 33//33 54//33 46//33
f 33//34 55//34 54//34
f 10//35 55//35 33//35
f 24//3 33//3 45//3
f 10//3 33//3 24//3
f 10//3 24//3 23//3
f 55//36 10//36 6//36
f 27//37 56//37 51//37
f 6//4 14//4 26//4
f 14//4 6//4 8//4
f 9//6 23//6 20//6
f 23//6 9//6 10//6
f 16//2 50//2 49//2
f 50//2 16//2 21//2
f 25//4 16//4 49//4
f 16//4 25//4 13//4
f 15//6 50//6 21//6
f 50//6 15//6 27//6
f 19//2 45//2 44//2
f 45//2 19//2 22//2
f 18//6 45//6 22//6
f 45//6 18//6 24//6
f 33//4 19//4 44//4
f 19//4 33//4 17//4
f 59//38 58//38 57//38
f 61//39 60//39 59//39
f 62//40 60//40 61//40
f 62//41 61//41 43//41
f 58//42 32//42 57//42
f 63//43 31//43 58//43
f 59//44 63//44 58//44
f 60//45 63//45 59//45
f 62//46 64//46 60//46
f 42//47 64//47 62//47
f 58//48 31//48 32//48
f 63//49 65//49 31//49
f 66//50 65//50 63//50
f 60//51 66//51 63//51
f 67//52 66//52 60//52
f 64//53 67//53 60//53
f 65//54 30//54 31//54
f 68//55 29//55 65//55
f 66//56 68//56 65//56
f 64//57 40//57 67//57
f 40//58 64//58 42//58
f 65//59 29//59 30//59
f 29//60 68//60 28//60
f 69//61 28//61 68//61
f 66//62 69//62 68//62
f 67//63 70//63 66//63
f 70//64 69//64 66//64
f 40//65 70//65 67//65
f 56//66 28//66 69//66
f 47//67 70//67 40//67
f 56//68 71//68 51//68
f 71//69 56//69 69//69
f 72//70 70//70 47//70
f 53//71 72//71 47//71
f 72//72 53//72 73//72
f 53//73 74//73 73//73
f 53//74 52//74 74//74
f 75//75 74//75 52//75
f 51//76 75//76 52//76
f 71//77 75//77 51//77
f 77//78 76//78 71//78
f 77//79 71//79 69//79
f 78//80 69//80 70//80
f 78//81 77//81 69//81
f 78//82 70//82 72//82
f 79//83 78//83 72//83
f 73//84 79//84 72//84
f 80//85 79//85 73//85
f 74//86 80//86 73//86
f 76//87 74//87 75//87
f 71//88 76//88 75//88
f 77//89 81//89 76//89
f 82//90 77//90 78//90
f 82//91 78//91 79//91
f 74//92 88//92 80//92
f 83//93 88//93 74//93
f 76//94 83//94 74//94
f 81//95 83//95 76//95
f 84//96 81//96 77//96
f 85//97 84//97 77//97
f 86//98 77//98 82//98
f 85//99 77//99 86//99
f 86//100 82//100 87//100
f 87//101 82//101 79//101
f 80//102 88//102 79//102
f 88//103 87//103 79//103
f 84//104 88//104 83//104
f 81//105 84//105 83//105
f 89//106 84//106 85//106
f 86//107 87//107 90//107
f 87//108 91//108 90//108
f 87//109 88//109 91//109
f 88//110 84//110 89//110
f 88//111 89//111 92//111
f 89//112 85//112 93//112
f 93//113 85//113 94//113
f 85//114 86//114 95//114
f 94//115 85//115 95//115
f 86//116 90//116 96//116
f 95//117 86//117 96//117
f 90//118 91//118 96//118
f 88//119 97//119 91//119
f 88//120 92//120 97//120
f 92//121 89//121 93//121
f 98//122 93//122 94//122
f 95//123 96//123 99//123
f 99//124 96//124 100//124
f 96//125 91//125 100//125
f 91//126 97//126 100//126
f 92//127 93//127 98//127
f 92//128 98//128 97//128
f 98//129 46//129 101//129
f 98//130 94//130 46//130
f 46//131 94//131 102//131
f 94//132 95//132 102//132
f 102//133 95//133 39//133
f 95//134 99//134 39//134
f 39//135 99//135 48//135
f 48//136 99//136 100//136
f 48//137 100//137 55//137
f 100//138 97//138 55//138
f 97//139 54//139 55//139
f 97//140 98//140 54//140
f 98//141 101//141 54//141
f 46//142 103//142 34//142
f 46//143 102//143 103//143
f 54//144 101//144 46//144
f 34//145 103//145 35//145
f 103//146 102//146 104//146
f 102//147 39//147 104//147
f 104//148 39//148 41//148
f 35//149 105//149 36//149
f 35//150 103//150 105//150
f 103//151 104//151 106//151
f 103//152 106//152 105//152
f 104//153 107//153 106//153
f 107//154 104//154 41//154
f 36//155 105//155 108//155
f 105//156 109//156 108//156
f 36//157 108//157 37//157
f 108//158 109//158 110//158
f 109//159 105//159 59//159
f 105//160 106//160 59//160
f 106//161 111//161 59//161
f 106//162 107//162 111//162
f 107//163 41//163 43//163
f 111//164 107//164 43//164
f 37//165 108//165 110//165
f 37//166 110//166 38//166
f 110//167 109//167 59//167
f 110//168 59//168 57//168
f 111//169 61//169 59//169
f 61//170 111//170 43//170
f 32//171 38//171 57//171
f 38//172 110//172 57//172
