# Blender v2.75 (sub 0) OBJ File: ''
 
#
# object BuildingMaterial
#
 
v -0.537499 0.812500 -0.831249
v -0.531249 2.865625 -0.842187
v -0.538888 2.837500 0.000000
v -0.550108 1.838296 -0.134350
v -0.549073 1.801287 -0.176736
v -0.558457 1.611491 -0.166509
v -0.553331 1.669393 -0.163295
v -0.549759 1.791864 -0.128642
v -0.549003 1.626183 -0.123854
v -0.539188 0.812500 0.000000
v -0.529411 2.882500 0.848749
v -0.536363 0.812500 0.831249
v -0.555616 1.838854 0.168098
v -0.549706 1.621746 0.122091
v -0.554985 1.677695 0.157184
v -0.549656 1.640727 0.177521
v -0.550868 1.771427 0.154079
v -0.361711 0.700001 -0.619932
v -0.343982 0.500000 -0.608071
v -0.462696 0.700001 -0.867147
v -0.247413 0.500000 -0.758331
v -0.239802 0.700001 -0.707546
v -0.436414 0.500000 -0.811413
v -0.463066 0.700001 -0.755410
v 0.343982 0.700001 -0.608071
v 0.361711 0.700001 0.619932
v 0.247413 0.700001 -0.758330
v 0.317917 0.700001 0.823735
v 0.500000 0.700001 0.875000
v -0.436413 0.700001 0.811414
v -0.247413 0.700001 0.758330
v 0.239802 0.700001 0.707546
v -0.343982 0.700001 0.608071
v -0.500000 0.700001 0.875000
v 0.500000 0.700001 -0.875000
v 0.463066 0.700001 0.755410
v 0.436413 0.700001 -0.811414
v 0.361711 0.500000 -0.619932
v 0.239802 0.500000 -0.707546
v 0.463066 0.500000 -0.755410
v 0.317917 0.500000 -0.823735
v -0.317917 0.500000 0.823735
v -0.361711 0.500000 0.619932
v -0.239802 0.500000 0.707546
v -0.463066 0.500000 0.755410
v 0.436414 0.500000 0.811413
v 0.247413 0.500000 0.758331
v 0.343982 0.500000 0.608071
v -0.614590 1.714817 -0.123046
v -0.574090 1.730053 -0.150325
v -0.614899 1.716302 -0.176775
v -0.602520 1.807608 -0.154676
v -0.630715 1.701190 0.167953
v -0.591478 1.645908 0.124794
v -0.576648 1.750037 0.166158
v -0.562175 1.812442 0.124176
v 0.500000 2.950000 -0.875000
v 0.500000 2.950000 0.875000
vn -0.999900 0.012400 -0.008700
vn -0.999700 0.001000 -0.025200
vn -0.999800 0.002900 -0.022100
vn -0.995400 0.044600 -0.085000
vn -0.999500 0.031400 -0.008100
vn -0.939700 0.064600 0.335800
vn -0.999900 -0.012400 -0.002000
vn -0.916000 -0.270400 0.296200
vn -0.997400 0.001400 0.072600
vn -0.994200 -0.001400 0.107500
vn -0.998200 -0.002800 0.060700
vn -0.996500 0.000100 0.083000
vn -0.991400 0.037700 0.125400
vn -0.959800 -0.065700 0.272800
vn -0.983100 0.000100 -0.183200
vn -0.978100 0.036200 -0.204800
vn -0.934500 -0.064900 0.349900
vn -0.999800 0.018500 0.010200
vn -0.987100 -0.037100 -0.155800
vn -0.938400 0.052500 0.341400
vn -0.999300 -0.031000 -0.018900
vn -0.999900 -0.013800 0.005600
vn -0.999900 -0.013400 0.003400
vn -0.999400 0.003100 0.033800
vn -0.885800 -0.230800 0.402600
vn 0.580700 0.099400 0.808000
vn 0.829400 -0.166900 0.533100
vn 0.572500 0.181200 -0.799600
vn 0.263400 -0.226700 -0.937700
vn 0.000000 -1.000000 0.000000
vn -0.800200 -0.035400 0.598700
vn -0.991400 -0.131200 -0.003300
vn 0.417900 -0.192900 -0.887800
vn 0.800200 0.035400 0.598700
vn 0.885800 0.230800 0.402600
vn -0.580700 -0.099400 0.808000
vn -0.824900 -0.109400 -0.554600
vn -0.264100 0.214400 -0.940400
vn -0.829400 0.166900 0.533100
vn 0.824900 -0.109400 0.554600
vn 0.264100 0.214400 0.940400
vn 0.580700 -0.099400 -0.808000
vn 0.829400 0.166900 -0.533100
vn -0.417900 -0.192900 0.887800
vn -0.885800 0.230800 -0.402600
vn -0.800200 0.035400 -0.598700
vn 0.417900 0.192900 0.887800
vn 0.800200 -0.035400 -0.598700
vn 0.885800 -0.230800 -0.402600
vn -0.264100 -0.214400 0.940400
vn -0.829400 -0.166900 -0.533100
vn -0.580700 0.099400 -0.808000
vn -0.824900 0.109400 0.554600
vn -0.749000 -0.557500 0.358000
vn 0.237600 0.032900 -0.970800
vn -0.880100 -0.474700 -0.008100
vn 0.939100 0.278200 0.201800
vn 0.443300 0.320400 0.837100
vn 0.433600 0.327800 -0.839400
vn -0.991200 0.132100 0.009300
vn 0.519600 0.130600 0.844400
vn 0.587200 -0.454500 -0.669700
vn -0.505200 0.336600 0.794600
vn -0.058700 0.121400 0.990900
vn 0.755900 -0.644400 -0.115500
vn -0.341000 0.264600 -0.902100
vn -0.180700 0.738700 -0.649400
vn -0.596800 -0.758900 0.260400
vn -0.379900 -0.721500 0.578800
vn 0.270700 0.493700 0.826500
vn 0.254800 0.531000 -0.808200
vn 0.113100 -0.088900 0.989600
vn 0.818800 0.177400 0.546000
vn 0.718800 -0.129000 -0.683200
vn -0.658700 0.113100 -0.743800
vn 0.067100 -0.037700 0.997000
vn 0.090600 -0.570300 -0.816400
vn -0.867200 0.473200 -0.155100
vn 0.512900 -0.140000 0.846900
vn -0.008200 0.000000 -1.000000
vn -0.032700 0.010500 -0.999400
vn -0.065400 0.997900 0.000000
vn -0.081900 0.996600 -0.009900
vn -0.025500 0.000000 0.999700
vn 0.000000 0.012000 0.999900
vn -0.833000 -0.553300 -0.001700
vn -0.888900 -0.457700 -0.019000
vn -0.436900 -0.003500 -0.899500
vn -0.973700 0.228000 -0.001200
vn -0.772500 -0.002800 0.635000
vn -0.951900 -0.306400 0.003200
vn 1.000000 0.000000 -0.000000

s off
f 4//1 3//1 2//1
f 2//2 5//2 4//2
f 1//3 5//3 2//3
f 6//4 5//4 1//4
f 7//5 8//5 5//5
f 7//6 5//6 6//6
f 10//7 9//7 1//7
f 6//8 1//8 9//8
f 8//9 3//9 4//9
f 9//10 8//10 7//10
f 10//11 8//11 9//11
f 8//12 10//12 3//12
f 3//13 56//13 13//13
f 14//14 17//14 56//14
f 10//15 56//15 3//15
f 17//16 14//16 15//16
f 56//17 10//17 14//17
f 3//18 13//18 11//18
f 16//19 13//19 17//19
f 16//20 17//20 15//20
f 13//21 16//21 12//21
f 10//22 16//22 14//22
f 12//23 16//23 10//23
f 13//24 12//24 11//24
f 24//25 23//25 19//25
f 18//26 19//26 22//26
f 22//27 19//27 21//27
f 21//28 20//28 22//28
f 23//29 20//29 21//29
f 25//30 26//30 18//30
f 22//30 25//30 18//30
f 22//30 27//30 25//30
f 20//30 27//30 22//30
f 20//30 37//30 27//30
f 28//30 29//30 30//30
f 31//30 28//30 30//30
f 31//30 32//30 28//30
f 33//30 32//30 31//30
f 33//30 26//30 32//30
f 33//30 18//30 26//30
f 24//30 33//30 30//30
f 24//30 30//30 34//30
f 33//30 24//30 18//30
f 20//30 24//30 34//30
f 35//30 37//30 20//30
f 34//30 30//30 29//30
f 36//30 29//30 28//30
f 26//30 25//30 36//30
f 37//30 36//30 25//30
f 36//30 37//30 29//30
f 37//30 35//30 29//30
f 23//30 21//30 19//30
f 24//31 19//31 18//31
f 20//32 23//32 24//32
f 41//33 37//33 40//33
f 39//30 40//30 38//30
f 41//30 40//30 39//30
f 40//34 25//34 38//34
f 40//35 37//35 25//35
f 38//36 25//36 39//36
f 27//37 41//37 39//37
f 37//38 41//38 27//38
f 39//39 25//39 27//39
f 31//40 42//40 44//40
f 30//41 42//41 31//41
f 43//42 33//42 44//42
f 44//43 33//43 31//43
f 42//44 30//44 45//44
f 45//30 44//30 42//30
f 43//30 44//30 45//30
f 45//45 30//45 33//45
f 45//46 33//46 43//46
f 28//47 46//47 36//47
f 48//30 46//30 47//30
f 36//48 48//48 26//48
f 36//49 46//49 48//49
f 46//50 28//50 47//50
f 32//51 48//51 47//51
f 26//52 48//52 32//52
f 47//53 28//53 32//53
f 9//54 49//54 6//54
f 7//55 6//55 51//55
f 6//56 49//56 51//56
f 50//57 9//57 7//57
f 49//58 9//58 50//58
f 50//59 7//59 51//59
f 49//60 52//60 51//60
f 49//61 50//61 5//61
f 5//62 50//62 51//62
f 49//63 4//63 52//63
f 4//64 49//64 8//64
f 5//65 8//65 49//65
f 52//66 5//66 51//66
f 4//67 5//67 52//67
f 16//68 53//68 14//68
f 14//69 53//69 54//69
f 53//70 16//70 15//70
f 54//71 15//71 14//71
f 53//72 15//72 55//72
f 55//73 15//73 56//73
f 56//74 15//74 54//74
f 53//75 56//75 54//75
f 13//76 53//76 55//76
f 17//77 55//77 56//77
f 13//78 56//78 53//78
f 17//79 13//79 55//79
f 20//80 57//80 35//80
f 57//81 20//81 2//81
f 57//82 11//82 58//82
f 11//83 57//83 2//83
f 11//84 29//84 58//84
f 29//85 11//85 34//85
f 20//86 10//86 1//86
f 34//87 10//87 20//87
f 20//88 1//88 2//88
f 2//89 3//89 11//89
f 12//90 34//90 11//90
f 10//91 34//91 12//91
f 29//92 57//92 58//92
f 57//92 29//92 35//92
